<svg width="126" height="84" viewBox="0 0 126 84" fill="none" xmlns="http://www.w3.org/2000/svg">
<path d="M106.144 136.462C106.512 136.25 106.738 135.865 106.911 135.481C107.992 133.09 107.529 130.288 106.717 127.791C105.262 123.336 102.789 119.293 100.367 115.287C89.2244 96.8585 80.3614 81.3069 70.3471 62.2457L66.6679 55.4979C65.034 56.6124 61.4794 57.5424 59.8455 58.6568C60.4785 62.1639 61.9178 65.4674 63.4181 68.6987C68.8416 80.3573 75.2757 91.5113 81.7015 102.65C85.7734 109.712 89.8505 116.772 93.9223 123.834C96.5733 128.425 99.3859 133.195 103.859 136.041C104.547 136.481 105.436 136.869 106.144 136.462ZM95.0662 118.448C94.918 117.97 94.8826 117.293 95.3538 117.138C95.6666 117.035 95.9809 117.252 96.2323 117.463C99.5869 120.274 102.092 124.081 103.353 128.268L103.046 129.299C99.2886 126.702 96.4304 122.818 95.0662 118.448Z" fill="#1E893C" stroke="#115624" stroke-width="3" stroke-miterlimit="10" stroke-linecap="round" stroke-linejoin="round"/>
<path d="M66.4211 55.669C66.4211 55.669 64.6402 29.6232 65.6688 15.7352C66.6973 1.84713 52.5791 -17.0489 39.7063 -14.9295C26.8335 -12.81 25.8615 -18.3933 22.6551 -13.576C19.4487 -8.75875 12.7077 -2.73713 13.0747 10.0804C13.4417 22.898 23.3711 32.07 25.8385 33.8491C28.3059 35.6281 42.0081 43.3398 43.9482 44.4516C45.8884 45.5635 59.6417 56.0248 60.074 58.4756L66.4211 55.669Z" fill="#1E893C" stroke="#115624" stroke-width="3" stroke-miterlimit="10" stroke-linecap="round" stroke-linejoin="round"/>
<path d="M22.0583 -10.0507C25.3548 3.20324 31.6319 15.7066 40.2929 26.2691C48.4423 36.2124 58.7628 44.5998 64.6503 56.0281" fill="#1E893C"/>
<path d="M22.0583 -10.0507C25.3548 3.20324 31.6319 15.7066 40.2929 26.2691C48.4423 36.2124 58.7628 44.5998 64.6503 56.0281" stroke="#115624" stroke-width="3" stroke-miterlimit="10" stroke-linecap="round" stroke-linejoin="round"/>
<path d="M21.152 -9.60518C19.8086 -4.40046 20.1943 1.0773 20.5889 6.44097C20.7325 8.39259 20.8846 10.3728 21.5474 12.2105C22.44 14.6981 24.2053 16.7645 25.999 18.7097C38.1027 31.8381 53.0798 42.2018 64.3023 56.0905" fill="#1E893C"/>
<path d="M21.152 -9.60518C19.8086 -4.40046 20.1943 1.0773 20.5889 6.44097C20.7325 8.39258 20.8846 10.3728 21.5474 12.2105C22.44 14.6981 24.2053 16.7645 25.999 18.7097C38.1027 31.8381 53.0798 42.2018 64.3023 56.0905" stroke="#115624" stroke-width="3" stroke-miterlimit="10" stroke-linecap="round" stroke-linejoin="round"/>
<path d="M15.6156 17.3111C21.29 25.0188 30.4443 29.1521 38.6578 34.0709C43.3499 36.88 47.8385 40.0293 52.072 43.4899" fill="#1E893C"/>
<path d="M15.6156 17.3111C21.29 25.0188 30.4443 29.1521 38.6578 34.0709C43.3499 36.88 47.8385 40.0293 52.072 43.4899" stroke="#115624" stroke-width="3" stroke-miterlimit="10" stroke-linecap="round" stroke-linejoin="round"/>
<path d="M22.2257 -8.91405C23.2955 -11.4813 26.8655 -12.1644 29.3919 -11.0032C31.9183 -9.84206 33.5918 -7.41869 35.043 -5.04598C39.5681 2.34526 43.1411 10.2762 46.5307 18.255C51.8045 30.6724 56.8709 43.5846 66.0986 53.4248" fill="#1E893C"/>
<path d="M22.2257 -8.91405C23.2955 -11.4813 26.8655 -12.1644 29.3919 -11.0032C31.9183 -9.84206 33.5918 -7.41869 35.043 -5.04598C39.5681 2.34526 43.1411 10.2762 46.5307 18.255C51.8045 30.6724 56.8709 43.5846 66.0986 53.4248" stroke="#115624" stroke-width="3" stroke-miterlimit="10" stroke-linecap="round" stroke-linejoin="round"/>
<path d="M30.412 -13.9316C35.7283 -11.1265 40.5252 -7.32932 44.4691 -2.79344C54.3771 8.58694 58.45 23.7739 62.2283 38.382C63.2608 42.3659 64.2927 46.3799 64.5783 50.486" fill="#1E893C"/>
<path d="M30.412 -13.9316C35.7283 -11.1265 40.5252 -7.32932 44.4691 -2.79344C54.3771 8.58694 58.45 23.7739 62.2283 38.382C63.2608 42.3659 64.2927 46.3799 64.5783 50.486" stroke="#115624" stroke-width="3" stroke-miterlimit="10" stroke-linecap="round" stroke-linejoin="round"/>
<path d="M36.2504 -14.7045C42.3757 -11.9421 46.7072 -6.31016 50.0697 -0.494042C58.1468 13.4807 62.019 29.4239 65.7946 45.1171" fill="#1E893C"/>
<path d="M36.2504 -14.7045C42.3757 -11.9421 46.7072 -6.31016 50.0697 -0.494043C58.1468 13.4807 62.019 29.4239 65.7946 45.1171" stroke="#115624" stroke-width="3" stroke-miterlimit="10" stroke-linecap="round" stroke-linejoin="round"/>
<path d="M69.8372 61.0258C66.9962 60.1016 63.7255 60.6122 61.2986 62.3539L69.8372 61.0258Z" fill="#1E893C"/>
<path d="M69.8372 61.0258C66.9962 60.1016 63.7255 60.6122 61.2986 62.3539" stroke="#115624" stroke-width="3" stroke-miterlimit="10" stroke-linecap="round" stroke-linejoin="round"/>
</svg>
