<svg width="120" height="161" xmlns="http://www.w3.org/2000/svg">
 <defs>
  <clipPath id="clip0">
   <rect id="svg_1" x="19.4224" y="0.05762" transform="rotate(7.109899997711182 19.422399520874023,0.0576171986758882) " fill="white" height="149.532" width="100.644"/>
  </clipPath>
 </defs>
 <g>
  <title>background</title>
  <rect fill="none" id="canvas_background" height="602" width="802" y="-1" x="-1"/>
 </g>
 <g>
  <title>Layer 1</title>
  <path id="svg_76" fill="#1E1F1F" d="m82.136,130.898c0.036,0.037 0.036,0.037 0.073,0.037c0,-0.037 -0.037,-0.037 -0.073,-0.037z"/>
  <path id="svg_2" fill="#1E1F1F" d="m85.063,116.966l0.037,0.183c0,-0.11 -0.037,-0.183 -0.037,-0.183z"/>
  <path id="svg_3" fill="#1E1F1F" d="m80.438,139.243c-0.036,0.11 -0.073,0.294 -0.145,0.551l0.145,-0.551z"/>
  <path id="svg_4" fill="#1E1F1F" d="m82.642,85.644l0.217,0.111c-0.109,-0.074 -0.145,-0.111 -0.217,-0.111z"/>
  <path id="svg_5" fill="#1E1F1F" d="m86.727,104.613c-0.037,-0.073 -0.037,-0.147 -0.037,-0.257c0,0.11 0,0.221 0.037,0.257z"/>
  <path id="svg_6" fill="#1E1F1F" d="m77.655,143.324l0.181,-0.221c-0.073,0 -0.145,0.074 -0.181,0.221z"/>
  <path id="svg_7" fill="#1E1F1F" d="m77.872,148.691c0,-0.074 0,-0.147 0,-0.258c-0.036,0.111 -0.072,0.258 0,0.258z"/>
  <path id="svg_8" fill="#1E1F1F" d="m25.289,159.205c-0.108,0.22 -0.144,0.441 -0.181,0.698l0.181,-0.698z"/>
  <path id="svg_9" fill="#1E1F1F" d="m54.056,81.454l0.036,-0.111c-0.072,0.074 -0.072,0.111 -0.036,0.111z"/>
  <path id="svg_10" fill="#1E1F1F" d="m26.156,160.05l-0.108,0.147c0.072,-0.037 0.108,-0.073 0.108,-0.147z"/>
  <path id="svg_11" fill="#1E1F1F" d="m78.089,138.728c-0.073,-0.257 0.144,-0.735 0.036,-0.771c-0.036,0.294 -0.217,0.624 -0.036,0.771z"/>
  <path id="svg_12" fill="#1E1F1F" d="m55.972,89.063l-0.037,0.147c0.037,-0.073 0.037,-0.11 0.037,-0.147z"/>
  <path id="svg_13" fill="#1E1F1F" d="m26.156,160.05l0.145,-0.147c-0.036,0 -0.072,0 -0.072,0.037c-0.036,0.037 -0.036,0.073 -0.073,0.11z"/>
  <path id="svg_14" fill="#1E1F1F" d="m45.202,111.378c0,-0.111 0.036,-0.221 0.036,-0.331c-0.072,0.147 -0.072,0.257 -0.036,0.331z"/>
  <path id="svg_15" fill="#1E1F1F" d="m25.108,159.866l-0.108,0.405c0.072,-0.147 0.072,-0.258 0.108,-0.405z"/>
  <path id="svg_16" fill="#1E1F1F" d="m40.07,126.634c0,-0.037 0.037,-0.11 0.037,-0.147c-0.037,0.037 -0.037,0.11 -0.037,0.147z"/>
  <path id="svg_17" fill="#1E1F1F" d="m86.582,105.753c0,0.037 -0.037,0.073 -0.037,0.147c0,0 0.037,0 0.037,-0.147z"/>
  <path id="svg_18" fill="#1E1F1F" d="m83.582,94.945c0.036,-0.184 -0.073,-0.441 -0.181,-0.551c0,0.184 0.036,0.331 0.181,0.551z"/>
  <path id="svg_19" fill="#1E1F1F" d="m82.968,102.628c0.036,-0.036 0.036,-0.11 0.072,-0.147c0,0 -0.036,0.074 -0.072,0.147z"/>
  <path id="svg_20" fill="#1E1F1F" d="m60.416,85.24c0.868,0.037 1.988,0.147 3.144,0.368c0.29,0.073 0.615,0.11 0.904,0.183c0.325,0.074 0.614,0.148 0.903,0.221c0.615,0.147 1.193,0.294 1.699,0.478c0.542,-0.147 1.229,0.037 1.915,0.147l-0.036,0.368l0.615,0.036c0.216,0.184 -0.47,-0.036 -0.073,0.184l0.289,-0.184c0,0.147 1.446,0.478 0.398,0.478l2.204,0.625c0.47,0.147 0.362,-0.22 0.868,0c0.072,0.147 -0.217,0.037 -0.217,0.147c1.554,0.699 2.06,-0.184 3.542,0.405l-0.145,0c0.289,-0.037 0.759,0.11 0.795,0.073c-0.108,-0.404 -0.325,0.11 -0.723,-0.22c0.109,-0.294 0.615,0 0.651,-0.258c0.325,0.221 0.578,0.074 0.903,0.147c0.47,0.331 1.229,0.405 1.482,0.772c0.253,-0.036 0.614,-0.22 1.048,-0.036c0.181,0.367 -0.145,0.183 0.181,0.441l0.144,-0.147c0.289,0.183 0.217,0.22 0.145,0.294c0.289,0.184 0.397,-0.074 0.65,0.294c-0.108,0 -0.18,0 -0.289,0c0.289,0.11 0.362,0.22 0.578,0.515c-0.072,0.073 -0.18,-0.074 -0.216,-0.148c-0.037,0.184 0.036,0.221 0.144,0.221c0.109,0 0.217,0 0.217,0.074c0.036,-0.074 -0.108,-0.295 0.108,-0.331c0.109,0.184 0.47,0.22 0.362,0.478c-0.109,-0.037 -0.181,-0.074 -0.253,-0.111c0.325,0.294 0.325,0.074 0.506,0.625c-0.036,-0.036 -0.072,0 -0.109,0c0.362,0.221 0.289,0.772 0.398,1.36l-0.072,-0.11c0.108,0.221 0.289,0.331 0.289,0.478c0.036,-0.368 0.108,-0.294 0.289,-0.331c-0.217,0.515 0.434,0.699 0.325,1.544c-0.108,0 -0.253,-0.184 -0.144,-0.441c-0.326,-0.257 -0.579,-0.257 -0.795,-0.698c0.108,0.257 0.18,0.625 0.036,0.551l0.289,0.074c0.036,0.183 0,0.33 0.036,0.477c0.181,0.074 0.289,-0.404 0.434,0.037c0.108,0.478 -0.29,0.258 -0.145,0.331c0.145,0.699 0.325,0.294 0.217,0.956c-0.036,-0.074 -0.072,-0.184 -0.036,-0.257c-0.109,0.477 0.036,1.213 -0.289,1.36c-0.073,-0.074 -0.181,-0.074 -0.145,-0.258l0.036,0c-0.253,-0.551 0.072,0.442 -0.253,0.294c0.181,-0.036 0.145,0.662 0.109,0.956l0.216,-0.11c0.615,1.066 -0.433,-0.074 -0.361,0.956c0.145,0.662 0.072,-0.258 0.217,0.147c-0.036,0.441 -0.253,0.588 -0.181,1.25c-0.108,0.184 -0.217,0.551 -0.47,0.551c0.073,0.405 -0.18,1.177 0.037,1.397c0.252,-0.662 -0.217,-0.662 0.144,-1.434l0.217,0.221c-0.036,0.551 0.036,1.25 -0.072,1.618c0.036,-0.074 0.108,-0.111 0.144,-0.037c0.036,0.772 0.253,1.029 0.109,1.764c-0.217,0.074 -0.145,-0.367 -0.145,-0.661c-0.217,0.478 -0.036,0.514 -0.181,1.25c-0.18,0.036 0.036,-0.515 -0.108,-0.625l0,0.845l-0.036,0c0.289,0.147 -0.072,0.625 -0.036,1.14c-0.109,1.213 0.253,1.433 0.433,2.132c-0.108,0.184 -0.18,0.22 -0.253,0.147c0.181,-0.294 0.073,-0.257 0,-0.368c0,0.405 -0.397,0.846 -0.506,0.625c0,0.662 0.181,-0.22 0.253,0.184l-0.108,0.882c0.181,-0.073 0.253,-0.404 0.289,0.074c0,0.404 -0.036,0.588 -0.144,1.066c-0.073,-0.074 -0.253,0.147 -0.217,-0.257c-0.073,0.22 -0.145,0.625 0,0.772c0.217,-0.552 0.036,0.919 0.325,0.551l-0.217,0.551c0.036,-0.11 -0.072,-0.147 -0.036,-0.33c-0.253,0.11 0,0.478 0,0.661c-0.072,0.184 -0.181,0.699 -0.253,0.736c0.036,0.183 -0.072,0.588 -0.217,0.661c0,0.258 0.145,0.037 0.217,0.147l-0.145,0.883c-0.144,0.036 -0.506,0.036 -0.542,-0.111c0.073,0.368 0.362,0.184 0.289,0.699c-0.216,-0.331 -0.289,0.625 -0.542,0.184c-0.216,0.257 -0.361,1.102 -0.361,1.544c0.145,0.33 0.181,-0.478 0.398,-0.405c-0.109,1.287 0.433,1.471 0.18,2.39l0.109,-0.221c0.036,0.588 0,0.552 0.144,0.919c-0.217,-0.22 -0.795,0.552 -0.903,1.507c0.108,0.111 0.325,-0.514 0.506,-0.294l-0.073,0.662c-0.036,0.037 -0.072,-0.037 -0.072,-0.11c0,0.588 -0.506,1.029 -0.253,1.213l-0.47,0.515l0.181,-0.221c0.108,0.11 0.036,0.735 0.072,0.882c0.036,0.699 -0.108,0.919 -0.325,1.25c0.108,-0.11 0.398,-0.331 0.361,0.184c-0.397,-0.074 -0.325,1.066 -0.542,0.993c-0.036,0.22 -0.216,0.551 -0.072,0.625l-0.253,-0.074c0.361,0.11 0.217,0.882 0.181,1.47c-0.47,-0.22 -0.072,0.662 -0.578,0.809c0.325,0.184 -0.037,1.066 0.216,1.213c-0.072,0.442 -0.361,0.368 -0.506,0.442l0.073,0.22c-0.181,0.184 -0.362,1.029 -0.542,1.507l0.216,0.515l-0.18,0.147c0.072,0.074 0.036,0.478 0.18,0.257l-0.072,0.258c0.325,0.073 0.036,0.367 0.072,0.882c-0.072,0.11 -0.144,0.073 -0.18,-0.037c-0.036,0.258 -0.181,0.11 -0.325,0.221c0.108,-0.147 0.433,0.992 0.686,0.367c0.145,-0.036 0.181,0.405 0.072,0.625l-0.325,0.111l0.253,0.367c-0.036,0.405 -0.253,0.515 -0.325,0.846c0.036,-0.331 -0.434,-0.809 -0.578,0c0.036,-0.441 -0.073,-0.699 -0.109,-0.919c-0.036,0.184 -0.072,0.257 -0.144,-0.037c-0.036,0.662 0.144,0.257 0.072,0.882c-0.253,-0.073 -0.361,0.074 -0.542,0.625l0.253,-0.367c0.036,0.036 0.036,0.073 0.072,0.11c0.072,-0.147 0.109,-0.184 0.217,-0.221c-0.036,0.111 0.181,0.809 0,0.883c0.506,-0.589 0.108,1.176 0.434,0.808c0.072,0.074 0,0.552 -0.145,0.552c-0.108,-0.588 -0.361,0.367 -0.542,0.22c0.036,0.221 0.253,-0.404 0.325,-0.11c-0.036,0.331 -0.253,0.515 -0.361,0.699l-0.036,-0.148l-0.217,0.478c0.108,0.111 0.289,-0.441 0.289,0.037c-0.072,0.11 -0.072,0.588 -0.181,0.552c-0.144,-0.258 -0.397,-0.148 -0.361,-0.515c-0.036,0.331 -0.181,1.36 0.144,0.992l-0.072,0.368c0.145,-0.22 0.47,-0.845 0.362,-0.073l-0.037,0l0.109,0.588l-0.181,0.22c0.072,0 0.109,0.111 0.072,0.294c-0.072,0.037 -0.144,0.221 -0.253,0.184c-0.072,0.588 0.037,0.552 0.109,0.662c-0.036,0.331 -0.109,0.441 -0.253,0.257c-0.109,0.441 -0.217,1.213 -0.398,1.471c0,0.625 0.073,-0.111 0.181,0.257c-0.542,0.441 -0.506,1.912 -0.614,2.867c0.433,-0.183 0,0.258 0.325,0.515c-0.072,-0.22 -0.47,0.846 -0.434,0l-0.036,0.515c-0.289,0.294 0,-0.882 -0.397,-0.405c-0.073,0.589 0.289,1.03 0,1.691c-0.253,-0.294 0,0.552 -0.29,0.295c-0.072,-0.147 0,-0.331 0,-0.552l-0.072,0.11c-0.289,1.25 0.253,0.442 0.325,1.14c-0.108,0.772 -0.325,0.551 -0.469,0.588c-0.073,0.111 -0.109,0.515 -0.073,0.735c-0.072,-0.514 0.326,-0.845 0.47,-0.588c-0.361,0.294 -0.217,1.14 -0.144,1.36c0.542,-1.029 0.144,-0.772 0.686,-1.727c-0.072,-0.147 -0.361,-0.184 -0.144,-0.772c0.072,0.404 0.144,0 0.217,-0.111c-0.181,0.074 0,-0.441 -0.037,-0.661c0.145,-0.147 0.326,0.441 0.47,-0.184l-0.361,-0.184c0.108,-0.221 0.253,0.147 0.253,-0.368c0.144,0.331 0.325,-0.036 0.253,0.699c0.47,-0.772 0.036,-1.324 0.036,-2.022c0,0.074 0.072,0.074 0.072,0.147c-0.072,-0.147 -0.036,-0.404 0,-0.625c0.145,-0.404 0.109,0.368 0.253,0.294l0.109,-0.698l0.036,0c-0.036,-0.184 -0.036,-0.368 0.072,-0.405c0.072,0.221 0.217,0.331 0.289,0.515l-0.144,-0.772c0.108,0.11 0.325,-0.551 0.325,-0.037l0.144,-1.103l0.29,-0.036c0,-0.258 -0.037,-0.294 -0.145,0.036c0.108,-0.367 -0.181,-1.727 0.325,-1.433c-0.072,-0.883 0.072,-1.177 0.109,-2.243c0.108,0.846 0.469,-0.845 0.433,0c0.217,-0.478 -0.072,-0.625 -0.036,-1.029c0.181,-0.331 0.398,-0.147 0.434,0.294l-0.036,-0.478l0.036,0l-0.072,-0.441c0.216,-0.404 0.289,-0.037 0.397,-0.478l-0.217,-0.147l0.181,-0.257c-0.108,0.11 -0.108,-0.184 -0.072,-0.515l0.036,0l0.036,-0.404c0.072,0.404 0.108,-0.331 0.253,-0.147c0.072,-0.331 0.072,-0.331 0.144,-0.956l-0.18,0.073c0,-0.808 0.253,0 0.361,-0.625l-0.181,0c0.47,-0.845 0.109,-1.58 0.398,-2.205c-0.036,0.404 0.217,0.33 0.145,0.33c0.036,-0.588 0.253,-1.544 0.144,-2.168c0.289,-0.184 0.398,-0.221 0.614,-0.809c0.073,-0.441 0.037,-0.515 -0.072,-0.699c0.181,-0.404 0.181,-1.25 0.362,-1.25c-0.145,-0.11 0.108,-0.404 0,-0.661l0.072,-0.037l-0.181,0c0.542,-0.699 0,-1.36 0.47,-2.059l0.036,0.147l0,-0.331c0.072,-0.036 0.109,0.111 0.217,0.148l0.289,-1.508l-0.181,0.294c0.037,-0.33 -0.108,-0.588 0.073,-0.919c0.18,0.662 0.108,-0.514 0.325,-0.551l0,0.331c0.072,-0.441 0.072,-0.441 -0.145,-0.441c0.036,-0.589 0.398,-0.331 0.289,-0.919l-0.072,0.367c-0.108,0.11 -0.217,-0.22 -0.18,-0.441c0.036,-0.073 0.144,-0.221 0.144,-0.037c0,-0.478 0.217,-1.139 0.181,-1.36c0.108,-0.22 0.217,-0.147 0.253,0c0,-0.992 0.108,-0.441 0.108,-1.434l0.109,0.037l-0.073,-0.367l0.289,-0.442l-0.144,0.147c0.036,-0.33 0,-0.551 0.108,-0.919l0.145,0.184c0.072,-0.919 0.433,-1.029 0.325,-1.911c0.036,-0.037 0.072,0.073 0.072,0.147c-0.108,-0.846 0.362,-0.552 0.181,-1.434c0.036,0.073 0.108,-0.037 0.145,0l-0.037,-0.368l0.217,0.074l-0.108,-0.294l0.253,-0.184l-0.072,-0.147c0.469,-0.331 0.253,-0.919 0.614,-1.434l-0.289,0.037c-0.362,-1.434 0.723,-3.088 0.65,-4.779l0.217,0.037l-0.181,-0.699c0.217,-0.331 0.145,0.258 0.29,0.147c-0.037,-0.735 -0.29,-0.331 -0.253,-1.213c0.18,-0.404 0.144,0.184 0.18,0.368c0,-0.809 0,-1.985 0.145,-2.574c-0.036,0 -0.072,-0.036 -0.072,-0.036c-0.037,-0.552 0.108,-1.25 0.144,-1.838c0.109,0.036 0.109,0.183 0.109,0.33c0.036,-0.22 0.108,-0.514 0.036,-0.698l0.144,0.221c0.073,-0.442 -0.036,-1.324 0.181,-1.434c-0.072,0.037 -0.253,0 -0.217,-0.368c0.325,-0.184 -0.072,-1.066 0.109,-1.691c0.072,0.074 0.072,0.552 0.072,0.405c0.108,-0.331 -0.036,-0.589 -0.109,-0.883l0.109,0.074c-0.036,-0.478 -0.072,-0.993 -0.145,-1.471c0.326,-0.22 0,-1.397 0.217,-1.286c0,-0.515 -0.144,0.441 -0.181,-0.221c0.145,-0.184 -0.072,-0.588 0.145,-0.588l0.036,0.073l0,-0.477l0.217,0.294c-0.036,-0.405 -0.253,-0.699 -0.398,-0.699c0.109,-0.404 0,-0.956 0.181,-1.139l0.072,0.147c-0.072,-0.552 0.037,-1.067 0.109,-1.544c0.072,-0.478 0.072,-0.956 -0.217,-1.397c0,-0.074 0.072,-0.074 0.108,0.073c-0.072,-0.257 -0.108,-0.515 -0.18,-0.809l0.217,0.147c-0.217,-0.441 -0.398,-0.845 -0.687,-1.249l0.108,-0.037c-0.144,-0.441 -0.47,-1.03 -0.867,-1.581c-0.398,-0.551 -0.94,-1.103 -1.446,-1.47l0.181,0.073c-0.578,-0.368 -0.831,-0.551 -1.048,-0.735c-0.217,-0.184 -0.398,-0.331 -0.831,-0.478c0.036,0 0.072,0 0.108,0c-0.253,-0.11 -0.506,-0.221 -0.723,-0.331l0.217,-0.037c-0.614,-0.036 -1.409,-0.845 -1.156,-0.551c-0.325,0 -0.831,-0.037 -0.976,0.073c-0.723,-0.183 -0.144,-0.183 -0.542,-0.404c-0.506,-0.147 -0.614,0 -1.265,-0.257l0.036,-0.111c-0.325,-0.073 -0.542,-0.036 -0.975,-0.147l0.144,0c-0.759,0.037 -0.795,-0.551 -1.482,-0.257c-0.289,-0.147 -0.867,-0.257 -0.759,-0.441c-0.903,-0.11 -1.626,-0.221 -2.493,-0.405c-0.036,-0.367 -0.181,-0.036 -0.687,-0.367l0,0.184c-1.229,-0.331 -2.53,-1.14 -3.903,-1.471l0,-0.184l-0.325,0.111c-0.723,-0.258 -1.554,-0.515 -2.349,-0.772c-0.831,-0.258 -1.699,-0.478 -2.349,-0.625c-0.47,0 -1.157,0.11 -1.879,-0.037l0.072,0c-0.325,0 -0.651,0 -0.976,0c-0.361,0.037 -0.687,0 -1.048,0.037c-0.723,0.037 -1.482,0.147 -2.277,0.294c0.073,-0.11 -0.108,-0.11 0.073,-0.221c-0.181,0.147 -0.398,0.221 -0.651,0.294c-0.253,0.074 -0.506,0.111 -0.651,0.184l0.47,-0.037c-0.18,0.184 -0.47,0.295 -0.722,0.405c-0.253,0.11 -0.506,0.147 -0.651,0.184c-0.217,0.183 -0.361,0.441 -0.542,0.661c-0.036,0 -0.145,0.037 -0.181,0.037c-0.036,0.037 -0.036,0.11 -0.036,0.184c-0.144,0.037 -0.325,0.073 -0.47,0.11c-0.072,0.11 -0.289,0.331 -0.433,0.625c-0.181,0.294 -0.326,0.625 -0.289,0.846c-0.109,0 -0.543,0.625 -0.29,0.11c-0.506,0.809 -0.831,1.654 -1.084,2.426l0.181,-0.331c0.181,0 0.072,0.736 -0.072,1.066c-0.037,-0.477 -0.253,-0.11 -0.434,0.074c0.036,0.331 0.217,-0.221 0.289,-0.037c0.036,0.405 -0.072,1.213 -0.181,1.36l-0.036,-0.22c-0.036,0.478 -0.361,0.662 -0.433,1.103c0.072,0.404 -0.109,0.698 0.216,0.661c-0.036,0.589 -0.253,0.184 -0.325,0.368c0.109,0.294 -0.144,1.066 -0.325,1.14c0.397,0.404 -0.434,1.507 -0.072,1.691l-0.29,0.441c0.109,0.037 0.326,0.184 0.29,0.551c-0.181,0.331 -0.362,0.221 -0.47,0.294l0.325,0.331c-0.434,0.993 -0.723,2.169 -0.976,3.382c-0.289,1.213 -0.614,2.427 -1.048,3.529c-0.144,1.03 -0.325,2.316 -0.686,3.456l0,-0.147l-0.398,1.14l0.398,-0.809c-0.037,0.257 0,0.478 -0.073,0.735c-0.253,0.625 -0.506,1.323 -0.795,2.095c-0.253,0.772 -0.506,1.581 -0.65,2.353c0.144,1.14 -0.578,0.552 -0.542,1.618c0,-0.111 -0.073,-0.147 -0.073,-0.221c-0.18,1.066 -0.289,1.654 -0.361,2.757c-0.398,-0.257 -0.217,0.662 -0.398,0.515l0.145,0.147c-0.181,0.184 -0.398,0.735 -0.47,0.588l0.072,0.515l-0.18,-0.037c-0.217,0.588 -0.506,1.912 -0.976,2.132c-0.108,0.772 -0.397,1.765 -0.759,2.757c-0.361,0.993 -0.795,2.022 -1.156,2.941c0.036,0.331 -0.145,0.846 -0.289,1.287l-0.362,0.368c-0.108,0.441 -0.036,0.992 -0.325,1.36c-0.036,0 -0.036,-0.037 -0.036,-0.074c-0.145,0.441 -0.398,0.809 -0.362,1.287c-0.18,0.478 -0.506,0.882 -0.614,0.662c0.325,0.183 -0.434,0.992 -0.434,0.992c0,0 -0.686,1.471 -1.734,3.787c-1.048,2.316 -2.53,5.44 -4.084,8.749c-3.108,6.617 -6.794,13.822 -7.553,17.094c0.036,0.294 -0.145,0.846 0.144,0.772c-0.18,0.441 -0.542,0.441 -0.433,0.625c0.397,-0.478 0.325,0.405 0.795,0l-0.145,0.368c0.072,0.147 0.145,-0.552 0.289,-0.331l-0.253,-0.257c0.217,-0.258 0.362,-0.368 0.506,-0.405c0.036,-0.331 -0.253,-0.735 0.253,-1.25l-0.072,0.184c0.289,-0.515 0.361,-0.184 0.47,-0.294l-0.073,0.11l0.398,-0.331c-0.289,0.258 -0.361,0.956 -0.217,0.662c0.434,-0.551 -0.144,0.11 0.072,-0.367c0.145,-0.295 0.253,-0.111 0.326,-0.037l0.289,-0.515c0.108,0.11 -0.181,0.331 0.072,0.221l0.217,-0.736c0.397,0.074 0.217,-0.772 0.723,-0.882c-0.181,0.515 0.144,0.037 0.217,0.147l0.614,-1.139c0.108,-0.074 -0.072,0.367 0.036,0.183c0.217,-0.147 0.109,-0.404 0.181,-0.514c0.144,-0.037 0.47,-0.846 0.686,-0.699c0.579,-0.698 -0.108,-0.478 0.398,-1.139c0.181,0 -0.289,0.588 0.036,0.367l0.361,-0.772c0.037,0.111 0.145,0.258 -0.036,0.552c1.265,-1.912 2.566,-2.647 3.361,-4.596c0.289,-0.183 0,0.258 0.036,0.478c0.47,-1.47 1.338,-1.727 1.88,-2.904l-0.145,-0.11c1.265,-1.397 1.916,-3.529 2.964,-5.294l-0.217,0.184c0,-0.331 0.18,-0.735 0.253,-1.066c0.108,0 0.217,0.368 0.397,-0.221c-0.108,0.074 -0.253,0.294 -0.289,0.184c0.542,-0.735 1.193,-1.948 1.843,-3.308c0.687,-1.361 1.301,-2.905 1.988,-4.191c0.361,-0.919 0.723,-1.838 1.12,-2.794c0.398,-0.919 0.795,-1.875 1.193,-2.831c0.361,-0.956 0.759,-1.911 1.12,-2.83c0.361,-0.956 0.723,-1.875 1.012,-2.794c-0.181,0.551 -0.47,0.183 -0.217,-0.184c1.012,-0.919 0.578,-2.022 1.41,-3.051c0.253,-1.103 0.65,-2.096 1.048,-3.088c0.361,-0.993 0.722,-1.949 0.759,-3.052l0.18,0c0.181,-0.294 0.073,-0.404 0.145,-0.735l0.036,0.037c0.289,-0.735 0.361,-1.691 0.578,-2.095l-0.181,-0.074c0.109,-0.441 0.217,-0.184 0.253,-0.662l0.109,0.037c0,-0.184 -0.036,-0.404 -0.036,-0.588c0.325,0.147 0.361,-1.25 0.614,-1.581c0.109,-0.588 0.217,-1.728 0.542,-2.573c0.217,-0.11 0.47,-1.213 0.759,-1.875c0.289,-1.36 0.687,-3.272 1.084,-5l-0.253,-0.036l0.073,-0.442c0.036,0 0.072,-0.036 0.108,0.037c0.325,-0.294 0.145,-1.066 0.361,-1.397c-0.253,0.184 -0.108,0.294 -0.144,0.552c-0.181,0.331 -0.325,-0.037 -0.109,-0.515l0.037,0.037l-0.037,-0.368c0.181,0 0.326,-0.294 0.543,-0.294c0.252,-1.507 0.108,-2.573 0.469,-4.08c0.181,0.183 0.145,-1.103 0.434,-0.736c0.036,-0.956 -0.325,0.111 -0.47,-0.367c0.072,-0.258 0,-0.552 0.145,-0.552c0.072,0.147 0.253,-0.147 0.253,0.037l0.072,-0.588c0.036,-0.037 0.072,0.073 0.072,0.147c0,-1.177 0.615,-1.765 0.723,-2.39c-0.108,-0.11 -0.145,0.221 -0.253,0.111c0.036,-0.368 0.145,-0.442 0.289,-0.515c0.145,-0.074 0.217,-0.074 0.362,-0.331c0,0.074 0.036,0.147 0.072,0.184c0,-0.11 0,-0.184 0.036,-0.257c0.036,-0.074 0.108,-0.111 0.253,-0.147c0.072,0.073 0.072,0.147 0.036,0.22c-0.036,0.074 -0.108,0.11 -0.108,0.184c0.036,-0.037 0.072,-0.074 0.108,-0.11c0.036,-0.037 0.072,-0.074 0.109,-0.147c0.072,-0.074 0.108,-0.184 0,-0.221c0.036,-0.037 0.072,-0.073 0.108,-0.073c0.036,0 0.072,0 0.108,0c0.073,0 0.145,0.036 0.217,0.073c0,-0.037 -0.253,-0.037 -0.144,-0.184c0.325,0 0.867,-0.147 1.445,-0.147c0,0.037 0.036,0.147 0,0.147c0.217,-0.147 0.325,-0.11 0.434,-0.037c-0.361,0.258 -0.217,0.368 0.108,0.368z"/>
  <path id="svg_21" fill="#1E1F1F" d="m82.787,105.275l0.072,-0.294c-0.036,0 -0.109,-0.037 -0.145,-0.184l0.073,0.478z"/>
  <path id="svg_22" fill="#1E1F1F" d="m82.751,91.526c-0.036,-0.037 -0.036,-0.036 -0.073,-0.036c0,0.036 0.037,0.036 0.073,0.036z"/>
  <path id="svg_23" fill="#1E1F1F" d="m81.016,90.056c0.18,0.036 0.072,-0.074 0.036,-0.184c-0.036,0.037 -0.036,0.11 -0.036,0.184z"/>
  <path id="svg_24" fill="#1E1F1F" d="m82.389,113.546c0,-0.073 -0.036,-0.11 -0.072,-0.073c0.036,0.073 0.036,0.073 0.072,0.073z"/>
  <path id="svg_25" fill="#1E1F1F" d="m78.522,136.229c0,-0.037 0.037,-0.037 0.037,-0.074c0,0 -0.037,0.037 -0.037,0.074z"/>
  <path id="svg_26" fill="#1E1F1F" d="m79.064,135.015c0,-0.073 0.037,-0.147 0,-0.257c-0.036,0.11 -0.036,0.221 0,0.257z"/>
  <path id="svg_27" fill="#1E1F1F" d="m83.003,108.032c0,-0.073 0.001,-0.184 -0.036,-0.257c-0.036,0.147 0,0.221 0.036,0.257z"/>
  <path id="svg_28" fill="#1E1F1F" d="m79.064,134.501l0.073,-0.331l-0.037,0l-0.036,0.331z"/>
  <path id="svg_29" fill="#1E1F1F" d="m78.414,136.633c0.036,-0.11 0.072,-0.294 0.108,-0.404c-0.108,0.147 -0.108,0.257 -0.108,0.404z"/>
  <path id="svg_30" fill="#1E1F1F" d="m81.377,121.928c0,0 0,-0.037 0,0c-0.036,-0.294 -0.036,-0.147 0,0z"/>
  <path id="svg_31" fill="#1E1F1F" d="m78.957,133.067l0,-0.037l-0.037,-0.11l0.037,0.147z"/>
  <path id="svg_32" fill="#1E1F1F" d="m78.089,137.993c0,-0.074 0,-0.11 0,-0.147c0,0.037 -0.036,0.11 -0.073,0.184c0.037,-0.037 0.073,-0.037 0.073,-0.037z"/>
  <path id="svg_33" fill="#1E1F1F" d="m80.257,126.634c0.072,0.11 0.108,0.147 0.144,0.147c0.037,-0.11 0,-0.184 -0.144,-0.147z"/>
  <path id="svg_34" fill="#1E1F1F" d="m101.651,49.067c0,0.036 0.036,0.073 0.073,0.073c-0.037,-0.037 -0.073,-0.073 -0.073,-0.073z"/>
  <path id="svg_35" fill="#1E1F1F" d="m97.929,26.752l0.289,-0.441c-0.217,0.257 -0.289,0.404 -0.289,0.441z"/>
  <path id="svg_36" fill="#1E1F1F" d="m98.255,65.499c0,-0.037 0,-0.037 0,-0.037c-0.036,0.258 -0.109,0.588 -0.254,1.14l0.254,-1.103z"/>
  <path id="svg_37" fill="#1E1F1F" d="m82.606,15.246l0.217,-0.331c-0.109,0.147 -0.145,0.257 -0.217,0.331z"/>
  <path id="svg_38" fill="#1E1F1F" d="m89.654,34.215c-0.037,-0.037 -0.037,-0.11 -0.037,-0.184c0,0.074 0,0.147 0.037,0.184z"/>
  <path id="svg_39" fill="#1E1F1F" d="m94.279,73.587l0.253,-0.405c-0.072,0 -0.145,0.147 -0.253,0.405z"/>
  <path id="svg_40" fill="#1E1F1F" d="m85.316,87.262l0.036,0c0.036,-0.037 0,-0.037 -0.036,0z"/>
  <path id="svg_41" fill="#1E1F1F" d="m90.376,82.887c0.072,-0.11 0.18,-0.22 0.289,-0.367c-0.109,0.11 -0.326,0.294 -0.289,0.367z"/>
  <path id="svg_42" fill="#1E1F1F" d="m90.774,82.299c-0.036,0.074 -0.073,0.111 -0.109,0.184c0.073,-0.073 0.145,-0.184 0.109,-0.184z"/>
  <path id="svg_43" fill="#1E1F1F" d="m53.297,80.608c0.289,0.404 0.614,0.662 0.976,0.956l-0.976,-0.956z"/>
  <path id="svg_44" fill="#1E1F1F" d="m70.788,1.276l0.036,-0.036l0.037,0l0.072,0.036c-0.109,-0.147 -0.145,0 -0.145,0z"/>
  <path id="svg_45" fill="#1E1F1F" d="m54.634,80.351l0.181,0.294c-0.072,-0.11 -0.145,-0.184 -0.181,-0.294z"/>
  <path id="svg_46" fill="#1E1F1F" d="m95.905,64.874c-0.036,-0.515 0.325,-1.47 0.181,-1.47c-0.072,0.514 -0.325,1.213 -0.181,1.47z"/>
  <path id="svg_47" fill="#1E1F1F" d="m66.343,15.209l-0.108,0.294c0.036,-0.147 0.072,-0.257 0.108,-0.294z"/>
  <path id="svg_48" fill="#1E1F1F" d="m54.634,80.351l-0.217,-0.331c0,0.037 0,0.073 0.036,0.147c0.036,0.037 0.109,0.11 0.181,0.184z"/>
  <path id="svg_49" fill="#1E1F1F" d="m55.249,20.319c0.036,0.073 0.036,0.073 0.072,0.11l-0.072,-0.11z"/>
  <path id="svg_50" fill="#1E1F1F" d="m54.273,17.157c0.108,0.221 0.216,0.405 0.325,0.625c-0.145,-0.331 -0.253,-0.514 -0.325,-0.625z"/>
  <path id="svg_51" fill="#1E1F1F" d="m54.273,81.564l0.542,0.551c-0.181,-0.184 -0.362,-0.367 -0.542,-0.551z"/>
  <path id="svg_52" fill="#1E1F1F" d="m45.166,37.928c-0.037,-0.111 -0.037,-0.184 -0.073,-0.294c0.036,0.11 0.036,0.22 0.073,0.294z"/>
  <path id="svg_53" fill="#1E1F1F" d="m89.582,35.097c0,0.037 0,0.073 -0.037,0.11c0.037,0 0.037,-0.037 0.037,-0.11z"/>
  <path id="svg_54" fill="#1E1F1F" d="m90.015,16.054c0.036,-0.183 -0.073,-0.441 -0.182,-0.514c0,0.184 0.073,0.294 0.182,0.514z"/>
  <path id="svg_55" fill="#1E1F1F" d="m86.292,30.612c0.036,-0.073 0.072,-0.184 0.144,-0.331c-0.036,0.074 -0.108,0.184 -0.144,0.331z"/>
  <path id="svg_56" fill="#1E1F1F" d="m70.138,14.51c-0.036,2.022 -0.253,4.522 -0.47,7.132c-0.108,1.324 -0.181,2.647 -0.217,4.007c0,0.331 0,0.662 0,0.993c0,0.331 0,0.661 0,0.992l0,0.111c0,0.036 0,0.11 0,0.183l0.036,0.405c0.036,0.257 0.036,0.551 0.073,0.809c0,0.551 0.144,1.029 0.216,1.543c0.073,0.184 0.145,0.405 0.181,0.625c0.072,0.221 0.145,0.405 0.253,0.625c0.181,0.442 0.325,0.919 0.542,1.361c0.109,0.22 0.181,0.441 0.289,0.698l0.073,0.184l0.072,0.147c0.072,0.11 0.108,0.22 0.181,0.294c0.108,0.221 0.216,0.404 0.361,0.625c0.108,0.184 0.253,0.368 0.397,0.551l-0.072,0.625l0.253,0.294l0.253,0.258l0.506,0.551c0.361,0.662 -0.759,-0.845 -0.108,0.221l0.433,0.184c0,0.073 0.181,0.33 0.398,0.625c0.253,0.33 0.542,0.698 0.759,1.029c0.108,0.147 0.217,0.294 0.289,0.404c0.072,0.111 0.108,0.147 0.108,0.184c0,0.074 -0.18,-0.073 -0.65,-0.551l0.903,1.102l0.723,0.846l1.952,-4.853c0.795,-1.911 0.289,-1.507 1.192,-3.455c0.253,-0.331 -0.253,0.809 -0.108,0.772c0.325,-0.735 0.65,-1.36 0.903,-1.949c0.253,-0.588 0.47,-1.102 0.687,-1.617c0.036,-0.11 0.108,-0.257 0.144,-0.368l0.037,-0.147l0.036,-0.11c0.036,-0.11 0.072,-0.257 0.108,-0.368c0.072,-0.22 0.109,-0.478 0.181,-0.698c0.108,-0.441 0.217,-0.919 0.397,-1.397c0.181,-0.515 0.434,-1.066 0.832,-1.728l-0.073,0.257c0.145,-0.514 0.615,-1.396 0.579,-1.433c-0.506,0.184 -0.073,0.588 -0.723,1.323c-0.253,-0.22 0.397,-1.103 0.144,-1.176c0.434,-0.588 0.47,-1.03 0.759,-1.618c0.687,-0.845 1.337,-2.242 1.952,-2.83c0.18,-0.515 0.217,-1.177 0.795,-2.133c0.614,-0.551 0.108,0.295 0.759,-0.588l-0.073,-0.257c0.506,-0.735 0.47,-0.588 0.543,-0.515c0.253,-0.404 0.325,-0.625 0.397,-0.845c0.036,-0.111 0.109,-0.221 0.181,-0.368c0.072,-0.11 0.072,-0.11 0.072,-0.147c0.036,-0.037 0.072,-0.073 0.108,-0.11c0,0.073 0,0.11 0,0.147l0,0.073c0,0.037 0.001,0.037 -0.036,0.111c0,-0.037 0.036,-0.074 0.036,-0.074l0,-0.037l0.037,-0.036c0,-0.037 0.036,-0.074 0.036,-0.074c0.036,-0.037 0.072,-0.11 0.108,-0.147c0.072,-0.11 0.145,-0.184 0.253,-0.368c0.036,0.147 -0.036,0.258 -0.144,0.295c0.144,0.036 0.144,-0.037 0.18,-0.184c0,-0.147 0.036,-0.331 0.073,-0.331c-0.037,-0.11 -0.253,0.147 -0.217,-0.221c0.072,-0.073 0.144,-0.294 0.217,-0.478c0.072,-0.183 0.144,-0.33 0.216,-0.22c-0.072,0.184 -0.108,0.367 -0.144,0.514c0.289,-0.624 0.144,-0.624 0.506,-1.029c0,0 0,0.037 0,0.074c0,0.036 0,0.11 -0.036,0.183l0,-0.036c0.072,-0.184 0.144,-0.331 0.217,-0.478l0.036,-0.037l0.036,0.037c0,0.037 0.036,0.037 0.036,0.073c0.036,0.074 0.072,0.111 0.108,0.184c0.109,0.294 0.181,0.625 0.253,0.919c-0.036,0 -0.036,0 -0.072,-0.037c0.108,0.111 0.289,0 0.325,0.184c0,-0.514 0.073,-0.478 0.217,-0.772c-0.072,0.515 0.072,0.552 0.217,0.735c0.145,0.148 0.325,0.478 0.253,1.067c-0.036,0 -0.108,-0.037 -0.145,-0.111c-0.036,-0.073 -0.036,-0.184 0,-0.367c-0.18,-0.074 -0.325,-0.037 -0.433,0c-0.145,0 -0.253,0 -0.362,-0.074c0.109,0.147 0.181,0.405 0.073,0.441c0.108,-0.073 0.18,-0.11 0.289,-0.147c0.036,0.184 0.036,0.331 0.036,0.441c0.108,0 0.181,-0.11 0.217,-0.22c0.072,-0.074 0.144,-0.147 0.18,0.11c0.109,0.588 -0.289,0.368 -0.144,0.441c0.036,0.184 0.036,0.258 0.072,0.405c0.036,0.147 0.072,0.22 0.072,0.257c0.037,0.147 0.037,0.257 -0.072,0.919c0,-0.147 -0.036,-0.404 0,-0.478c-0.108,0.441 -0.181,1.029 -0.253,1.507c-0.108,0.478 -0.217,0.883 -0.434,0.993c-0.036,-0.147 -0.144,-0.184 -0.072,-0.552l0.036,0.037c-0.072,-1.066 -0.072,0.846 -0.325,0.478c0.181,-0.037 -0.108,1.25 -0.289,1.838l0.253,-0.147c0.108,2.132 -0.361,-0.22 -0.795,1.765c-0.217,1.286 0.181,-0.441 0.108,0.331c-0.253,0.845 -0.542,1.102 -0.795,2.352c-0.18,0.331 -0.47,0.993 -0.723,0.993c-0.108,0.809 -0.722,2.353 -0.614,2.867c0.506,-1.323 0.109,-1.433 0.795,-2.904l0.109,0.478c-0.326,1.066 -0.543,2.5 -0.796,3.235c0.073,-0.147 0.145,-0.184 0.181,-0.11c-0.108,0.809 -0.144,1.323 -0.181,1.875c-0.036,0.257 -0.036,0.514 -0.072,0.808c0,0.147 -0.036,0.294 -0.036,0.478c0,0.074 -0.036,0.184 -0.036,0.258c0,0.073 -0.036,0.257 -0.036,0.367c-0.072,0.074 -0.109,0.037 -0.109,-0.037c-0.036,-0.073 -0.036,-0.294 0,-0.441c0.037,-0.294 0.073,-0.698 0.109,-1.029c-0.145,0.515 -0.181,0.772 -0.217,1.103c0,0.257 -0.036,0.515 -0.036,0.845c-0.036,0.368 -0.072,0.809 -0.072,1.361c-0.073,0.11 -0.109,-0.295 -0.073,-0.736c0.036,-0.441 0.073,-0.955 0,-1.103l-0.072,1.324l0.072,1.287l-0.036,0c0.145,0.147 0.181,0.588 0.217,1.213c0,0.147 0.036,0.331 0.036,0.514c0.036,0.184 0.036,0.331 0.072,0.515c0.073,0.331 0.109,0.699 0.253,1.029c0.109,0.368 0.253,0.699 0.362,0.993c0.108,0.294 0.253,0.515 0.325,0.698c0.217,0.405 0.398,0.699 0.578,0.919c0.181,0.221 0.325,0.405 0.506,0.625c0.072,0.111 0.181,0.184 0.253,0.294c0.036,0.074 0.109,0.111 0.145,0.184c0.036,0.037 0.036,0.074 0.072,0.111c0.036,0 0.036,-0.037 0.072,-0.037c0.181,0.11 0.217,0.294 0.109,0.404c-0.289,-0.22 -0.253,-0.184 -0.398,-0.257c0.145,0.441 0.289,0.331 0.434,0.478c0.108,0.11 0.217,0.331 0.253,0.478c0.072,0 0.072,0.11 -0.072,0.404c0.614,-0.919 0.505,-0.845 0.361,-0.698c-0.145,0.147 -0.361,0.33 0.036,-0.258l1.59,-2.205c-0.217,0 -0.723,0.661 0.072,-0.625c0.651,-0.993 0.976,-1.361 1.807,-2.537c-0.108,0.257 0.398,-0.147 -0.289,0.772c0.47,-0.515 1.157,-1.507 1.301,-1.985c-0.542,0.625 -0.144,0.037 0.217,-0.552c0.036,-0.073 0.109,-0.147 0.145,-0.22c0.036,-0.037 0.072,-0.11 0.108,-0.147c0.036,-0.11 0.109,-0.184 0.109,-0.257c0.036,-0.148 0.036,-0.184 -0.145,-0.074l0.759,-0.809c-0.145,0.184 -0.072,0.294 -0.325,0.552c0.361,-0.111 0.469,-0.772 0.686,-1.103c0.253,-0.294 0.868,-1.066 1.012,-1.103c0.145,-0.331 0.687,-0.956 0.904,-1.029c0.289,-0.442 -0.109,-0.147 -0.073,-0.294l1.085,-1.397c0.144,0 0.542,0.11 0.433,0.367c0.145,-0.294 0.109,-0.404 0.109,-0.551c0,-0.074 0,-0.147 0.072,-0.258c0.036,-0.036 0.072,-0.11 0.108,-0.183c0.037,-0.037 0.037,-0.074 0.073,-0.111c0.036,-0.036 0.036,-0.073 0.072,-0.11c0,0.037 0,0.11 0,0.11c0,0.037 0.036,0 0.072,0c0.036,0 0.109,-0.073 0.181,-0.11c0.144,-0.073 0.217,-0.11 0.217,0.147c0.289,-0.073 0.506,-0.367 0.686,-0.698c0.109,-0.478 -0.216,0.073 -0.253,-0.221c0.145,-0.22 0.253,-0.441 0.362,-0.662c0.108,-0.183 0.181,-0.404 0.253,-0.588c0.108,-0.073 0.217,-0.073 0.325,-0.073c0.108,0 0.217,0.036 0.325,0.11c0.109,0.11 0.217,0.221 0.289,0.441c-0.036,-0.11 -0.072,-0.22 -0.108,-0.331c0.145,0.111 0.181,0.221 0.253,0.258c0.072,0.073 0.108,0.11 0.145,0.147c0.072,0.073 0.144,0.11 0.289,0.257c-0.145,0.037 -0.217,0.441 -0.253,0.845c-0.036,0.221 -0.036,0.442 -0.073,0.662c0,0.11 0,0.221 0,0.331c0,0.074 0,0.11 0,0.184c0,0.11 0,0.184 0,0.294c0.037,0.037 0.073,0 0.109,-0.074c0.036,-0.073 0.072,-0.22 0.108,-0.294c0.072,-0.147 0.145,-0.294 0.253,-0.22c0.036,0.147 0.036,0.257 0.036,0.478c0,0.183 0,0.404 0,0.588c-0.036,0.073 -0.072,-0.037 -0.072,-0.221c0.072,1.103 -0.47,1.985 -0.217,2.316c-0.18,0.368 -0.361,0.699 -0.542,1.03l0.217,-0.405c0.108,0.184 -0.072,1.397 -0.072,1.691c-0.109,1.324 -0.289,1.765 -0.615,2.427c0.145,-0.221 0.506,-0.699 0.326,0.294c-0.398,-0.111 -0.579,2.095 -0.759,2.021c-0.073,0.405 -0.326,1.103 -0.181,1.214l-0.253,-0.111c0.325,0.184 0.036,1.655 -0.108,2.831c-0.434,-0.368 -0.217,1.25 -0.759,1.691c0.289,0.294 -0.253,2.059 0,2.316c-0.145,0.882 -0.434,0.735 -0.579,0.956l0.037,0.441c-0.253,0.404 -0.579,2.059 -0.868,3.014l0.109,0.956l-0.181,0.331c0.036,0.147 -0.072,0.919 0.144,0.478l-0.108,0.478c0.325,0.11 -0.036,0.698 -0.108,1.728c-0.109,0.22 -0.145,0.147 -0.145,-0.074c-0.108,0.478 -0.217,0.258 -0.361,0.515c0.144,-0.331 0.217,1.911 0.614,0.588c0.145,-0.073 0.108,0.735 -0.072,1.213l-0.325,0.258l0.18,0.624c-0.108,0.772 -0.361,1.067 -0.506,1.655c0.109,-0.625 -0.289,-1.507 -0.578,0.11c0.145,-0.845 0.036,-1.323 0.072,-1.765c-0.072,0.331 -0.144,0.515 -0.144,-0.036c-0.145,1.286 0.108,0.478 -0.109,1.728c-0.253,-0.111 -0.397,0.22 -0.686,1.286l0.361,-0.772c0.036,0.037 0.036,0.11 0.036,0.184c0.073,-0.294 0.145,-0.404 0.253,-0.441c-0.036,0.257 0.036,1.507 -0.144,1.691c0.65,-1.177 -0.109,2.279 0.289,1.507c0.036,0.147 -0.109,1.029 -0.253,1.103c0,-1.103 -0.434,0.735 -0.578,0.515c0,0.404 0.361,-0.772 0.361,-0.221c-0.108,0.625 -0.361,1.029 -0.506,1.36l0,-0.257l-0.325,0.919c0.108,0.184 0.397,-0.882 0.289,0.037c-0.109,0.22 -0.253,1.103 -0.325,1.066c-0.073,-0.441 -0.398,-0.221 -0.253,-0.956c-0.109,0.625 -0.579,2.537 -0.145,1.838c-0.072,0.257 -0.144,0.478 -0.181,0.735c0.217,-0.404 0.723,-1.654 0.398,-0.183l-0.036,-0.037l-0.073,1.066c-0.072,0.147 -0.18,0.257 -0.252,0.404c0.072,0 0.072,0.184 -0.037,0.552c-0.108,0.073 -0.253,0.404 -0.325,0.331c-0.361,1.066 -0.181,1.029 -0.181,1.176c-0.216,0.588 -0.361,0.772 -0.397,0.441c-0.145,0.404 -0.398,0.919 -0.614,1.397c-0.253,0.478 -0.506,0.919 -0.687,1.14c-0.434,1.029 0.144,-0.184 0,0.477c-0.217,0.148 -0.434,0.442 -0.723,0.736c-0.144,0.147 -0.253,0.331 -0.397,0.551c-0.145,0.184 -0.29,0.368 -0.434,0.588c-0.289,0.405 -0.614,0.809 -0.94,1.213c-0.18,0.184 -0.325,0.368 -0.506,0.552c-0.072,0.073 -0.18,0.184 -0.253,0.257c-0.108,0.074 -0.18,0.184 -0.253,0.258c0.651,-0.037 -0.361,0.404 -0.361,0.919c0.217,-0.405 -1.554,1.029 -0.398,-0.221l-0.722,0.735c-0.687,0.331 1.156,-1.323 0.144,-0.808c-0.867,0.845 -1.084,1.691 -2.132,2.683c0.036,-0.294 -0.108,-0.037 -0.289,0.184c-0.181,0.257 -0.361,0.515 -0.361,0.257c0.108,-0.294 0.397,-0.625 0.65,-0.956l-0.217,0.147c-0.47,0.515 -0.686,0.846 -0.795,1.067c-0.108,0.22 -0.108,0.294 -0.072,0.33c0.072,0.111 0.253,0.074 -0.036,0.772c-0.434,0.772 -0.579,1.14 -0.723,1.25c-0.109,0.111 -0.181,0.037 -0.289,0.074c-0.072,0.147 -0.181,0.478 -0.217,0.882c-0.036,0.405 0,0.882 0.072,1.177c-0.18,-0.736 0,-1.397 0.145,-1.692c0.18,-0.33 0.325,-0.367 0.361,-0.073c-0.144,0.184 -0.253,0.478 -0.289,0.809c-0.036,0.367 -0.036,0.772 0.072,1.176c0.109,0.404 0.289,0.735 0.47,0.993c0.181,0.257 0.398,0.404 0.506,0.514c-0.397,-0.625 -0.542,-1.139 -0.578,-1.507c-0.036,-0.368 -0.072,-0.625 -0.036,-0.845c0,-0.221 0.036,-0.442 0.144,-0.772c0.109,-0.295 0.253,-0.662 0.579,-1.14c0.036,-0.147 -0.037,-0.257 0,-0.478c0.036,-0.184 0.144,-0.515 0.578,-1.029c-0.362,0.772 0.144,0.037 0.325,-0.111c-0.289,0.074 0.506,-0.772 0.687,-1.102c0.325,-0.184 -0.217,0.808 0.686,-0.074l-0.108,-0.441c0.397,-0.331 0.072,0.368 0.723,-0.478c-0.253,0.551 0.325,0.11 -0.579,1.176c1.374,-0.992 1.699,-1.948 2.566,-2.977c-0.072,0.11 -0.072,0.147 -0.144,0.257c0.072,-0.147 0.18,-0.294 0.361,-0.441c0.145,-0.147 0.289,-0.294 0.398,-0.441c0.65,-0.515 -0.362,0.588 -0.109,0.514l0.47,-0.477c0.181,-0.148 0.325,-0.331 0.47,-0.515c0.036,0 0.036,0 0.036,0c0.217,-0.294 0.398,-0.588 0.542,-0.625c-0.181,0.404 -0.181,0.588 -0.289,0.882l0.398,-0.662c0.144,-0.22 0.216,-0.441 0.325,-0.661c0,0.22 0.903,-0.846 0.361,0.073c0.217,-0.294 0.398,-0.625 0.615,-0.919l0.289,-0.478l0.253,-0.478l0.325,-0.036c0.217,-0.478 0.181,-0.515 -0.145,0c0.217,-0.294 0.506,-1.103 0.759,-1.765c0.217,-0.662 0.434,-1.14 0.615,-0.882c0.108,-0.441 0.216,-0.772 0.289,-1.103c0.108,-0.331 0.18,-0.625 0.253,-0.919c0.108,-0.294 0.18,-0.625 0.289,-0.993c0.108,-0.367 0.217,-0.772 0.289,-1.286c-0.181,1.617 0.795,-1.691 0.434,-0.037c0.361,-0.919 0.144,-1.213 0.289,-1.985c0.289,-0.699 0.47,-0.331 0.361,0.478l0.109,-0.956l0.036,0.037c0,-0.294 0.036,-0.552 0.036,-0.809c0.325,-0.809 0.289,-0.11 0.506,-0.993l-0.181,-0.22l0.253,-0.552c-0.145,0.184 -0.108,-0.331 0,-0.955l0.036,0.036l0.109,-0.772c0,0.772 0.18,-0.698 0.289,-0.294c0.144,-0.661 0.144,-0.661 0.325,-1.838l-0.181,0.184c0.145,-1.581 0.253,0 0.506,-1.25l-0.18,0.037c0.65,-1.728 0.397,-3.088 0.867,-4.375c-0.109,0.772 0.144,0.625 0.108,0.588c0.145,-1.139 0.542,-3.014 0.579,-4.227c0.361,-0.368 0.433,-0.478 0.795,-1.655c0.144,-0.882 0.144,-1.029 0.072,-1.323c0.253,-0.845 0.434,-2.463 0.614,-2.463c-0.108,-0.221 0.181,-0.772 0.145,-1.25l0.108,-0.073l-0.18,0.036c0.686,-1.433 0.252,-2.61 0.903,-4.08l0,0.257l0.036,-0.662c0.109,-0.073 0.109,0.184 0.181,0.221l0.614,-2.978l-0.253,0.552c0.109,-0.625 0,-1.103 0.253,-1.802c0.036,1.25 0.217,-0.992 0.434,-1.139l-0.036,0.661c0.144,-0.882 0.144,-0.882 -0.036,-0.845c0.144,-1.14 0.506,-0.699 0.506,-1.801l-0.145,0.772c-0.145,0.183 -0.181,-0.368 -0.108,-0.883c0.036,-0.11 0.18,-0.478 0.144,-0.073c0.109,-0.919 0.362,-2.353 0.325,-2.794c0.109,-0.515 0.217,-0.331 0.253,-0.037c0,-0.515 0,-0.845 0,-1.066c0,-0.221 0,-0.331 0,-0.478c0,-0.073 0,-0.11 0,-0.184c0,-0.073 0,-0.183 0,-0.294c0,-0.147 -0.036,-0.331 -0.072,-0.551c-0.036,-0.221 -0.036,-0.515 -0.144,-0.846l0.108,0c-0.108,-0.294 -0.181,-0.588 -0.289,-0.882c-0.036,-0.441 -0.072,-0.956 -0.217,-1.397c0.036,0.184 0.036,0.368 0.072,0.515c-0.325,-0.772 -0.542,-1.213 -1.012,-2.022l0.289,0.147c-0.144,-0.221 -0.289,-0.404 -0.433,-0.588c-0.145,-0.147 -0.253,-0.331 -0.398,-0.441c-0.217,-0.295 -0.47,-0.515 -0.65,-0.772c-0.217,-0.221 -0.47,-0.478 -0.723,-0.699c-0.072,-0.073 -0.108,-0.073 -0.181,-0.073c-0.072,0 -0.108,0 -0.18,0c-0.109,0 -0.253,0 -0.398,0.036c-0.072,0.111 -0.181,0.258 -0.253,0.405c-0.108,0.11 0.145,-0.294 0.253,-0.515c-0.723,1.14 -1.012,1.36 -1.301,1.654c-0.289,0.258 -0.614,0.589 -1.301,1.728c0.072,-0.184 -0.145,-0.037 -0.108,-0.147l-0.615,0.956l-0.072,-0.221c-0.108,0.331 -0.217,0.625 -0.325,0.956l-0.145,0.11c-0.036,0.037 -0.072,0.037 -0.108,0.074l-0.217,0.11l-0.109,0.294c-0.795,0.368 -1.228,1.434 -2.096,2.096l0.326,0c-0.579,1.25 -1.554,2.426 -2.602,3.676c-0.073,0.073 -0.145,0.184 -0.181,0.22l-0.108,0.074l-0.181,0.184c-0.109,0.11 -0.217,0.22 -0.325,0.331c-0.217,0.22 -0.362,0.441 -0.543,0.808l0.037,-0.404c-0.073,0.257 -0.217,0.551 -0.326,0.882l0,-0.036c-0.036,-0.074 0,-0.184 0.037,-0.295c0.036,-0.147 0.108,-0.257 0.108,-0.367c-0.036,0.037 -0.036,0.11 -0.072,0.147c-0.109,0.257 -0.181,0.478 -0.253,0.662c0,0.036 -0.036,0.11 -0.073,0.147c0,0.036 -0.036,0.036 -0.036,0.073c0,0 0,0.037 -0.036,0.037c-0.036,0 -0.108,-0.037 -0.181,-0.184c-0.036,-0.331 0.037,-0.367 0.073,-0.367c0.072,0 0.144,0.11 0.18,0.073c-0.144,-0.11 -0.361,-0.368 -0.469,-0.662c-0.073,-0.147 -0.073,-0.331 -0.109,-0.478c0,-0.147 0,-0.33 0,-0.441c-0.036,0 -0.072,0.037 -0.072,0.037c-0.072,-0.184 -0.072,-0.441 -0.036,-0.698c0,-0.147 0.036,-0.295 0.036,-0.405c0.036,-0.22 0.072,-0.441 0.072,-0.662c0.036,0.037 0.072,0.111 0.072,0.184c0,0.037 0,0.111 0,0.184c0,0.037 0,0.074 0,0.11l0,0.037l0,0.037c0.037,-0.184 0.073,-0.404 0.109,-0.588c0.036,-0.221 0.036,-0.441 0.036,-0.588c0.036,0.147 0.072,0.294 0.108,0.441c0.145,-0.809 0.29,-2.39 0.579,-2.537c-0.109,0.074 -0.253,0 -0.073,-0.698c0.398,-0.331 0.362,-1.985 0.868,-3.125c0.036,0.147 -0.181,1.029 -0.109,0.772c0.253,-0.552 0.253,-1.14 0.289,-1.691l0.073,0.184l0.614,-2.831c0.434,-0.331 0.614,-2.72 0.795,-2.463c0.253,-1.029 -0.325,0.845 -0.072,-0.478c0.217,-0.331 0.181,-1.213 0.361,-1.14l0,0.148c0.073,-0.331 0.109,-0.625 0.145,-0.956l0.108,0.625c0.072,-0.846 -0.036,-1.471 -0.18,-1.544c0.036,-0.184 0.072,-0.405 0.108,-0.625c0,-0.111 0.036,-0.221 0.036,-0.331c0,-0.147 0.036,-0.257 0.036,-0.368c0.072,-0.661 0.036,-1.213 0.109,-1.507l0.072,0.441c-0.072,-0.845 -0.072,-1.617 -0.181,-2.316c-0.036,-0.184 -0.036,-0.367 -0.072,-0.515c0,-0.183 -0.036,-0.367 -0.072,-0.514c-0.073,-0.331 -0.109,-0.625 -0.181,-0.956c-0.036,-0.147 -0.072,-0.331 -0.108,-0.478c-0.037,-0.147 -0.109,-0.294 -0.145,-0.404c-0.108,-0.294 -0.181,-0.552 -0.289,-0.809c-0.253,-0.478 -0.506,-0.919 -0.831,-1.287c-0.073,-0.184 -0.036,-0.22 0.144,0.074l-0.433,-0.772l-0.47,-0.809l0.289,0.184l-0.795,-1.103l-0.109,-0.147c-0.036,-0.037 -0.072,-0.037 -0.072,-0.074l-0.181,-0.11c-0.108,-0.073 -0.216,-0.147 -0.325,-0.22l-0.144,0.22l0.036,-0.257c-0.723,0.956 -1.627,2.206 -2.566,3.566c-0.47,0.661 -0.94,1.397 -1.41,2.095c-0.469,0.699 -0.939,1.36 -1.373,2.059l0.217,-0.441c-0.217,0.367 -0.434,0.698 -0.578,0.992c-0.109,0.147 -0.181,0.294 -0.253,0.441c-0.145,0.258 -0.289,0.442 -0.434,0.589c-0.253,0.33 -0.47,0.588 -0.795,1.249c0,-0.073 0.036,-0.11 0.036,-0.147c-0.217,0.368 -0.47,0.736 -0.687,1.103l0.073,-0.294c-0.325,0.956 -1.663,2.243 -1.193,1.802c-0.181,0.514 -0.578,1.396 -0.542,1.617c-0.687,1.25 -0.289,0.221 -0.795,0.956c-0.506,0.919 -0.434,1.139 -1.193,2.353l-0.072,-0.074c-0.289,0.588 -0.397,0.993 -0.795,1.801l0.072,-0.257c-0.469,1.434 -1.12,1.507 -1.192,2.794c-0.072,0.147 -0.181,0.294 -0.289,0.478l-0.073,0.147l-0.072,0.478l0,0.037c0,0.036 -0.036,0.036 -0.036,0.073c-0.072,0.11 -0.145,0.147 -0.217,0.074c0,0.073 -0.036,0.147 -0.036,0.22l-0.036,0.11l0,0.074c0,0.11 -0.036,0.221 -0.072,0.294c-0.037,0.221 -0.109,0.441 -0.181,0.772c-0.036,-0.22 -0.036,-0.294 -0.036,-0.294c0,0 -0.036,0.368 -0.109,0.184l0,0.478c-0.036,0.147 -0.072,0 -0.144,-0.074c-0.036,-0.073 -0.109,-0.184 -0.145,-0.294c-0.072,-0.22 -0.108,-0.478 -0.108,-0.662c0,-0.22 0,-0.367 0,-0.514c0,-0.147 0,-0.221 0,-0.331l0.18,-0.074c-0.072,0 -0.144,-0.036 -0.216,-0.036c0,-0.295 0,-0.625 0.036,-0.956c0.036,-0.368 0.036,-0.735 0.072,-1.14c0.072,-0.772 0.145,-1.581 0.217,-2.389c0.181,-1.581 0.397,-3.162 0.506,-4.412c0,-0.809 -0.109,-2.058 0.036,-3.419l0,0.147c0,-1.176 0,-2.389 -0.108,-3.676c-0.073,-0.661 -0.145,-1.286 -0.253,-1.985c-0.037,-0.331 -0.109,-0.662 -0.181,-1.029c-0.036,-0.221 -0.109,-0.478 -0.181,-0.735l-0.253,-0.772c0.145,0.22 0.073,-0.221 0.253,0.22c-0.144,-0.22 -0.253,-0.478 -0.361,-0.772c-0.072,-0.147 -0.109,-0.294 -0.181,-0.404l-0.181,-0.405c-0.253,-0.551 -0.469,-1.139 -0.722,-1.47c0.072,0.147 0.144,0.294 0.216,0.478l0.181,0.514c-0.072,-0.11 -0.144,-0.22 -0.253,-0.367c-0.072,-0.147 -0.18,-0.221 -0.253,-0.368c-0.18,-0.257 -0.361,-0.514 -0.506,-0.772c-0.325,-0.514 -0.614,-0.992 -0.759,-1.286l-1.156,-1.14c-0.036,-0.074 -0.072,-0.147 -0.109,-0.184c0,-0.037 -0.036,-0.073 -0.036,-0.11l-0.036,0l-0.253,0.331l-0.65,0.257c-0.145,0.184 -0.687,0.625 -1.193,1.14c-0.144,0.11 -0.253,0.257 -0.397,0.367c-0.073,0.074 -0.109,0.111 -0.181,0.184c-0.072,0.074 -0.109,0.147 -0.181,0.221c-0.217,0.294 -0.397,0.588 -0.506,0.772c-0.144,0.036 -1.337,1.323 -0.47,0.257l-1.156,1.287l-0.289,0.331l-0.145,0.147c-0.036,0.073 -0.072,0.073 -0.108,0.147l-0.325,0.441l-0.615,0.882c-0.217,0.294 -0.433,0.588 -0.578,0.882c0.145,-0.184 0.289,-0.331 0.434,-0.514c0.108,0.036 0,0.294 -0.181,0.661c-0.145,0.368 -0.398,0.772 -0.578,1.03c0.289,-0.809 -0.181,-0.184 -0.506,0.036c-0.217,0.552 0.397,-0.367 0.325,-0.036c-0.289,0.661 -0.867,2.058 -1.12,2.352l0.108,-0.404c-0.181,0.441 -0.397,0.735 -0.614,1.029c-0.217,0.294 -0.398,0.589 -0.578,1.03c-0.109,0.441 -0.253,0.772 -0.326,0.992c-0.072,0.221 -0.072,0.368 0.109,0.331c-0.362,1.177 -0.362,0.368 -0.542,0.735c-0.036,0.294 -0.217,0.846 -0.398,1.324c-0.181,0.478 -0.397,0.919 -0.506,1.029c0.145,0.405 -0.181,1.177 -0.397,1.875c-0.253,0.735 -0.47,1.397 -0.326,1.581c-0.144,0.294 -0.289,0.625 -0.433,0.919c0.108,0.073 0.289,0.294 0.144,1.103c-0.289,0.698 -0.433,0.514 -0.578,0.698l0.289,0.588c-0.072,0.184 -0.108,0.405 -0.181,0.588c-0.036,0.111 -0.072,0.221 -0.072,0.295l0,0.036l0,0.037c-0.036,0.074 -0.072,0.147 -0.108,0.221c-0.073,0.147 -0.109,0.294 -0.145,0.404c-0.072,0.257 -0.108,0.588 -0.144,0.699c0,0.036 -0.036,0.073 -0.073,0.036c0,0 -0.036,-0.036 -0.036,-0.073c-0.036,-0.074 -0.036,-0.184 -0.072,-0.294c-0.036,0.073 -0.108,0.22 -0.181,0.183c-0.072,0 -0.144,-0.147 -0.18,-0.404c0,0 0.036,-0.037 0.036,-0.073c0,-0.184 0,-0.331 0,-0.478c-0.036,0.147 -0.036,0.294 -0.073,0.514c-0.036,0 -0.108,0.037 -0.144,-0.073c0,-0.184 0,-0.368 0,-0.515c0,-0.073 0,-0.147 0,-0.22c0,-0.037 0,0 0,-0.074l-0.072,-0.294c-0.037,-0.184 -0.073,-0.404 -0.109,-0.588c-0.325,-1.618 -0.759,-3.309 -1.373,-4.963c-0.578,-0.993 -0.614,-1.397 -0.651,-1.765c-0.036,-0.404 -0.036,-0.772 -0.686,-1.727c0.108,0.147 0.217,0.183 0.325,0.33c-0.145,-0.257 -0.289,-0.514 -0.434,-0.772c-0.144,-0.22 -0.289,-0.477 -0.433,-0.698l-0.109,-0.147l-0.036,-0.037l-0.036,-0.073l-0.072,-0.111c-0.109,-0.147 -0.217,-0.294 -0.326,-0.441c-0.216,-0.294 -0.397,-0.588 -0.686,-0.882c-0.253,-0.294 -0.47,-0.552 -0.723,-0.846c-0.253,-0.257 -0.506,-0.478 -0.795,-0.735c-0.253,-0.257 -0.542,-0.441 -0.867,-0.698c-0.29,-0.221 -0.615,-0.441 -0.94,-0.662c0.253,-0.221 -0.904,-0.956 -1.373,-1.323c-0.109,0.073 -0.181,0.11 -0.145,0l-0.144,0.367c-0.579,0.405 -1.735,1.544 -1.627,1.25c-0.289,0.441 -0.578,0.809 -0.795,1.323l-0.18,-0.073c-0.073,0.11 -0.145,0.221 -0.217,0.331c-0.073,0.11 -0.145,0.257 -0.217,0.404c-0.145,0.294 -0.325,0.588 -0.47,0.956c-0.289,0.698 -0.542,1.507 -0.687,2.353c-0.072,0.404 -0.144,0.845 -0.216,1.176c0,0.147 -0.037,0.257 -0.037,0.405c0,0.11 -0.036,0.22 -0.036,0.33c-0.036,0.441 -0.108,0.772 -0.217,0.956c0.073,0.919 0.181,1.912 0.326,2.941c0.072,0.515 0.144,1.029 0.253,1.581c0.072,0.515 0.144,1.029 0.253,1.544c0.325,2.095 0.614,4.301 0.867,6.249c0.217,0.515 0.398,1.655 0.578,2.537l-0.072,0.992c0.217,0.883 0.614,1.802 0.614,2.684c-0.036,0 -0.036,-0.037 -0.072,-0.073c0.181,0.919 0.181,1.801 0.542,2.61c0.145,0.992 0.181,1.985 -0.072,1.727c0.181,0.037 0.253,0.552 0.289,1.067c0,0.257 0,0.514 0,0.735c0,0.037 0,0.073 0,0.073c0,0 0,0.037 0,0.111c0,0.036 0,0.073 -0.036,0.073l0,0.037c0,0 0,0.037 -0.036,0c-0.036,-0.037 -0.073,-0.074 -0.109,-0.11l-0.036,-0.037l-0.108,-0.074l-0.253,-0.147c-0.326,-0.184 -0.651,-0.331 -1.012,-0.514c-0.325,-0.184 -0.687,-0.331 -1.048,-0.478c-0.181,-0.074 -0.362,-0.147 -0.542,-0.221c-0.181,-0.073 -0.398,-0.147 -0.579,-0.257c-1.337,-0.515 -2.71,-0.993 -4.083,-1.36c-0.362,-0.111 -0.687,-0.184 -1.012,-0.258c-0.325,-0.073 -0.687,-0.147 -1.012,-0.22c-0.687,-0.147 -1.337,-0.258 -1.988,-0.405c-1.373,-0.257 -2.746,-0.514 -4.156,-0.808c0.723,1.764 1.446,3.565 2.169,5.367c0.361,0.882 0.759,1.801 1.12,2.72c0.361,0.919 0.759,1.838 1.156,2.721c0.253,0.551 0.47,1.066 0.723,1.617c0.217,0.478 0.434,0.919 0.651,1.397c0.433,0.919 0.867,1.875 1.337,2.757c1.843,3.676 3.794,7.242 5.782,10.44c3.975,6.434 7.987,11.544 10.517,14.007c0.397,0.22 1.228,1.103 1.12,0.625c0.614,0.698 0.614,1.213 0.867,1.25c-0.65,-1.067 0.615,0 0.036,-1.103l0.506,0.588c0.181,0.037 -0.759,-0.735 -0.469,-0.735l-0.398,0.036c-0.325,-0.551 -0.506,-0.845 -0.542,-1.102c-0.47,-0.405 -1.048,-0.442 -1.735,-1.692l0.253,0.295c-0.686,-0.919 -0.253,-0.699 -0.325,-0.919l0.145,0.22c-0.145,-0.294 -0.29,-0.588 -0.434,-0.882c0.325,0.662 1.265,1.47 0.867,0.992c-0.723,-1.176 0.145,0.331 -0.506,-0.478c-0.397,-0.514 -0.144,-0.477 -0.036,-0.514l-0.65,-0.919c0.144,-0.074 0.433,0.625 0.289,0.147l-0.976,-1.103c0.181,-0.441 -1.048,-1.176 -1.084,-1.948c0.65,0.808 0.072,-0.147 0.253,-0.074c-0.47,-0.698 -0.94,-1.397 -1.41,-2.095c-0.072,-0.221 0.47,0.478 0.253,0.183c-0.18,-0.477 -0.506,-0.588 -0.65,-0.808c-0.036,-0.258 -1.012,-1.618 -0.759,-1.691c-0.759,-1.544 -0.687,-0.441 -1.373,-1.875c0.036,-0.258 0.686,1.066 0.469,0.367l-0.903,-1.397c0.144,0.074 0.397,0.148 0.687,0.699c-0.543,-0.993 -0.94,-1.912 -1.338,-2.757c-0.361,-0.846 -0.686,-1.654 -1.011,-2.426c-0.326,-0.772 -0.615,-1.544 -0.976,-2.353c-0.181,-0.405 -0.362,-0.809 -0.578,-1.213c-0.217,-0.405 -0.434,-0.846 -0.687,-1.287c-0.109,-0.588 0.289,0.294 0.614,0.625c-0.397,-0.625 -0.686,-1.176 -0.903,-1.691c-0.217,-0.515 -0.398,-0.993 -0.542,-1.471c-0.326,-0.955 -0.579,-1.838 -1.121,-2.977l-0.144,0.037c-0.181,-0.625 -0.398,-1.287 -0.651,-1.912c-0.072,-0.147 -0.108,-0.294 -0.18,-0.478l-0.037,-0.147c-0.036,-0.074 -0.036,-0.184 -0.072,-0.257c-0.108,-0.331 -0.253,-0.699 -0.397,-1.03c-0.073,-0.073 0.036,-0.036 0.108,-0.036c0.072,0 0.145,0.036 0.217,0.073c0.144,0.037 0.289,0.11 0.397,0.147c-0.072,-0.073 -0.144,-0.11 -0.216,-0.184c0,-0.184 0.253,-0.11 0.433,-0.147c0.036,0.111 0,0.368 0.253,0.368c-0.072,-0.074 -0.217,-0.184 -0.18,-0.257c0.108,0.073 0.18,0.147 0.289,0.22c0.036,0.037 0.108,0.074 0.144,0.11l0.073,0.037c0.036,0 0.036,0.037 0.144,0.074c0.723,0.331 1.518,0.735 2.349,1.176c0.253,0.147 0.542,0.294 0.831,0.441c0.398,0.258 0.832,0.515 1.229,0.772c0.398,0.221 0.831,0.552 1.265,0.882c0.434,0.295 0.867,0.589 1.337,0.993c1.807,1.47 3.867,3.125 5.638,4.595l0,-0.404c0,-0.147 0,-0.221 -0.036,-0.441c-0.036,-0.368 -0.109,-0.699 -0.145,-1.066c-0.108,-0.699 -0.181,-1.397 -0.289,-2.096c-0.181,-1.397 -0.361,-2.757 -0.542,-4.08c-0.253,-1.728 -0.542,-3.456 -0.795,-5.221c-0.145,-0.955 -0.289,-1.948 -0.434,-2.904c-0.289,-1.948 -0.542,-3.933 -0.831,-5.918c-0.289,-1.985 -0.542,-3.934 -0.831,-5.882c-0.145,-0.956 -0.289,-1.949 -0.434,-2.904c-0.144,-0.956 -0.289,-1.875 -0.434,-2.794c0.181,1.066 -0.289,0.661 -0.325,-0.147c0.181,-1.14 0.072,-2.059 0,-2.941c-0.036,-0.441 -0.036,-0.883 0,-1.287c0,-0.073 0,-0.073 0,-0.11l0.036,-0.037c0.036,-0.037 0.073,-0.037 0.145,-0.037c0,-0.11 0,-0.184 0.036,-0.257c0.036,-0.037 0.036,-0.074 0.072,-0.074c0.036,0 0.073,-0.073 0.073,0c0.108,0.147 0.144,0.294 0.216,0.368l0.037,0.074l0.036,0.036l0.036,0.074c0.144,0.257 0.289,0.478 0.433,0.698c0.145,0.258 0.29,0.478 0.434,0.736c0.145,0.257 0.289,0.514 0.434,0.772l-0.145,0.147c0.109,0.551 0.289,0.625 0.47,1.176l-0.036,0c0.361,1.323 0.976,2.978 1.084,3.823l0.217,0c0.217,0.846 -0.036,0.478 0.253,1.324l-0.108,0l0.108,0.257l0.144,0.478l0.326,0.919c-0.181,0 0.072,1.176 0.397,2.463c0.181,0.625 0.362,1.323 0.542,1.912c0.181,0.551 0.326,1.066 0.398,1.433c0.181,0.405 0.361,0.956 0.614,1.471c0.217,0.514 0.47,1.066 0.759,1.58c0.253,0.552 0.542,0.993 0.795,1.508c0.289,0.441 0.542,0.919 0.795,1.397c0.073,0.33 0.434,1.066 0.94,1.911c0.542,0.956 1.193,2.059 1.662,2.904l0.109,0.184l0.072,0.111c0.036,0.073 0.108,0.147 0.145,0.183c0.108,0.147 0.216,0.258 0.325,0.405c0.108,0.147 0.217,0.294 0.325,0.441c0.072,0.073 0.109,0.147 0.181,0.22c0.072,0.111 0.181,0.258 0.253,0.368c0.217,-2.242 0.47,-4.705 0.723,-7.279c0.072,-0.625 0.144,-1.25 0.18,-1.911l0.217,-1.838c0.072,-0.625 0.145,-1.214 0.217,-1.839c0.072,-0.625 0.144,-1.213 0.217,-1.764l-0.217,-0.147l0.217,-1.691c0.036,0.073 0.108,-0.147 0.072,0.147c0.217,-0.552 0.325,-1.581 0.47,-2.573c0.036,-0.258 0.072,-0.478 0.108,-0.736c0.036,-0.22 0.073,-0.404 0.109,-0.625c0.036,-0.22 0.072,-0.441 0.144,-0.588c-0.144,0.184 -0.18,0.331 -0.18,0.515c0,0.037 0,0.073 0,0.11l0,0.074c0,0.036 0,0.073 0,0.147c-0.037,0.183 -0.037,0.367 -0.109,0.625c-0.181,0.661 -0.253,0.625 -0.253,0.22c0,-0.184 0.036,-0.478 0.109,-0.845c0,-0.074 0.036,-0.147 0.036,-0.221c0,-0.037 0.036,-0.11 0.036,-0.147c0.036,-0.11 0.072,-0.221 0.108,-0.331l0.036,0.037l0,-0.662c0.181,-0.037 0.398,-0.588 0.579,-0.625c0.144,-0.698 0.253,-1.323 0.361,-1.948c0.108,-0.625 0.217,-1.176 0.361,-1.765c0.109,-0.588 0.29,-1.139 0.434,-1.764c0.145,-0.625 0.361,-1.213 0.651,-1.875c0.036,0.184 0.216,-0.294 0.361,-0.772c0.181,-0.441 0.398,-0.809 0.434,-0.515c0.542,-1.617 -0.362,0.147 -0.326,-0.661c0.181,-0.442 0.29,-0.956 0.434,-0.956c0,0.22 0.361,-0.258 0.217,0.11l0.47,-1.029c0.072,-0.074 0,0.147 -0.036,0.294c0.108,-0.258 0.216,-0.515 0.325,-0.772c0.108,-0.258 0.217,-0.478 0.361,-0.699c0.253,-0.441 0.542,-0.845 0.795,-1.25c0.253,-0.404 0.579,-0.772 0.868,-1.139c0.144,-0.184 0.289,-0.405 0.397,-0.588l0.036,-0.074l0,-0.037l0,-0.073c-0.072,-0.11 -0.108,0.037 -0.18,-0.037c0.036,-0.257 0.144,-0.294 0.216,-0.257c0.073,0 0.109,0.11 0.217,-0.147c-0.036,0.11 -0.036,0.22 -0.036,0.331c0.036,-0.111 0.036,-0.258 0.072,-0.331c0.037,-0.074 0.037,-0.037 0.037,0c0,0.036 0.036,0.073 0.036,0.183c-0.036,0.184 -0.073,0.221 -0.109,0.221l-0.036,0.037c0,0 -0.036,0.073 -0.036,0.11c0,-0.037 0.108,0 0.181,-0.257c0.108,0.037 0,0.257 -0.036,0.331c0.036,-0.037 0.072,-0.184 0.18,-0.221c0,0.074 0,0.11 0,0.184c0,0.037 0,0.037 0,0.073l0,0.037c0,0.037 0,0 0.036,0.11c0.145,0.625 0.217,1.361 0.253,1.986c-0.036,0 -0.108,0.073 -0.144,-0.037c0.433,0.992 -0.036,0.919 0,2.389z"/>
  <path id="svg_57" fill="#1E1F1F" d="m85.823,37.56c-0.037,-0.331 -0.073,-0.625 -0.037,-0.956c-0.036,0.037 -0.108,0 -0.144,-0.441l0.072,0.735c0,0.221 0.036,0.441 0.109,0.662z"/>
  <path id="svg_58" fill="#1E1F1F" d="m88.822,13.554c-0.036,0.074 -0.036,0.111 -0.072,0.184c0.036,-0.073 0.072,-0.147 0.072,-0.184z"/>
  <path id="svg_59" fill="#1E1F1F" d="m87.16,16.679c0.217,-0.441 -0.073,-0.11 -0.217,0.074c0.036,0.037 0.072,0.074 0.217,-0.074z"/>
  <path id="svg_60" fill="#1E1F1F" d="m96.411,33.957c-0.036,0.111 -0.072,0.184 0,0.184c0.036,-0.147 0.036,-0.184 0,-0.184z"/>
  <path id="svg_61" fill="#1E1F1F" d="m96.845,59.948c0.036,-0.037 0.036,-0.11 0.072,-0.184c-0.036,0.037 -0.036,0.11 -0.072,0.184z"/>
  <path id="svg_62" fill="#1E1F1F" d="m97.64,57.522c0.036,-0.111 0.036,-0.294 0.073,-0.515c-0.037,0.221 -0.073,0.404 -0.073,0.515z"/>
  <path id="svg_63" fill="#1E1F1F" d="m88.352,43.773c-0.108,-0.184 -0.217,-0.368 -0.289,-0.478c0.145,0.294 0.253,0.404 0.289,0.478z"/>
  <path id="svg_64" fill="#1E1F1F" d="m97.748,56.492l0.145,-0.625c0,0 -0.036,0 -0.036,-0.036l-0.109,0.661z"/>
  <path id="svg_65" fill="#1E1F1F" d="m96.664,60.72c0.036,-0.257 0.109,-0.588 0.181,-0.772c-0.109,0.294 -0.145,0.551 -0.181,0.772z"/>
  <path id="svg_66" fill="#1E1F1F" d="m102.338,31.899c0,-0.037 0,-0.037 0,-0.074c-0.109,-0.441 -0.036,-0.147 0,0.074z"/>
  <path id="svg_67" fill="#1E1F1F" d="m97.929,53.698c0,-0.036 0,-0.036 0.037,-0.073l-0.037,-0.184l0,0.257z"/>
  <path id="svg_68" fill="#1E1F1F" d="m96.086,63.404c0,-0.111 0.036,-0.221 0.036,-0.331c-0.036,0.11 -0.036,0.22 -0.109,0.331c0.037,0 0.037,0 0.073,0z"/>
  <path id="svg_69" fill="#1E1F1F" d="m100.568,41.053c0.036,0.183 0.072,0.257 0.108,0.294c0.035,-0.221 0.035,-0.368 -0.108,-0.294z"/>
 </g>
</svg>