<svg width="96" height="144" viewBox="0 0 96 144" fill="none" xmlns="http://www.w3.org/2000/svg">
<g clip-path="url(#clip0)">
<path d="M54.4324 66.8067L60.2132 45.1297L63.4544 32.8337L52.9622 42.1478L51.0576 10.118L47.9834 7.60525L44.5083 33.1353L37.0235 12.1953L25.5623 3.55127L25.0611 10.118L30.4074 29.6844L23.0896 26.803L11.194 12.1953L9.59011 15.2442L13.1989 26.803L16.9079 38.5294L15.3708 41.1427L4.94549 29.6844L1.63745 30.2204C1.63745 30.2204 2.27233 36.7202 5.07915 44.8282C7.88597 52.9361 15.304 67.9124 15.304 67.9124C15.304 67.9124 21.4857 70.6932 22.4213 71.4973C23.3569 72.3014 29.3715 79.1362 29.3715 80.1748C29.3715 81.2134 33.5818 78.6336 33.5818 78.6336L54.4324 66.8067Z" fill="#FCF9EB"/>
<path d="M47.9832 136.294L38.6271 114.014L30.6745 86.9762C30.6745 86.9762 29.1374 80.9455 33.5815 78.6338C38.0257 76.322 47.3149 71.866 47.3149 71.866L54.4656 69.4202L58.3083 74.4793L70.137 98.3006L86.2094 121.921L94.3626 133.212C94.3626 133.212 88.1809 136.026 83.1019 137.132C78.0229 138.237 70.6048 140.784 64.7239 142.76C58.8429 144.737 54.0646 144.168 52.9285 142.76C51.7925 141.353 47.9832 136.294 47.9832 136.294Z" fill="#FAF090"/>
<path d="M37.7583 105.202L37.8585 105.336C37.8251 105.236 37.7917 105.202 37.7583 105.202Z" fill="#202222"/>
<path d="M44.7421 124.668C44.7087 124.668 44.7087 124.668 44.7421 124.668C44.7421 124.768 44.8089 124.936 44.9092 125.171L44.7421 124.668Z" fill="#202222"/>
<path d="M33.6818 81.4817L33.5815 81.5487C33.6484 81.5152 33.6818 81.5152 33.6818 81.4817Z" fill="#202222"/>
<path d="M34.3502 94.6151C34.3168 94.5816 34.25 94.5146 34.2166 94.4141C34.25 94.5146 34.2834 94.6151 34.3502 94.6151Z" fill="#202222"/>
<path d="M44.5415 129.191L44.5749 128.923C44.5081 128.957 44.5081 129.057 44.5415 129.191Z" fill="#202222"/>
<path d="M47.9832 136.294C47.9832 136.26 48.0166 136.26 47.9832 136.294C47.9832 136.26 47.9832 136.26 47.9832 136.294Z" fill="#202222"/>
<path d="M47.3151 133.245C47.2816 133.178 47.2148 133.111 47.1814 133.078C47.2148 133.145 47.2482 133.245 47.3151 133.245Z" fill="#202222"/>
<path d="M47.0811 132.977C47.1145 133.01 47.1145 133.044 47.1479 133.077C47.1479 133.01 47.1145 132.943 47.0811 132.977Z" fill="#202222"/>
<path d="M94.5632 134.351C94.6969 134.518 94.8974 134.619 95.0979 134.686L94.5632 134.351Z" fill="#202222"/>
<path d="M53.7976 72.7371L53.7642 72.7706C53.7976 72.7706 53.7976 72.7371 53.7976 72.7371Z" fill="#202222"/>
<path d="M95.5657 133.815L95.6659 133.949C95.6325 133.882 95.5991 133.848 95.5657 133.815Z" fill="#202222"/>
<path d="M42.6369 125.472C42.4364 125.305 42.403 124.836 42.3027 124.869C42.403 125.07 42.4364 125.439 42.6369 125.472Z" fill="#202222"/>
<path d="M60.1462 73.9431L60.2131 74.0771C60.1797 74.0101 60.1462 73.9766 60.1462 73.9431Z" fill="#202222"/>
<path d="M95.5656 133.815L95.4653 133.647C95.4653 133.681 95.4653 133.714 95.4653 133.748C95.4987 133.748 95.5656 133.781 95.5656 133.815Z" fill="#202222"/>
<path d="M64.7907 94.7156C64.7573 94.7156 64.7573 94.7156 64.7907 94.7156C64.7573 94.6821 64.7573 94.6821 64.7573 94.6821L64.7907 94.7156Z" fill="#202222"/>
<path d="M65.2586 96.0558C65.1918 95.9888 65.1584 95.8883 65.0916 95.8213C65.1584 95.9553 65.2252 96.0223 65.2586 96.0558Z" fill="#202222"/>
<path d="M95.1313 134.719L95.4321 134.92C95.3318 134.82 95.2316 134.753 95.1313 134.719Z" fill="#202222"/>
<path d="M73.3449 108.754C73.3115 108.72 73.278 108.687 73.2446 108.653C73.3115 108.72 73.3449 108.754 73.3449 108.754Z" fill="#202222"/>
<path d="M34.584 95.6201C34.584 95.6536 34.584 95.6871 34.584 95.7541C34.6174 95.7541 34.6174 95.7206 34.584 95.6201Z" fill="#202222"/>
<path d="M29.0708 86.9762C29.0708 86.8087 28.9371 86.5407 28.8035 86.4402C28.8369 86.6077 28.9037 86.7752 29.0708 86.9762Z" fill="#202222"/>
<path d="M49.3533 67.8789C48.1503 68.281 46.9474 68.884 45.8447 69.5206C45.5774 69.6881 45.3101 69.8221 45.0428 69.9897C44.7755 70.1237 44.5416 70.2912 44.2743 70.4252C43.773 70.6932 43.2718 70.9613 42.8374 71.1623C42.5701 71.5978 42.0021 71.8994 41.434 72.2679L41.2001 71.9999L40.7657 72.3349C40.5318 72.3349 41.0999 72.1004 40.6989 72.1674L40.5987 72.4354C40.4984 72.3349 39.3289 73.005 40.0306 72.3684L38.1594 73.3401C37.725 73.5411 38.0591 73.7086 37.5579 73.8761C37.4243 73.8426 37.6916 73.7421 37.5913 73.6416C36.0877 74.1442 36.2882 75.0488 34.9516 75.5848L35.0518 75.4843C34.8848 75.6853 34.4504 75.8864 34.4838 75.9199C34.8179 76.1544 34.6174 75.6183 35.1187 75.6183C35.2189 75.8864 34.7177 76.0204 34.8179 76.1879C34.4838 76.2549 34.3835 76.4894 34.1162 76.6569C33.5816 76.724 32.9801 77.193 32.4789 77.2265C32.2784 77.461 32.1782 77.8296 31.677 78.2316C31.1758 78.3321 31.6436 77.9971 31.0755 78.2986L31.1089 78.4997C30.6745 78.8347 30.7079 78.7342 30.6745 78.6672C30.474 78.8682 30.4072 79.0022 30.3404 79.1362C30.2736 79.2703 30.1733 79.4043 29.906 79.6723C29.9394 79.5383 30.0062 79.3708 30.0397 79.2368C29.8726 79.4713 29.7389 79.6388 29.6053 79.8398C29.5384 79.9403 29.4716 80.0408 29.3714 80.1749C29.2711 80.3089 29.2043 80.4429 29.104 80.6104C29.0372 80.5434 29.2043 80.2419 29.338 80.0744C29.1041 80.2084 29.0372 80.3759 29.0038 80.5769C28.9704 80.7444 28.9704 80.912 28.937 81.0125C29.0372 80.979 29.3045 80.5099 29.338 80.8114C29.1375 81.1465 29.2043 81.649 28.937 81.8501C28.937 81.716 28.937 81.5485 28.937 81.381C28.8701 81.7831 28.8701 81.9171 28.8701 82.0176C28.8701 82.1516 28.8367 82.2856 28.7031 82.6877C28.7031 82.6542 28.6697 82.6542 28.6362 82.6207C28.7365 83.1902 28.5026 83.8938 28.5026 84.6644L28.4692 84.5304C28.536 84.8319 28.7031 84.9994 28.7031 85.167C28.7699 84.7314 28.8367 84.8654 29.0038 84.7984C28.7699 85.368 29.3714 85.6025 29.338 86.4401C29.2377 86.4401 29.1041 86.2726 29.1709 86.0046C28.8367 85.7365 28.6028 85.7365 28.4023 85.2005C28.5026 85.5355 28.6028 85.9375 28.4692 85.8705L28.7365 85.9375C28.7699 86.1386 28.7699 86.3061 28.8033 86.4401C28.9704 86.5071 29.0038 86.0046 29.2043 86.4401C29.3714 86.9427 28.9704 86.7416 29.104 86.8086C29.338 87.4787 29.4382 87.0432 29.4716 87.7132C29.4382 87.6462 29.3714 87.5457 29.3714 87.4787C29.3714 87.9478 29.6721 88.5844 29.3714 88.7854C29.2711 88.7184 29.2043 88.7519 29.1709 88.5508L29.2043 88.5508C28.8701 88.1153 29.3714 88.9529 29.0372 88.8524C29.2043 88.7854 29.3045 89.422 29.338 89.7235L29.505 89.5895C30.307 90.3936 29.104 89.623 29.4048 90.5611C29.6721 91.1307 29.4048 90.3266 29.6387 90.6616C29.7055 91.0637 29.5719 91.2647 29.8058 91.8342C29.7723 92.0018 29.7723 92.3703 29.5719 92.4708C29.7389 92.8059 29.7723 93.5764 30.0397 93.744C30.0397 93.0739 29.6387 93.2079 29.7389 92.4038L30.0062 92.5378C30.1065 93.0404 30.4072 93.6435 30.4406 94.012C30.474 93.945 30.5075 93.878 30.5743 93.9115C30.8416 94.5816 31.1089 94.7156 31.2426 95.4192C31.0755 95.5532 31.0087 95.1511 30.9084 94.8831C30.875 95.3522 31.0421 95.3522 31.1758 96.0557C31.0087 96.1563 31.0421 95.5867 30.875 95.5532L31.1423 96.2903L31.1089 96.2903C31.4097 96.3238 31.276 96.8598 31.4765 97.2954C31.8106 98.3675 32.245 98.4345 32.646 98.9371C32.6126 99.1046 32.5792 99.2051 32.4789 99.1381C32.5123 98.8366 32.4455 98.9036 32.3453 98.8366C32.4789 99.2051 32.3453 99.7077 32.1782 99.5402C32.4455 100.076 32.245 99.2721 32.4455 99.6072L32.7128 100.411C32.8131 100.277 32.7462 99.9757 33.0136 100.344C33.1806 100.679 33.1806 100.847 33.3477 101.282C33.2475 101.249 33.1806 101.483 33.0804 101.148C33.1138 101.383 33.214 101.718 33.3811 101.818C33.3477 101.282 33.7821 102.589 33.8823 102.12L33.9157 102.656C33.8823 102.556 33.7821 102.556 33.7487 102.388C33.5816 102.589 33.9492 102.757 34.016 102.924C34.0494 103.125 34.1831 103.561 34.1162 103.628C34.2165 103.762 34.3167 104.164 34.2499 104.264C34.3835 104.465 34.3835 104.231 34.4838 104.264L34.7511 105.035C34.6509 105.135 34.3501 105.303 34.2833 105.202C34.4838 105.47 34.6509 105.169 34.8179 105.638C34.5172 105.47 34.8514 106.274 34.4504 106.006C34.3835 106.308 34.6509 107.045 34.8848 107.414C35.1521 107.581 34.8179 106.945 35.0184 106.911C35.5196 108.017 36.0209 107.883 36.2548 108.72L36.2213 108.486C36.5221 108.955 36.4887 108.921 36.756 109.156C36.4887 109.089 36.3884 109.96 36.756 110.797C36.8896 110.831 36.7894 110.261 37.0233 110.328L37.2906 110.864C37.2906 110.898 37.2238 110.864 37.157 110.797C37.4243 111.267 37.2238 111.836 37.5579 111.87L37.4243 112.506L37.4911 112.238C37.6248 112.272 37.8921 112.808 37.9589 112.908C38.2931 113.411 38.2931 113.679 38.2596 114.047C38.3265 113.913 38.4267 113.578 38.6272 114.014C38.2596 114.148 38.8611 114.985 38.694 115.052C38.7609 115.22 38.7943 115.589 38.9613 115.555L38.7274 115.622C39.0616 115.522 39.2955 116.192 39.5628 116.661C39.095 116.728 39.8301 117.197 39.5294 117.565C39.8635 117.532 39.9972 118.403 40.2979 118.403C40.465 118.771 40.1977 118.838 40.1308 118.972L40.2979 119.106C40.2311 119.341 40.5318 120.078 40.5987 120.547L40.9996 120.849L40.9328 121.05C41.033 121.083 41.2001 121.418 41.2001 121.15L41.2669 121.385C41.5677 121.284 41.4674 121.653 41.7682 122.055C41.7682 122.189 41.7013 122.189 41.6011 122.088C41.7013 122.289 41.5008 122.256 41.4674 122.423C41.4674 122.256 42.2694 122.993 42.1691 122.356C42.2694 122.256 42.5033 122.591 42.5367 122.792L42.3362 123.026L42.7038 123.16C42.8708 123.462 42.7706 123.697 42.8708 123.965C42.7372 123.697 42.1357 123.562 42.4365 124.266C42.236 123.898 42.0355 123.764 41.9018 123.596C41.9352 123.764 41.9687 123.831 41.7682 123.629C42.0689 124.166 42.0021 123.764 42.236 124.3C42.0021 124.367 42.0021 124.534 42.1023 125.07L42.1357 124.635C42.1691 124.635 42.2026 124.668 42.236 124.668C42.2026 124.534 42.236 124.467 42.3028 124.4C42.3362 124.501 42.8374 124.936 42.7372 125.07C42.8708 124.367 43.4055 125.908 43.4723 125.472C43.5726 125.506 43.7396 125.874 43.6394 125.975C43.2718 125.573 43.5391 126.41 43.3386 126.41C43.4723 126.544 43.3721 125.975 43.5391 126.176C43.6728 126.444 43.606 126.712 43.606 126.879L43.5057 126.779L43.5725 127.248C43.7062 127.281 43.606 126.745 43.8065 127.114C43.8065 127.248 44.0069 127.616 43.9401 127.616C43.7062 127.482 43.5725 127.717 43.4055 127.382C43.5391 127.65 43.9067 128.521 43.9735 128.086L44.1072 128.421C44.1072 128.186 44.0404 127.516 44.3411 128.186L44.3077 128.186L44.6752 128.588L44.6418 128.823C44.7086 128.789 44.7755 128.856 44.8423 129.024C44.8089 129.091 44.8423 129.258 44.7421 129.292C44.9425 129.794 45.0428 129.694 45.143 129.727C45.2767 129.995 45.2767 130.129 45.0762 130.029C45.2099 130.431 45.5106 131.067 45.4772 131.369C45.7779 131.838 45.4772 131.235 45.7445 131.469C45.544 132.072 46.2791 133.212 46.6467 134.016C46.8806 133.647 46.7803 134.217 47.1479 134.25C46.9808 134.116 47.2147 135.155 46.8138 134.451L47.0142 134.887C46.9474 135.255 46.5799 134.217 46.513 134.786C46.7135 135.289 47.2147 135.456 47.3484 136.093C47.0142 135.992 47.6157 136.495 47.2816 136.462C47.1479 136.361 47.1145 136.193 47.0142 136.059L47.0142 136.193C47.3818 137.299 47.4152 136.395 47.8162 136.897C48.1169 137.534 47.8496 137.5 47.7494 137.601C47.7494 137.735 47.9164 138.036 48.0501 138.17C47.7494 137.835 47.883 137.366 48.1169 137.467C47.9499 137.869 48.4845 138.438 48.685 138.572C48.5847 137.5 48.4177 137.902 48.3842 136.897C48.2506 136.797 48.0167 136.931 47.883 136.361C48.1503 136.629 48.0167 136.294 48.0167 136.16C47.9164 136.327 47.8162 135.825 47.6825 135.691C47.7494 135.49 48.1503 135.858 47.9833 135.322L47.6157 135.356C47.5823 135.121 47.883 135.356 47.6491 134.92C47.9164 135.088 47.883 134.719 48.1838 135.322C48.1838 134.485 47.5823 134.284 47.2147 133.781C47.2482 133.815 47.315 133.815 47.3484 133.848C47.2147 133.781 47.1145 133.547 47.0477 133.379C46.9808 132.977 47.315 133.614 47.3818 133.48L47.1145 132.877C47.1145 132.843 47.1145 132.843 47.1479 132.843C47.0477 132.709 46.9474 132.575 47.0142 132.475C47.1813 132.609 47.3484 132.642 47.4821 132.709L46.9808 132.173C47.1145 132.207 46.9474 131.57 47.2147 131.972L46.7803 131.067L46.9808 130.9C46.8472 130.699 46.8138 130.699 46.8806 131C46.8138 130.665 45.9116 129.761 46.4128 129.727C45.945 129.057 45.9116 128.789 45.4103 127.952C45.9116 128.555 45.3435 127.047 45.7445 127.75C45.6777 127.281 45.3769 127.315 45.2099 126.98C45.1764 126.611 45.4438 126.678 45.6777 126.98L45.4103 126.611L45.4438 126.611L45.1764 126.31C45.143 125.908 45.3769 126.142 45.2433 125.74L45.0094 125.74L45.0094 125.439C44.9425 125.573 44.8423 125.372 44.7086 125.104L44.7421 125.104L44.575 124.802C44.8423 125.07 44.5082 124.467 44.7086 124.568C44.6084 124.266 44.6084 124.266 44.3411 123.764L44.2408 123.898C43.8399 123.261 44.4413 123.797 44.2074 123.227L44.0738 123.328C44.0069 122.423 43.3721 122.055 43.3052 121.418C43.4723 121.72 43.6394 121.586 43.5725 121.586C43.3052 121.117 43.0379 120.279 42.6369 119.844C42.804 119.576 42.8374 119.475 42.7372 118.905C42.5701 118.537 42.5367 118.47 42.3362 118.403C42.2694 118.001 41.8684 117.364 42.0021 117.264C41.835 117.23 41.9018 116.929 41.7013 116.761L41.7682 116.694L41.6345 116.795C41.7013 115.991 40.9662 115.756 40.9996 114.952L41.0999 115.052L40.9328 114.784C40.9996 114.717 41.0665 114.818 41.1667 114.784L40.6655 113.478L40.6655 113.779C40.5318 113.511 40.2979 113.377 40.2645 113.042C40.6989 113.478 40.0974 112.607 40.2645 112.439L40.4316 112.707C40.2645 112.339 40.2645 112.339 40.1309 112.439C39.8635 111.97 40.2979 111.97 39.9304 111.602L40.064 111.937C39.9972 112.071 39.7967 111.903 39.6965 111.669C39.6965 111.602 39.6965 111.434 39.7967 111.568C39.5962 111.2 39.4291 110.563 39.2955 110.429C39.2621 110.194 39.3957 110.228 39.496 110.328C39.0282 109.558 39.3623 109.926 38.8945 109.156L38.9948 109.122L38.7609 108.888L38.7943 108.385L38.7274 108.586C38.5938 108.318 38.4601 108.184 38.3933 107.816L38.5604 107.883C38.1928 107.146 38.4267 106.911 37.9589 106.241C37.9589 106.174 38.0591 106.274 38.0926 106.341C37.6248 105.738 38.126 105.738 37.6248 105.135C37.6916 105.169 37.725 105.068 37.7584 105.068L37.5579 104.8L37.7584 104.767L37.3909 104.599L37.4911 104.331L37.3574 104.231C37.5913 103.762 37.1235 103.393 37.2238 102.824L37.0233 102.991C36.1211 102.019 36.3216 100.244 35.6199 98.9036L35.8204 98.8701L35.4194 98.3675C35.4528 97.999 35.6533 98.5015 35.6867 98.3675C35.386 97.7644 35.3192 98.2 35.0518 97.4964C35.0518 97.0944 35.2189 97.5969 35.3526 97.7309C35.0184 97.0944 34.6174 96.1227 34.584 95.5867C34.5506 95.5867 34.5172 95.5532 34.5172 95.5867C34.2833 95.1511 34.1831 94.5481 34.0494 94.0455C34.1496 94.0455 34.1831 94.146 34.2499 94.28C34.2165 94.1125 34.1831 93.8445 34.0494 93.7105L34.2499 93.8445C34.1496 93.4424 33.8155 92.7388 33.9826 92.6048C33.9157 92.6718 33.7821 92.7053 33.6818 92.3703C33.9157 92.1023 33.3143 91.4992 33.3143 90.9296C33.4145 90.9631 33.5148 91.3652 33.4814 91.2647C33.4814 90.9631 33.2809 90.7621 33.1472 90.5611L33.2809 90.5946C33.1138 90.1925 32.9801 89.7905 32.8131 89.3884C33.047 89.1204 32.4789 88.2158 32.7128 88.2493C32.6126 87.8138 32.6794 88.6514 32.5123 88.0818C32.6126 87.9143 32.3453 87.5792 32.5457 87.5792L32.5792 87.6462L32.4789 87.2442L32.7128 87.4452C32.6126 87.1102 32.3453 86.9092 32.2116 86.9092C32.245 86.5741 32.0779 86.1386 32.2116 85.9711L32.2784 86.0716C32.1782 85.636 32.245 85.2675 32.3118 84.9659C32.3787 84.6309 32.4455 84.3964 32.2784 84.0948C32.3118 84.0613 32.3453 84.0613 32.3453 84.1618C32.3453 84.0278 32.3453 83.8603 32.3787 83.7263L32.5123 83.8268C32.4455 83.5923 32.4121 83.3577 32.3787 83.1567L32.4789 83.1902C32.5792 82.7882 32.7128 82.3191 33.0136 81.9171L33.0136 81.9841C33.1138 81.7495 33.2475 81.649 33.3477 81.582C33.4479 81.515 33.5482 81.4815 33.7153 81.2805C33.7153 81.314 33.7153 81.314 33.7153 81.3475C33.8155 81.247 33.9492 81.18 34.0828 81.0795L34.0494 81.2135C34.2165 80.8449 35.0518 80.9119 34.7511 80.8784C34.8848 80.6774 35.1855 80.4094 35.1855 80.2754C35.7201 79.9738 35.386 80.3089 35.7535 80.2084C36.1545 80.0073 36.1545 79.8063 36.756 79.6053L36.7894 79.7058C37.0567 79.5383 37.1904 79.4043 37.5245 79.2032L37.4243 79.3038C37.9255 78.8012 38.2931 79.1697 38.5604 78.5332C38.8611 78.4662 39.2955 78.1646 39.3623 78.3656C40.064 77.8631 40.5987 77.528 41.3004 77.059C41.5677 77.2935 41.434 76.9585 41.9687 76.8915L41.8684 76.7575C42.9043 76.1879 44.3077 75.9534 45.4103 75.2833L45.5106 75.4173L45.6443 75.1158C46.2791 74.8142 47.0142 74.4792 47.716 74.1442C48.3842 73.8426 48.9857 73.5746 49.4201 73.3736C49.6874 73.1725 50.055 72.804 50.5228 72.7035L50.4894 72.737C50.6899 72.6365 50.8569 72.5695 51.0574 72.5025C51.2579 72.4354 51.4584 72.3684 51.6255 72.3349C52.0264 72.2344 52.394 72.2344 52.7281 72.3014C52.6947 72.3684 52.7281 72.4354 52.6613 72.469C52.7281 72.3684 52.8284 72.4019 52.9286 72.4019C53.0289 72.4355 53.0623 72.5025 53.1291 72.5025L52.9955 72.3349C53.0957 72.2679 53.1959 72.3014 53.2628 72.3349C53.3296 72.4019 53.3964 72.5025 53.3964 72.5695C53.4967 72.536 53.5635 72.536 53.6972 72.5025C53.6972 72.536 53.7306 72.5695 53.6972 72.5695C53.7306 72.536 53.764 72.536 53.764 72.5025C53.764 72.603 53.764 72.67 53.764 72.7705C53.8308 72.737 54.0981 72.871 54.332 72.8375C54.2986 72.9045 54.4323 73.139 54.2652 73.005C54.4657 73.273 54.6996 73.6081 54.8667 74.0101L54.8333 73.7756C54.9669 73.6751 55.2676 73.9766 55.3011 74.2447C55.0337 74.0101 55.0672 74.3452 55.0003 74.5127C55.1674 74.6467 55.0672 74.2782 55.2008 74.3452C55.4013 74.5127 55.702 75.0488 55.702 75.2498L55.5684 75.1158C55.7689 75.4508 55.5684 75.7523 55.7354 76.1209C56.0028 76.4224 56.0028 76.724 56.2367 76.5564C56.504 77.0255 56.1364 76.8245 56.1698 76.992C56.4037 77.1595 56.6042 77.9301 56.504 78.0641C57.0052 78.1646 56.9384 79.4713 57.3059 79.4378L57.3059 79.9403C57.4062 79.9068 57.6401 79.9068 57.8071 80.2419C57.8406 80.6104 57.6735 80.5769 57.6067 80.7109L58.041 80.7779C58.275 81.7496 58.7093 82.8217 59.1771 83.8938C59.645 84.9659 60.1796 86.0381 60.4803 87.0767C60.9481 87.9143 61.6498 88.9194 62.151 89.958L62.0508 89.8575L62.4852 90.8961L62.2513 90.092C62.3849 90.2931 62.552 90.4271 62.6523 90.6281C62.8862 91.1977 63.1201 91.9012 63.4542 92.5713C63.7884 93.2414 64.1559 93.945 64.5903 94.5481C65.4257 95.2181 64.5903 95.2851 65.292 95.9887C65.2252 95.9217 65.1584 95.9552 65.0915 95.8882C65.693 96.6923 66.0605 97.1279 66.7622 97.8985C66.3613 97.999 67.0964 98.468 66.8625 98.5015L67.063 98.5015C67.0964 98.7361 67.3303 99.2386 67.1966 99.2051L67.5976 99.4731L67.464 99.6072C67.7313 100.143 68.5332 101.115 68.3996 101.584C68.9008 102.153 69.4354 102.924 69.9366 103.762C70.4713 104.599 71.0059 105.47 71.4737 106.274C71.741 106.408 72.0417 106.844 72.2756 107.213L72.3425 107.715C72.6432 108.017 73.111 108.251 73.2113 108.653C73.1778 108.653 73.1778 108.653 73.1444 108.653C73.4117 108.988 73.5788 109.39 73.9464 109.625C74.2137 110.027 74.3808 110.462 74.1469 110.462C74.4476 110.295 74.6815 111.334 74.6815 111.334C74.6815 111.334 75.5169 112.607 76.8534 114.583C78.2234 116.527 80.1281 119.173 82.2332 121.854C86.4768 127.248 91.6895 132.743 94.3627 134.284C94.63 134.317 95.0644 134.652 95.0644 134.351C95.3985 134.619 95.2983 134.954 95.4988 134.92C95.198 134.418 95.9332 134.753 95.6992 134.217L95.9666 134.451C96.1002 134.418 95.5322 134.183 95.7661 134.083L95.4654 134.217C95.2983 133.982 95.2314 133.815 95.2649 133.647C94.9975 133.513 94.5632 133.681 94.2624 133.078L94.3961 133.212C94.0285 132.81 94.3293 132.843 94.2958 132.709L94.3627 132.81L94.1622 132.374C94.3292 132.709 94.8639 132.944 94.6634 132.743C94.2958 132.207 94.7302 132.91 94.3627 132.575C94.1622 132.374 94.3293 132.307 94.3961 132.274L94.0285 131.871C94.1622 131.804 94.2624 132.14 94.229 131.871L93.661 131.469C93.8614 131.134 93.0261 131.034 93.0929 130.598C93.4605 130.9 93.1598 130.498 93.2934 130.464L92.4914 129.593C92.458 129.459 92.7922 129.761 92.6585 129.627C92.5917 129.392 92.3578 129.426 92.291 129.325C92.291 129.191 91.7229 128.655 91.9234 128.521C91.5224 127.817 91.4556 128.454 91.088 127.817C91.1215 127.65 91.489 128.253 91.3888 127.885L90.8541 127.348C90.9544 127.348 91.1215 127.315 91.2885 127.549C90.0856 125.841 89.9519 124.467 88.582 123.16C88.5485 122.825 88.7824 123.227 89.0163 123.294C87.9471 122.39 88.0807 121.552 87.3456 120.648L87.212 120.715C86.5102 119.173 85.1403 117.766 84.1378 116.225L84.2046 116.46C83.9373 116.359 83.67 116.024 83.4361 115.823C83.4695 115.756 83.8037 115.823 83.4361 115.421C83.4695 115.555 83.5364 115.756 83.4695 115.756C83.1354 115.019 82.4671 113.98 81.6986 112.875C80.93 111.769 80.0947 110.529 79.4264 109.424C78.8917 108.72 78.3905 107.983 77.8893 107.246C77.3881 106.509 76.8869 105.738 76.4191 104.968C75.9512 104.197 75.45 103.427 74.9822 102.656C74.5144 101.919 74.0132 101.148 73.5454 100.445C73.8461 100.88 73.4117 100.88 73.2781 100.512C73.2113 99.2721 72.2088 98.9706 71.9749 97.7979C71.3735 96.9938 70.9725 96.1227 70.5381 95.2851C70.1037 94.4475 69.6693 93.677 69.001 92.9734L69.1347 92.8729C69.0679 92.6048 68.9342 92.5713 68.7671 92.3368L68.8005 92.3033C68.5332 91.6667 67.9652 91.0301 67.8649 90.6281L67.6979 90.6951C67.4974 90.3266 67.7313 90.4271 67.4305 90.1255L67.5308 90.092C67.3971 89.9915 67.2635 89.8575 67.1298 89.757C67.464 89.6565 66.6286 88.7184 66.5952 88.3498C66.2944 87.9143 65.693 87.0767 65.3922 86.3396C65.4591 86.1386 65.0581 85.234 64.8576 84.6309C64.2896 83.5588 63.4542 82.0176 62.8862 80.5434L62.6857 80.6439L62.5186 80.2754C62.552 80.2754 62.552 80.2084 62.6188 80.2419C62.7191 79.8398 62.151 79.4043 62.1845 79.0692C62.0842 79.3373 62.2847 79.3373 62.3515 79.5383C62.3849 79.8733 62.0842 79.6723 61.984 79.2368L62.0174 79.2368L61.7835 79.0022C61.9171 78.9017 61.8837 78.6002 62.0174 78.4997C61.4493 77.2935 60.8479 76.5564 60.3801 75.2498C60.614 75.3168 59.9457 74.3452 60.3801 74.4792C59.9457 73.7756 60.1796 74.7137 59.812 74.4457C59.7118 74.2447 59.5447 74.0436 59.6449 73.9431C59.7452 74.0101 59.7452 73.6751 59.8454 73.8426L59.6115 73.3066C59.6115 73.2395 59.7118 73.3401 59.7452 73.4071C59.411 72.871 59.244 72.3349 58.9767 71.7319C58.7428 71.1623 58.442 70.5592 57.874 70.0567C57.7069 70.0567 58.2081 70.5257 58.041 70.5257C57.5064 70.0232 57.3059 69.7551 57.1054 69.4871C56.905 69.2191 56.7045 68.9175 56.0028 68.616L56.3369 68.6495C56.103 68.5825 55.9025 68.5155 55.7354 68.4485C55.535 68.3815 55.3011 68.281 54.9669 68.0464C54.9001 67.8119 55.6686 68.1469 56.0362 68.281C55.8023 68.1134 55.3345 67.9459 54.9669 67.8119C54.5994 67.7114 54.3654 67.7114 54.5325 67.8454C54.3654 67.8119 54.2318 67.7784 54.1315 67.7449C54.0313 67.7114 53.9311 67.6779 53.8308 67.6444C53.6637 67.5774 53.5301 67.4769 53.363 67.4434C53.363 67.4769 53.9311 67.6779 53.5635 67.7114C53.363 67.6444 53.1291 67.6109 52.8618 67.5774C52.5945 67.5439 52.3606 67.5104 52.0933 67.5104C51.8259 67.5104 51.5586 67.5104 51.3247 67.5439C51.0574 67.5439 50.8235 67.6109 50.5896 67.6444C50.5896 67.6109 50.5228 67.5439 50.5896 67.5104C50.2555 67.6779 50.0884 67.6779 49.8879 67.6779C50.0216 67.7449 49.7877 67.7114 49.3533 67.8789Z" fill="#202222"/>
<path d="M31.1423 96.5582L31.0755 96.2902C31.0421 96.2902 30.9753 96.2902 30.9084 96.1897L31.1423 96.5582Z" fill="#202222"/>
<path d="M28.6697 82.6208C28.6697 82.5873 28.6696 82.5203 28.6362 82.4868C28.6362 82.5538 28.6362 82.5873 28.6697 82.6208Z" fill="#202222"/>
<path d="M30.4742 78.6337C30.2737 78.8682 30.5076 78.7343 30.6413 78.6673C30.6413 78.6338 30.6079 78.6002 30.4742 78.6337Z" fill="#202222"/>
<path d="M34.1161 103.661C34.0827 103.628 34.0493 103.594 34.0159 103.628C34.0827 103.661 34.1161 103.695 34.1161 103.661Z" fill="#202222"/>
<path d="M41.6012 122.122C41.5678 122.055 41.5344 121.988 41.501 121.921C41.5344 121.988 41.5678 122.055 41.6012 122.122Z" fill="#202222"/>
<path d="M32.3453 98.8365C32.3119 98.7695 32.2785 98.7025 32.2117 98.6355C32.2785 98.7695 32.3119 98.803 32.3453 98.8365Z" fill="#202222"/>
<path d="M41.3673 121.686L41.2671 121.418L41.2336 121.418L41.3673 121.686Z" fill="#202222"/>
<path d="M41.9017 123.663C41.8683 123.562 41.8015 123.395 41.7681 123.328C41.7681 123.462 41.8349 123.562 41.9017 123.663Z" fill="#202222"/>
<path d="M37.1235 110.798C36.9564 110.597 37.0232 110.731 37.1235 110.798V110.798Z" fill="#202222"/>
<path d="M40.5654 120.614L40.4985 120.514L40.5654 120.614Z" fill="#202222"/>
<path d="M42.3029 124.869C42.2695 124.836 42.2361 124.769 42.2026 124.735C42.2026 124.769 42.236 124.836 42.236 124.903C42.2695 124.869 42.2695 124.869 42.3029 124.869Z" fill="#202222"/>
<path d="M38.4937 115.019C38.5939 115.053 38.6607 115.086 38.6942 115.053C38.6273 114.986 38.5939 114.919 38.4937 115.019Z" fill="#202222"/>
<path d="M8.35352 47.7766C8.38693 47.8101 8.42034 47.8101 8.45376 47.8101C8.42034 47.7766 8.38693 47.7766 8.35352 47.7766Z" fill="#202222"/>
<path d="M5.07897 32.1637L4.94531 32.0967C5.01214 32.1637 5.04556 32.1637 5.07897 32.1637Z" fill="#202222"/>
<path d="M14.268 62.1499C14.2346 62.1164 14.2346 62.1164 14.268 62.1499C14.3348 62.3509 14.4351 62.6524 14.6355 63.1215L14.268 62.1499Z" fill="#202222"/>
<path d="M15.3706 19.6669L15.1367 19.4324C15.237 19.5329 15.3038 19.5999 15.3706 19.6669Z" fill="#202222"/>
<path d="M17.7432 31.4267C17.6764 31.3262 17.6095 31.1587 17.5093 31.0247C17.5761 31.1922 17.6429 31.3597 17.7432 31.4267Z" fill="#202222"/>
<path d="M17.175 70.1574L16.9077 69.7554C16.8743 69.7889 16.9411 69.9229 17.175 70.1574Z" fill="#202222"/>
<path d="M25.5622 74.8813C25.4619 74.7808 25.3283 74.6803 25.228 74.6133C25.3617 74.7473 25.5288 74.9148 25.5622 74.8813Z" fill="#202222"/>
<path d="M25.0608 74.4792C25.1276 74.5128 25.161 74.5798 25.2279 74.6133C25.161 74.5463 25.0942 74.4792 25.0608 74.4792Z" fill="#202222"/>
<path d="M53.4967 66.3713C53.2963 66.7734 53.2628 67.1419 53.1626 67.544L53.4967 66.3713Z" fill="#202222"/>
<path d="M28.0349 7.60547L28.0015 7.67248C28.0349 7.63897 28.0349 7.60547 28.0349 7.60547Z" fill="#202222"/>
<path d="M54.2987 67.3096L54.1316 67.5776C54.1984 67.5106 54.2652 67.4101 54.2987 67.3096Z" fill="#202222"/>
<path d="M12.163 62.887C11.8622 62.5185 11.6283 61.6139 11.5281 61.6474C11.7286 62.1164 11.9291 62.753 12.163 62.887Z" fill="#202222"/>
<path d="M37.4912 11.4248L37.6583 11.6928C37.5915 11.5588 37.5246 11.4583 37.4912 11.4248Z" fill="#202222"/>
<path d="M54.2986 67.3094L54.4657 66.9744C54.4322 67.0079 54.3988 67.0079 54.3654 67.0414C54.3654 67.1419 54.332 67.2424 54.2986 67.3094Z" fill="#202222"/>
<path d="M48.752 11.1233C48.752 11.1568 48.752 11.1568 48.752 11.1903C48.7854 11.1903 48.7854 11.1568 48.752 11.1233Z" fill="#202222"/>
<path d="M53.1626 67.5439L52.9622 68.214C53.0624 67.9795 53.1292 67.7785 53.1626 67.5439Z" fill="#202222"/>
<path d="M51.0573 32.0969C51.0573 31.9964 51.0239 31.8959 51.0239 31.8289C51.0239 31.9294 51.0573 32.0299 51.0573 32.0969Z" fill="#202222"/>
<path d="M18.4783 34.241C18.4783 34.3415 18.5117 34.4755 18.5117 34.6095C18.5451 34.643 18.5785 34.6095 18.4783 34.241Z" fill="#202222"/>
<path d="M7.6519 15.68C7.6519 15.4454 7.61848 15.1439 7.58507 14.8424C7.55165 14.5408 7.51824 14.2728 7.48482 14.0718C7.48482 14.3063 7.45141 14.5408 7.48482 14.8089C7.51824 15.0769 7.55165 15.3449 7.6519 15.68Z" fill="#202222"/>
<path d="M8.08636 11.1233C8.05295 11.1568 8.05295 11.2238 8.01953 11.2573C8.05295 11.1903 8.05295 11.1568 8.08636 11.1233Z" fill="#202222"/>
<path d="M13.1987 29.9859C13.1987 29.9189 13.1653 29.8183 13.1318 29.6843C13.1318 29.7848 13.1318 29.8853 13.1987 29.9859Z" fill="#202222"/>
<path d="M22.5548 10.9893C22.9224 13.3681 23.7912 15.7469 24.6265 17.9916C25.4619 20.2364 26.2304 22.3806 26.5646 24.1899C26.6314 24.2904 26.6648 24.3909 26.6982 24.4914C26.7316 24.5584 26.7316 24.5919 26.7651 24.6589L26.7985 24.7259L26.7985 24.7594C26.8319 24.7929 26.8653 24.8599 26.8987 24.9269C26.9655 25.0275 26.999 25.1615 27.0324 25.329C26.8987 25.262 26.7985 25.1615 26.6648 25.061C26.6982 25.128 26.7316 25.195 26.7651 25.2955C26.6648 25.195 26.6982 25.1615 26.5646 25.061C26.6314 25.1615 26.6982 25.262 26.7985 25.3625C26.7316 25.2955 26.6982 25.329 26.6648 25.2955C26.6314 25.2955 26.5646 25.1615 26.4643 24.9269C26.4643 24.9269 26.4643 24.9604 26.4309 24.9269C26.4309 24.8934 26.4643 25.463 26.3975 25.2285C26.3975 25.061 26.3975 25.128 26.3975 24.9269C26.3975 24.8264 26.3975 24.8599 26.3975 24.8934C26.3975 24.8934 26.3975 24.9269 26.3641 24.9269C26.3641 24.9269 26.3307 24.9269 26.2973 24.9269C26.2638 24.9269 26.197 24.9269 26.1302 24.9269C26.0633 24.9269 25.9965 24.9269 25.9297 24.8934L25.8963 24.8934L25.8629 24.8599C25.8294 24.8264 25.7626 24.7929 25.7292 24.7259C25.629 24.6254 25.5621 24.5584 25.4619 24.4579C25.0943 24.0893 24.7268 23.6538 24.2924 23.0507L24.4929 23.2182C24.0919 22.8832 23.5238 22.1461 23.457 22.1461C23.4236 22.6487 23.9248 22.4477 24.3592 23.2517C24.0919 23.3858 23.5238 22.4812 23.3902 22.6487C23.0226 22.0456 22.6551 21.8446 22.2541 21.409C21.7195 20.5044 20.6502 19.4993 20.316 18.7622C19.9151 18.4607 19.3136 18.2262 18.5785 17.4556C18.2109 16.7185 18.8792 17.4221 18.2109 16.618L17.977 16.618C17.409 15.9814 17.5426 16.0484 17.6095 16.0149C16.9746 15.3448 16.9078 15.6128 16.1726 14.7417L16.7407 15.0768C16.4065 14.8087 16.2061 14.5742 15.9387 14.3397C15.638 14.0382 15.2704 13.6696 14.7358 13.1336C14.7692 13.1 14.9363 13.2341 15.1368 13.4351C15.237 13.5356 15.3373 13.6361 15.4709 13.7366C15.5378 13.8036 15.6046 13.8706 15.6714 13.9376C15.638 13.8706 15.6046 13.8036 15.5378 13.7366C15.5378 13.7031 15.4709 13.6696 15.4375 13.6026C15.4041 13.5691 15.3373 13.5021 15.3039 13.4686C15.1368 13.3011 14.9697 13.1671 14.8026 13.033C14.4685 12.7985 14.2012 12.6645 14.0007 12.4635C14.1009 12.631 15.0365 13.5691 14.4685 13.2676C14.1344 12.9325 13.7668 12.6645 13.4326 12.3965C13.0985 12.1284 12.7978 11.8939 12.5973 11.5254L13.3658 12.0279C11.929 10.8553 12.5973 11.5924 10.9934 10.0847C11.0602 10.1517 11.0268 10.0512 11.0602 10.0177C10.5256 9.68264 9.89071 9.11308 9.15559 8.40949C8.98851 8.51001 8.85486 8.54351 8.68778 8.71103C8.55412 9.04607 8.42047 9.41461 8.28681 9.78316L8.35364 9.41461C8.25339 9.81666 8.18657 10.1182 8.15315 10.3862C8.11974 10.6543 8.08632 10.8553 8.01949 11.0228C8.35364 10.2187 8.32022 10.5202 8.45388 10.6543C8.32022 10.8553 8.25339 11.0898 8.18657 11.3578C8.11974 11.6259 8.11974 11.8939 8.08632 12.2289C8.08632 12.3965 8.05291 12.5305 8.05291 12.698C8.05291 12.8655 8.05291 13.033 8.05291 13.2341C8.05291 13.4351 8.01949 13.6026 8.01949 13.8036C8.01949 14.0047 7.98608 14.2392 7.98608 14.4737C7.95266 14.4402 7.88583 14.2727 7.88583 14.0382C7.88583 13.9376 7.88583 13.8036 7.88583 13.6696C7.88583 13.5356 7.91925 13.4351 7.98608 13.3011C7.91925 12.8655 7.819 12.5305 7.78559 12.1619C7.75218 11.7934 7.75218 11.3913 7.88583 10.7213C7.78559 11.1568 7.71876 11.5589 7.61852 11.8604C7.55169 12.1619 7.51827 12.3295 7.48486 12.1954C7.55169 12.363 7.61852 12.5305 7.68535 12.6645C7.65193 12.899 7.61852 13.1336 7.5851 13.3011C7.55169 13.5021 7.55169 13.7031 7.55169 13.9041C7.61852 14.0717 7.71876 13.8706 7.78559 13.7701C7.85242 13.6696 7.88583 13.7031 7.91925 14.3062C7.91925 14.9428 7.91925 15.1103 7.819 15.1103C7.75218 15.1103 7.68535 14.9763 7.75218 15.1103C7.81901 15.5793 7.85242 15.8809 7.88583 16.0484C7.95266 16.2494 7.98608 16.3499 8.01949 16.4504C8.05291 16.551 8.08632 16.618 8.11974 16.819C8.15315 16.9865 8.18657 17.2545 8.25339 17.6901C8.18657 17.5226 8.05291 17.1875 8.08632 17.02C8.11974 17.3215 8.18656 17.6901 8.28681 18.0586C8.32022 18.1926 8.35364 18.3602 8.38705 18.4942C8.42047 18.6282 8.45388 18.7622 8.4873 18.8627C8.62095 19.3653 8.7212 19.7673 8.62095 19.9684C8.52071 19.8678 8.38705 19.8678 8.28681 19.4993L8.35364 19.4993C8.08632 19.0302 8.15315 19.2313 8.25339 19.5328C8.35364 19.8343 8.52071 20.2029 8.32022 20.1024C8.38705 20.0354 8.52071 20.3369 8.68778 20.7054C8.85486 21.074 9.02193 21.543 9.15559 21.8111L9.25583 21.543C10.6258 23.1177 8.85486 21.6101 9.79046 23.3858C10.4588 24.4244 9.62339 22.9502 10.0912 23.5533C10.4253 24.3239 10.4253 24.6924 11.0602 25.6975C11.1605 26.0326 11.3944 26.6691 11.2273 26.8367C11.6617 27.4397 12.1629 28.8134 12.5305 29.0479C12.1295 27.8753 11.7619 28.0763 11.3275 26.6691L11.6951 26.9372C12.1629 27.8083 12.8312 28.8804 13.0651 29.517C13.0317 29.383 13.0651 29.2825 13.1319 29.3495C13.4661 29.9525 13.7334 30.3211 13.9673 30.6896C14.0675 30.8906 14.2012 31.0582 14.3014 31.2927C14.4017 31.5272 14.5019 31.7617 14.6022 32.0633C14.4685 32.2978 14.2346 31.5607 14.0007 31.0582C14.1009 31.4937 14.1678 31.6947 14.3014 31.9293C14.4351 32.1973 14.5353 32.4988 14.7358 33.1019C14.6022 33.2359 14.4685 32.2978 14.2346 32.1973L14.669 33.3029L14.6356 33.3029C14.8026 33.3029 14.8361 33.4705 14.8361 33.6045C14.8361 33.772 14.8026 33.906 14.9029 34.107C14.9697 34.5426 15.07 34.8776 15.237 35.3132C15.3039 35.5477 15.3707 35.7487 15.4709 35.9832C15.5378 36.2178 15.6046 36.4858 15.638 36.7873C15.5044 36.8544 15.4041 36.7203 15.3373 36.5193C15.5378 36.4858 15.4041 36.3183 15.3373 36.0838C15.3373 36.3183 15.2036 36.3853 15.07 36.3183C14.9363 36.2513 14.8026 36.0503 14.7692 35.8492C14.7692 35.8827 14.7692 35.9162 14.7692 35.9497C14.7692 35.9497 14.7692 35.9497 14.7358 35.9497C14.7358 35.9497 14.7358 35.9497 14.7358 35.9832C14.7358 36.0168 14.8026 36.0838 14.8361 36.1508C14.8695 36.1843 14.8695 36.2178 14.9029 36.2513C14.9029 36.2513 14.9363 36.2513 14.9363 36.2848C14.9363 36.2848 14.9697 36.3183 14.9697 36.3518C14.9697 36.3853 14.9697 36.3853 14.9697 36.4188C14.9697 36.4523 14.9697 36.4188 14.9363 36.4188L14.6356 36.1173L14.3683 35.8827C14.5019 36.2178 14.8026 36.4858 14.5019 36.3853C14.2346 36.1843 14.0675 36.0168 13.6666 35.6482C13.7 35.5812 13.5329 35.2462 13.8002 35.4807C13.6331 35.2462 13.3992 35.0451 13.2656 35.1121C13.4661 35.3802 13.299 35.2797 13.0985 35.1456C12.898 35.0116 12.6307 34.8776 12.7644 35.1456L12.5639 34.8776C12.5305 34.8441 12.497 34.8106 12.4636 34.7436L12.2966 34.5426C12.3968 34.6096 12.4636 34.6431 12.5305 34.6766C12.5973 34.7101 12.6307 34.7101 12.6975 34.8106C12.6975 34.7436 12.6641 34.6766 12.6307 34.6431C12.6307 34.6431 12.5639 34.5761 12.5305 34.5761C12.497 34.5426 12.4302 34.5091 12.3968 34.4756C12.1963 34.3751 11.9958 34.2745 11.8288 34.174C11.5948 33.906 10.8931 33.2694 10.8931 33.1689C10.5924 33.0014 10.0244 32.4318 9.99095 32.2643C9.58998 31.9963 9.85729 32.3648 9.72363 32.2978L8.4873 31.2257C8.4873 31.0917 8.62095 30.7231 8.82144 30.8571C8.28681 30.5556 8.42047 30.9912 7.71876 30.3881C8.28681 30.5556 6.8834 29.45 7.65193 29.718C7.61852 29.651 7.55169 29.584 7.48486 29.517C7.45144 29.4835 7.41803 29.45 7.38462 29.4165C7.3512 29.383 7.3512 29.383 7.31779 29.3495C7.28437 29.316 7.25096 29.2825 7.21754 29.249C6.95023 28.9809 6.61608 28.6794 6.24852 28.3778C5.54682 27.7748 4.74487 27.1382 4.21023 26.7362C3.54194 26.4346 5.37974 27.8418 5.24608 27.9758C3.87609 26.9037 3.17438 26.4681 2.63975 26.2001C2.53951 26.2671 2.43926 26.3341 2.33902 26.4011C2.3056 26.4346 2.23877 26.4681 2.20536 26.4681L2.13853 26.5016L2.10512 26.5351L2.0717 26.6021C1.97146 26.7697 1.8378 26.9707 1.70414 27.1717C1.57048 27.3727 1.43683 27.5738 1.30317 27.8083L1.63731 27.4062C1.30317 28.0093 1.20292 28.2773 1.10268 28.4784C1.00244 28.6794 1.00244 28.8804 0.935607 29.2825C0.935607 29.1484 0.868778 29.1484 0.73512 29.2154C0.634876 29.316 0.501218 29.517 0.36756 29.8185C0.267316 30.1536 0.100243 30.5556 0.0334141 31.0917C0.0334141 31.2257 -5.05713e-07 31.3597 -5.07874e-07 31.4937C-5.10036e-07 31.6277 -5.12737e-07 31.7953 -5.15439e-07 31.9628C-5.1814e-07 32.1303 -5.20301e-07 32.2643 -5.23003e-07 32.4318C0.033414 32.5993 0.033414 32.7669 0.0668286 32.9344C0.133658 33.0349 0.133658 32.6664 0.200487 32.3648C0.267316 32.0298 0.30073 31.7953 0.434389 31.9963C0.467803 32.5323 0.568047 33.0684 0.634876 33.571C0.634876 33.6715 0.568047 33.5375 0.501218 33.3364C0.601461 33.705 0.634876 33.9395 0.66829 34.2075C0.701705 34.4756 0.73512 34.7101 0.768534 34.9111C0.835363 35.3467 0.902192 35.6482 1.10268 35.7487C1.10268 36.1508 1.13609 36.5528 1.13609 36.9214L1.13609 36.4523C1.30317 36.5528 1.77097 37.6919 1.93804 37.9265C2.53951 38.9986 2.60633 39.4342 2.73999 40.1042C2.73999 39.8697 2.73999 39.3001 3.14097 40.1712C2.77341 40.3053 3.80926 42.081 3.60877 42.1145C3.77584 42.483 3.9095 43.1531 4.07657 43.1196L3.84267 43.1531C4.17682 43.0861 4.74487 44.3927 5.21267 45.3644C4.71145 45.3308 5.71389 46.4365 5.5134 47.0396C5.88096 47.1066 6.38218 48.7483 6.68291 48.8153C7.01706 49.5859 6.71632 49.6194 6.71632 49.8539L6.98364 50.1554C7.01705 50.591 7.61852 52.0316 7.88583 52.9362L8.4873 53.6063L8.4873 53.9414C8.62095 54.0419 8.92168 54.6785 8.85486 54.2429L9.02193 54.6785C9.32266 54.6114 9.35607 55.248 9.85729 56.0521C9.89071 56.2531 9.82388 56.2531 9.69022 56.0856C9.85729 56.5212 9.6568 56.3872 9.6568 56.6552C9.58998 56.3202 10.8263 57.9953 10.4253 56.7892C10.4922 56.6552 10.8597 57.2918 10.9934 57.7273L10.8597 58.0959L11.3275 58.4979C11.6617 59.1345 11.5948 59.503 11.7953 60.0391C11.5614 59.503 10.7929 59.034 11.3944 60.4411C11.0602 59.704 10.7595 59.4025 10.5256 59.034C10.6258 59.3355 10.6927 59.4695 10.3919 59.0675C10.9266 60.1396 10.6927 59.369 11.1939 60.4411C10.96 60.4746 10.9934 60.8097 11.3275 61.7813L11.1939 61.0107C11.2273 61.0442 11.2607 61.0777 11.3275 61.1112C11.2273 60.8432 11.2273 60.7427 11.2941 60.6422C11.3944 60.8432 12.0961 61.7813 12.0627 62.0158C11.929 60.7762 13.1653 63.825 13.0651 63.0209C13.1653 63.1215 13.5329 63.892 13.4661 64.0261C12.898 63.1885 13.5329 64.8302 13.3324 64.7631C13.4326 64.9307 13.3992 64.7296 13.3658 64.5286C13.3324 64.3276 13.299 64.1601 13.4661 64.3946C13.7334 64.9307 13.8002 65.3997 13.9005 65.7683L13.7334 65.5672C13.867 65.8688 13.9673 66.1703 14.1009 66.4718C14.268 66.5389 13.8336 65.5337 14.3014 66.3043C14.3348 66.4048 14.5019 66.6729 14.6022 66.8739C14.7358 67.0749 14.8695 67.2759 14.8026 67.2759C14.4351 67.0079 14.4017 67.3765 13.9673 66.7399C14.0675 66.8739 14.1678 67.1084 14.3348 67.3094C14.5019 67.544 14.669 67.7785 14.8361 67.9795C15.1702 68.3481 15.4041 68.5826 15.237 68.147C15.4041 68.3481 15.5712 68.5491 15.7383 68.7501C15.6714 68.6496 15.5712 68.4821 15.5044 68.3146C15.4375 68.147 15.3373 68.013 15.3039 67.9125C15.237 67.7115 15.3039 67.7115 15.8051 68.3146L15.7717 68.3481C16.039 68.5826 16.3397 68.8171 16.6404 69.0182C16.7073 69.1522 16.8075 69.2862 16.8743 69.4202C16.9078 69.3532 17.0748 69.4202 17.3756 69.6882C17.409 69.8222 17.6763 70.0568 17.6095 70.1238C18.5117 70.7939 18.5117 70.6263 18.6787 70.6598C19.2134 70.9949 19.3804 71.1624 19.0463 71.1289C19.748 71.6315 21.0178 72.335 21.4187 72.7036C22.4212 73.1391 21.2517 72.5361 21.8865 72.7371C21.9534 72.8376 22.0536 72.9381 22.1873 73.0721C22.2541 73.1391 22.3209 73.1726 22.3877 73.2396C22.4212 73.2732 22.4546 73.3067 22.488 73.3402C22.5214 73.3737 22.5548 73.3737 22.5882 73.4072C22.8221 73.6082 23.1563 73.8427 23.5238 74.1443C24.2255 74.7473 24.9941 75.4844 25.5621 76.121C25.5621 75.5179 25.8963 76.456 26.3641 76.4895C26.0633 76.255 27.1326 77.9637 26.1302 76.8246C26.3307 77.0591 26.5312 77.2936 26.6982 77.5282C26.7985 77.8297 26.5646 77.5617 26.2972 77.3271C26.0633 77.0926 25.8294 76.8916 25.9965 77.3271C26.598 78.1312 27.3331 78.4663 27.8009 79.5384C27.6004 79.4379 27.7341 79.6054 27.8677 79.8064C28.0014 80.0074 28.1351 80.2085 27.9346 80.175C27.7341 80.0074 27.6004 79.7059 27.4333 79.4379L27.5002 79.6389C28.0014 80.6105 28.1016 80.711 28.2353 80.6775C28.3355 80.644 28.4358 80.51 28.7365 80.9791C29.0038 81.5821 29.0038 81.8167 28.9704 81.9507C28.937 82.0512 28.8368 82.0512 28.7699 82.0847C28.7699 82.2857 28.937 82.8218 29.0038 83.0563C28.8033 82.5202 28.9036 81.7832 29.1709 82.0847C29.1041 82.3862 29.2043 82.8218 29.2377 83.1568C29.3046 83.4919 29.3046 83.7264 29.3046 83.8604C29.4716 83.6594 29.5719 83.3914 29.5719 83.1903C29.5719 83.0898 29.5719 82.9893 29.5719 82.9223C29.5719 82.8553 29.5719 82.7883 29.5719 82.6878C29.5385 82.3862 29.505 82.1182 29.3714 81.2136C29.1709 81.0126 28.9704 81.1466 28.6029 80.1415C29.0372 80.711 28.7031 80.041 28.6697 79.8399C28.6363 80.108 28.2687 79.2034 28.0014 78.9353C27.9346 78.6003 28.6697 79.3374 28.1016 78.3323L27.6672 78.3323C27.4668 77.9302 28.0014 78.3323 27.3999 77.5952C27.8343 77.9302 27.567 77.2936 28.3021 78.3658C28.0348 77.6287 27.6338 77.1596 27.2329 76.7576C26.8319 76.3555 26.3975 76.054 25.9631 75.6519C26.0633 75.7189 26.0968 75.7189 26.197 75.786C25.9631 75.6519 25.6624 75.2834 25.4285 75.0489C24.9607 74.4123 25.9631 75.4174 25.8963 75.1829C25.629 74.8478 25.3282 74.5463 25.0275 74.2448C25.0275 74.2113 25.0275 74.2113 25.0275 74.2113C24.7602 74.0102 24.4929 73.8092 24.4929 73.6752C24.8604 73.8427 25.0275 73.8762 25.2948 74.0102C24.9273 73.7422 24.5263 73.4742 24.1253 73.2396C24.2255 73.2396 24.0251 73.0386 23.9248 72.8711C23.8246 72.7371 23.7912 72.6366 24.1921 72.9046C23.9248 72.7036 23.6575 72.5026 23.3568 72.3015C23.056 72.134 22.7553 71.9665 22.4546 71.799L22.4212 71.4974C21.9868 71.2964 21.9534 71.3299 22.4212 71.6315C22.1538 71.4304 21.4187 71.1624 20.8507 70.8609C20.2826 70.5928 19.8482 70.3248 20.149 70.2243C19.7814 70.0568 19.5141 69.8893 19.2468 69.7552C18.9795 69.5877 18.7456 69.4537 18.5117 69.2862C18.0439 68.9511 17.5761 68.5826 16.8743 67.9125C17.1417 68.147 17.2419 68.147 17.2419 68.08C17.2085 68.013 17.1083 67.8455 17.008 67.678C16.7741 67.3429 16.5736 67.0414 17.1083 67.544C16.607 66.8069 16.3063 66.8069 15.9053 66.2708C15.7717 65.9693 15.8051 65.8353 15.9053 65.8688C16.0056 65.9023 16.2061 66.0698 16.44 66.3043C16.2395 66.1033 16.0724 65.9023 15.9053 65.6678L15.9387 65.6678C15.7717 65.5002 15.6046 65.2992 15.4709 65.0982C15.237 64.3611 15.6046 64.8637 15.2704 64.1266L15.0031 64.0596C14.9697 63.892 14.9029 63.691 14.9029 63.5235C14.9029 63.758 14.669 63.3225 14.4017 62.8199L14.4351 62.8199L14.1009 62.1833C14.5019 62.7864 13.9005 61.5468 14.1678 61.8148C13.9339 61.2452 13.9339 61.2452 13.4661 60.2401L13.3992 60.4746C12.6975 59.2015 13.5663 60.3406 13.1319 59.235L12.9983 59.369C12.5973 57.6938 11.7285 56.7892 11.3944 55.5831C11.7285 56.2196 11.8288 55.9851 11.7619 55.9851C11.2941 55.0135 10.6258 53.3718 9.99095 52.4337C10.0578 51.9646 10.0912 51.8306 9.72363 50.7585C9.38949 49.9879 9.32266 49.8874 9.08876 49.6864C8.85486 48.9158 8.11973 47.5756 8.28681 47.4751C8.08632 47.3746 8.01949 46.805 7.75218 46.4365L7.78559 46.336L7.65193 46.47C7.45144 44.9958 6.51584 44.3257 6.24852 42.8851L6.38218 43.0861L6.08145 42.55C6.11486 42.416 6.24852 42.6505 6.34876 42.617L5.2795 40.0037L5.37974 40.5733C5.14584 40.0372 4.81169 39.7357 4.64462 39.0656C5.31291 40.0037 4.27706 38.1945 4.37731 37.96L4.67804 38.496C4.34389 37.759 4.34389 37.759 4.21023 37.8595C3.74243 36.8879 4.21023 37.0554 3.6756 36.2513C3.74243 36.4523 3.84267 36.6868 3.9095 36.8879C3.9095 37.1224 3.57536 36.7203 3.40828 36.2848C3.40828 36.1843 3.34145 35.8492 3.50853 36.1508C3.14097 35.4137 2.87365 34.241 2.73999 33.9395C2.67316 33.504 2.84024 33.638 2.94048 33.839C2.87365 33.638 2.80682 33.4705 2.77341 33.3364C2.73999 33.2359 2.70658 33.1354 2.70658 33.0684C2.67316 32.9679 2.67316 32.9009 2.67316 32.8339C2.67316 32.6999 2.63975 32.6329 2.53951 32.0633L2.63975 32.1303C2.60633 31.9963 2.53951 31.8623 2.53951 31.6947C2.60633 31.5607 2.70658 31.4602 2.80682 31.3597C2.73999 31.3597 2.70658 31.3932 2.63975 31.4267C2.63975 31.3262 2.63975 31.2592 2.67316 31.1922C2.67316 31.1252 2.70658 31.0247 2.70658 30.9577C2.73999 30.7901 2.80682 30.6561 2.90707 30.5221C2.94048 30.6226 2.94048 30.7566 2.97389 30.8571C3.07414 30.5556 3.2078 30.3881 3.34145 30.2876L3.37487 30.2541C3.37487 30.2541 3.40828 30.2206 3.40828 30.2541C3.4417 30.2876 3.47511 30.3211 3.50853 30.3881C3.57536 30.4551 3.64219 30.5221 3.70901 30.5891C3.84267 30.7231 3.97633 30.7901 4.1434 30.8906C4.17682 30.9577 4.10999 30.9577 4.04316 30.9242C4.31048 30.9912 4.44413 31.1922 4.51096 31.3262C4.61121 31.4937 4.64462 31.5942 5.01218 31.7282C4.94535 31.7282 4.97877 31.8288 4.94535 31.8623C5.01218 31.8958 5.0456 31.8958 5.11243 31.9293L5.41316 32.0968L5.24608 32.1973L5.84755 32.3313L6.04803 32.7669L6.31535 32.8674C6.61608 33.6045 7.5851 34.0735 8.11974 34.9111L8.15315 34.6096C8.7212 34.9111 9.22242 35.3132 9.75705 35.7822C10.0244 36.0168 10.2917 36.2513 10.5256 36.4858C10.8931 36.8544 11.2941 37.2229 11.6617 37.5914C12.497 38.3955 13.3992 39.3001 14.3348 40.1712C15.2704 41.0423 16.2061 41.9134 17.0748 42.617L17.1751 42.9521L17.3422 43.0861C17.409 42.9186 17.4424 42.751 17.5092 42.617L17.6095 42.416C17.6429 42.349 17.6763 42.3155 17.6763 42.148C17.8434 41.8129 17.8434 41.9805 17.81 42.2485C17.7765 42.5835 17.7097 42.684 17.7765 42.684C17.7765 42.6505 17.81 42.6505 17.81 42.5835C17.81 42.5165 17.8434 42.483 17.8434 42.416C17.8768 42.3155 17.8768 42.215 17.8768 42.148C17.9102 41.9805 17.9102 41.8464 17.9436 41.7124C17.977 41.4779 17.977 41.3439 17.977 41.1764C17.977 40.8748 18.0104 40.5733 18.1775 39.5682C18.4782 38.7306 18.2443 40.0372 18.1775 40.6068C18.2109 40.3723 18.2778 40.1042 18.3112 39.8362C18.3446 39.5682 18.378 39.3001 18.4448 39.0321C18.4782 38.8981 18.4782 38.7641 18.5117 38.6301L18.5451 38.1945C18.5785 37.893 18.6119 37.6249 18.6119 37.3569C18.5785 36.7538 18.6119 36.2178 18.5451 35.6482C18.5117 35.3802 18.5117 35.1456 18.4782 34.9111C18.4448 34.6766 18.4114 34.4421 18.378 34.2745C18.3446 34.241 18.2778 34.1405 18.2778 34.2075C18.1775 33.839 18.1107 33.4369 17.977 33.0349C17.9102 32.8339 17.8434 32.6329 17.81 32.4318C17.7765 32.3313 17.7431 32.2308 17.7097 32.1303L17.6763 31.9628L17.6429 31.8623C17.5426 31.5607 17.4424 31.2927 17.3422 30.9912C17.2419 30.7231 17.1417 30.4216 17.008 30.1871C17.1083 30.1871 17.2085 30.4216 17.3422 30.6896C17.2085 30.3211 17.0414 29.7515 16.8075 29.4835L17.1417 29.8185C16.8409 29.0144 15.9722 27.6073 16.0724 27.3392C16.039 27.4732 15.9053 27.4732 15.5712 26.8367C15.638 26.3341 14.5353 25.1615 14.1678 24.0893C14.3014 24.1564 14.7024 24.8934 14.6022 24.6924C14.4017 24.1564 14.0341 23.7878 13.7334 23.3858L13.9005 23.4528C13.4326 22.7157 12.9983 21.9786 12.5973 21.2415C12.6307 21.007 12.3968 20.4709 12.1629 20.0019C11.929 19.5328 11.7285 19.1308 11.8622 19.1643C11.5614 18.3602 11.9958 19.9014 11.5614 18.8627C11.5614 18.6952 11.4612 18.4607 11.3944 18.2932C11.3275 18.0921 11.2607 17.9581 11.3609 17.9246L11.4278 18.0251C11.3609 17.7906 11.2607 17.5561 11.1939 17.3215C11.2941 17.4556 11.3944 17.5896 11.528 17.7236C11.4612 17.5896 11.3944 17.4221 11.3275 17.3215C11.2607 17.221 11.1939 17.0535 11.1605 17.087C11.0602 17.0535 10.9934 16.9865 10.8931 16.9865C10.9266 16.8525 10.8931 16.685 10.8931 16.551C10.8931 16.4169 10.8931 16.3164 10.9934 16.3164L11.0602 16.4169C10.9934 16.0819 11.127 15.9144 11.2941 15.8809C11.4278 15.8139 11.528 15.8809 11.4278 15.3448C11.4612 15.3783 11.4946 15.4788 11.4946 15.5458L11.528 15.4788L11.5614 15.5123L11.6617 15.6128L11.6951 15.6463L11.7285 15.7469L11.7619 15.8809L11.7619 15.8474C11.7953 15.7804 11.8622 15.7469 11.9624 15.7469L11.9958 15.8809C12.0961 16.0149 12.2297 16.1154 12.3634 16.2159L12.4636 16.3164L12.5305 16.3499L12.5639 16.3834L12.5973 16.3834L12.6641 16.4504C12.9648 16.752 13.299 17.0535 13.5663 17.3215L13.3658 17.1875C14.7024 18.3267 14.5019 18.4607 15.4709 19.3318C15.4375 19.3318 15.3707 19.2983 15.3373 19.2648C15.6046 19.5328 15.8719 19.8343 16.1392 20.1024L15.9053 19.9684C16.6404 20.4374 17.3756 21.9786 17.1417 21.4425C17.5426 21.7441 18.1775 22.2801 18.3446 22.3136C19.18 23.2517 18.4448 22.6152 18.9126 23.2853C19.4807 23.9888 19.748 23.9888 20.4497 25.0275L20.3495 25.061C20.717 25.4965 21.0178 25.731 21.519 26.3676L21.3185 26.2001C21.8197 26.6691 22.0202 27.0377 22.2207 27.3392C22.5548 27.8418 22.9558 28.4114 23.5907 28.9139C23.7243 29.1149 23.8914 29.3495 24.0585 29.6175C24.259 29.8855 24.426 30.1871 24.6265 30.4551C24.9607 30.9912 25.228 31.4267 25.1946 31.4937C26.3307 32.9679 27.2997 34.3081 28.2687 35.6147C28.4024 35.4137 28.5694 35.2127 28.7031 35.0451C28.7699 34.9446 28.8702 34.8441 28.937 34.7771C29.0372 34.5761 29.1375 34.3751 29.2377 34.1405C29.4048 34.174 29.4382 34.0735 29.5719 33.8055C29.6721 33.5375 29.8058 33.1689 30.1733 32.6664L30.0397 32.5658C30.2068 32.2308 30.3738 31.8958 30.5409 31.5272C30.6746 31.1587 30.8416 30.8236 31.0087 30.4216C31.0755 30.2206 31.1424 30.0195 31.2092 29.8185C31.276 29.6175 31.3428 29.4165 31.4097 29.1819C31.4431 28.9474 31.5099 28.7129 31.5433 28.4784L31.6102 28.1098C31.6436 27.9758 31.6436 27.8418 31.6436 27.7078C31.677 27.1717 31.7772 26.6691 31.7438 26.0996L31.7438 25.2285C31.7438 24.9269 31.677 24.6589 31.677 24.3574L31.5768 23.4863C31.5433 23.2852 31.5099 23.1177 31.4765 22.9502C31.4097 22.5817 31.3428 22.2466 31.2426 21.9116L31.3763 21.7776C31.276 21.6101 31.1758 21.4425 31.0421 21.275C30.708 19.8008 30.2068 18.2262 29.739 16.752C29.2711 15.2778 28.8368 13.9376 28.536 12.9325C28.2687 12.296 27.8009 11.3578 27.6672 10.3192L27.7007 10.4197C27.5002 9.54863 27.3665 8.64402 27.3665 7.77292L27.3665 7.70591L27.3665 7.67241L27.3665 7.6389L27.3665 7.57189C27.3665 7.50489 27.3665 7.47138 27.3999 7.40437C27.4333 7.30386 27.4668 7.20335 27.5336 7.13634C27.567 7.23685 27.6338 7.27036 27.6672 7.33737C27.6004 7.20335 27.6338 7.13634 27.6672 7.13634C27.7007 7.13634 27.7675 7.13634 27.7675 7.13634C27.7341 7.06933 27.7007 7.03583 27.6338 7.00233C27.6338 6.90182 27.6338 6.86831 27.6338 6.8013C27.6672 6.8013 27.7007 6.83481 27.7341 6.90182C27.8009 7.00233 27.8677 7.13634 27.9011 7.23686C27.9346 7.16985 27.968 7.13634 28.0348 7.10284C28.0348 7.13634 28.0682 7.16985 28.0348 7.20335C28.0348 7.16985 28.0682 7.13634 28.0682 7.13634C28.0682 7.23685 28.0682 7.33737 28.0682 7.43788C28.1016 7.43788 28.1351 7.43788 28.2353 7.43788L28.2687 7.47138L28.369 7.53839C28.4358 7.6054 28.536 7.6389 28.6029 7.67241C28.7365 7.77292 28.9036 7.83993 29.0038 7.83993C29.0038 7.94044 29.6053 8.57701 29.1041 8.17497C29.3046 8.37599 29.505 8.54351 29.7055 8.74453L30.2736 9.38111L30.8416 10.0177C31.0087 10.2187 31.1758 10.4532 31.3763 10.6878L31.1089 10.2187C31.2092 10.0512 31.9109 10.7883 32.1782 11.2573C31.6436 10.7883 31.9443 11.3578 32.0446 11.6594C32.2116 11.8269 32.1782 11.7264 32.1448 11.5924C32.1114 11.4584 32.0446 11.3243 32.1448 11.3913C32.5792 11.7934 33.3477 12.765 33.448 13.0665L33.1807 12.832C33.448 13.1336 33.5482 13.4351 33.6485 13.7031C33.7487 13.9712 33.8489 14.2727 34.0494 14.5742C34.3167 14.8423 34.4504 15.1103 34.5841 15.2778C34.7177 15.4453 34.7845 15.5123 34.8848 15.3783C35.4528 16.2494 34.9182 15.8139 35.0519 16.1154C35.4194 16.4504 35.9875 17.7906 35.9541 18.0251C36.1211 18.0921 36.2548 18.2932 36.3884 18.5612C36.5221 18.8292 36.6558 19.1308 36.756 19.4323C36.9899 20.0354 37.1904 20.6049 37.3909 20.6384L37.5245 21.5095C37.558 21.5095 37.5914 21.5095 37.6248 21.5095C37.6582 21.5095 37.6582 21.543 37.6916 21.543C37.725 21.5765 37.725 21.5765 37.7919 21.6101C37.9589 21.8111 38.1594 22.1461 38.4267 22.7157C38.7609 23.9218 38.527 23.7878 38.5938 24.2569C38.7943 24.4244 38.9614 24.5584 39.1284 24.6924C39.2955 25.1615 39.4292 25.6305 39.5962 26.1331C39.7633 26.6356 39.9304 27.1717 40.0975 27.7078C40.4316 28.8134 40.7992 29.919 41.1667 31.0582C41.9018 33.4034 42.7038 35.8157 43.4723 38.2615L43.6394 37.9265L43.7731 37.7255L44.0404 37.2899L44.3077 36.8544L44.3411 36.7873C44.3411 36.7873 44.3745 36.7203 44.3745 36.6868L44.4748 36.4188L44.6753 35.9162C45.1765 34.6096 45.6109 33.5375 46.0118 32.5658C46.1121 32.2978 46.1789 31.9963 46.2792 31.6947C46.3794 31.3932 46.4462 31.0917 46.5465 30.7566C46.7135 30.0866 46.8806 29.3495 47.0143 28.5454C47.2816 26.9037 47.4487 24.9269 47.5155 22.9502C47.5155 23.1177 47.5489 23.2853 47.5489 23.4193C47.5823 22.7492 47.6157 22.0791 47.6492 21.409L47.716 19.4658L47.716 19.5663L47.716 19.6333L47.716 19.7338L47.6826 20.1024L47.6157 20.8395C47.5823 21.342 47.5489 21.8111 47.5155 22.2801C47.5155 21.3755 47.4152 20.6719 47.4487 19.8678C47.4487 19.7673 47.4487 19.6333 47.4821 19.5328C47.4821 19.4658 47.4821 19.3653 47.5155 19.2983C47.5155 19.1308 47.5489 18.9967 47.5489 18.8292C47.5823 18.4942 47.5823 18.1926 47.6157 17.8576C47.6492 17.1875 47.716 16.4839 47.7828 15.8139C47.9165 14.4402 48.0835 13.033 48.3509 11.7599C48.3509 11.3243 48.4177 11.0563 48.4845 10.8553C48.5179 10.7883 48.5848 10.7548 48.6516 10.7548C48.7852 10.7213 48.8521 10.8218 48.8187 10.5873C48.8187 10.6543 48.8855 10.6878 48.8855 10.7548C48.8855 10.6208 48.8855 10.4532 48.9857 10.2187L49.0191 10.1517C49.0191 10.1517 49.0526 10.1517 49.0526 10.1182C49.086 10.1182 49.1194 10.0847 49.1528 10.0847C49.2196 10.0512 49.2865 10.0512 49.3867 10.0512C49.2865 10.2857 49.3199 10.3527 49.3867 10.3527C49.4201 10.3862 49.5204 10.3862 49.4201 10.4867C49.4535 10.4532 49.5204 10.3862 49.5538 10.3527C49.5538 10.5537 49.5538 10.7213 49.4535 10.7548C49.4869 10.7548 49.5204 10.7548 49.5872 10.7883L49.6206 10.8218C49.6206 10.8218 49.654 10.8553 49.654 10.8888L49.7543 11.0563L49.6206 11.1568C49.7543 11.6259 49.9548 12.363 50.0216 13.1336C50.1218 13.9041 50.1218 14.6412 49.9548 14.9428C49.9882 15.1103 50.0216 15.2778 50.0216 15.4788C50.055 15.6799 50.055 15.8809 50.0884 16.0819C50.1218 16.4839 50.1887 16.9195 50.2221 17.355C50.2889 18.2597 50.3891 19.1978 50.456 20.1694C50.5896 22.1126 50.6899 24.1899 50.7567 25.9991C50.9238 26.5016 50.9906 27.5738 51.0574 28.3779L50.9238 29.2825C51.024 30.1201 51.3582 30.9912 51.2579 31.7953C51.2245 31.7953 51.2245 31.7618 51.1911 31.6947C51.2245 31.8958 51.2245 32.1303 51.2245 32.3313C51.2245 32.5994 51.2579 32.9009 51.2579 33.1689C51.2913 33.9395 51.3582 34.6766 51.5252 35.3467C51.5587 36.1843 51.5921 37.0554 51.5921 37.692C51.5921 38.295 51.5252 38.6971 51.425 38.5295C51.5921 38.429 51.6255 39.3672 51.6255 40.3388C51.6255 41.3439 51.5921 42.416 51.5921 42.416C51.5921 42.416 51.6923 44.0242 51.826 46.9725C53.2628 45.1633 55.2008 42.751 57.6401 39.6352C58.2416 38.8646 58.8764 38.0605 59.5447 37.2564C59.8789 36.8544 60.213 36.4188 60.5806 36.0168C60.7477 35.8157 60.9481 35.5812 61.1486 35.3802C61.8503 34.5426 62.6523 33.6715 63.4542 32.8339C63.8552 32.3983 64.2896 31.9963 64.6906 31.6277C65.0915 31.2592 65.5593 30.8906 65.8267 30.7231L65.8935 30.6896C65.8935 30.6896 65.8935 30.6896 65.9269 30.6896L65.8935 30.6226C65.8267 30.4886 65.7598 30.3211 65.7264 30.1871C65.6596 30.053 65.6262 29.919 65.5928 29.785C65.5593 29.651 65.5259 29.5505 65.4925 29.45C65.4591 29.3495 65.4591 29.2154 65.4591 29.1484C65.4257 28.7799 65.4925 28.5789 65.4925 28.6124C65.4925 28.6459 65.292 28.8134 64.8911 29.0144L64.5569 29.1149C64.4233 29.1484 64.323 29.1819 64.1559 29.2154C63.9889 29.249 63.8552 29.2825 63.6881 29.316L63.5545 29.316C63.5211 29.316 63.4542 29.316 63.4876 29.316C63.4876 29.316 63.4876 29.4165 63.4876 29.4835C63.4876 29.584 63.4876 29.6845 63.4876 29.8185L63.4542 30.0195C63.4542 30.053 63.4542 30.0195 63.4542 30.0195L63.4542 29.986L63.4542 30.0195L63.4208 30.0866L63.2872 30.3546C63.1201 30.6896 62.953 31.0582 62.7859 31.3932C62.4518 32.0968 62.1511 32.8004 61.8503 33.504C61.7167 33.8725 61.5496 34.2075 61.4159 34.5761C61.2823 34.9446 61.1486 35.3132 61.015 35.6817C60.7477 36.4188 60.4803 37.1559 60.2464 37.893C59.2774 40.8413 58.5089 43.8232 57.9074 46.671C57.2725 49.5188 56.7379 52.2327 56.2367 54.7455C55.7355 57.2248 55.2343 59.4695 54.7664 61.3792C54.5325 62.3509 54.2986 63.222 54.0982 63.9926C53.8977 64.7631 53.6972 65.5002 53.5635 66.1033C53.5635 66.5054 53.2294 67.544 53.5635 67.2424C53.2962 68.013 52.8618 68.2476 52.9621 68.4486C53.5301 67.477 53.196 68.9511 53.8643 68.0465L53.5969 68.7166C53.6304 68.8841 53.8643 67.7785 53.9979 68.013L53.7974 67.7115C54.0647 67.2089 54.2652 66.9409 54.4323 66.8069C54.5325 66.2708 54.2652 65.7683 54.9001 64.6626L54.7999 64.9977C55.1674 64.0261 55.2343 64.4616 55.3345 64.2941L55.2343 64.4951C55.4013 64.2271 55.535 63.9591 55.6686 63.7245C55.3679 64.3276 55.1674 65.4667 55.3679 64.8972C55.9025 63.758 55.1674 65.1652 55.5016 64.2941C55.6686 63.7245 55.7689 63.9591 55.8691 63.9926L56.2033 62.9874C56.3369 63.0544 55.9694 63.6575 56.2367 63.289L56.504 61.9823C56.9384 61.8483 56.7379 60.5416 57.2725 60.0391C57.0721 60.9772 57.4062 60.0056 57.473 60.1731C57.7069 59.4025 57.874 58.6319 58.0745 57.8948C58.1747 57.6938 58.0077 58.5314 58.1079 58.1629C58.3084 57.7608 58.2081 57.4258 58.275 57.1913C58.4086 57.0237 58.7094 55.4825 58.9099 55.5831C59.4445 54.0754 58.7762 54.846 59.244 53.4388C59.4445 53.2713 59.0101 54.6115 59.3108 53.9749L59.6116 52.4672C59.645 52.6347 59.7786 52.8022 59.6116 53.3718C60.7477 49.3178 61.984 47.3076 62.7525 43.6222C63.0533 43.1531 62.7525 44.0242 62.7859 44.4262C63.0198 43.0526 63.3874 42.1815 63.755 41.3439C64.1225 40.5063 64.5569 39.7692 64.8911 38.6636L64.7574 38.5631C65.1584 37.8595 65.4925 37.0889 65.8267 36.2848C66.1942 35.5142 66.5284 34.6766 66.9293 33.8725C67.1298 33.4705 67.3303 33.0684 67.5308 32.6664L67.8984 31.8958L68.032 31.6277C68.0654 31.5272 68.1323 31.4267 68.1323 31.3262L68.2325 30.7231L68.2993 30.2541L68.3328 29.8185C68.3328 29.4835 68.3662 29.1819 68.2993 28.7799C68.2325 28.3779 68.1991 27.9423 67.8315 27.2722C67.7981 27.2052 67.7313 27.1047 67.6645 27.0377C67.5976 26.9707 67.5308 26.8702 67.464 26.7697C67.3303 26.6021 67.1298 26.4346 66.9293 26.3006C66.495 25.9991 65.9937 25.8651 65.5928 25.8315L65.7933 25.8651C65.8601 25.8651 65.9269 25.8986 65.9937 25.9321C66.1274 25.9656 66.2611 26.0326 66.4281 26.0996C66.7289 26.2336 66.9962 26.4346 67.1967 26.6356C66.7957 26.3006 66.1274 26.0326 65.5928 26.0326C65.3254 26.0326 65.0915 26.0326 64.8576 26.0996C64.6572 26.1331 64.4567 26.2001 64.323 26.2671C63.6881 26.5016 63.3206 26.8032 62.9864 27.0377C62.9196 27.0377 62.9864 26.9037 62.953 26.8702C62.9196 26.8367 62.7191 26.9037 62.2179 27.3057C62.4518 27.1717 62.953 26.9037 62.8528 27.0377C61.984 27.5403 61.1152 28.2438 60.213 29.1149C59.3108 29.9525 58.4086 30.9577 57.473 32.0298C57.2391 32.2978 57.0052 32.5658 56.7713 32.8339L56.7045 32.9344L56.6711 32.9679L56.6377 33.0014L56.5708 33.0684L56.3035 33.3364C56.1364 33.504 56.0028 33.638 55.936 33.638C55.9025 33.4705 55.8691 33.1689 55.8691 32.9009L55.8691 32.6999L55.8691 32.6329L55.8691 32.5994L55.8691 32.4318L55.8357 31.7282C55.8023 30.8236 55.7355 29.8855 55.7021 28.9809C55.535 25.2955 55.3345 21.6436 55.0672 18.1591C55.134 19.2313 54.7664 18.7957 54.7999 17.9916C55.0338 16.886 54.9669 15.9479 54.8333 14.9763C54.6996 13.9712 54.5325 12.966 54.5325 11.6929C54.4323 11.3243 54.3655 10.9893 54.2652 10.6208C54.165 10.2522 54.0647 9.91717 53.9311 9.51512C53.5301 8.443 53.0957 7.30386 52.4608 6.46626C51.826 5.59516 51.1243 4.85807 50.3557 4.35551C49.9882 4.08748 49.5872 3.81945 49.1862 3.58492C48.7852 3.31689 48.3174 3.01536 47.9833 2.81433L47.4152 3.51792L46.8806 4.188C46.5131 4.62355 46.1789 5.0926 45.8448 5.56166C45.6777 5.79619 45.5106 6.06422 45.377 6.33225C45.2433 6.60028 45.0428 6.83481 44.9426 7.13634C44.6753 7.70591 44.4079 8.30898 44.2743 8.87855L44.0738 8.91205C43.9735 9.14658 43.8733 9.3476 43.8065 9.48162C43.7731 9.58213 43.7396 9.71615 43.7396 9.81666C43.7062 10.0177 43.6728 10.2522 43.5726 10.5873L43.5392 10.5537C43.3053 11.3243 43.1716 12.1954 43.0714 12.966C42.9711 13.7366 42.9377 14.4067 42.8709 14.8423L43.0714 14.9093C43.0379 15.7804 42.8709 15.3783 42.9377 16.2494L42.8375 16.2159C42.8709 16.5845 42.9377 16.9195 42.9711 17.2545C42.804 17.1875 42.7706 17.8241 42.7706 18.4942C42.7706 18.8292 42.7706 19.1978 42.7706 19.5328C42.7706 19.7673 42.7706 19.7003 42.7706 19.7338L42.7372 19.7673C42.7706 19.8343 42.804 19.9684 42.8375 20.1359C42.8709 20.3034 42.8709 20.5044 42.8375 20.5714C42.6704 20.3034 42.637 20.5044 42.5701 20.3369C42.5701 20.4374 42.5701 20.5714 42.5367 20.6719C42.5367 20.7725 42.5033 20.7054 42.5033 20.7054C42.5033 20.6719 42.4699 20.6384 42.4699 20.6049C42.4365 20.5044 42.4031 20.3704 42.3697 20.2364L42.3362 20.7389L42.2694 20.6384C42.2694 20.5379 42.3028 20.4709 42.3028 20.4374C42.3362 20.1694 42.3028 20.1694 42.2694 20.1694C42.236 20.1694 42.2026 20.1694 42.236 20.0354C42.1357 20.3034 42.236 20.1359 42.2694 20.2029C42.2694 20.3034 42.236 20.4374 42.2026 20.5044C42.1692 20.5379 42.1357 20.5044 42.1023 20.3369L42.1357 20.2699C42.1023 20.2699 42.0689 20.2699 42.0021 20.2699C42.1023 20.1024 42.1357 19.9349 42.2694 19.8343C42.2694 19.8008 42.236 19.8008 42.236 19.8008C42.1023 19.4993 41.9687 19.2313 41.835 18.9297C41.5677 18.3602 41.267 17.8576 40.9997 17.3215C40.866 17.0535 40.7323 16.7855 40.5653 16.5175C40.4316 16.2494 40.2645 15.9814 40.0975 15.7134C39.7967 15.1438 39.496 14.5407 39.1284 13.9041C39.4292 14.0717 38.0258 12.0949 38.6272 12.43C37.558 10.9893 38.5604 12.832 37.9255 12.2624C37.6582 11.8269 37.3241 11.4584 37.3575 11.3243C37.558 11.4919 37.3241 10.8888 37.558 11.1903L37.2238 10.6878L36.8563 10.2187C36.8228 10.1182 36.9899 10.2857 37.0902 10.3862C36.6892 9.91717 36.355 9.44812 36.0543 8.97906C35.7202 8.54351 35.4194 8.10796 35.0853 7.67241C34.9182 7.47138 34.7845 7.23686 34.6175 7.03583C34.4504 6.83481 34.2833 6.63378 34.0828 6.43276C33.7153 6.03071 33.3477 5.62867 32.9133 5.29363C32.8131 5.29363 32.9802 5.42764 33.1138 5.59516C33.2475 5.76268 33.4146 5.9302 33.3143 5.9302C32.9133 5.56166 32.5792 5.29363 32.3453 5.0926C32.1114 4.85807 31.9443 4.69055 31.8107 4.48953C31.7438 4.38902 31.6436 4.28851 31.5768 4.2215C31.5433 4.18799 31.4765 4.12099 31.4431 4.05398C31.4097 4.02048 31.3763 3.98697 31.3428 3.95347C31.3094 3.91996 31.2426 3.88646 31.2092 3.81945C30.8082 3.51792 30.307 3.11587 29.5719 2.64681L30.2068 2.91484C29.7055 2.61331 29.3714 2.44579 28.9704 2.17776C28.7699 2.04374 28.536 1.90973 28.3021 1.7087C28.0348 1.57469 27.7675 1.40717 27.3999 1.17264C27.2663 0.971615 27.567 1.10563 28.0014 1.30665C28.1016 1.37366 28.2353 1.40717 28.3355 1.47417C28.4692 1.57469 28.6029 1.64169 28.7031 1.74221C28.9704 1.90973 29.2043 2.07725 29.4048 2.17776C29.1375 1.97673 28.7699 1.7087 28.369 1.40717C28.2687 1.34016 28.1685 1.30665 28.0682 1.23965C27.968 1.20614 27.8677 1.13913 27.7675 1.10563C27.567 1.00512 27.3999 0.938111 27.2329 0.837599C26.5646 0.536064 26.1302 0.368544 26.5312 0.703583C26.2304 0.569568 25.9965 0.435552 25.7626 0.301536C25.6624 0.234528 25.5621 0.16752 25.4619 0.134016C25.4285 0.100512 25.3616 0.0670083 25.3282 0.0335044C25.2948 0.0335044 25.2948 4.0791e-07 25.2614 4.07371e-07L25.228 0.0670083C25.0275 0.368544 24.8604 0.603072 24.6599 0.938111C24.6934 1.00512 25.3282 -0.100511 24.9941 0.737087C24.8938 0.938111 24.7602 1.17264 24.6265 1.37366C24.4929 1.60819 24.3926 1.84272 24.259 2.07725C24.1253 2.31177 23.9916 2.57981 23.858 2.84784C23.7243 3.11587 23.6241 3.4174 23.4904 3.71894C23.3568 3.98697 23.2899 4.35551 23.1897 4.65705L23.056 5.15961C23.0226 5.32713 22.9558 5.49465 22.9224 5.66217C22.889 6.03071 22.8221 6.36575 22.7887 6.70079C22.7219 7.03583 22.6885 7.37087 22.6885 7.70591C22.6551 7.67241 22.5548 7.87343 22.5548 7.6389C22.5548 7.70591 22.5548 7.77292 22.5882 7.80642C22.5882 7.83993 22.5882 7.87343 22.5882 7.90693C22.5882 7.97394 22.5882 8.04095 22.6217 8.10796C22.6217 8.24197 22.6217 8.34249 22.6217 8.443C22.6217 8.64402 22.6217 8.81154 22.5882 9.01256C22.488 9.68264 22.4212 10.1182 22.5548 10.9893Z" fill="#202222"/>
<path d="M14.7359 33.7719C14.7359 33.7049 14.7025 33.6379 14.7025 33.5709C14.6691 33.5709 14.6022 33.5709 14.5354 33.5039C14.5688 33.5709 14.6691 33.6714 14.7359 33.7719Z" fill="#202222"/>
<path d="M11.0938 10.1182C11.1606 10.1517 11.2608 10.2187 11.3277 10.2522C11.1606 10.1182 11.1272 10.1182 11.0938 10.1182Z" fill="#202222"/>
<path d="M17.6095 15.8473C17.242 15.5458 17.5093 15.8808 17.643 16.0819C17.6764 16.0819 17.7098 16.0149 17.6095 15.8473Z" fill="#202222"/>
<path d="M10.96 33.4034C11.0602 33.4704 11.0936 33.4704 11.127 33.4369C10.9934 33.3699 10.96 33.3699 10.96 33.4034Z" fill="#202222"/>
<path d="M10.3252 58.6319C10.3252 58.5649 10.2917 58.5314 10.2917 58.4644C10.2917 58.4979 10.2917 58.5314 10.3252 58.6319Z" fill="#202222"/>
<path d="M9.69023 56.3538C9.65682 56.2533 9.58999 56.1192 9.48975 55.9182C9.55657 56.1192 9.6234 56.2533 9.69023 56.3538Z" fill="#202222"/>
<path d="M15.3708 36.3184C15.3708 36.2179 15.3708 36.1174 15.3374 35.9834C15.3374 36.1174 15.3374 36.2514 15.3708 36.3184Z" fill="#202222"/>
<path d="M9.25587 55.516L9.05539 54.98L9.02197 54.98L9.25587 55.516Z" fill="#202222"/>
<path d="M10.5925 59.302C10.4923 59.1009 10.392 58.7994 10.3252 58.5984C10.392 58.8999 10.4923 59.1345 10.5925 59.302Z" fill="#202222"/>
<path d="M0.534625 33.5375C0.534625 33.504 0.534625 33.4705 0.534625 33.437C0.367553 32.834 0.434382 33.236 0.534625 33.5375Z" fill="#202222"/>
<path d="M7.9193 53.2713C7.9193 53.2378 7.9193 53.2043 7.88589 53.2043L7.78564 53.0703L7.9193 53.2713Z" fill="#202222"/>
<path d="M11.5279 61.6809C11.4945 61.5804 11.4277 61.4799 11.3943 61.4128C11.4277 61.5134 11.4611 61.6139 11.4945 61.7144C11.4945 61.6809 11.5279 61.6809 11.5279 61.6809Z" fill="#202222"/>
<path d="M3.37476 42.2151C3.50841 42.3491 3.57524 42.3826 3.60866 42.3826C3.54183 42.1816 3.475 42.0811 3.37476 42.2151Z" fill="#202222"/>
</g>
<defs>
<clipPath id="clip0">
<rect width="96" height="144" fill="white"/>
</clipPath>
</defs>
</svg>
