<svg width="313" height="100" viewBox="0 0 313 100" fill="none" xmlns="http://www.w3.org/2000/svg">
<g clip-path="url(#clip0)">
<path d="M71.4453 36.9825C69.0491 36.5778 67.9925 36.4902 65.0447 36.6652C63.9482 36.7391 62.8596 36.0815 61.7773 36.2348C61.4355 36.2815 61.0933 36.3167 60.7515 36.3633C60.8097 35.7557 60.9128 35.1235 60.9425 34.6769C61.0242 33.4514 61.1054 32.2146 61.1986 30.9887C61.3534 28.6181 61.7942 29.0935 61.9495 26.7343C62.2791 21.9123 62.4588 19.2781 62.777 14.4566C62.8815 12.9104 62.1507 9.79484 60.7213 9.84646C59.7836 9.88033 57.6888 12.1153 57.5843 13.6615L57.1869 17.2405C56.6125 25.7502 53.8335 29.9637 53.2592 38.4733C53.1161 40.535 52.739 42.7766 54.4332 44.3492C55.8307 45.6355 59.9787 45.0858 61.7225 44.8629C65.9052 44.3233 67.9248 43.1764 71.5205 40.9672C75.2277 38.6739 74.9704 37.575 71.4453 36.9825ZM59.8154 36.4428C59.4262 36.4454 59.583 36.3484 59.8154 36.4428V36.4428Z" fill="#C85742" stroke="#C85742" stroke-miterlimit="10"/>
<path d="M99.9922 30.0561C98.6496 29.3391 98.2553 30.1531 97.5496 31.5382C97.4423 31.7363 97.3349 31.9344 97.2276 32.1325C97.1953 32.1908 97.1084 32.3196 97.0541 32.4015C96.8569 32.6486 96.6593 32.8842 96.4384 33.1093C96.3498 33.1925 96.2613 33.2756 96.1727 33.3588C96.1057 33.4069 95.9501 33.5382 95.8946 33.5859C95.5259 33.8392 95.1564 34.0696 94.7636 34.2894C94.7186 34.3139 94.6852 34.338 94.6737 34.3384C94.6398 34.351 94.6284 34.3515 94.5835 34.3759C94.414 34.4392 94.245 34.5138 94.0751 34.5657C93.6908 34.7052 93.3049 34.7991 92.908 34.9049C92.8398 34.9188 92.6466 34.96 92.5555 34.9747C92.4302 34.9907 92.3162 35.0062 92.1909 35.0222C91.7343 35.0615 91.2769 35.078 90.8297 35.0599C90.7149 35.0526 90.5887 35.0458 90.4739 35.0385C90.3816 35.019 90.186 34.9918 90.1055 34.9832C89.7016 34.895 89.3087 34.7949 88.9158 34.6949C88.881 34.6847 88.7769 34.6542 88.707 34.6224C88.5792 34.5699 88.4628 34.517 88.3464 34.4641C87.9967 34.2939 87.2954 33.8965 87.1544 33.7988C86.8607 33.5923 86.3047 33.0982 85.8647 32.6457C87.9951 30.4437 89.8325 28.058 91.3047 25.0685C92.7772 22.0905 91.6894 18.9193 90.2003 17.3164C88.2581 15.2158 83.5299 13.6499 81.0137 14.9976C75.9818 17.7043 77.4598 23.7519 78.7499 28.721C79.1486 30.249 79.437 31.8953 79.792 33.482C79.6259 33.6365 79.4826 33.7902 79.305 33.9451C78.1152 34.925 76.5747 37.6084 76.3402 38.4052C75.9416 39.7335 78.5854 39.0668 79.4199 38.3968L80.5313 37.4655C80.6648 37.3579 80.7869 37.2506 80.909 37.1434C81.7456 39.0669 83.0138 40.5749 85.2328 41.146C87.3824 41.6968 96.8097 40.8536 99.3851 35.7563C100.069 34.3949 101.381 30.7943 99.9922 30.0561ZM83.2348 25.7713C83.2135 24.2297 83.4666 22.6781 84.3761 21.2285C84.4194 21.1584 84.43 21.1352 84.4406 21.112C84.4736 21.0765 84.5177 21.0292 84.5724 20.9587C84.6823 20.829 84.8039 20.7104 84.9256 20.5917C84.9815 20.5554 85.1036 20.4482 85.1257 20.4246C85.1146 20.4364 85.4968 20.2398 85.6202 20.1668C85.7108 20.1406 85.8129 20.1141 85.8358 20.1133C85.8701 20.112 85.8925 20.0998 85.904 20.0994C85.9273 20.11 85.9501 20.1091 85.9848 20.1193C86.0196 20.1295 86.1576 20.1474 86.2262 20.1449C86.3761 20.1737 86.5146 20.203 86.6534 20.2437C86.7118 20.2759 86.7703 20.308 86.7821 20.319C86.8311 20.4087 86.8675 20.4645 86.9026 20.4861C86.9149 20.5085 86.9157 20.5313 86.9284 20.5651C86.7232 21.2237 86.4192 22.0002 86.0661 22.6871C85.1152 24.5723 84.3692 26.4273 83.5162 28.1718C83.5154 28.149 83.5035 28.138 83.5027 28.1152C83.3272 27.3789 83.2507 26.8447 83.2348 25.7713Z" fill="#C85742" stroke="#C85742" stroke-miterlimit="10"/>
<path d="M115.632 12.5934L113.392 11.1205C110.148 10.0723 108.356 9.2687 105.155 10.6754C101.818 12.144 98.8634 13.7017 97.897 16.1131C96.7312 19.0229 98.5658 21.9501 100.384 24.4322C101.492 25.9346 102.847 27.6223 104.31 29.1347C102.325 30.3032 100.491 31.512 97.9987 32.5617C96.5777 33.1614 93.8429 34.1628 94.3462 35.7327C94.7734 37.0998 97.4022 36.9705 98.9394 36.7322C103.493 36.0079 106.14 34.1414 110.245 32.4165C112.523 31.4545 112.955 28.514 110.743 27.1772C108.823 26.0126 107.846 24.6426 106.398 22.9011C105.835 22.2245 105.418 21.4512 105.173 20.706C104.864 19.7346 104.685 19.5354 104.894 18.6824C104.905 18.6592 104.976 18.4053 104.975 18.3824C105.07 18.1619 105.199 17.9288 105.329 17.7298C105.34 17.718 105.472 17.5647 105.505 17.5178C105.494 17.5297 105.925 17.1142 105.902 17.115C106.259 16.8279 106.662 16.5849 107.067 16.3874C107.101 16.3748 107.282 16.3111 107.327 16.2981C107.576 16.2205 107.813 16.132 108.074 16.0654C108.154 16.0397 108.404 15.9964 108.483 15.9707C108.768 15.9261 109.053 15.9044 109.339 15.8941C109.854 15.8755 110.381 15.8793 110.898 15.9406C112.255 16.0973 111.743 16.1843 113.04 16.5945C114.511 17.0669 115.938 15.9985 116.371 15.3088C116.782 14.6427 117.115 13.0654 115.632 12.5934Z" fill="#C85742" stroke="#C85742" stroke-miterlimit="10"/>
<path d="M101.692 65.6985C101.87 64.9266 101.664 65.8823 101.635 66.0205C101.596 66.2275 101.558 66.4459 101.52 66.653C101.435 67.1473 101.361 67.6413 101.299 68.1462C101.183 69.0644 101.114 69.9924 101.079 70.9191C101.043 71.8458 100.528 71.8416 100.584 72.765C100.587 72.8449 100.641 73.6998 100.613 73.2324C100.584 72.765 100.661 73.6191 100.664 73.699C100.728 74.1994 100.642 75.642 100.729 76.1302C100.977 77.6065 98.198 80.5632 97.5416 80.1413C96.1584 79.2544 95.2714 78.1553 95.0083 76.5767C94.2505 72.0797 94.0852 68.4525 95.126 63.9819C95.274 63.3253 95.4385 61.8569 96.1147 61.5583C96.8812 61.2222 97.9761 61.1026 98.7979 61.3472C99.6197 61.5917 101.107 62.8176 101.486 63.4894C101.902 64.2285 101.88 64.8919 101.692 65.6985Z" fill="#C85742" stroke="#C85742" stroke-miterlimit="10"/>
<path d="M136.5 50.7997C135.138 50.1634 133.124 49.9048 131.607 50.3709C129.251 51.0844 127.085 51.6653 124.996 52.1635C124.888 48.5342 120.501 45.6193 119.306 49.627L117.87 53.6205C115.127 54.0966 112.292 54.5189 109.103 54.9883C107.565 55.2152 104.387 56.621 105.262 58.6574C106.087 60.5699 106.915 61.6253 108.452 61.3984L111.254 61.2972C113.384 60.9804 115.344 60.7154 117.212 60.4423C116.966 62.5305 116.594 64.5777 116.173 67.2092C115.603 70.7488 114.806 74.3651 115.643 77.8881C116.007 79.4059 116.552 82.4482 118.983 80.3381C120.449 79.0627 123.123 77.6408 122.77 76.1226C122.945 76.8589 122.781 76.1108 122.747 75.8035C122.712 75.4734 122.7 75.1425 122.7 74.8112C122.697 74.0915 122.739 73.3702 122.817 72.6591C122.859 72.2348 122.912 71.8101 122.965 71.3855C122.975 71.328 122.983 71.2363 122.992 71.1789C123.029 70.9376 123.067 70.7077 123.092 70.4669C123.251 69.4558 123.409 68.4446 123.567 67.4335C124.007 64.7098 124.378 61.9886 124.646 59.2598C127.751 58.6792 130.93 57.936 134.622 56.8087C136.139 56.3426 137.898 51.4462 136.5 50.7997Z" fill="#C85742" stroke="#C85742" stroke-miterlimit="10"/>
<path d="M162.788 59.3105C162.377 64.1239 162.369 68.957 162.76 73.7643C162.883 75.2566 164.214 77.5735 166.808 76.4745C168.624 75.7005 170.713 74.2769 170.633 72.6803C170.397 68.0615 172.584 66.7943 170.678 59.0255C170.316 57.5533 168.818 54.1455 167.119 54.9496C164.552 56.1733 162.924 57.706 162.788 59.3105Z" fill="#C85742" stroke="#C85742" stroke-miterlimit="10"/>
<path d="M167.659 51.2166C171.024 49.2557 171.828 44.8851 166.788 45.467C162.934 45.9146 160.724 52.2669 165.813 52.0831" fill="#C85742"/>
<path d="M167.659 51.2166C171.024 49.2557 171.828 44.8851 166.788 45.467C162.934 45.9146 160.724 52.2669 165.813 52.0831" stroke="#C85742" stroke-miterlimit="10"/>
<path d="M197.256 74.952C196.175 73.86 194.935 72.1909 193.34 72.4085C190.833 72.739 189.265 72.7727 186.739 72.8868C185.756 72.9337 184.76 72.9469 183.776 72.9596C184.441 68.2284 184.508 64.6955 185.863 60.0423C186.281 58.6104 184.569 55.9074 183.891 54.5837C183.276 53.3948 181.082 55.1193 180.634 56.655L179.919 58.7488C179.104 61.5317 178.78 63.0173 178.195 65.8604C177.903 67.2763 177.634 68.7027 177.4 70.1393C177.165 71.5645 177.587 72.7832 177.582 74.2344C177.57 76.1314 178.526 78.8161 178.526 78.8161C181.063 78.3588 184.356 78.5598 185.561 78.6306C188.544 78.8084 191.391 77.426 194.354 77.0334C195.848 76.8537 198.42 76.121 197.256 74.952Z" fill="#C85742" stroke="#C85742" stroke-miterlimit="10"/>
<path d="M199.046 52.5397C198.554 56.362 198.156 59.6097 197.4 63.3845C196.486 67.8848 195.825 72.4102 195.348 76.9746C195.111 79.2797 199.482 78.5734 201.769 78.1481C206.853 77.2218 209.108 78.1458 214.239 77.5606C214.946 77.4779 215.749 75.918 215.955 74.9736C216.307 73.3157 213.276 72.454 212.534 72.5037C207.383 72.8611 207.293 72.5901 206.765 72.5521L203.156 73.128C202.569 73.0578 203.874 69.2403 204.029 64.6532C204.157 60.9125 203.999 60.3356 204.48 56.5136C204.676 54.987 204.613 51.973 202.996 51.5858C201.61 51.2588 199.457 49.3258 199.26 50.8638" fill="#C85742"/>
<path d="M199.046 52.5397C198.554 56.362 198.156 59.6097 197.4 63.3845C196.486 67.8848 195.825 72.4102 195.348 76.9746C195.111 79.2797 199.482 78.5734 201.769 78.1481C206.853 77.2218 209.108 78.1458 214.239 77.5606C214.946 77.4779 215.749 75.918 215.955 74.9736C216.307 73.3157 213.276 72.454 212.534 72.5037C207.383 72.8611 207.293 72.5901 206.765 72.5521L203.156 73.128C202.569 73.0578 203.874 69.2403 204.029 64.6532C204.157 60.9125 203.999 60.3356 204.48 56.5136C204.676 54.987 204.613 51.973 202.996 51.5858C201.61 51.2588 199.457 49.3258 199.26 50.8638" stroke="#C85742" stroke-miterlimit="10"/>
<path d="M243.863 58.9072C241.016 61.8892 239.082 66.0264 234.987 67.4197C233.449 67.9436 230.025 69.1984 228.246 69.0799C230.423 67.2189 232.294 65.1405 233.598 62.2485C234.764 59.6586 236.244 54.9893 234.742 52.3929C233.497 50.2443 230.015 48.6334 226.985 49.3826C225.214 49.8122 220.169 55.9583 220.495 61.8191C220.584 63.324 220.598 65.6086 220.869 67.7239C220.186 68.4683 219.503 69.2356 218.868 70.0355C217.817 71.3645 217.912 73.3491 218.003 73.9742C218.203 75.4065 218.279 75.598 219.493 74.663L222.352 73.6C222.619 73.3961 222.898 73.1918 223.166 72.9879C225.113 74.5971 227.725 74.6399 229.656 74.2045C231.325 73.8243 236.325 72.7754 239.059 70.803C242.039 68.6503 241.742 67.7127 243.713 64.591C244.612 63.1646 244.403 58.3393 243.863 58.9072ZM227.563 54.3088C228.258 53.5754 229.062 52.998 229.987 52.6218C229.653 53.8449 229.279 55.5265 229.186 55.8041C228.741 57.1112 228.18 58.3882 227.584 59.6437C226.637 61.643 225.408 63.4354 224.05 65.1411C224.044 61.1654 225.114 56.8766 227.563 54.3088Z" fill="#C85742" stroke="#C85742" stroke-miterlimit="10"/>
<path d="M267.16 45.1782C266.146 42.7813 263.43 41.4512 263.462 44.2264C263.499 47.8011 262.757 51.6782 262.909 55.2488C263.043 58.3288 262.741 61.356 261.238 64.1409C260.873 64.8167 260.393 65.4739 259.9 66.0858C259.615 66.4388 259.318 66.7809 258.998 67.1124C258.899 67.2188 258.777 67.326 258.678 67.4438C258.634 67.4911 258.623 67.5144 258.59 67.5498C258.353 67.627 258.036 67.7298 258.002 67.7424C257.786 67.7959 257.571 67.8494 257.355 67.9029C257.162 67.9442 256.958 67.9972 256.765 68.0385C255.561 68.3105 255.243 68.4019 254.027 68.6515C253.629 68.7344 253.231 68.8059 252.834 68.8888C252.832 68.8546 252.831 68.8318 252.832 68.8432C252.772 68.4455 252.723 68.0359 252.674 67.6378C252.51 66.2613 252.593 64.4417 252.566 63.0602C252.502 60.3547 252.515 53.7391 251.986 50.4906C251.397 46.8558 247.872 47.8514 246.714 50.6695L246.691 51.9272C246.166 54.8367 246.015 60.4976 246.031 63.4676C246.044 66.0492 246.042 69.1684 246.966 71.6143C247.777 73.7558 249.728 75.1478 251.95 74.8504C253.112 74.6942 254.269 74.4011 255.405 74.1544C256.939 73.8248 258.473 73.5066 259.993 73.0861C261.591 72.6399 264.354 71.4662 265.453 70.204C268.267 66.9604 270.047 64.2569 270.268 59.9073C270.517 55.0769 269.037 49.5891 267.16 45.1782ZM252.892 69.2295C252.909 69.4002 252.895 69.3208 252.879 69.1843C252.879 69.1843 252.879 69.1957 252.892 69.2295ZM252.85 69.3452C252.861 69.3448 252.861 69.3448 252.873 69.3558C252.851 69.3795 252.851 69.3681 252.85 69.3452ZM252.885 69.3554C253.37 69.4864 252.915 69.56 252.885 69.3554V69.3554ZM258.481 67.6909C258.26 67.9273 258.337 67.8332 258.481 67.6909V67.6909ZM258.659 67.5359C258.748 67.4642 258.838 67.4266 258.862 67.4714C258.862 67.4714 258.772 67.4976 258.659 67.5359Z" fill="#C85742" stroke="#C85742" stroke-miterlimit="10"/>
<path d="M297.205 68.6346C296.507 67.7001 296.431 66.229 295.108 65.4199C291.362 63.1445 286.376 60.7996 281.743 58.3734C282.135 58.1421 282.539 57.9105 282.919 57.6568C285.057 56.2771 288.151 53.1834 288.627 52.4236C290.035 50.1791 288.229 46.1541 287.691 45.5109C286.219 43.7588 285.289 44.0209 283.087 43.5977C280.897 43.1856 278.802 42.8842 275.874 42.6472C274.392 42.5293 272.87 43.1784 272.465 44.6554C272.092 46.0399 271.577 48.9034 271.571 50.3204C271.576 56.4784 273.001 60.4258 273.634 69.0746C273.634 69.0746 280.572 72.88 280.283 69.6114C280.126 67.8233 279.926 65.7626 279.711 63.6224C284.704 65.5443 285.244 67.4785 289.934 69.2628C291.374 69.8164 298.204 69.981 297.205 68.6346ZM283.693 49.5969C283.705 49.5965 283.705 49.5965 283.693 49.5969C283.705 49.6079 283.705 49.6193 283.706 49.6308C283.706 49.6422 283.706 49.6422 283.707 49.6536C283.703 49.8822 283.699 49.7453 283.693 49.5969ZM277.357 47.2551C277.396 47.0595 277.452 47.0346 277.357 47.2551V47.2551ZM278.69 53.1024C278.609 52.1341 278.086 51.2733 277.324 50.7867C277.317 50.2728 277.298 49.7593 277.303 49.2565C277.312 48.8563 277.331 48.4443 277.351 48.0437C277.875 47.979 278.537 47.898 279.18 47.9548C279.881 48.0208 280.942 48.2453 281.764 48.5012C282.181 48.6347 282.239 48.6554 282.624 48.8472C282.811 48.9433 282.997 49.0394 283.173 49.1473C283.232 49.1794 283.267 49.201 283.29 49.2116C283.301 49.2112 283.302 49.2226 283.302 49.2226C283.431 49.3208 283.538 49.4311 283.657 49.5411C283.594 49.6919 283.498 49.901 283.443 49.9716C283.148 50.3593 282.772 50.7156 282.406 51.0373C281.629 51.7166 280.733 52.2859 279.872 52.8426C279.525 53.0608 279.143 53.2802 278.75 53.4887C278.711 53.3644 278.695 53.2279 278.69 53.1024Z" fill="#C85742" stroke="#C85742" stroke-miterlimit="10"/>
<path d="M300.615 49.2485C297.838 50.9826 296.084 50.5889 294.81 53.377C293.324 56.6183 294.726 59.9266 297.302 62.1301C298.731 63.3467 301.73 64.5865 301.622 66.647C301.502 69.0506 298.495 70.1075 297.136 71.8132C295.964 73.2723 297.085 78.6245 300.196 76.6384C302.838 74.9549 308.532 72.8298 309.717 69.8279C310.998 66.6054 311.25 64.4027 308.823 61.8854C307.36 60.373 300.564 58.2877 299.875 56.3246C299.849 56.2455 299.936 55.7968 299.865 56.0507C299.875 56.0161 300.077 55.5975 300.175 55.4568C300.426 55.1164 300.86 54.758 301.217 54.4824C302.532 53.498 303.924 52.7165 305.155 51.6209C306.309 50.5967 307.582 50.3336 306.527 49.3549C305.307 48.2221 304.436 47.888 302.341 48.8548" fill="#C85742"/>
<path d="M300.615 49.2485C297.838 50.9826 296.084 50.5889 294.81 53.377C293.324 56.6183 294.726 59.9266 297.302 62.1301C298.731 63.3467 301.73 64.5865 301.622 66.647C301.502 69.0506 298.495 70.1075 297.136 71.8132C295.964 73.2723 297.085 78.6245 300.196 76.6384C302.838 74.9549 308.532 72.8298 309.717 69.8279C310.998 66.6054 311.25 64.4027 308.823 61.8854C307.36 60.373 300.564 58.2877 299.875 56.3246C299.849 56.2455 299.936 55.7968 299.865 56.0507C299.875 56.0161 300.077 55.5975 300.175 55.4568C300.426 55.1164 300.86 54.758 301.217 54.4824C302.532 53.498 303.924 52.7165 305.155 51.6209C306.309 50.5967 307.582 50.3336 306.527 49.3549C305.307 48.2221 304.436 47.888 302.341 48.8548" stroke="#C85742" stroke-miterlimit="10"/>
<path d="M96.5907 54.4461C94.5908 57.089 95.7071 61.3674 99.6746 59.6246C102.695 58.293 101.935 51.8195 97.782 53.192" fill="#C85742"/>
<path d="M96.5907 54.4461C94.5908 57.089 95.7071 61.3674 99.6746 59.6246C102.695 58.293 101.935 51.8195 97.782 53.192" stroke="#C85742" stroke-miterlimit="10"/>
<path d="M43.2048 91.7008C39.7005 88.834 38.7916 88.0785 35.2874 85.2116C31.8894 82.4323 28.335 79.7615 25.0799 76.8171C23.9434 75.7842 23.4887 75.2408 23.9734 73.7609C24.6853 71.5986 27.7691 68.848 28.4697 66.6862C29.6953 62.8945 30.6214 58.7365 30.1909 54.7418C29.8136 51.2708 26.1391 47.1762 23.6356 47.2894C19.3712 47.4663 12.4998 47.4288 10.2136 50.3905C5.83903 56.0783 2.54746 59.0992 2.77555 66.0489C3.03754 74.2542 10.9455 88.4101 16.184 95.5444C17.7979 97.7483 21.568 96.881 21.4608 93.9143C21.2989 89.43 21.2387 85.2277 21.2615 81.1024C24.1106 83.9015 25.7139 86.1286 28.8999 88.7442C32.5458 91.7316 36.2032 94.7186 39.8496 97.7174C41.0413 98.6912 46.3304 98.3517 47.4327 97.1693C48.4476 96.1044 44.3968 92.6861 43.2048 91.7008ZM22.225 59.9081C22.1521 60.4249 22.0673 60.9306 21.9596 61.4372C22.0006 60.6703 22.0421 59.9147 22.0937 59.1245C22.1867 57.5787 19.1318 56.3752 19.1318 56.3752C17.4623 56.4355 15.8309 60.7217 15.7264 62.2679L15.1326 66.1168C14.7438 72.4718 14.7962 76.4573 15.0005 80.5287C13.9198 77.8714 12.9393 75.4504 12.0092 73.7931C9.07272 68.575 12.3279 62.9619 15.3517 57.5971C15.9757 56.4892 16.7518 55.4671 17.7292 54.6321C18.5401 53.9401 20.099 52.7185 21.2504 53.2139C22.8328 53.9108 22.4618 58.22 22.225 59.9081Z" fill="#C85742"/>
<path d="M160.293 74.2532C159.985 73.6473 159.655 73.0652 159.335 72.4711C159.78 72.1009 160.705 71.3934 160.81 70.807C160.912 70.1406 161.16 70.3716 158.304 68.3268C157.834 67.9896 156.974 67.3237 156.408 67.1956C154.125 63.2678 151.686 61.0366 149.056 57.3384C148.031 55.8901 145.86 53.4892 145.042 54.2957C142.29 57.0343 141.62 59.4121 139.54 62.6977C137.341 66.1704 135.67 69.3499 133.945 74.2222C133.425 75.6691 132.722 79.3392 133.805 80.4882C134.864 81.6039 136.417 79.5713 137.52 77.772C138.731 75.7974 139.574 72.8307 140.5 70.8778C140.92 71.1025 141.383 71.2344 141.897 71.2044C143.074 71.139 144.254 71.1535 145.436 71.2251C145.78 71.2469 146.113 71.2806 146.458 71.3024C146.515 71.3118 146.55 71.3105 146.584 71.3093C146.619 71.3195 146.664 71.3178 146.745 71.3263C147.412 71.4051 148.079 71.4838 148.747 71.5854C150.082 71.7771 151.418 72.0144 152.756 72.2632C153.686 73.9205 153.731 73.9075 154.594 75.6015C155.296 76.97 158.292 81.3063 160.666 80.7749C160.666 80.7749 161.006 75.6213 160.293 74.2532ZM142.617 66.0827C143.815 64.3942 145.107 62.748 146.456 61.1112C147.678 62.9294 148.866 64.7602 150.033 66.6147C147.56 66.3041 145.079 66.0966 142.617 66.0827Z" fill="#C85742" stroke="#C85742" stroke-miterlimit="10"/>
<path d="M89.0934 57.6874C88.0233 57.2233 86.5997 56.4864 85.4272 56.3574C83.9099 56.1951 83.3511 55.941 81.9604 56.7453C81.9604 56.7453 79.3323 60.702 79.01 62.873C78.6978 65.0093 77.9406 67.5045 77.6167 69.6299C77.5898 69.8365 77.5625 70.0317 77.5356 70.2384C75.283 66.835 73.068 63.8416 69.9818 60.1828C68.953 58.9632 66.0194 57.6295 64.2204 57.5917C62.2266 57.5494 58.9642 56.3077 61.7797 59.7592L63.7266 63.8934C68.0059 72.6848 69.1879 73.0762 72.8246 78.9774C73.6762 80.3634 77.2143 83.2176 78.6185 82.4699C78.9897 82.2852 80.8831 82.3996 80.5115 82.573C80.828 82.4587 81.1436 82.3216 81.4479 82.185C81.8525 81.9761 82.6191 79.4235 82.7415 79.0077C83.3126 77.0677 83.4809 74.7537 83.6681 73.9129C84.0429 72.2427 84.0374 71.7745 84.2966 70.0742C84.5652 68.3164 85.4071 67.5319 85.6875 65.7852C85.8273 64.9004 85.9557 64.016 86.0612 63.1325C86.0974 62.8684 86.1218 62.5933 86.1467 62.3296C86.9512 62.4148 87.7677 62.511 88.5723 62.5962C90.2504 62.7755 92.1174 61.8398 92.5514 60.2246C92.9144 58.8633 90.9662 58.4995 89.0934 57.6874Z" fill="#C85742" stroke="#C85742" stroke-miterlimit="10"/>
<path d="M62.5321 75.2018C63.4808 73.8879 61.8521 72.5414 60.584 71.3533C59.7306 70.5501 58.8151 69.9319 57.8585 69.4409C55.655 65.1789 53.2204 61.1766 50.021 57.2362C48.5947 55.4711 46.3758 55.5398 45.081 57.4146C43.024 60.3794 41.4175 63.4537 39.9744 66.6135C39.3863 66.4976 38.7981 66.3818 37.5958 66.3795C35.3851 66.3565 33.4494 66.6549 34.1054 68.3336C35.2793 71.3531 35.9364 72.4262 37.2304 73.065C36.6415 74.5144 36.0421 75.9871 35.4316 77.4716C34.8419 78.8982 34.8083 79.8705 35.0765 80.6377C35.3573 81.4388 37.7529 79.9241 38.354 78.4971L41.0238 74.7446C41.1197 74.5469 41.2054 74.3839 41.3017 74.1976C41.5198 74.2126 41.7493 74.2271 42.025 74.2515C43.9793 74.4665 45.9295 74.5674 47.8817 74.7254C48.8692 74.804 49.8572 74.894 50.846 75.0068C50.9726 75.0251 51.0988 75.032 51.2254 75.0503C51.4096 75.0779 51.5938 75.1055 51.778 75.1331C52.2734 75.2181 52.7688 75.303 53.2651 75.4108C53.9806 75.5677 54.6864 75.7707 55.3828 76.0312C55.483 76.2675 55.5823 76.481 55.7061 76.7393C56.3408 78.1446 59.9478 81.956 61.5441 81.4528C62.8799 81.0275 62.1803 78.4592 61.5452 77.0426C61.4332 76.7953 61.322 76.5708 61.2215 76.3231C61.7372 76.0188 62.2267 75.6241 62.5321 75.2018ZM51.1106 75.043C51.1221 75.0426 51.1335 75.0422 51.1453 75.0532C50.9497 75.026 50.9264 75.0154 51.1106 75.043ZM49.4831 68.658C47.4615 68.4796 45.4296 68.3359 43.4092 68.1918C44.3317 66.7875 45.5608 64.995 47.3345 62.4288L49.3842 65.9195C50.3186 67.0625 51.1092 68.028 51.8152 68.8708C51.0339 68.7962 50.253 68.733 49.4831 68.658Z" fill="#C85742" stroke="#C85742" stroke-miterlimit="10"/>
</g>
<defs>
<clipPath id="clip0">
<rect width="308.264" height="88.3279" fill="white" transform="translate(0.802979 11.4277) rotate(-2.06836)"/>
</clipPath>
</defs>
</svg>
