<svg width="106" height="107" viewBox="0 0 106 107" fill="none" xmlns="http://www.w3.org/2000/svg">
<circle cx="53" cy="53.9847" r="51" fill="#FFF8AD" stroke="#FCFCF7" stroke-width="4"/>
<path d="M76.5067 43.3566C76.1795 42.8331 75.8523 42.375 75.5251 41.9823C75.2633 41.6551 75.3287 41.3934 75.656 41.1316C77.5537 39.8228 79.3861 38.4485 81.2185 37.0742C81.4802 36.8779 81.8074 36.8125 82.0037 37.1397C82.5927 37.9904 83.2471 38.8412 83.8361 39.6919C83.9015 39.8228 83.967 39.9537 84.0324 40.15C85.014 39.8882 85.9957 39.6264 86.9773 39.2992C87.5008 39.1029 87.7626 39.2992 87.8934 39.8228C88.5479 42.1132 89.2023 44.4036 89.8567 46.6941C89.9876 47.1522 89.8567 47.4139 89.3986 47.5448C87.7626 48.0029 86.192 48.5264 84.5559 48.9191C84.0324 49.05 83.967 49.2463 83.967 49.7698C83.967 55.4632 83.967 61.0911 83.967 66.7845C83.967 67.1117 83.967 67.3735 83.967 67.7661C63.4185 67.7661 42.9354 67.7661 22.3868 67.7661C22.3868 61.6147 22.3868 55.4632 22.3868 49.3117C22.3214 49.3117 22.3214 49.2463 22.256 49.2463C21.7979 49.7044 21.4052 50.2279 20.9471 50.686C20.7508 50.8823 20.4891 51.1441 20.2273 51.1441C19.9001 51.1441 19.5074 51.0786 19.3111 50.8823C17.2824 49.1809 15.2538 47.4139 13.2251 45.7125C12.5707 45.1235 12.5707 44.6 13.0942 43.9456C14.0758 42.8331 15.0574 41.6551 16.0391 40.5426C16.9552 39.4956 17.1516 39.4301 18.2641 40.0845C18.9185 39.4301 19.5729 38.8412 20.2273 38.1867C21.1435 37.2706 21.4707 37.2706 22.3868 38.0559C22.5177 38.1213 22.8449 38.1213 22.9758 38.0559C23.8266 37.5978 24.6118 37.0742 25.4626 36.5507C26.3788 36.0272 26.7714 36.0926 27.4258 36.8779C27.4913 37.0088 27.753 37.0742 27.9493 37.0742C29.1927 36.8779 30.3707 36.5507 31.6141 36.3544C32.4648 36.1581 32.9229 36.4853 33.0538 37.2706C33.4464 39.1029 33.8391 40.9353 34.2317 42.7676C34.2971 42.9639 34.2971 43.1603 34.3626 43.3566C40.5795 43.3566 46.7964 43.3566 53.0788 43.3566C53.0133 42.9639 53.0133 42.5713 52.9479 42.1132C52.4898 42.375 52.0971 42.6367 51.7045 42.8985C51.2464 43.2257 50.7883 43.2257 50.3302 42.9639C49.6758 42.6367 48.956 42.3095 48.2361 41.9823C47.7126 41.7206 47.5817 41.3934 47.9089 40.8698C48.2361 40.4117 48.6288 40.0191 49.0868 39.6264C49.7413 39.1029 50.5265 38.5794 51.3118 37.9904C51.0501 37.7941 50.7883 37.6632 50.5265 37.5323C49.8721 37.1397 49.6104 36.8125 49.7413 36.2235C49.8721 35.5691 50.2648 35.0456 50.9192 34.9801C51.639 34.9147 52.3589 34.8492 53.0133 34.9147C53.6677 34.9801 54.1912 34.9801 54.6493 34.3257C55.2383 33.475 56.0236 33.4095 57.0707 33.9331C57.9868 34.3912 58.314 35.111 57.9868 36.2235C57.856 36.6816 57.9868 36.9434 58.314 37.2706C58.8376 37.925 59.4265 38.5139 59.8846 39.2338C60.2773 39.8228 60.1464 40.5426 59.6883 41.0007C59.2302 41.4588 58.7067 41.3934 58.1177 41.197C57.856 41.0662 57.5942 41.0007 57.267 40.8698C57.3324 41.7206 57.3324 42.5713 57.3979 43.3566C63.5493 43.3566 69.9626 43.3566 76.5067 43.3566ZM82.9199 44.4691C63.0258 44.4691 43.1971 44.4691 23.303 44.4691C23.303 44.7309 23.303 44.9272 23.303 45.1235C23.303 52.0603 23.303 58.997 23.303 65.9338C23.303 66.7191 23.303 66.7191 24.0883 66.7191C43.4589 66.7191 62.8295 66.7191 82.2001 66.7191C82.3964 66.7191 82.6582 66.7191 82.8545 66.6536C82.9199 59.3242 82.9199 51.9294 82.9199 44.4691ZM53.4714 43.3566C54.5185 43.3566 55.5655 43.3566 56.4817 43.3566C56.4817 42.5713 56.4817 41.786 56.4817 41.0007C56.4817 40.4117 56.7435 40.2154 57.267 40.4117C57.5942 40.4772 57.9214 40.7389 58.2486 40.7389C58.5104 40.7389 58.9685 40.6735 59.0339 40.4772C59.1648 40.15 59.2302 39.6919 59.0339 39.4301C58.6413 38.7757 58.1177 38.1213 57.5288 37.5978C57.0707 37.1397 56.9398 36.747 57.1361 36.1581C57.4633 35.3728 57.2015 34.8492 56.6126 34.522C55.6964 33.9985 55.042 34.1948 54.5185 35.111C54.2567 35.5037 53.9949 35.6345 53.5368 35.5691C53.0133 35.5037 52.4898 35.4382 51.9663 35.4382C51.5082 35.4382 51.0501 35.5037 50.6574 35.6345C50.3957 35.7654 50.1993 36.1581 50.1339 36.4198C50.1339 36.6162 50.3957 36.8779 50.592 37.0742C50.7883 37.2051 51.0501 37.336 51.2464 37.4669C51.7699 37.7941 51.8354 38.1867 51.3118 38.5794C50.8538 38.972 50.3957 39.2338 49.9376 39.6264C49.414 40.0191 48.8905 40.4772 48.367 40.9353C48.0398 41.2625 48.0398 41.5242 48.5633 41.7206C49.2177 41.9823 49.8067 42.3095 50.4611 42.5713C50.6574 42.6367 50.9846 42.6367 51.181 42.5713C51.639 42.375 52.0317 42.0478 52.4898 41.786C53.0133 41.5242 53.2751 41.6551 53.3405 42.1787C53.3405 42.5059 53.406 42.8985 53.4714 43.3566ZM89.3986 47.0213C88.6787 44.6 88.0243 42.2441 87.3045 39.8228C84.8832 40.5426 82.5273 41.197 80.1714 41.8514C80.2368 43.2912 80.4332 43.4875 81.6111 43.3566C81.6765 43.0948 81.6765 42.8331 81.8074 42.6367C81.8729 42.5713 82.2001 42.5059 82.2655 42.5713C82.3964 42.8331 82.4618 43.0948 82.5927 43.422C82.9854 43.422 83.378 43.422 83.9015 43.422C83.9015 45.1235 83.9015 46.825 83.9015 48.5264C85.7993 48.0684 87.5662 47.5448 89.3986 47.0213ZM33.6427 43.422C33.1846 41.3279 32.792 39.2992 32.3339 37.2706C32.2685 36.8779 31.9413 36.8125 31.5486 36.8779C29.9126 37.2051 28.342 37.5323 26.706 37.8595C26.2479 37.925 26.0516 38.1867 26.117 38.6448C26.4442 40.0845 26.706 41.4588 27.0332 42.8985C27.0986 43.1603 27.1641 43.3566 27.4913 43.2912C28.0802 43.2912 28.6692 43.2912 29.2582 43.2912C29.6508 43.2912 29.7817 43.0948 29.7817 42.8985C29.3891 42.8331 28.8001 42.7676 28.7346 42.6367C28.6692 42.2441 28.8001 41.786 28.931 41.3934C29.1273 41.0007 29.3891 40.6735 29.6508 40.3463C30.1089 40.6081 30.567 40.8044 30.8942 41.1316C31.156 41.3279 31.3523 41.7206 31.3523 42.0478C31.3523 42.2441 30.9596 42.4404 30.6324 42.7022C30.8288 42.8331 31.0251 43.2257 31.2868 43.2257C32.1376 43.4875 32.792 43.422 33.6427 43.422ZM19.0494 46.236C18.7221 46.6941 18.3295 46.8904 17.8714 46.6286C17.4133 46.4323 17.4133 46.0397 17.4788 45.647C17.4788 45.5816 17.4788 45.4507 17.4788 45.3853C17.0207 44.7963 17.2824 44.4037 17.806 44.011C17.4788 43.7492 17.217 43.4875 16.9552 43.1603C16.3663 42.5713 16.3663 41.9823 16.9552 41.3934C17.217 41.0662 17.6096 40.8698 17.8714 40.5426C17.3479 39.9537 17.1516 39.9537 16.7589 40.4117C15.581 41.786 14.5339 43.0294 13.4214 44.3382C13.0942 44.6654 13.1596 44.9926 13.4869 45.2544C14.0758 45.7125 14.5994 46.236 15.1883 46.6941C16.628 47.872 18.0023 49.1154 19.3766 50.3588C19.6383 50.6206 19.9655 50.8823 20.2927 50.4897C20.8817 49.8353 21.4707 49.1809 21.9942 48.5919C21.2743 47.8066 20.6199 47.0867 19.9001 46.3669C19.6383 46.6286 19.442 46.8904 19.1802 47.1522C19.1802 46.7595 19.1148 46.5632 19.0494 46.236ZM21.9288 38.6448C21.4052 37.925 21.2089 37.925 20.6854 38.4485C19.5729 39.561 18.4604 40.6735 17.4133 41.786C16.9552 42.3095 16.9552 42.4404 17.4133 42.8985C18.6567 44.1419 19.9001 45.3198 21.1435 46.5632C21.4707 46.8904 21.8633 47.2831 22.3214 47.6757C22.3214 46.6286 22.3214 45.7779 22.3214 44.9272C22.3214 44.7963 22.3214 44.7309 22.3214 44.6C22.0596 44.4691 21.7324 44.4037 21.667 44.2728C21.4707 43.6184 21.4052 42.9639 21.2089 42.2441C21.4707 42.2441 21.6016 42.2441 21.7979 42.2441C21.4707 41.6551 21.1435 41.197 20.8163 40.6735C20.4236 40.0191 20.5545 39.4956 21.2089 39.0375C21.4707 38.9066 21.667 38.7757 21.9288 38.6448ZM81.6111 37.5323C79.7133 38.9066 77.8155 40.2809 75.9177 41.6551C76.3104 42.1787 76.6376 42.7022 77.0302 43.2257C77.0957 43.2912 77.2265 43.422 77.3574 43.422C78.2082 43.422 79.1243 43.422 80.0405 43.422C79.9751 43.0948 79.8442 42.7676 79.7787 42.5059C79.517 41.5897 79.5824 41.4588 80.4986 41.197C81.5457 40.8698 82.6582 40.6081 83.7052 40.2809C82.9854 39.3647 82.3309 38.4485 81.6111 37.5323ZM26.7714 37.2706C26.5751 36.8125 26.3133 36.6816 25.9207 36.8779C24.481 37.7287 22.9758 38.6448 21.5361 39.4956C21.1435 39.7573 21.078 40.0191 21.3398 40.4772C21.8633 41.3279 22.3868 42.1132 22.8449 42.9639C23.0413 43.2912 23.2376 43.422 23.5648 43.3566C24.2192 43.3566 24.8736 43.3566 25.5935 43.3566C25.8552 43.3566 26.1824 43.3566 26.4442 43.3566C26.4442 43.2912 26.4442 43.2257 26.4442 43.2257C25.9861 43.0948 25.528 42.9639 25.0699 42.7676C24.6118 42.5713 24.2192 42.3095 24.3501 41.7206C24.481 41.197 24.9391 41.197 25.3971 41.2625C25.4626 41.2625 25.528 41.2625 25.4626 41.2625C26.0516 40.6735 25.9207 40.0845 25.7243 39.4956C25.6589 39.2338 25.528 38.9066 25.5935 38.6448C25.6589 38.3176 25.7243 37.925 25.9861 37.5978C26.117 37.4669 26.4442 37.4014 26.7714 37.2706Z" fill="black"/>
<path d="M64.2692 72.1506C64.5309 72.805 64.7927 73.394 65.1199 74.1139C65.4471 73.394 65.7089 72.7396 65.9706 72.1506C66.0361 72.1506 66.1015 72.1506 66.1669 72.1506C66.2978 73.0014 66.4941 73.8521 66.625 74.7683C66.2978 74.7683 66.2978 74.7683 65.9052 73.1323C65.6434 73.7867 65.3816 74.3102 65.1199 75.0301C64.7927 74.3102 64.5964 73.7867 64.3346 73.1323C64.0074 73.6558 64.2692 74.3756 63.8111 74.8337C63.7456 74.8337 63.6802 74.7683 63.6147 74.7683C63.8111 73.9175 63.9419 73.0668 64.1383 72.2161C64.2037 72.1506 64.2037 72.1506 64.2692 72.1506Z" fill="black"/>
<path d="M47.7781 72.1506C48.5634 72.1506 49.2178 72.6742 49.2178 73.4595C49.2178 74.2448 48.5634 74.8992 47.7781 74.8992C46.9928 74.8992 46.3384 74.3102 46.3384 73.5249C46.3384 72.7396 46.9928 72.1506 47.7781 72.1506ZM47.7781 72.4778C47.1891 72.4778 46.7965 72.9359 46.731 73.4595C46.731 74.0484 47.1891 74.5065 47.7781 74.5065C48.3016 74.5065 48.7597 73.983 48.7597 73.4595C48.8251 72.9359 48.3671 72.4778 47.7781 72.4778Z" fill="black"/>
<path d="M25.5935 73.5249C25.5935 72.6742 26.1825 72.1506 27.0332 72.1506C27.8185 72.1506 28.4075 72.7396 28.4075 73.5249C28.4075 74.3102 27.8185 74.8992 27.0332 74.8992C26.2479 74.8992 25.5935 74.3102 25.5935 73.5249ZM25.9862 73.5249C25.9862 74.1139 26.4442 74.572 26.9678 74.572C27.4913 74.572 28.0148 74.0484 28.0148 73.5249C28.0148 73.0014 27.5567 72.5433 26.9678 72.5433C26.4442 72.4778 25.9862 72.9359 25.9862 73.5249Z" fill="black"/>
<path d="M75.7867 73.525C76.1139 73.525 76.4412 73.525 76.8338 73.525C76.9647 74.1139 76.7029 74.572 76.1794 74.7683C75.4595 75.0301 74.6743 74.7683 74.3471 74.1794C74.0198 73.5904 74.2162 72.8051 74.6743 72.4125C75.1323 72.0853 76.0485 72.0198 76.4412 72.4125C76.5066 72.4779 76.572 72.6742 76.5066 72.8705C75.9831 72.5433 75.525 72.2161 74.936 72.6742C74.5434 73.0014 74.4125 73.3941 74.6088 73.8522C74.7397 74.3102 75.1323 74.5066 75.5904 74.5066C75.9831 74.5066 76.3103 74.3102 76.3757 73.8522C76.114 73.7867 75.9176 73.7213 75.7213 73.6558C75.7213 73.6558 75.7213 73.5904 75.7867 73.525Z" fill="black"/>
<path d="M53.9949 72.2161C55.1074 72.0852 55.5 72.2161 55.5655 72.6742C55.6309 73.1977 55.4346 73.5249 54.8456 73.5249C54.9765 73.7212 55.1074 73.9175 55.2383 74.1139C55.3691 74.3102 55.5 74.5065 55.6309 74.7028C55.2383 74.7683 55.2383 74.7683 54.3221 73.6558C54.3221 74.0484 54.3221 74.3102 54.3221 74.5065C54.3221 74.5719 54.1912 74.7028 54.1258 74.7683C54.0603 74.7028 53.9294 74.5719 53.9294 74.5065C53.9949 73.7866 53.9949 73.0014 53.9949 72.2161ZM54.2566 72.6087C54.3875 72.8705 54.5184 73.1322 54.6493 73.3286C54.8456 73.1977 55.1728 73.0668 55.1728 72.9359C55.1728 72.5433 54.8456 72.4778 54.2566 72.6087Z" fill="black"/>
<path d="M43.5898 74.8338C43.5898 73.9176 43.5898 73.0668 43.5898 72.2161C43.917 72.2161 44.1788 72.1507 44.4406 72.2161C44.6369 72.2815 44.9641 72.4779 44.9641 72.6087C44.9641 73.1977 45.1604 73.7213 45.095 74.3102C45.095 74.5065 44.6369 74.7029 44.3751 74.8338C44.1788 74.8992 43.8516 74.8338 43.5898 74.8338ZM43.917 73.5249C43.917 73.9176 43.917 74.1793 43.917 74.572C44.2443 74.4411 44.4406 74.3757 44.6369 74.2448C44.7023 74.1793 44.7023 73.9176 44.6369 73.8521C44.506 73.7212 44.2443 73.6558 43.917 73.5249ZM43.9825 73.2632C44.0479 73.3286 44.0479 73.3286 44.1134 73.394C44.3097 73.2632 44.506 73.0668 44.7023 72.936C44.506 72.8051 44.3097 72.6087 44.1134 72.4779C44.0479 72.5433 44.0479 72.5433 43.9825 72.6087C43.9825 72.8051 43.9825 73.0668 43.9825 73.2632Z" fill="black"/>
<path d="M82.6581 73.7213C82.9199 74.0485 83.1817 74.3757 83.5089 74.8338C82.6581 74.8338 82.6581 73.983 82.0692 73.7867C82.0692 74.1139 82.0692 74.4411 82.0692 74.8338C82.0037 74.8338 82.0037 74.8992 81.9383 74.8992C81.8728 74.8338 81.6765 74.7029 81.6765 74.6375C81.6765 73.9176 81.6765 73.2632 81.6765 72.5433C81.6765 72.4779 81.742 72.2816 81.8074 72.2816C82.0692 72.0852 83.0508 72.347 83.1817 72.6088C83.4434 73.0014 83.3125 73.3941 82.6581 73.7213ZM82.0692 73.3941C82.3964 73.2632 82.6581 73.1977 82.8545 73.0669C82.9199 73.0669 82.8545 72.7397 82.789 72.6742C82.5927 72.5433 82.3309 72.5433 82.0692 72.4779C82.0692 72.8705 82.0692 73.0669 82.0692 73.3941Z" fill="black"/>
<path d="M71.0095 72.1506C71.5985 72.8051 72.122 73.394 72.7764 74.1139C72.8419 73.394 72.8419 72.805 72.8419 72.2161C72.9073 72.2161 72.9728 72.2161 73.0382 72.2161C73.0382 73.0668 73.0382 73.9176 73.0382 74.8992C72.4492 74.2448 71.8603 73.6558 71.2713 72.9359C71.2713 73.5903 71.2058 74.2448 71.2058 74.8337C71.1404 74.8337 71.075 74.8337 71.0095 74.8337C71.0095 73.983 71.0095 73.1323 71.0095 72.1506Z" fill="black"/>
<path d="M36.7185 74.8992C36.7185 73.9831 36.7185 73.1323 36.7185 72.2816C37.6347 72.0853 38.1582 72.2162 38.2891 72.7397C38.42 73.2632 38.1582 73.525 37.5692 73.6559C37.831 74.0485 38.0928 74.3757 38.4854 74.8338C37.6347 74.8338 37.6347 74.0485 37.1766 73.7867C36.8494 74.0485 37.3075 74.6375 36.7185 74.8992ZM37.0457 73.3941C37.3729 73.2632 37.5692 73.1978 37.7656 73.0669C37.831 73.0015 37.831 72.6743 37.7656 72.6743C37.5692 72.5434 37.3075 72.5434 37.0457 72.4779C37.0457 72.8051 37.0457 73.0015 37.0457 73.3941Z" fill="black"/>
<path d="M94.8956 45.1234C97.6063 45.1234 99.8037 45.0941 99.8037 45.058C99.8037 45.0219 97.6063 44.9926 94.8956 44.9926C92.185 44.9926 89.9875 45.0219 89.9875 45.058C89.9875 45.0941 92.185 45.1234 94.8956 45.1234Z" fill="black"/>
<path d="M29.7164 72.1506C29.7164 72.347 29.7818 72.5433 29.7818 72.7396C29.7818 73.0668 29.7818 73.4595 29.7818 73.7867C29.7818 74.2448 29.9781 74.5065 30.4362 74.5065C30.8943 74.5065 31.1561 74.2448 31.1561 73.7867C31.1561 73.394 31.1561 72.9359 31.1561 72.5433C31.1561 72.4124 31.287 72.2815 31.3524 72.1506C31.4178 72.1506 31.4833 72.2161 31.5487 72.2161C31.5487 72.8705 31.6142 73.5249 31.5487 74.1793C31.4833 74.7029 31.0906 74.8992 30.5671 74.8992C30.109 74.8992 29.5855 74.8337 29.5201 74.3102C29.4546 73.6558 29.5201 72.9359 29.5201 72.2161C29.5855 72.2161 29.6509 72.2161 29.7164 72.1506Z" fill="black"/>
<path d="M58.8376 74.7683C58.3796 74.7683 57.9215 74.7683 57.4634 74.7683C57.4634 73.9176 57.4634 73.0669 57.4634 72.2816C58.1178 72.0853 58.6413 72.1507 58.9031 72.4779C58.5104 72.4779 58.1832 72.5433 57.856 72.5433C57.856 72.7397 57.856 72.936 57.856 73.1323C58.2487 73.1978 58.5759 73.2632 58.9031 73.3286C58.9031 73.3941 58.9031 73.4595 58.8376 73.525C58.5104 73.525 58.1832 73.5904 57.7906 73.5904C57.7906 73.8522 57.7906 74.1139 57.7906 74.3757C58.1178 74.4411 58.5104 74.5066 58.8376 74.572C58.8376 74.6375 58.8376 74.7029 58.8376 74.7683Z" fill="black"/>
<path d="M33.5118 73.1978C33.9044 73.2632 34.2316 73.2632 34.5588 73.3287C34.5588 73.3941 34.5588 73.4596 34.5588 73.525C34.2316 73.5904 33.839 73.5905 33.5118 73.6559C33.5118 73.9177 33.5118 74.1794 33.5118 74.4412C33.9044 74.5066 34.2316 74.5721 34.6243 74.6375C34.6243 74.703 34.6243 74.7684 34.6243 74.8338C34.1662 74.8338 33.7081 74.8338 33.25 74.8338C33.25 73.9831 33.25 73.1324 33.25 72.2816C33.7081 72.2816 34.2316 72.1507 34.6897 72.4125C34.3625 72.8052 33.3154 72.0853 33.5118 73.1978Z" fill="black"/>
<path d="M68.5884 72.1506C68.981 73.0014 69.3737 73.8521 69.7009 74.7028C69.6354 74.7683 69.6354 74.7683 69.57 74.8337C69.4391 74.7028 69.2428 74.572 69.1773 74.3756C69.0465 74.0484 68.9156 73.9176 68.5229 73.983C68.1957 73.983 67.934 73.983 67.8031 74.3756C67.7376 74.572 67.6068 74.7028 67.4759 74.8337C67.4104 74.7683 67.345 74.7683 67.2795 74.7028C67.6722 73.8521 67.9994 73.0014 68.392 72.1506C68.4575 72.1506 68.5229 72.1506 68.5884 72.1506ZM68.5229 72.7396C68.392 73.1323 68.2612 73.394 68.1957 73.7212C68.4575 73.7212 68.6538 73.7212 68.9156 73.7212C68.7193 73.394 68.6538 73.1323 68.5229 72.7396Z" fill="black"/>
<path d="M79.5825 72.4778C79.2553 72.4778 78.9281 72.4778 78.6009 72.5433C78.6009 72.7396 78.6009 72.9359 78.6009 73.1323C78.9281 73.1977 79.3207 73.2631 79.6479 73.3286C79.6479 73.394 79.648 73.4595 79.5825 73.5249C79.2553 73.5249 78.9281 73.5249 78.6009 73.5903C78.6009 73.8521 78.6009 74.1139 78.6009 74.4411C78.9281 74.5065 79.2553 74.572 79.6479 74.572C79.6479 74.6374 79.6479 74.7029 79.6479 74.7683C79.1899 74.7683 78.7972 74.7683 78.2737 74.7683C78.2737 73.983 78.2737 73.1323 78.2737 72.2161C78.7318 72.2161 79.1899 72.0852 79.6479 72.347C79.5825 72.4124 79.5825 72.4778 79.5825 72.4778Z" fill="black"/>
<path d="M90.511 41.0662C92.4742 39.9537 94.372 38.8412 96.4007 37.6632C96.2698 38.0559 91.2963 41.0662 90.6419 41.197C90.5764 41.1316 90.511 41.0662 90.511 41.0662Z" fill="black"/>
<path d="M49.1522 33.7367C47.9743 32.8206 46.7964 31.8389 45.553 30.9228C45.6184 30.8573 45.6839 30.7919 45.6839 30.7264C46.9272 31.6426 48.1052 32.6242 49.2831 33.5404C49.2177 33.6059 49.1522 33.6713 49.1522 33.7367Z" fill="black"/>
<path d="M66.3633 35.7654C64.9236 36.2235 63.4185 36.6816 61.9788 37.0743C61.9788 37.0088 61.9133 36.8779 61.9133 36.8125C63.353 36.3544 64.8582 35.8963 66.2979 35.5037C66.2979 35.5691 66.3633 35.7 66.3633 35.7654Z" fill="black"/>
<path d="M23.4994 74.5066C23.6957 73.7213 23.4339 72.936 23.6957 72.2162C23.7611 72.2162 23.8266 72.2162 23.892 72.2162C23.892 72.4779 23.9575 72.7397 23.9575 73.0015C23.9575 73.3941 23.9575 73.8522 23.9575 74.2449C23.9575 74.7684 23.5648 75.0301 23.1067 74.8338C23.0413 74.7684 22.9758 74.6375 22.9104 74.5721C23.0413 74.5721 23.1067 74.5066 23.2376 74.5066C23.2376 74.4412 23.3685 74.4412 23.4994 74.5066Z" fill="black"/>
<path d="M71.2715 37.4669C72.3186 38.2522 73.3656 38.9721 74.4127 39.7574C74.3472 39.8228 74.2818 39.8882 74.2818 39.9537C73.2347 39.1684 72.1877 38.4485 71.0752 37.6632C71.1406 37.5978 71.2061 37.5324 71.2715 37.4669Z" fill="black"/>
<path d="M89.2024 35.4382C89.7914 34.4565 90.3803 33.4095 90.9693 32.4279C91.0347 32.4933 91.1002 32.4933 91.1656 32.5587C90.6421 33.6058 89.9877 34.5874 89.3987 35.6345C89.3333 35.5036 89.2678 35.4382 89.2024 35.4382Z" fill="black"/>
<path d="M78.1426 35.5036C77.5537 34.522 76.9647 33.4749 76.3757 32.4933C76.4412 32.4279 76.5066 32.4279 76.6375 32.3624C77.2265 33.344 77.8154 34.3911 78.4044 35.3727C78.2735 35.4382 78.2081 35.5036 78.1426 35.5036Z" fill="black"/>
<path d="M51.1155 72.1506C51.5736 72.4778 51.5736 74.572 51.1155 74.8337C51.1155 73.9175 51.1155 73.0668 51.1155 72.1506Z" fill="black"/>
<path d="M63.0912 30.3338C62.4368 31.0536 61.7824 31.7735 61.0625 32.5588C61.0625 32.1007 62.4368 30.5301 63.0257 30.2029C63.0257 30.2683 63.0257 30.2683 63.0912 30.3338Z" fill="black"/>
<path d="M14.403 35.3728C13.6177 34.7838 12.767 34.1948 11.9817 33.6713C12.0471 33.6059 12.1126 33.5404 12.1126 33.475C12.8979 34.0639 13.7486 34.6529 14.5339 35.1764C14.4685 35.2419 14.403 35.3073 14.403 35.3728Z" fill="black"/>
<path d="M23.2376 28.436C23.1722 29.4177 23.0413 30.3993 22.9759 31.3809C22.9104 31.3809 22.7796 31.3809 22.7141 31.3809C22.7796 30.3993 22.9104 29.4177 22.9759 28.436C23.1068 28.436 23.1722 28.436 23.2376 28.436Z" fill="black"/>
<path d="M51.7699 30.3338C51.5082 29.4176 51.181 28.436 50.9192 27.5198C50.9846 27.5198 51.1155 27.4543 51.181 27.4543C51.4427 28.3705 51.7699 29.3521 52.0317 30.2683C51.9663 30.2683 51.9008 30.3338 51.7699 30.3338Z" fill="black"/>
<path d="M83.7053 32.9515C83.7053 32.1662 83.7053 31.3809 83.7053 30.5956C83.7708 30.5956 83.7708 30.5956 83.8362 30.5956C83.8362 31.3809 83.8362 32.1662 83.8362 32.9515C83.7708 32.9515 83.7708 32.9515 83.7053 32.9515Z" fill="black"/>
<path d="M56.8088 29.2867C56.9397 28.6323 57.136 27.9779 57.2669 27.3235C57.3324 27.3235 57.3978 27.3889 57.5287 27.3889C57.3978 28.0433 57.2015 28.6978 57.0706 29.3522C56.9397 29.2867 56.8743 29.2867 56.8088 29.2867Z" fill="black"/>
<path d="M17.0208 29.5485C17.2826 30.1374 17.5443 30.7918 17.8715 31.3808C17.8061 31.4463 17.7406 31.4463 17.6752 31.5117C17.4134 30.9227 17.0862 30.2683 16.8245 29.6793C16.8899 29.6139 16.9553 29.5485 17.0208 29.5485Z" fill="black"/>
<path d="M61.9133 58.7352C61.7824 58.8661 61.6515 58.9316 61.5206 58.997C60.4736 59.8478 59.2302 59.5205 58.6412 58.2117C58.2486 57.2955 58.1831 56.3139 58.4449 55.3978C58.7067 54.2853 59.0339 53.2382 59.4265 52.1911C59.6883 51.4713 61.0625 50.6205 61.8478 50.8169C62.2405 50.8823 62.6331 51.2095 62.8949 51.5367C63.1567 51.8639 63.2875 52.322 63.353 52.7147C63.5493 54.0889 63.6802 55.3978 62.9603 56.7066C62.5677 57.4264 62.764 58.0808 63.2875 58.7352C63.6802 59.2588 64.1383 59.7169 64.5309 60.2404C64.7273 60.5022 64.9236 60.8294 64.5309 61.0911C64.2037 61.3529 63.8111 61.2875 63.5493 60.9602C63.0912 60.3713 62.6331 59.7823 62.175 59.1279C62.1096 58.997 62.0442 58.8661 61.9133 58.7352ZM61.9133 51.9294C60.9971 52.2566 60.2118 52.5838 60.0809 53.6308C59.95 54.4816 59.6883 55.3323 59.6883 56.2485C59.6883 56.8375 59.8846 57.4919 60.0155 58.0808C60.0155 58.2117 60.2773 58.3426 60.4081 58.2772C60.9317 58.1463 61.2589 57.2955 61.0625 56.772C60.8662 56.3139 60.6045 55.7904 60.4736 55.2669C60.3427 54.9397 60.2773 54.547 60.8008 54.3507C61.1934 54.2198 61.717 54.4816 61.8478 54.9397C61.9133 55.2014 61.9787 55.3978 62.1096 55.8558C62.5023 54.4161 62.3714 53.1728 61.9133 51.9294Z" fill="black"/>
<path d="M49.0868 55.3978C49.8721 55.2014 50.4611 55.0706 51.05 55.0051C51.3118 54.9397 51.639 55.0706 51.9008 55.136C51.7699 55.3978 51.7044 55.8558 51.5081 55.9213C50.9192 56.2485 50.2647 56.4448 49.6103 56.6411C49.2831 56.7066 49.1522 56.8375 49.1522 57.2301C49.1522 58.2772 49.2177 59.3897 49.1522 60.4367C49.1522 60.7639 49.0868 61.0911 48.9559 61.3529C48.8905 61.5492 48.6287 61.811 48.4978 61.811C48.3015 61.811 47.9743 61.5492 47.9089 61.3529C47.778 60.8948 47.7125 60.3713 47.7125 59.8478C47.7125 59.0625 47.778 58.3426 47.778 57.5573C47.778 57.361 47.5162 57.0338 47.3199 56.9029C46.8618 56.5757 46.8618 56.1831 47.3199 55.9867C47.6471 55.7904 47.8434 55.5941 47.778 55.2014C47.778 54.1544 47.778 53.1073 47.7125 52.0603C47.7125 51.9294 47.5162 51.7985 47.4508 51.6676C47.2545 51.4058 47.1236 51.0786 46.9272 50.8169C47.189 50.686 47.4508 50.4897 47.7125 50.3588C49.0868 49.9661 50.4611 49.5735 51.8353 49.1808C52.228 49.05 52.6206 48.9845 52.9478 49.05C53.2096 49.05 53.6022 49.1808 53.6677 49.3772C53.7331 49.5735 53.6677 50.0316 53.4714 50.2279C53.3405 50.4242 53.0133 50.4242 52.7515 50.4897C52.4243 50.5551 52.0317 50.4897 51.7044 50.5551C51.3772 50.6206 51.05 50.8169 50.6574 50.8823C49.3486 51.1441 48.8905 51.8639 49.0868 53.1728C49.1522 53.8272 49.0868 54.547 49.0868 55.3978Z" fill="black"/>
<path d="M66.4942 58.6698C66.8214 57.8845 67.1486 57.1646 67.3449 56.3139C67.7376 55.0051 68.0648 53.7617 68.392 52.4529C68.5229 52.0602 68.5229 51.6021 68.6537 51.2095C68.7846 50.686 69.1118 50.5551 69.6354 50.6205C70.1589 50.686 70.1589 51.0132 70.0935 51.4058C69.7008 53.0419 69.2427 54.6124 68.8501 56.2485C68.5883 57.2955 68.2611 58.3426 67.6067 59.2588C67.4758 59.4551 67.2795 59.7168 67.0832 59.8477C66.2979 60.5676 65.3817 60.3713 64.989 59.3896C64.4655 58.2117 64.3346 56.9683 64.4001 55.6595C64.4655 54.4816 64.531 53.2382 64.5964 52.0602C64.5964 51.6676 64.7273 51.3404 65.1854 51.2095C65.7089 51.0786 66.1015 51.4058 66.1015 51.9294C66.1015 53.4999 66.0361 55.0705 65.9707 56.6411C65.9707 57.2301 66.1015 57.8191 66.167 58.4735C66.2979 58.6043 66.3633 58.6698 66.4942 58.6698Z" fill="black"/>
<path d="M42.7391 58.6698C43.3935 57.9499 43.5898 57.1646 43.8516 56.3793C44.1788 55.0705 44.5714 53.6963 44.8986 52.3874C44.9641 51.9948 45.0295 51.6676 45.095 51.2749C45.2258 50.7514 45.5531 50.6205 46.0111 50.686C46.4038 50.7514 46.6656 50.8823 46.5347 51.4058C46.0111 53.369 45.5531 55.3977 45.0295 57.361C44.7678 58.1462 44.3097 58.8661 43.917 59.5859C43.7861 59.7823 43.5898 59.9132 43.4589 60.044C42.7391 60.5676 41.9538 60.4367 41.5611 59.5859C40.9722 58.3426 40.9067 57.0337 40.9067 55.6595C40.9067 54.4815 41.0376 53.369 41.1031 52.1911C41.1685 51.5367 41.4303 51.2095 41.9538 51.3404C42.3464 51.4058 42.6082 51.5367 42.5428 51.9948C42.4773 53.2382 42.4773 54.4161 42.4119 55.6595C42.4119 56.6411 42.3464 57.6882 42.7391 58.6698Z" fill="black"/>
<path d="M70.8132 53.4345C70.6169 53.1727 70.2242 52.9764 70.1588 52.6492C70.0934 52.1911 70.486 51.9293 70.8787 51.7985C72.0566 51.4058 73.1691 51.0132 74.347 50.686C74.6742 50.6205 75.1323 50.686 75.4595 50.8168C75.6559 50.8823 75.7867 51.2095 75.7867 51.4058C75.7867 51.5367 75.525 51.733 75.3941 51.7985C74.6088 52.0602 73.8235 52.322 72.9728 52.5183C72.5147 52.6492 72.3184 52.911 72.3184 53.369C72.2529 54.6124 72.2529 54.6124 73.4963 54.4161C73.8235 54.3507 74.2162 54.3507 74.5434 54.4161C74.8051 54.4815 74.936 54.7433 75.1978 54.8742C75.0014 55.0705 74.8051 55.3977 74.6088 55.4632C74.2816 55.594 73.8889 55.5286 73.4963 55.594C72.3184 55.6595 72.3184 55.6595 72.122 56.772C71.8603 58.1463 72.0566 58.4735 73.4309 58.6043C73.9544 58.6698 74.4779 58.6043 74.936 58.4735C75.3286 58.408 75.525 58.5389 75.5904 58.8661C75.7213 59.3896 75.5904 59.7823 75.1978 59.7823C74.0853 59.7168 72.9728 59.6514 71.8603 59.4551C71.2059 59.3242 70.8132 58.7352 70.7478 58.0808C70.7478 57.5573 70.7478 56.9683 70.6823 56.4448C70.6823 56.183 70.5514 55.9213 70.486 55.6595C70.4206 55.5286 70.3551 55.3323 70.4206 55.2014C70.9441 54.3507 70.9441 54.3507 70.8132 53.4345Z" fill="black"/>
<path d="M35.0825 55.5941C35.2134 54.4816 35.5406 53.3037 36.5877 52.3221C37.0458 51.9294 37.4384 51.7985 37.9619 52.1912C38.2237 52.3221 38.4855 52.4529 38.7472 52.5184C40.3178 53.1074 41.0377 54.8743 40.2524 56.314C39.9906 56.8375 39.598 57.2956 39.1399 57.6882C38.42 58.3427 37.5693 58.6699 36.5877 58.1463C35.6715 57.7537 35.0825 56.9684 35.0825 55.5941ZM39.2053 55.2015C39.2053 55.0052 39.2053 54.8088 39.1399 54.6125C39.009 54.2853 38.8127 54.0235 38.6163 53.7618C38.5509 53.6963 38.1583 54.0235 37.9619 54.1544C37.7656 54.2199 37.5038 54.2853 37.3075 54.3507C37.1112 54.4162 36.8494 54.4162 36.784 54.5471C36.2605 55.3324 36.4568 56.5103 37.1766 57.0993C37.373 57.2302 37.7002 57.2956 37.8965 57.2302C38.6163 56.8375 39.009 56.1177 39.2053 55.2015Z" fill="black"/>
<path d="M58.1178 55.2015C58.1178 56.6412 56.4817 58.4081 55.042 58.4735C54.0604 58.539 52.7516 57.4265 52.6207 56.3794C52.4898 54.8743 52.9479 53.5 53.995 52.3875C54.3876 51.9949 54.8457 51.864 55.3692 52.1912C55.631 52.3221 55.8928 52.453 56.1545 52.5838C57.4633 52.9765 58.1178 53.9581 58.1178 55.2015ZM53.8641 55.725C54.0604 56.1177 54.2567 56.5757 54.5185 57.0338C54.7803 57.4265 55.1075 57.4265 55.5001 57.1647C56.4817 56.6412 56.9398 55.3978 56.5472 54.3507C56.3508 53.6963 56.0236 53.6309 55.5001 54.089C55.3038 54.2199 54.9766 54.4162 54.7803 54.3507C54.453 54.2199 54.3222 54.3507 54.1913 54.5471C54.0604 54.8743 53.995 55.2015 53.8641 55.725Z" fill="black"/>
<path d="M31.6794 58.0154C32.2684 57.6227 32.7919 57.2955 33.3155 56.9683C33.6427 56.772 34.0353 56.7065 34.428 56.7065C34.5588 56.7065 34.7552 56.9029 34.8206 57.0338C34.8861 57.2301 34.8206 57.4918 34.6897 57.5573C33.5772 58.3426 32.5302 59.0624 31.4177 59.7823C30.8941 60.1095 30.3052 59.6514 30.3052 58.9315C30.3052 57.7536 30.4361 56.5757 30.4361 55.3977C30.5015 53.8926 30.5669 52.3874 30.6324 50.9477C30.6324 50.6205 30.5015 50.1624 31.1559 50.2279C31.6794 50.2279 31.8758 50.3587 31.8758 51.0132C31.8103 52.7801 31.7449 54.547 31.6794 56.3793C31.6794 56.8374 31.6794 57.361 31.6794 58.0154Z" fill="black"/>
<path d="M87.4354 46.6286C87.239 46.3014 86.9773 46.1051 87.0427 45.9088C87.0427 45.7779 87.3045 45.647 87.4354 45.4507C87.5663 45.5816 87.828 45.7124 87.828 45.9088C87.828 46.1051 87.6317 46.236 87.4354 46.6286Z" fill="black"/>
<path d="M86.2574 41.1316C86.4537 41.5242 86.5846 41.7206 86.5846 41.8514C86.5846 41.9823 86.3229 42.1132 86.1265 42.2441C85.9957 42.0478 85.7993 41.9169 85.7339 41.7206C85.7993 41.5897 86.0611 41.3934 86.2574 41.1316Z" fill="black"/>
<path d="M85.4067 44.4691C85.0795 44.6654 84.8832 44.9272 84.7523 44.8617C84.556 44.7963 84.3596 44.6 84.2942 44.4036C84.2942 44.2728 84.556 44.011 84.6868 44.011C84.8832 44.011 85.0795 44.2728 85.4067 44.4691Z" fill="black"/>
<path d="M26.7061 40.1499C26.9024 39.8882 27.0333 39.7573 27.2296 39.3646C27.4259 39.6918 27.6877 39.9536 27.6222 40.1499C27.4259 40.8043 27.0987 40.2808 26.7061 40.1499Z" fill="black"/>
<path d="M26.8369 39.3647C26.8369 38.9721 26.8369 38.5794 26.8369 38.1868C26.9024 38.1868 26.9678 38.1868 27.0332 38.1213C27.1641 38.514 27.3604 38.8412 27.4913 39.1684C27.2296 39.2338 27.0332 39.2993 26.8369 39.3647Z" fill="black"/>
<path d="M14.861 44.8617C14.7301 45.058 14.5993 45.1889 14.4029 45.3198C14.4029 45.3198 14.2721 45.2543 14.2721 45.1889C14.1412 44.9271 13.9448 44.5999 13.814 44.3381C14.1412 44.469 14.4684 44.5999 14.7301 44.7308C14.7956 44.7962 14.7956 44.8617 14.861 44.8617Z" fill="black"/>
<path d="M15.5155 45.189C15.7118 46.0397 15.7118 46.0397 14.8611 45.9088C14.8611 45.7125 14.8611 45.4507 14.8611 45.189C15.0574 45.189 15.2537 45.189 15.5155 45.189Z" fill="black"/>
<path d="M17.6751 41.8514C18.0023 42.1132 18.3295 42.3095 18.6567 42.5713C18.5258 42.5059 18.3949 42.4404 18.3295 42.3095C18.1986 42.4404 18.0677 42.5713 17.8714 42.7022C17.9368 42.8331 18.0677 42.9639 18.1332 43.0948C17.9368 42.7676 17.6751 42.375 17.4788 42.0478C17.5442 41.9823 17.6096 41.9169 17.6751 41.8514Z" fill="black"/>
<path d="M19.3112 43.6183C18.5913 43.6838 18.5259 43.6838 18.5913 43.0294C19.2458 42.833 19.2458 42.833 19.3112 43.6183Z" fill="black"/>
<path d="M78.4699 41.9168C78.2082 42.1132 78.0118 42.3749 77.8809 42.3095C77.6846 42.244 77.5537 42.0477 77.4229 41.8514C77.5537 41.7205 77.7501 41.4587 77.8809 41.4587C78.0118 41.4587 78.2082 41.7205 78.4699 41.9168Z" fill="black"/>
<path d="M81.284 40.0845C81.0877 39.7573 80.8914 39.561 80.8914 39.3647C80.8914 39.2338 81.2186 38.972 81.284 38.972C81.4803 39.0375 81.6767 39.2338 81.6767 39.4301C81.7421 39.6265 81.5458 39.7573 81.284 40.0845Z" fill="black"/>
<path d="M23.0412 41.7205C22.6485 41.5242 22.4522 41.3933 22.1904 41.2624C22.2559 41.1315 22.2559 41.0007 22.3868 41.0007C22.5831 40.8698 22.8448 40.8043 23.0412 40.7389C23.0412 41.0007 23.0412 41.3279 23.0412 41.7205Z" fill="black"/>
<path d="M22.714 40.4772C22.4523 40.6081 22.3214 40.739 22.1251 40.8044C21.9942 40.5426 21.8633 40.2154 21.7979 39.8882C21.7979 39.8228 21.8633 39.6919 21.8633 39.6265C21.9287 39.6265 22.0596 39.6265 22.1251 39.6919C22.3214 39.9537 22.5177 40.2154 22.714 40.4772Z" fill="black"/>
</svg>
