<?xml version="1.0" encoding="utf-8"?>
<!-- Generator: Adobe Illustrator 24.1.0, SVG Export Plug-In . SVG Version: 6.00 Build 0)  -->
<svg version="1.1" id="Calque_1" xmlns="http://www.w3.org/2000/svg" xmlns:xlink="http://www.w3.org/1999/xlink" x="0px" y="0px"
	 viewBox="0 0 152 151.5" style="enable-background:new 0 0 152 151.5;" xml:space="preserve">
<style type="text/css">
	.st0{fill:#F7EF8D;}
	.st1{fill:#E18313;}
	.st2{fill:none;stroke:#000000;stroke-width:1.6;stroke-linecap:round;stroke-linejoin:round;stroke-miterlimit:10;}
	.st3{fill:#020403;stroke:#000000;stroke-width:1.6;stroke-linecap:round;stroke-linejoin:round;stroke-miterlimit:10;}
	.st4{fill:#C65642;stroke:#000000;stroke-width:1.4;stroke-linecap:round;stroke-linejoin:round;stroke-miterlimit:10;}
	.st5{fill:#398047;stroke:#000000;stroke-width:1.4;stroke-linecap:round;stroke-linejoin:round;stroke-miterlimit:10;}
	.st6{fill:none;stroke:#000000;stroke-width:1.4;stroke-linecap:round;stroke-linejoin:round;stroke-miterlimit:10;}
</style>
<circle class="st0" cx="75.7" cy="76" r="74.1"/>
<g>
	<path class="st1" d="M119.6,112.5c0,0-0.1-2.9,0.2-4.1c0.2-1.3,1.4-7.3,0.9-9.2c-0.5-1.8-1-13-1-13s-0.8-8.7-1-9.9
		c-0.2-1.3-1.8-7.1-2.3-9.2c-0.5-2.1-1.6-7.2-0.8-9.5c0.9-2.3,3.1-5.4,3.1-5.4l4.9-0.3l4.2-0.5c0,0,4.5,6.1,5.1,7.8
		c0.6,1.7,2.5,6.3,0.9,14.4s-2.4,10.6-2.3,11c0.1,0.4-0.6,8.8-0.6,8.8l-3.9,11.4l-5.1,6.7L119.6,112.5z"/>
	<g>
		<path class="st2" d="M118.7,52.7c-1.6,1.1-2.7,3-3.1,4.9c-0.5,1.9-0.4,3.9,0,5.9c0.6,3.5,1.8,6.9,2.6,10.4
			c1.4,5.9,1.4,12.1,1.9,18.1c0.4,4.4,1,8.8,0.3,13.2c-0.4,2.6-1.3,5.4-0.7,7.9c5.7-4.7,9.6-11.5,10.7-18.8c0.3-2.1,0.4-4.2,0.6-6.3
			c0.5-4.9,1.9-9.6,2.7-14.4c0.8-4.8,0.9-9.9-0.9-14.4c-1.1-2.7-2.8-5.1-4.6-7.5c-0.2-0.3-0.5-0.6-0.9-0.7c-0.3-0.1-0.7,0.1-1,0.2
			c-2.2,0.8-4.6,1.1-7,0.8"/>
		<path class="st3" d="M118.1,51.2c-0.8-0.6-1.1-1.7-1.5-2.6c-0.6-1.3-1.5-2.5-2.5-3.5c-0.1-0.1-0.2-0.2-0.2-0.3
			c0-0.1,0.1-0.2,0.1-0.2c0.2-0.3,0.5-0.6,0.7-0.8c0.1-0.1,0.2-0.2,0.3-0.2c0.1,0,0.2,0.1,0.2,0.2c1.8,2.5,3.3,5.3,4.5,8.1"/>
		<path class="st3" d="M120.1,51.3c-0.6-5.2-1.1-10.5-1.5-15.7c0.4-0.1,0.7-0.3,1.1-0.4c0,5.2,0.1,10.4,0.5,15.5"/>
		<path class="st3" d="M121.1,50.9c0.4-6.2,0.5-12.4,0-18.6c0.4,0.1,0.9,0.2,1.3,0.2c0.6,2,0.6,4.2,0.5,6.4
			c-0.2,4.1-0.3,8.3-0.5,12.4"/>
		<path class="st3" d="M124,51.2c-0.3-5,0-10,0.8-15c0.2-1.6,0.5-3.1,0.4-4.7c0.5,0.1,1,0.1,1.5,0.2c-0.4,6.2-0.9,12.4-1.3,18.6"/>
		<path class="st3" d="M125.4,49.8c1-4.3,2.1-8.5,3.1-12.8c0.4,0.4,0.8,0.6,1.3,0.8c-1,4.4-2.2,8.8-3.7,13.1"/>
		<path class="st3" d="M127.4,50.3c1.4-2.8,2.7-5.7,3.7-8.7c0.3,0.2,0.5,0.4,0.8,0.6c0.1,0.1,0.2,0.1,0.2,0.2c0,0.1,0,0.2,0,0.2
			c-1.3,2.9-2.7,5.8-4.3,8.6"/>
		<path class="st2" d="M118.2,57.5c1.4,1,3.3,1.4,4.9,1"/>
		<path class="st2" d="M119.8,56.6c0.8,0.7,1.9,1,3,0.9"/>
		<path class="st2" d="M127,61.5c1.1,0.1,2.2,0.2,3.2,0.3c-0.7,0.7-1.8,1.1-2.8,1.1"/>
		<path class="st2" d="M119.3,64.5c0.9,0,1.8,0.1,2.8,0.1"/>
		<path class="st2" d="M127.5,70.2c1,0,2-0.2,3-0.6"/>
		<path class="st2" d="M119.1,70.1c1,0.2,2,0.3,2.9,0.5"/>
		<path class="st2" d="M128,77.3c1.4,0.3,2.9,0.2,4.2-0.4"/>
		<path class="st2" d="M120.7,77.2c0.7,0.3,1.5,0.4,2.2,0.4"/>
		<path class="st2" d="M123.1,86.4c0.7,0.2,1.4,0.4,2.1,0.7c-0.8,0.5-1.9-0.2-2.8,0"/>
		<path class="st2" d="M130,84.8c0.3-0.1,0.7-0.2,1-0.3"/>
		<path class="st2" d="M129,95.4c-0.4,0.2-0.9,0.5-1.3,0.7c0.4,0.2,1,0.2,1.4,0.1c0-0.1,0-0.2,0-0.3"/>
		<path class="st2" d="M122.3,101.7c1.1,0.3,2.2,0.7,3.3,1"/>
	</g>
</g>
<g>
	<path class="st4" d="M43.1,93.6c-0.5,0-0.7-0.7-0.6-1.2s0.3-1.1-0.1-1.5c-0.1-0.1-0.3-0.2-0.4-0.3c-0.4-0.4-0.3-1,0-1.5
		s0.7-0.9,0.7-1.4c0-0.9-0.9-1.6-0.7-2.4c0.2-0.5,0.7-0.8,0.6-1.3c0-0.2-0.2-0.3-0.3-0.5c-0.3-0.5-0.2-1.1-0.2-1.7
		c0-2.5-1.6-4.7-3.2-6.6s-3.3-4-3.5-6.5c-0.3-2.6,1.2-5.2,3.4-6.5c2.2-1.4,5-1.5,7.5-0.7c2,0.6,4,2.2,4.1,4.3c0,0.7-0.1,1.3-0.3,1.9
		c-1.1,4-2.7,8-5.6,10.8c-0.9,0.9-1.9,1.7-2,3c-0.1,1.1,0.6,2.2,0.2,3.2"/>
	<g>
		<path class="st5" d="M40.9,61.4c-1.7-3.7-3.7-7.3-5.9-10.8c-0.2-0.3-0.4-0.5-0.7-0.6c-0.3-0.1-0.7,0.1-0.9,0.3
			c-0.8,0.6-1.4,1.4-1.8,2.4c-0.2,0.4-0.4,1-0.8,1c-0.5,0-0.7-0.5-1.2-0.7c-0.5-0.2-0.9,0.2-1.2,0.5c-0.3,0.4-0.5,0.8-0.8,1.2
			c-0.3,0.3-0.7,0.5-1.2,0.7c-1.6,0.7-3.4,1.4-5,0.7c-1.2-0.5-2-1.8-1.8-3c0.2-1.3,1.5-2.5,1.2-3.8c-0.1-0.3-0.2-0.5-0.1-0.8
			c0.1-0.4,0.5-0.7,0.9-0.8c0.4-0.1,0.9-0.1,1.3-0.3c0.4-0.2,0.7-0.6,1.1-0.8c0.8-0.4,1.7-0.1,2.5-0.1c1.7-0.1,3.1-1.7,4.8-1.7
			c0.9,0,1.7,0.5,2.4,1c0.6,0.4,1.2,0.7,1.6,1.2c0.4,0.5,0.7,1,1,1.6c2,4.2,3.7,8.5,5,12.9"/>
		<path class="st5" d="M42.2,61.6c-0.6-1.6-0.8-3.2-0.9-4.9c0-1.4,0.2-2.8,0.1-4.2S41,49.7,40,48.7c-0.2-0.2-0.5-0.4-0.5-0.7
			c0-0.3,0.2-0.6,0.3-0.9c0.6-1.2,0.1-2.6-0.6-3.7c-0.3-0.5-0.7-1-0.6-1.6c0-0.4,0.3-0.7,0.5-1.1c0.9-1.5,1.1-3.3,0.5-4.9
			c1.3,0,2.6-0.1,3.8-0.1c0.2,0,0.4,0,0.5,0.1c0.2,0.2,0.3,0.5,0.3,0.7c0.1,1.2,0.6,2.4,1.3,3.4c0.6,0.8,1.3,1.5,1.3,2.4
			c0,0.6-0.5,1.2-0.5,1.9c0,0.6,0.3,1.1,0.5,1.6c0.3,1.2-0.2,2.4-0.7,3.5c-1.5,3.3-2.7,6.7-3.5,10.2c-0.1,0.6-0.3,1.2,0,1.8"/>
		<path class="st5" d="M43.5,60.7c0.2-1.4,0.6-2.8,1.4-4c1.1-1.7,2.7-3,3.3-4.9c0.3-0.9,0.3-1.9,1-2.5c0.4-0.3,0.9-0.4,1.2-0.8
			c0.8-1-0.4-2.7,0.5-3.6c0.3-0.3,0.6-0.4,1-0.5c1.2-0.7,1.4-2.4,1.4-3.8c1,0.5,2.2,0.4,3.3,0.8c1.4,0.5,2.3,1.7,3.2,2.8
			c0.5,0.7,1.1,1.5,1,2.3c0,0.5-0.2,0.9-0.4,1.3c-0.3,1.1-0.2,2.3,0.4,3.3c0.3,0.5,0.7,1,0.6,1.6c-0.1,0.8-0.9,1.3-1.7,1.3
			c-0.8,0-1.5-0.4-2.2-0.7c-1.7-0.7-3.7-1.1-5.4-0.5c-1.1,0.4-2,1-2.8,1.8c-1,1-1.7,2.1-2.5,3.2c-0.8,1.1-1.5,2.3-2.3,3.4"/>
	</g>
	<path class="st6" d="M42.9,69.5c0.8,0.1,1.5,0.2,2.3,0.3"/>
	<path class="st6" d="M46.8,68.7c0.3,0,0.7,0,1,0"/>
	<path class="st6" d="M43,74.5c0.6,0,1.2-0.1,1.8-0.1"/>
	<path class="st6" d="M39.3,72.6c-0.5-0.1-1-0.1-1.5-0.2"/>
	<path class="st6" d="M36.3,68.6c0.6-0.2,1.3-0.2,1.8,0.1"/>
</g>
<g>
	<path class="st1" d="M69.7,101.9c0,0-0.1-2.9,0.2-4.1c0.2-1.3,1.4-7.3,0.9-9.2c-0.5-1.8-1-13-1-13s-0.8-8.7-1-9.9
		c-0.2-1.3-1.8-7.1-2.3-9.2s-1.6-7.2-0.8-9.5c0.9-2.3,3.1-5.4,3.1-5.4l4.9-0.3l4.2-0.5c0,0,4.5,6.1,5.1,7.8s2.5,6.3,0.9,14.4
		s-2.4,10.6-2.3,11c0.1,0.4-0.6,8.8-0.6,8.8L76.9,94l-5.1,6.7L69.7,101.9z"/>
	<g>
		<path class="st2" d="M68.8,42c-1.6,1.1-2.7,3-3.1,4.9c-0.5,1.9-0.4,3.9,0,5.9c0.6,3.5,1.8,6.9,2.6,10.4c1.4,5.9,1.4,12.1,1.9,18.1
			c0.4,4.4,1,8.8,0.3,13.2c-0.4,2.6-1.3,5.4-0.7,7.9c5.7-4.7,9.6-11.5,10.7-18.8c0.3-2.1,0.4-4.2,0.6-6.3c0.5-4.9,1.9-9.6,2.7-14.4
			s0.9-9.9-0.9-14.4c-1.1-2.7-2.8-5.1-4.6-7.5c-0.2-0.3-0.5-0.6-0.9-0.7c-0.3-0.1-0.7,0.1-1,0.2c-2.2,0.8-4.6,1.1-7,0.8"/>
		<path class="st2" d="M68.2,40.6c-0.8-0.6-1.1-1.7-1.5-2.6c-0.6-1.3-1.5-2.5-2.5-3.5c-0.1-0.1-0.2-0.2-0.2-0.3
			c0-0.1,0.1-0.2,0.1-0.2c0.2-0.3,0.5-0.6,0.7-0.8c0.1-0.1,0.2-0.2,0.3-0.2c0.1,0,0.2,0.1,0.2,0.2c1.8,2.5,3.3,5.3,4.5,8.1"/>
		<path class="st2" d="M70.2,40.6c-0.6-5.2-1.1-10.5-1.5-15.7c0.4-0.1,0.7-0.3,1.1-0.4c0,5.2,0.1,10.4,0.5,15.5"/>
		<path class="st2" d="M71.2,40.3c0.4-6.2,0.5-12.4,0-18.6c0.4,0.1,0.9,0.2,1.3,0.2c0.6,2,0.6,4.2,0.5,6.4
			c-0.2,4.1-0.3,8.3-0.5,12.4"/>
		<path class="st2" d="M74.1,40.5c-0.3-5,0-10,0.8-15c0.2-1.6,0.5-3.1,0.4-4.7c0.5,0.1,1,0.1,1.5,0.2c-0.4,6.2-0.9,12.4-1.3,18.6"/>
		<path class="st2" d="M75.5,39.1c1-4.3,2.1-8.5,3.1-12.8c0.4,0.4,0.8,0.6,1.3,0.8c-1,4.4-2.2,8.8-3.7,13.1"/>
		<path class="st2" d="M77.5,39.7c1.4-2.8,2.7-5.7,3.7-8.7c0.3,0.2,0.5,0.4,0.8,0.6c0.1,0.1,0.2,0.1,0.2,0.2c0,0.1,0,0.2,0,0.2
			c-1.3,2.9-2.7,5.8-4.3,8.6"/>
		<path class="st2" d="M68.3,46.9c1.4,1,3.3,1.4,4.9,1"/>
		<path class="st2" d="M69.9,45.9c0.8,0.7,1.9,1,3,0.9"/>
		<path class="st2" d="M77.1,50.8c1.1,0.1,2.2,0.2,3.2,0.3c-0.7,0.7-1.8,1.1-2.8,1.1"/>
		<path class="st2" d="M69.4,53.8c0.9,0,1.8,0.1,2.8,0.1"/>
		<path class="st2" d="M77.6,59.6c1,0,2-0.2,3-0.6"/>
		<path class="st2" d="M69.2,59.4c1,0.2,2,0.3,2.9,0.5"/>
		<path class="st2" d="M78.1,66.6c1.4,0.3,2.9,0.2,4.2-0.4"/>
		<path class="st2" d="M70.8,66.5c0.7,0.3,1.5,0.4,2.2,0.4"/>
		<path class="st2" d="M73.2,75.8c0.7,0.2,1.4,0.4,2.1,0.7c-0.8,0.5-1.9-0.2-2.8,0"/>
		<path class="st2" d="M80.1,74.2c0.3-0.1,0.7-0.2,1-0.3"/>
		<path class="st2" d="M79.1,84.8c-0.4,0.2-0.9,0.5-1.3,0.7c0.4,0.2,1,0.2,1.4,0.1c0-0.1,0-0.2,0-0.3"/>
		<path class="st2" d="M72.4,91.1c1.1,0.3,2.2,0.7,3.3,1"/>
	</g>
</g>
<g>
	<path class="st1" d="M101.7,128.9c0,0-0.1-4.1,0.2-6c0.4-1.8,2.1-10.6,1.3-13.2c-0.8-2.6-1.4-18.7-1.4-18.7s-1.1-12.4-1.4-14.3
		C100,75,97.8,66.6,97,63.7c-0.7-3-2.4-10.4-1.1-13.7s4.4-7.8,4.4-7.8l7.1-0.5l6-0.7c0,0,6.4,8.8,7.3,11.2c0.8,2.4,3.6,9.1,1.2,20.7
		s-3.4,15.2-3.3,15.7s-0.9,12.6-0.9,12.6l-5.7,16.4l-7.4,9.6L101.7,128.9z"/>
	<g>
		<path class="st2" d="M100.4,43c-2.3,1.6-3.8,4.3-4.5,7c-0.7,2.8-0.5,5.6-0.1,8.4c0.8,5.1,2.6,9.9,3.8,14.9c2,8.5,2,17.3,2.7,26.1
			c0.5,6.3,1.5,12.7,0.4,19c-0.6,3.8-1.9,7.7-0.9,11.4c8.2-6.7,13.8-16.6,15.3-27c0.4-3,0.5-6.1,0.9-9.1c0.8-7,2.7-13.8,3.9-20.7
			c1.1-6.9,1.4-14.2-1.2-20.7c-1.6-3.9-4.1-7.3-6.6-10.7c-0.3-0.4-0.7-0.9-1.2-1.1c-0.5-0.1-1,0.1-1.5,0.3c-3.2,1.2-6.6,1.6-10,1.2"
			/>
		<path class="st2" d="M99.7,40.9c-1.1-0.9-1.6-2.4-2.2-3.7c-0.8-1.9-2.1-3.6-3.7-5c-0.1-0.1-0.3-0.3-0.3-0.5c0-0.1,0.1-0.2,0.2-0.3
			c0.3-0.4,0.7-0.8,1-1.2c0.1-0.1,0.2-0.2,0.4-0.2c0.1,0,0.2,0.1,0.3,0.2c2.5,3.7,4.7,7.6,6.5,11.6"/>
		<path class="st2" d="M102.5,41c-0.8-7.5-1.5-15-2.2-22.6c0.5-0.2,1-0.4,1.6-0.6c-0.1,7.4,0.2,14.9,0.7,22.3"/>
		<path class="st2" d="M103.9,40.5c0.6-8.9,0.7-17.9,0-26.8c0.6,0.2,1.3,0.3,1.9,0.3c0.9,2.9,0.8,6.1,0.7,9.1
			c-0.2,5.9-0.5,11.9-0.7,17.8"/>
		<path class="st2" d="M108,40.8c-0.4-7.2,0-14.4,1.1-21.5c0.4-2.2,0.8-4.5,0.5-6.7c0.7,0.1,1.5,0.2,2.2,0.3
			c-0.6,8.9-1.2,17.8-1.9,26.8"/>
		<path class="st2" d="M110.1,38.8c1.5-6.1,2.9-12.2,4.4-18.4c0.5,0.5,1.2,0.9,1.9,1.1c-1.4,6.3-3.2,12.6-5.3,18.7"/>
		<path class="st2" d="M113,39.6c2.1-4,3.9-8.2,5.4-12.4c0.4,0.3,0.8,0.5,1.1,0.8c0.1,0.1,0.2,0.2,0.3,0.3c0,0.1,0,0.2-0.1,0.3
			c-1.9,4.2-3.9,8.4-6.2,12.4"/>
		<path class="st2" d="M99.7,49.9c2,1.5,4.7,2,7.1,1.4"/>
		<path class="st2" d="M102,48.5c1.2,1,2.8,1.5,4.3,1.3"/>
		<path class="st2" d="M112.4,55.6c1.6,0.1,3.1,0.2,4.7,0.4c-1.1,1-2.5,1.6-4,1.6"/>
		<path class="st2" d="M101.3,59.9c1.3,0.1,2.6,0.1,4,0.2"/>
		<path class="st2" d="M113.1,68.2c1.5,0.1,2.9-0.3,4.2-0.9"/>
		<path class="st2" d="M101,67.9c1.4,0.2,2.8,0.5,4.2,0.7"/>
		<path class="st2" d="M113.8,78.3c2,0.5,4.1,0.3,6-0.5"/>
		<path class="st2" d="M103.4,78.1c1,0.4,2.1,0.6,3.2,0.5"/>
		<path class="st2" d="M106.8,91.4c1,0.3,2,0.6,3,1c-1.2,0.7-2.7-0.3-4,0"/>
		<path class="st2" d="M116.6,89.1c0.5-0.1,0.9-0.2,1.4-0.5"/>
		<path class="st2" d="M115.2,104.4c-0.6,0.3-1.2,0.7-1.8,1c0.6,0.3,1.4,0.3,2,0.1c0-0.1,0-0.3,0-0.4"/>
		<path class="st2" d="M105.6,113.4c1.6,0.5,3.2,0.9,4.7,1.4"/>
	</g>
</g>
<g>
	<path class="st4" d="M84,138.8c-0.7,0-1-1.1-0.8-1.8c0.1-0.7,0.4-1.6-0.2-2.1c-0.2-0.2-0.4-0.3-0.6-0.4c-0.6-0.5-0.4-1.5,0-2.1
		c0.4-0.6,1-1.3,1-2c0-1.2-1.4-2.3-0.9-3.5c0.2-0.7,1-1.2,0.9-1.9c-0.1-0.3-0.2-0.5-0.4-0.7c-0.4-0.7-0.3-1.6-0.3-2.5
		c0-3.6-2.3-6.7-4.6-9.5c-2.3-2.8-4.7-5.7-5-9.3c-0.4-3.7,1.7-7.4,4.9-9.4c3.2-1.9,7.2-2.2,10.8-1c2.9,0.9,5.7,3.2,5.9,6.2
		c0,0.9-0.2,1.9-0.4,2.8c-1.5,5.7-3.8,11.4-8,15.6c-1.3,1.2-2.8,2.5-2.9,4.3c-0.1,1.5,0.9,3.1,0.3,4.6"/>
	<g>
		<path class="st5" d="M80.9,92.6c-2.5-5.3-5.3-10.5-8.5-15.5c-0.2-0.4-0.5-0.8-1-0.9c-0.5-0.1-0.9,0.1-1.3,0.4
			c-1.1,0.9-2,2.1-2.5,3.4c-0.2,0.6-0.5,1.4-1.2,1.4c-0.7,0-1.1-0.8-1.7-1c-0.6-0.2-1.4,0.2-1.8,0.8c-0.4,0.5-0.7,1.2-1.2,1.7
			c-0.5,0.5-1.1,0.7-1.7,1c-2.3,1-4.9,2-7.1,1c-1.7-0.7-2.8-2.6-2.6-4.4c0.3-1.9,2.1-3.6,1.7-5.5c-0.1-0.4-0.3-0.8-0.2-1.2
			c0.1-0.6,0.7-1,1.3-1.2c0.6-0.2,1.2-0.2,1.8-0.5c0.6-0.3,1-0.9,1.6-1.2c1.1-0.6,2.4-0.1,3.6-0.2c2.5-0.2,4.5-2.5,6.9-2.4
			c1.2,0,2.4,0.7,3.4,1.4c0.8,0.5,1.7,1,2.3,1.7c0.6,0.7,1,1.5,1.4,2.3c2.9,6,5.3,12.2,7.2,18.6"/>
		<path class="st5" d="M82.6,92.8c-0.8-2.2-1.2-4.6-1.2-7c0-2,0.3-4,0.2-6c-0.1-2-0.6-4.1-2-5.5c-0.3-0.3-0.7-0.6-0.7-1.1
			c-0.1-0.5,0.3-0.9,0.5-1.3c0.8-1.7,0.2-3.7-0.8-5.3c-0.4-0.7-1-1.5-0.9-2.3c0.1-0.6,0.4-1.1,0.7-1.5c1.2-2.1,1.5-4.7,0.8-7
			c1.8,0,3.7-0.1,5.5-0.1c0.3,0,0.5,0,0.7,0.1c0.3,0.2,0.4,0.7,0.4,1c0.2,1.7,0.8,3.4,1.9,4.9c0.8,1.1,1.9,2.2,1.8,3.5
			c-0.1,0.9-0.7,1.7-0.7,2.7c0,0.8,0.5,1.5,0.7,2.3c0.5,1.7-0.3,3.4-1.1,5c-2.2,4.7-3.9,9.6-5,14.6c-0.2,0.8-0.4,1.7,0,2.5"/>
		<path class="st5" d="M84.6,91.6c0.2-2,0.9-4,2-5.7c1.5-2.4,3.9-4.4,4.7-7.1c0.4-1.3,0.5-2.8,1.5-3.6c0.5-0.4,1.3-0.6,1.7-1.1
			c1.2-1.4-0.6-3.9,0.7-5.2c0.4-0.4,0.9-0.5,1.4-0.8c1.8-1,2-3.4,2-5.5c1.4,0.7,3.2,0.6,4.7,1.2c2,0.7,3.3,2.4,4.6,4.1
			c0.8,1,1.6,2.1,1.5,3.3c0,0.7-0.3,1.3-0.5,1.9c-0.5,1.6-0.3,3.4,0.5,4.8c0.4,0.7,0.9,1.4,0.9,2.2c-0.1,1.1-1.3,1.8-2.4,1.8
			c-1.1,0-2.1-0.6-3.2-1c-2.5-1.1-5.3-1.6-7.8-0.8c-1.5,0.5-2.9,1.5-4,2.6c-1.4,1.4-2.5,3-3.6,4.6c-1.1,1.6-2.2,3.3-3.3,4.9"/>
	</g>
	<path class="st6" d="M83.7,104.2c1.1,0.2,2.2,0.3,3.3,0.5"/>
	<path class="st6" d="M89.3,103.1c0.5,0,0.9,0,1.4,0.1"/>
	<path class="st6" d="M83.8,111.4c0.9-0.1,1.7-0.1,2.5-0.2"/>
	<path class="st6" d="M78.4,108.7c-0.7-0.1-1.4-0.2-2.1-0.3"/>
	<path class="st6" d="M74.2,102.9c0.9-0.3,1.8-0.2,2.7,0.1"/>
</g>
<g>
	<path class="st1" d="M45.8,131.6c0,0-0.1-2.9,0.2-4.1s1.4-7.3,0.9-9.2c-0.5-1.8-1-13-1-13s-0.8-8.7-1-9.9c-0.2-1.3-1.8-7.1-2.3-9.2
		c-0.5-2.1-1.6-7.2-0.8-9.5c0.9-2.3,3.1-5.4,3.1-5.4l4.9-0.3l4.2-0.5c0,0,4.5,6.1,5.1,7.8s2.5,6.3,0.9,14.4
		c-1.6,8.1-2.4,10.6-2.3,11c0.1,0.4-0.6,8.8-0.6,8.8L53,123.8l-5.1,6.7L45.8,131.6z"/>
	<g>
		<path class="st2" d="M44.9,71.8c-1.6,1.1-2.7,3-3.1,4.9c-0.5,1.9-0.4,3.9,0,5.9c0.6,3.5,1.8,6.9,2.6,10.4
			c1.4,5.9,1.4,12.1,1.9,18.1c0.4,4.4,1,8.8,0.3,13.2c-0.4,2.6-1.3,5.4-0.7,7.9c5.7-4.7,9.6-11.5,10.7-18.8c0.3-2.1,0.4-4.2,0.6-6.3
			c0.5-4.9,1.9-9.6,2.7-14.4s0.9-9.9-0.9-14.4c-1.1-2.7-2.8-5.1-4.6-7.5c-0.2-0.3-0.5-0.6-0.9-0.7c-0.3-0.1-0.7,0.1-1,0.2
			c-2.2,0.8-4.6,1.1-7,0.8"/>
		<path class="st3" d="M44.3,70.3c-0.8-0.6-1.1-1.7-1.5-2.6c-0.6-1.3-1.5-2.5-2.5-3.5c-0.1-0.1-0.2-0.2-0.2-0.3
			c0-0.1,0.1-0.2,0.1-0.2c0.2-0.3,0.5-0.6,0.7-0.8c0.1-0.1,0.2-0.2,0.3-0.2c0.1,0,0.2,0.1,0.2,0.2c1.8,2.5,3.3,5.3,4.5,8.1"/>
		<path class="st3" d="M46.3,70.4c-0.6-5.2-1.1-10.5-1.5-15.7c0.4-0.1,0.7-0.3,1.1-0.4c0,5.2,0.1,10.4,0.5,15.5"/>
		<path class="st3" d="M47.3,70.1c0.4-6.2,0.5-12.4,0-18.6c0.4,0.1,0.9,0.2,1.3,0.2c0.6,2,0.6,4.2,0.5,6.4
			c-0.2,4.1-0.3,8.3-0.5,12.4"/>
		<path class="st3" d="M50.2,70.3c-0.3-5,0-10,0.8-15c0.2-1.6,0.5-3.1,0.4-4.7c0.5,0.1,1,0.1,1.5,0.2c-0.4,6.2-0.9,12.4-1.3,18.6"/>
		<path class="st3" d="M51.6,68.9c1-4.3,2.1-8.5,3.1-12.8c0.4,0.4,0.8,0.6,1.3,0.8c-1,4.4-2.2,8.8-3.7,13.1"/>
		<path class="st3" d="M53.6,69.5c1.4-2.8,2.7-5.7,3.7-8.7c0.3,0.2,0.5,0.4,0.8,0.6c0.1,0.1,0.2,0.1,0.2,0.2c0,0.1,0,0.2,0,0.2
			c-1.3,2.9-2.7,5.8-4.3,8.6"/>
		<path class="st2" d="M44.4,76.7c1.4,1,3.3,1.4,4.9,1"/>
		<path class="st2" d="M46,75.7c0.8,0.7,1.9,1,3,0.9"/>
		<path class="st2" d="M53.2,80.6c1.1,0.1,2.2,0.2,3.2,0.3c-0.7,0.7-1.8,1.1-2.8,1.1"/>
		<path class="st2" d="M45.5,83.6c0.9,0,1.8,0.1,2.8,0.1"/>
		<path class="st2" d="M53.7,89.4c1,0,2-0.2,3-0.6"/>
		<path class="st2" d="M45.3,89.2c1,0.2,2,0.3,2.9,0.5"/>
		<path class="st2" d="M54.2,96.4c1.4,0.3,2.9,0.2,4.2-0.4"/>
		<path class="st2" d="M46.9,96.3c0.7,0.3,1.5,0.4,2.2,0.4"/>
		<path class="st2" d="M49.3,105.6c0.7,0.2,1.4,0.4,2.1,0.7c-0.8,0.5-1.9-0.2-2.8,0"/>
		<path class="st2" d="M56.1,103.9c0.3-0.1,0.7-0.2,1-0.3"/>
		<path class="st2" d="M55.2,114.6c-0.4,0.2-0.9,0.5-1.3,0.7c0.4,0.2,1,0.2,1.4,0.1c0-0.1,0-0.2,0-0.3"/>
		<path class="st2" d="M48.5,120.9c1.1,0.3,2.2,0.7,3.3,1"/>
	</g>
</g>
<g>
	<path class="st4" d="M68.5,146.7c-0.5,0-0.7-0.7-0.6-1.2c0.1-0.5,0.3-1.1-0.1-1.5c-0.1-0.1-0.3-0.2-0.4-0.3c-0.4-0.4-0.3-1,0-1.5
		c0.3-0.5,0.7-0.9,0.7-1.4c0-0.9-0.9-1.6-0.7-2.4c0.2-0.5,0.7-0.8,0.6-1.3c0-0.2-0.2-0.3-0.3-0.5c-0.3-0.5-0.2-1.1-0.2-1.7
		c0-2.5-1.6-4.7-3.2-6.6c-1.6-1.9-3.3-4-3.5-6.5c-0.3-2.6,1.2-5.2,3.4-6.5c2.2-1.4,5-1.5,7.5-0.7c2,0.6,4,2.2,4.1,4.3
		c0,0.7-0.1,1.3-0.3,1.9c-1.1,4-2.7,8-5.6,10.8c-0.9,0.9-1.9,1.7-2,3c-0.1,1.1,0.6,2.2,0.2,3.2"/>
	<g>
		<path class="st5" d="M66.3,114.5c-1.7-3.7-3.7-7.3-5.9-10.8c-0.2-0.3-0.4-0.5-0.7-0.6c-0.3-0.1-0.7,0.1-0.9,0.3
			c-0.8,0.6-1.4,1.4-1.8,2.4c-0.2,0.4-0.4,1-0.8,1c-0.5,0-0.7-0.5-1.2-0.7c-0.5-0.2-0.9,0.2-1.2,0.5c-0.3,0.4-0.5,0.8-0.8,1.2
			c-0.3,0.3-0.7,0.5-1.2,0.7c-1.6,0.7-3.4,1.4-5,0.7c-1.2-0.5-2-1.8-1.8-3c0.2-1.3,1.5-2.5,1.2-3.8c-0.1-0.3-0.2-0.5-0.1-0.8
			c0.1-0.4,0.5-0.7,0.9-0.8c0.4-0.1,0.9-0.1,1.3-0.3c0.4-0.2,0.7-0.6,1.1-0.8c0.8-0.4,1.7-0.1,2.5-0.1c1.7-0.1,3.1-1.7,4.8-1.7
			c0.9,0,1.7,0.5,2.4,1c0.6,0.4,1.2,0.7,1.6,1.2c0.4,0.5,0.7,1,1,1.6c2,4.2,3.7,8.5,5,12.9"/>
		<path class="st5" d="M67.6,114.7c-0.6-1.6-0.8-3.2-0.9-4.9c0-1.4,0.2-2.8,0.1-4.2c-0.1-1.4-0.4-2.8-1.4-3.8
			c-0.2-0.2-0.5-0.4-0.5-0.7c0-0.3,0.2-0.6,0.3-0.9c0.6-1.2,0.1-2.6-0.6-3.7c-0.3-0.5-0.7-1-0.6-1.6c0-0.4,0.3-0.7,0.5-1.1
			c0.9-1.5,1.1-3.3,0.5-4.9c1.3,0,2.6-0.1,3.8-0.1c0.2,0,0.4,0,0.5,0.1c0.2,0.2,0.3,0.5,0.3,0.7c0.1,1.2,0.6,2.4,1.3,3.4
			c0.6,0.8,1.3,1.5,1.3,2.4c0,0.6-0.5,1.2-0.5,1.9c0,0.6,0.3,1.1,0.5,1.6c0.3,1.2-0.2,2.4-0.7,3.5c-1.5,3.3-2.7,6.7-3.5,10.2
			c-0.1,0.6-0.3,1.2,0,1.8"/>
		<path class="st5" d="M68.9,113.8c0.2-1.4,0.6-2.8,1.4-4c1.1-1.7,2.7-3,3.3-4.9c0.3-0.9,0.3-1.9,1-2.5c0.4-0.3,0.9-0.4,1.2-0.8
			c0.8-1-0.4-2.7,0.5-3.6c0.3-0.3,0.6-0.4,1-0.5c1.2-0.7,1.4-2.4,1.4-3.8c1,0.5,2.2,0.4,3.3,0.8c1.4,0.5,2.3,1.7,3.2,2.8
			c0.5,0.7,1.1,1.5,1,2.3c0,0.5-0.2,0.9-0.4,1.3c-0.3,1.1-0.2,2.3,0.4,3.3c0.3,0.5,0.7,1,0.6,1.6c-0.1,0.8-0.9,1.3-1.7,1.3
			c-0.8,0-1.5-0.4-2.2-0.7c-1.7-0.7-3.7-1.1-5.4-0.5c-1.1,0.4-2,1-2.8,1.8c-1,1-1.7,2.1-2.5,3.2c-0.8,1.1-1.5,2.3-2.3,3.4"/>
	</g>
	<path class="st6" d="M68.3,122.6c0.8,0.1,1.5,0.2,2.3,0.3"/>
	<path class="st6" d="M72.2,121.8c0.3,0,0.7,0,1,0"/>
	<path class="st6" d="M68.4,127.6c0.6,0,1.2-0.1,1.8-0.1"/>
	<path class="st6" d="M64.6,125.7c-0.5-0.1-1-0.1-1.5-0.2"/>
	<path class="st6" d="M61.7,121.7c0.6-0.2,1.3-0.2,1.8,0.1"/>
</g>
<g>
	<path class="st4" d="M27,115.5c-0.5,0-0.7-0.7-0.6-1.2s0.3-1.1-0.1-1.5c-0.1-0.1-0.3-0.2-0.4-0.3c-0.4-0.4-0.3-1,0-1.5
		s0.7-0.9,0.7-1.4c0-0.9-0.9-1.6-0.7-2.4c0.2-0.5,0.7-0.8,0.6-1.3c0-0.2-0.2-0.3-0.3-0.5c-0.3-0.5-0.2-1.1-0.2-1.7
		c0-2.5-1.6-4.7-3.2-6.6c-1.6-1.9-3.3-4-3.5-6.5c-0.3-2.6,1.2-5.2,3.4-6.5c2.2-1.4,5-1.5,7.5-0.7c2,0.6,4,2.2,4.1,4.3
		c0,0.7-0.1,1.3-0.3,1.9c-1.1,4-2.7,8-5.6,10.8c-0.9,0.9-1.9,1.7-2,3c-0.1,1.1,0.6,2.2,0.2,3.2"/>
	<g>
		<path class="st5" d="M24.8,83.3c-1.7-3.7-3.7-7.3-5.9-10.8c-0.2-0.3-0.4-0.5-0.7-0.6c-0.3-0.1-0.7,0.1-0.9,0.3
			c-0.8,0.6-1.4,1.4-1.8,2.4c-0.2,0.4-0.4,1-0.8,1c-0.5,0-0.7-0.5-1.2-0.7c-0.5-0.2-0.9,0.2-1.2,0.5c-0.3,0.4-0.5,0.8-0.8,1.2
			c-0.3,0.3-0.7,0.5-1.2,0.7c-1.6,0.7-3.4,1.4-5,0.7c-1.2-0.5-2-1.8-1.8-3c0.2-1.3,1.5-2.5,1.2-3.8c-0.1-0.3-0.2-0.5-0.1-0.8
			c0.1-0.4,0.5-0.7,0.9-0.8c0.4-0.1,0.9-0.1,1.3-0.3c0.4-0.2,0.7-0.6,1.1-0.8c0.8-0.4,1.7-0.1,2.5-0.1c1.7-0.1,3.1-1.7,4.8-1.7
			c0.9,0,1.7,0.5,2.4,1c0.6,0.4,1.2,0.7,1.6,1.2c0.4,0.5,0.7,1,1,1.6c2,4.2,3.7,8.5,5,12.9"/>
		<path class="st5" d="M26,83.5c-0.6-1.6-0.8-3.2-0.9-4.9c0-1.4,0.2-2.8,0.1-4.2c-0.1-1.4-0.4-2.8-1.4-3.8c-0.2-0.2-0.5-0.4-0.5-0.7
			c0-0.3,0.2-0.6,0.3-0.9c0.6-1.2,0.1-2.6-0.6-3.7c-0.3-0.5-0.7-1-0.6-1.6c0-0.4,0.3-0.7,0.5-1.1c0.9-1.5,1.1-3.3,0.5-4.9
			c1.3,0,2.6-0.1,3.8-0.1c0.2,0,0.4,0,0.5,0.1c0.2,0.2,0.3,0.5,0.3,0.7c0.1,1.2,0.6,2.4,1.3,3.4c0.6,0.8,1.3,1.5,1.3,2.4
			c0,0.6-0.5,1.2-0.5,1.9c0,0.6,0.3,1.1,0.5,1.6c0.3,1.2-0.2,2.4-0.7,3.5c-1.5,3.3-2.7,6.7-3.5,10.2c-0.1,0.6-0.3,1.2,0,1.8"/>
		<path class="st5" d="M27.4,82.6c0.2-1.4,0.6-2.8,1.4-4c1.1-1.7,2.7-3,3.3-4.9c0.3-0.9,0.3-1.9,1-2.5c0.4-0.3,0.9-0.4,1.2-0.8
			c0.8-1-0.4-2.7,0.5-3.6c0.3-0.3,0.6-0.4,1-0.5c1.2-0.7,1.4-2.4,1.4-3.8c1,0.5,2.2,0.4,3.3,0.8c1.4,0.5,2.3,1.7,3.2,2.8
			c0.5,0.7,1.1,1.5,1,2.3c0,0.5-0.2,0.9-0.4,1.3c-0.3,1.1-0.2,2.3,0.4,3.3c0.3,0.5,0.7,1,0.6,1.6c-0.1,0.8-0.9,1.3-1.7,1.3
			c-0.8,0-1.5-0.4-2.2-0.7c-1.7-0.7-3.7-1.1-5.4-0.5c-1.1,0.4-2,1-2.8,1.8c-1,1-1.7,2.1-2.5,3.2c-0.8,1.1-1.5,2.3-2.3,3.4"/>
	</g>
	<path class="st6" d="M26.7,91.4c0.8,0.1,1.5,0.2,2.3,0.3"/>
	<path class="st6" d="M30.7,90.6c0.3,0,0.7,0,1,0"/>
	<path class="st6" d="M26.9,96.4c0.6,0,1.2-0.1,1.8-0.1"/>
	<path class="st6" d="M23.1,94.5c-0.5-0.1-1-0.1-1.5-0.2"/>
	<path class="st6" d="M20.2,90.5c0.6-0.2,1.3-0.2,1.8,0.1"/>
</g>
</svg>
