<svg width="276" height="276" viewBox="0 0 276 276" fill="none" xmlns="http://www.w3.org/2000/svg">
<g clip-path="url(#clip0)">
<path d="M164.993 172.096C164.993 172.096 183.487 180.024 191.617 190.7C199.747 201.377 200.558 214.421 208.711 213.541C216.864 212.661 239.221 197.399 235.262 187.244C231.303 177.088 176.017 150.179 176.017 150.179L164.993 172.096Z" fill="#FCF9EB" stroke="#EFEAD9" stroke-width="5" stroke-miterlimit="10" stroke-linecap="round" stroke-linejoin="round"/>
<path d="M44.8638 69.4685C44.8638 69.4685 30.5146 101.009 59.7626 125.597C89.0106 150.185 157.506 186.37 157.506 186.37L179.516 144.651L44.8638 69.4685ZM133.426 162.458C133.426 162.458 83.4509 128.393 64.6313 114.42C45.8117 100.446 51.3536 87.6708 51.3536 87.6708L140.67 145.214L133.426 162.458Z" fill="#FCF9EB" stroke="#EFEAD9" stroke-width="5" stroke-miterlimit="10" stroke-linecap="round" stroke-linejoin="round"/>
<path d="M175.581 177.588C175.581 177.588 185.037 163.276 184.054 154.209L175.581 177.588Z" fill="#FCF9EB"/>
<path d="M175.581 177.588C175.581 177.588 185.037 163.276 184.054 154.209" stroke="#EFEAD9" stroke-width="5" stroke-miterlimit="10" stroke-linecap="round" stroke-linejoin="round"/>
</g>
<defs>
<clipPath id="clip0">
<rect x="0.225708" y="79.0937" width="211.817" height="211.817" transform="rotate(-21.86 0.225708 79.0937)" fill="white"/>
</clipPath>
</defs>
</svg>
