<svg width="11" height="11" viewBox="0 0 11 11" fill="none" xmlns="http://www.w3.org/2000/svg">
<path d="M1.11428e-05 7.50655V10.3332C1.11428e-05 10.51 0.0702491 10.6796 0.195273 10.8046C0.320298 10.9296 0.489867 10.9999 0.666678 10.9999H3.49334C3.58108 11.0004 3.66806 10.9836 3.74928 10.9504C3.83051 10.9172 3.90438 10.8683 3.96668 10.8065L8.58001 6.18654L10.4733 4.33321C10.5358 4.27124 10.5854 4.1975 10.6193 4.11626C10.6531 4.03502 10.6705 3.94789 10.6705 3.85988C10.6705 3.77187 10.6531 3.68473 10.6193 3.60349C10.5854 3.52225 10.5358 3.44852 10.4733 3.38654L7.64668 0.526545C7.5847 0.464059 7.51097 0.414463 7.42973 0.380617C7.34849 0.346771 7.26135 0.329346 7.17334 0.329346C7.08534 0.329346 6.9982 0.346771 6.91696 0.380617C6.83572 0.414463 6.76199 0.464059 6.70001 0.526545L4.82001 2.41321L0.193345 7.03321C0.131557 7.09551 0.0826735 7.16938 0.0494971 7.25061C0.0163207 7.33183 -0.000496119 7.41881 1.11428e-05 7.50655ZM7.17334 1.93988L9.06001 3.82654L8.11335 4.77321L6.22668 2.88654L7.17334 1.93988ZM1.33334 7.77988L5.28668 3.82654L7.17334 5.71321L3.22001 9.66654H1.33334V7.77988Z" fill="#397E47"/>
</svg>
