<?xml version="1.0" encoding="UTF-8"?>

<svg version="1.2" baseProfile="tiny" width="210mm" height="210mm" viewBox="0 0 21000 21000" preserveAspectRatio="xMidYMid" fill-rule="evenodd" stroke-width="28.222" stroke-linejoin="round" xmlns="http://www.w3.org/2000/svg" xmlns:ooo="http://xml.openoffice.org/svg/export" xmlns:xlink="http://www.w3.org/1999/xlink" xml:space="preserve">
 <defs class="ClipPathGroup">
  <clipPath id="presentation_clip_path" clipPathUnits="userSpaceOnUse">
   <rect x="0" y="0" width="21000" height="21000"/>
  </clipPath>
 </defs>
 <defs class="TextShapeIndex">
  <g ooo:slide="id1" ooo:id-list="id3 id4 id5 id6 id7 id8 id9 id10 id11 id12 id13 id14 id15 id16 id17"/>
 </defs>
 <defs class="EmbeddedBulletChars">
  <g id="bullet-char-template(57356)" transform="scale(0.00048828125,-0.00048828125)">
   <path d="M 580,1141 L 1163,571 580,0 -4,571 580,1141 Z"/>
  </g>
  <g id="bullet-char-template(57354)" transform="scale(0.00048828125,-0.00048828125)">
   <path d="M 8,1128 L 1137,1128 1137,0 8,0 8,1128 Z"/>
  </g>
  <g id="bullet-char-template(10146)" transform="scale(0.00048828125,-0.00048828125)">
   <path d="M 174,0 L 602,739 174,1481 1456,739 174,0 Z M 1358,739 L 309,1346 659,739 1358,739 Z"/>
  </g>
  <g id="bullet-char-template(10132)" transform="scale(0.00048828125,-0.00048828125)">
   <path d="M 2015,739 L 1276,0 717,0 1260,543 174,543 174,936 1260,936 717,1481 1274,1481 2015,739 Z"/>
  </g>
  <g id="bullet-char-template(10007)" transform="scale(0.00048828125,-0.00048828125)">
   <path d="M 0,-2 C -7,14 -16,27 -25,37 L 356,567 C 262,823 215,952 215,954 215,979 228,992 255,992 264,992 276,990 289,987 310,991 331,999 354,1012 L 381,999 492,748 772,1049 836,1024 860,1049 C 881,1039 901,1025 922,1006 886,937 835,863 770,784 769,783 710,716 594,584 L 774,223 C 774,196 753,168 711,139 L 727,119 C 717,90 699,76 672,76 641,76 570,178 457,381 L 164,-76 C 142,-110 111,-127 72,-127 30,-127 9,-110 8,-76 1,-67 -2,-52 -2,-32 -2,-23 -1,-13 0,-2 Z"/>
  </g>
  <g id="bullet-char-template(10004)" transform="scale(0.00048828125,-0.00048828125)">
   <path d="M 285,-33 C 182,-33 111,30 74,156 52,228 41,333 41,471 41,549 55,616 82,672 116,743 169,778 240,778 293,778 328,747 346,684 L 369,508 C 377,444 397,411 428,410 L 1163,1116 C 1174,1127 1196,1133 1229,1133 1271,1133 1292,1118 1292,1087 L 1292,965 C 1292,929 1282,901 1262,881 L 442,47 C 390,-6 338,-33 285,-33 Z"/>
  </g>
  <g id="bullet-char-template(9679)" transform="scale(0.00048828125,-0.00048828125)">
   <path d="M 813,0 C 632,0 489,54 383,161 276,268 223,411 223,592 223,773 276,916 383,1023 489,1130 632,1184 813,1184 992,1184 1136,1130 1245,1023 1353,916 1407,772 1407,592 1407,412 1353,268 1245,161 1136,54 992,0 813,0 Z"/>
  </g>
  <g id="bullet-char-template(8226)" transform="scale(0.00048828125,-0.00048828125)">
   <path d="M 346,457 C 273,457 209,483 155,535 101,586 74,649 74,723 74,796 101,859 155,911 209,963 273,989 346,989 419,989 480,963 531,910 582,859 608,796 608,723 608,648 583,586 532,535 482,483 420,457 346,457 Z"/>
  </g>
  <g id="bullet-char-template(8211)" transform="scale(0.00048828125,-0.00048828125)">
   <path d="M -4,459 L 1135,459 1135,606 -4,606 -4,459 Z"/>
  </g>
 </defs>
 <defs class="TextEmbeddedBitmaps"/>
 <g>
  <g id="id2" class="Master_Slide">
   <g id="bg-id2" class="Background"/>
   <g id="bo-id2" class="BackgroundObjects"/>
  </g>
 </g>
 <g class="SlideGroup">
  <g>
   <g id="id1" class="Slide" clip-path="url(#presentation_clip_path)">
    <g class="Page">
     <g class="Group">
      <g class="com.sun.star.drawing.PolyPolygonShape">
       <g id="id3">
        <path fill="rgb(255,255,255)" stroke="none" d="M 21000,0 L 3222,0 3222,3216 0,3216 0,21000 17784,21000 17784,17784 21000,17784 21000,0 Z"/>
       </g>
      </g>
      <g class="com.sun.star.drawing.PolyPolygonShape">
       <g id="id4">
        <path fill="rgb(35,31,32)" stroke="none" d="M 544,3754 L 17257,3754 17257,20468 544,20468 544,3754 Z"/>
       </g>
      </g>
      <g class="com.sun.star.drawing.ClosedBezierShape">
       <g id="id5">
        <path fill="rgb(255,255,255)" stroke="none" d="M 3018,16216 L 3760,16159 3760,17257 4382,17257 C 4773,17257 5135,17371 5175,17846 5203,18209 4977,18452 4773,18486 4530,18486 4603,18486 4269,18486 4382,18486 4699,18288 4631,18016 4563,17761 4343,17756 4133,17744 3924,17733 3029,17688 3029,17688 L 3018,16216 Z"/>
       </g>
      </g>
      <g class="com.sun.star.drawing.ClosedBezierShape">
       <g id="id6">
        <path fill="rgb(255,255,255)" stroke="none" d="M 2011,17546 C 1875,17705 1739,17954 1818,18231 2045,19001 3285,19352 3800,19369 L 3743,18458 C 3743,18458 2900,18571 2475,18124 2288,17937 2328,17739 2469,17569 2305,17558 2118,17546 2011,17546 Z"/>
       </g>
      </g>
      <g class="com.sun.star.drawing.PolyPolygonShape">
       <g id="id7">
        <path fill="rgb(18,123,202)" stroke="none" d="M 3754,544 L 20468,544 20468,17257 3754,17257 3754,544 Z"/>
       </g>
      </g>
      <g class="com.sun.star.drawing.ClosedBezierShape">
       <g id="id8">
        <path fill="rgb(255,255,255)" stroke="none" d="M 5951,14477 C 5951,14738 5962,15032 6109,15264 6239,15468 6432,15593 6687,15593 7457,15593 7457,14608 7457,14092 7457,13566 7457,12581 6704,12581 6041,12581 5951,13294 5951,13798 L 5951,14477 Z M 4569,10078 L 5934,10078 5934,12332 5968,12332 C 6200,11867 6590,11641 7123,11641 8470,11641 8884,12983 8884,14092 8884,15332 8385,16550 6964,16550 6285,16550 5962,16295 5617,15729 5447,15933 5396,16204 5311,16453 L 4569,16453 4569,10078 Z"/>
       </g>
      </g>
      <g class="com.sun.star.drawing.PolyPolygonShape">
       <g id="id9">
        <path fill="rgb(255,255,255)" stroke="none" d="M 9155,10078 L 10525,10078 10525,16453 9155,16453 9155,10078 Z"/>
       </g>
      </g>
      <g class="com.sun.star.drawing.ClosedBezierShape">
       <g id="id10">
        <path fill="rgb(255,255,255)" stroke="none" d="M 13974,13521 C 13945,13011 13775,12535 13175,12535 12575,12535 12343,12983 12292,13521 L 13974,13521 Z M 12303,14325 L 12292,14557 C 12292,15117 12609,15570 13204,15570 13628,15570 14047,15264 14047,14829 L 15310,14919 C 15310,15151 14761,16550 13158,16550 11748,16550 10826,15565 10826,14160 10826,12768 11652,11635 13119,11635 13787,11635 14466,11941 14857,12479 15248,13017 15349,13685 15338,14325 L 12303,14325 Z"/>
       </g>
      </g>
      <g class="com.sun.star.drawing.ClosedBezierShape">
       <g id="id11">
        <path fill="rgb(255,255,255)" stroke="none" d="M 18402,16453 L 18402,15638 18385,15638 C 18164,16233 17677,16550 17032,16550 16556,16550 16149,16442 15883,16012 15622,15604 15650,15157 15650,14704 L 15650,11731 17015,11731 17015,14704 C 17015,15083 17049,15446 17536,15446 17847,15446 18108,15270 18227,14993 18317,14778 18300,14506 18300,14268 L 18300,11731 19665,11731 19665,16453 18402,16453 Z"/>
       </g>
      </g>
      <g class="com.sun.star.drawing.ClosedBezierShape">
       <g id="id12">
        <path fill="rgb(255,255,255)" stroke="none" d="M 11624,10961 L 11148,10961 11148,9716 10956,9716 10956,9342 11148,9342 C 11148,9195 11143,9025 11222,8901 11324,8748 11511,8680 11686,8680 11726,8680 11867,8685 11969,8702 L 11969,9070 C 11896,9065 11862,9065 11788,9065 11624,9065 11624,9161 11624,9303 L 11624,9342 11924,9342 11924,9716 11624,9716 11624,10961 Z"/>
       </g>
      </g>
      <g class="com.sun.star.drawing.ClosedBezierShape">
       <g id="id13">
        <path fill="rgb(255,255,255)" stroke="none" d="M 12558,9298 L 12558,9609 12564,9609 C 12615,9434 12711,9247 12926,9264 L 13005,9270 13005,9751 C 12637,9734 12592,10028 12592,10323 L 12592,10963 12111,10963 12111,9298 12558,9298 Z"/>
       </g>
      </g>
      <g class="com.sun.star.drawing.ClosedBezierShape">
       <g id="id14">
        <path fill="rgb(255,255,255)" stroke="none" d="M 14092,10169 C 13911,10186 13577,10231 13577,10469 13577,10605 13651,10690 13787,10690 13883,10690 13974,10639 14030,10554 14098,10446 14092,10350 14092,10231 L 14092,10169 Z M 14138,10961 C 14121,10877 14115,10786 14115,10701 13979,10899 13838,10995 13589,10995 13288,10995 13062,10837 13062,10525 13062,10276 13215,10112 13436,10033 13628,9959 13889,9948 14092,9925 L 14092,9886 C 14092,9818 14098,9733 14053,9671 14008,9614 13928,9591 13855,9591 13702,9591 13566,9671 13566,9829 L 13107,9789 C 13158,9387 13555,9263 13906,9263 14075,9263 14296,9308 14432,9421 14602,9557 14585,9738 14585,9937 L 14585,10712 C 14585,10797 14591,10882 14613,10961 L 14138,10961 Z"/>
       </g>
      </g>
      <g class="com.sun.star.drawing.ClosedBezierShape">
       <g id="id15">
        <path fill="rgb(255,255,255)" stroke="none" d="M 14823,9297 L 15276,9297 15276,9580 15281,9580 C 15383,9365 15519,9263 15763,9263 15921,9263 16074,9314 16176,9450 16267,9569 16267,9778 16267,9931 L 16267,10961 15785,10961 15785,10067 C 15785,9897 15808,9648 15559,9648 15474,9648 15395,9693 15361,9772 15310,9863 15304,9959 15304,10067 L 15304,10961 14823,10961 14823,9297 Z"/>
       </g>
      </g>
      <g class="com.sun.star.drawing.ClosedBezierShape">
       <g id="id16">
        <path fill="rgb(255,255,255)" stroke="none" d="M 17518,9931 C 17518,9784 17439,9637 17269,9637 17003,9637 16969,9897 16969,10106 16969,10310 16974,10599 17246,10599 17416,10599 17501,10463 17518,10310 L 17977,10339 C 17937,10746 17626,10995 17224,10995 16714,10995 16414,10639 16414,10146 16414,9637 16725,9263 17252,9263 17637,9263 17943,9518 17977,9908 L 17518,9931 Z"/>
       </g>
      </g>
      <g class="com.sun.star.drawing.ClosedBezierShape">
       <g id="id17">
        <path fill="rgb(255,255,255)" stroke="none" d="M 19183,9931 C 19171,9750 19109,9586 18905,9586 18684,9586 18605,9738 18588,9931 L 19183,9931 Z M 18588,10214 L 18588,10293 C 18588,10492 18696,10650 18911,10650 19058,10650 19205,10542 19205,10390 L 19652,10424 C 19652,10503 19460,10995 18894,10995 18396,10995 18073,10650 18073,10157 18073,9665 18362,9263 18882,9263 19115,9263 19352,9376 19488,9563 19630,9755 19664,9988 19658,10214 L 18588,10214 Z"/>
       </g>
      </g>
     </g>
    </g>
   </g>
  </g>
 </g>
</svg>