<?xml version="1.0" encoding="utf-8"?>
<!-- Generator: Adobe Illustrator 25.0.0, SVG Export Plug-In . SVG Version: 6.00 Build 0)  -->
<svg version="1.1"
	 id="svg2" xmlns:cc="http://creativecommons.org/ns#" xmlns:dc="http://purl.org/dc/elements/1.1/" xmlns:inkscape="http://www.inkscape.org/namespaces/inkscape" xmlns:rdf="http://www.w3.org/1999/02/22-rdf-syntax-ns#" xmlns:sodipodi="http://sodipodi.sourceforge.net/DTD/sodipodi-0.dtd" xmlns:svg="http://www.w3.org/2000/svg"
	 xmlns="http://www.w3.org/2000/svg" xmlns:xlink="http://www.w3.org/1999/xlink" x="0px" y="0px" viewBox="0 0 461.8 365"
	 style="enable-background:new 0 0 461.8 365;" xml:space="preserve">
<style type="text/css">
	.st0{fill-rule:evenodd;clip-rule:evenodd;fill:url(#path2998_1_);}
	.st1{fill:url(#path3006_1_);}
	.st2{fill:#FFFFFF;}
	.st3{fill:#E2001A;}
	.st4{fill-rule:evenodd;clip-rule:evenodd;fill:#FFFFFF;}
	.st5{fill-rule:evenodd;clip-rule:evenodd;fill:#1EA0E6;}
	.st6{fill-rule:evenodd;clip-rule:evenodd;fill:#F03333;}
	.st7{clip-path:url(#SVGID_2_);}
	.st8{fill-rule:evenodd;clip-rule:evenodd;fill:#231F20;}
	.st9{fill-rule:evenodd;clip-rule:evenodd;fill:#127BCA;}
</style>
<g>
	<g>
		<g>
			<defs>
				<rect id="SVGID_1_" x="26.7" y="-9.6" width="383.4" height="383.4"/>
			</defs>
			<clipPath id="SVGID_2_">
				<use xlink:href="#SVGID_1_"  style="overflow:visible;"/>
			</clipPath>
			<g id="id1" class="st7">
				<g>
					<g>
						<g>
							<g id="id4">
								<path class="st8" d="M36.6,58.9h305.2v305.2H36.6V58.9z"/>
							</g>
						</g>
						<g>
							<g id="id5">
								<path class="st4" d="M81.8,286.5l13.5-1v20h11.4c7.1,0,13.7,2.1,14.5,10.8c0.5,6.6-3.6,11.1-7.3,11.7c-4.4,0-3.1,0-9.2,0
									c2.1,0,7.9-3.6,6.6-8.6c-1.2-4.7-5.3-4.7-9.1-5c-3.8-0.2-20.2-1-20.2-1L81.8,286.5z"/>
							</g>
						</g>
						<g>
							<g id="id6">
								<path class="st4" d="M63.4,310.7c-2.5,2.9-5,7.4-3.5,12.5C64,337.3,86.6,343.7,96,344l-1-16.6c0,0-15.4,2.1-23.2-6.1
									c-3.4-3.4-2.7-7-0.1-10.1C68.7,311,65.3,310.7,63.4,310.7z"/>
							</g>
						</g>
						<g>
							<g id="id7">
								<path class="st9" d="M95.2,0.3h305.2v305.2H95.2V0.3z"/>
							</g>
						</g>
						<g>
							<g id="id8">
								<path class="st4" d="M135.3,254.7c0,4.8,0.2,10.1,2.9,14.4c2.4,3.7,5.9,6,10.6,6c14.1,0,14.1-18,14.1-27.4
									c0-9.6,0-27.6-13.7-27.6c-12.1,0-13.7,13-13.7,22.2V254.7z M110.1,174.4H135v41.2h0.6c4.2-8.5,11.4-12.6,21.1-12.6
									c24.6,0,32.2,24.5,32.2,44.8c0,22.6-9.1,44.9-35.1,44.9c-12.4,0-18.3-4.7-24.6-15c-3.1,3.7-4,8.7-5.6,13.2h-13.5V174.4z"/>
							</g>
						</g>
						<g>
							<g id="id9">
								<path class="st4" d="M193.8,174.4h25v116.4h-25V174.4z"/>
							</g>
						</g>
						<g>
							<g id="id10">
								<path class="st4" d="M281.8,237.2c-0.5-9.3-3.6-18-14.6-18c-11,0-15.2,8.2-16.1,18H281.8z M251.3,251.9l-0.2,4.2
									c0,10.2,5.8,18.5,16.7,18.5c7.7,0,15.4-5.6,15.4-13.5l23.1,1.6c0,4.2-10,29.8-39.3,29.8c-25.7,0-42.6-18-42.6-43.6
									c0-25.4,15.1-46.1,41.9-46.1c12.2,0,24.6,5.6,31.7,15.4c7.1,9.8,9,22,8.8,33.7H251.3z"/>
							</g>
						</g>
						<g>
							<g id="id11">
								<path class="st4" d="M362.7,290.8v-14.9h-0.3c-4,10.9-12.9,16.7-24.7,16.7c-8.7,0-16.1-2-21-9.8c-4.8-7.4-4.3-15.6-4.3-23.9
									v-54.3h24.9v54.3c0,6.9,0.6,13.5,9.5,13.5c5.7,0,10.4-3.2,12.6-8.3c1.6-3.9,1.3-8.9,1.3-13.2v-46.3h24.9v86.2H362.7z"/>
							</g>
						</g>
						<g>
							<g id="id12">
								<path class="st4" d="M238.9,190.5h-8.7v-22.7h-3.5v-6.8h3.5c0-2.7-0.1-5.8,1.4-8.1c1.9-2.8,5.3-4,8.5-4
									c0.7,0,3.3,0.1,5.2,0.4v6.7c-1.3-0.1-2-0.1-3.3-0.1c-3,0-3,1.8-3,4.3v0.7h5.5v6.8h-5.5V190.5z"/>
							</g>
						</g>
						<g>
							<g id="id13">
								<path class="st4" d="M256,160.1v5.7h0.1c0.9-3.2,2.7-6.6,6.6-6.3l1.4,0.1v8.8c-6.7-0.3-7.5,5.1-7.5,10.4v11.7h-8.8v-30.4
									H256z"/>
							</g>
						</g>
						<g>
							<g id="id14">
								<path class="st4" d="M284,176c-3.3,0.3-9.4,1.1-9.4,5.5c0,2.5,1.4,4,3.8,4c1.8,0,3.4-0.9,4.4-2.5c1.2-2,1.1-3.7,1.1-5.9V176
									z M284.8,190.5c-0.3-1.5-0.4-3.2-0.4-4.7c-2.5,3.6-5.1,5.4-9.6,5.4c-5.5,0-9.6-2.9-9.6-8.6c0-4.5,2.8-7.5,6.8-9
									c3.5-1.4,8.3-1.6,12-2v-0.7c0-1.2,0.1-2.8-0.7-3.9c-0.8-1-2.3-1.5-3.6-1.5c-2.8,0-5.3,1.5-5.3,4.3l-8.4-0.7
									c0.9-7.3,8.2-9.6,14.6-9.6c3.1,0,7.1,0.8,9.6,2.9c3.1,2.5,2.8,5.8,2.8,9.4V186c0,1.6,0.1,3.1,0.5,4.5H284.8z"/>
							</g>
						</g>
						<g>
							<g id="id15">
								<path class="st4" d="M297.3,160.1h8.3v5.2h0.1c1.9-3.9,4.3-5.8,8.8-5.8c2.9,0,5.7,0.9,7.5,3.4c1.7,2.2,1.7,6,1.7,8.8v18.8
									h-8.8v-16.3c0-3.1,0.4-7.7-4.1-7.7c-1.6,0-3,0.8-3.6,2.3c-0.9,1.7-1,3.4-1,5.4v16.3h-8.8V160.1z"/>
							</g>
						</g>
						<g>
							<g id="id16">
								<path class="st4" d="M346.5,171.7c0-2.7-1.4-5.4-4.5-5.4c-4.9,0-5.5,4.7-5.5,8.6c0,3.7,0.1,9,5.1,9c3.1,0,4.7-2.5,5-5.3
									l8.4,0.5c-0.7,7.4-6.4,12-13.7,12c-9.3,0-14.8-6.5-14.8-15.5c0-9.3,5.7-16.1,15.3-16.1c7,0,12.6,4.7,13.2,11.8L346.5,171.7z
									"/>
							</g>
						</g>
						<g>
							<g id="id17">
								<path class="st4" d="M376.9,171.7c-0.2-3.3-1.4-6.3-5.1-6.3c-4,0-5.5,2.8-5.8,6.3H376.9z M366.1,176.9v1.4
									c0,3.6,2,6.5,5.9,6.5c2.7,0,5.4-2,5.4-4.7l8.2,0.6c0,1.4-3.5,10.4-13.8,10.4c-9.1,0-15-6.3-15-15.3c0-9,5.3-16.3,14.8-16.3
									c4.3,0,8.6,2.1,11.1,5.5c2.6,3.5,3.2,7.8,3.1,11.9H366.1z"/>
							</g>
						</g>
					</g>
				</g>
			</g>
		</g>
	</g>
</g>
</svg>
