<?xml version="1.0" encoding="utf-8"?>
<!-- Generator: Adobe Illustrator 25.0.0, SVG Export Plug-In . SVG Version: 6.00 Build 0)  -->
<svg version="1.1"
	 id="svg2" xmlns:cc="http://creativecommons.org/ns#" xmlns:dc="http://purl.org/dc/elements/1.1/" xmlns:inkscape="http://www.inkscape.org/namespaces/inkscape" xmlns:rdf="http://www.w3.org/1999/02/22-rdf-syntax-ns#" xmlns:sodipodi="http://sodipodi.sourceforge.net/DTD/sodipodi-0.dtd" xmlns:svg="http://www.w3.org/2000/svg"
	 xmlns="http://www.w3.org/2000/svg" xmlns:xlink="http://www.w3.org/1999/xlink" x="0px" y="0px" viewBox="0 0 1195.4 365"
	 style="enable-background:new 0 0 1195.4 365;" xml:space="preserve">
<style type="text/css">
	.st0{fill-rule:evenodd;clip-rule:evenodd;fill:url(#path2998_1_);}
	.st1{fill:url(#path3006_1_);}
	.st2{fill:#FFFFFF;}
	.st3{fill:#E2001A;}
	.st4{fill-rule:evenodd;clip-rule:evenodd;fill:#FFFFFF;}
	.st5{fill-rule:evenodd;clip-rule:evenodd;fill:#1EA0E6;}
	.st6{fill-rule:evenodd;clip-rule:evenodd;fill:#F03333;}
	.st7{clip-path:url(#SVGID_2_);}
	.st8{fill-rule:evenodd;clip-rule:evenodd;fill:#231F20;}
	.st9{fill-rule:evenodd;clip-rule:evenodd;fill:#127BCA;}
</style>
<g id="E-LOGO-LP-192x60">
	<rect id="Cartouche_blanc_2_" x="24.1" y="4.7" class="st4" width="1143.6" height="357.4"/>
	<rect id="Cartouche_bleu_2_" x="24.1" y="4.7" class="st5" width="1143.6" height="321.6"/>
	<rect id="Filet_rouge_3_" x="24.1" y="338.3" class="st6" width="1143.6" height="23.8"/>
	<g id="Le_Parisien_2_">
		<polygon id="L_2_" class="st2" points="232.6,314.5 149.2,314.5 149.2,117.9 184.9,117.9 184.9,290.6 232.6,290.6 		"/>
		<path id="e_5_" class="st2" d="M311.8,202.5c0,38.7-36.3,56-51.8,57.2c1.8,22.6,11.9,31.6,22.6,31.6c4.2,0,7.1,0,10.1-0.6v23.2
			c-3,0.6-7.7,1.2-12.5,1.2c-23.2,0-54.2-13.1-54.2-79.2c0-68.5,28.6-78.6,47.1-78.6C289.8,157.8,311.8,169.7,311.8,202.5
			L311.8,202.5z M281.4,200.7c0-14.3-3.6-19.7-8.9-19.7c-7.7,0-14.3,8.9-14.3,47.1c0,3,0,5.4,0.6,7.7
			C267.7,234.6,281.4,221.5,281.4,200.7L281.4,200.7z"/>
		<path id="P_2_" class="st2" d="M463.7,128c0,71.5-58.4,96.5-76.2,100.1v86.4h-41.7v-268h35.1C423.8,46.4,463.7,67.3,463.7,128
			L463.7,128z M421.4,128c0-40.5-16.1-51.2-34-51.2v117.3C399.4,192.9,421.4,176.3,421.4,128L421.4,128z"/>
		<path id="a_2_" class="st2" d="M548.3,314.5h-35.7v-11.9l-10.7,11.9c-2.4,0.6-3.6,0.6-4.8,0.6c-23.8,0-45.3-24.4-45.3-58.4
			c0-55.4,46.5-75,61.3-77.4v-3.6c0-10.1-6-14.9-16.1-14.9c-9.5,0-15.5,1.2-23.8,3l0.6-27.4c0,0,8.9-3,25.6-3
			c28.6,0,49.4,12.5,49.4,51.8v129.3H548.3z M512.5,276.9v-69.1c-6,0.6-24.4,16.1-24.4,49.4c0,21.4,7.1,29.8,13.7,29.8
			C507.2,287.1,512.5,281.1,512.5,276.9L512.5,276.9z"/>
		<path id="r_2_" class="st2" d="M631.7,165.6L631.7,165.6c-18.5,0-29.8,14.9-29.8,35.7v113.2h-35.7V137.6l29.8-1.8v14.3
			c6-4.8,14.9-13.7,32.8-13.7h3V165.6L631.7,165.6z"/>
		<path id="i_5_" class="st2" d="M643.6,117.9V82.2h35.7v35.7H643.6z M679.3,314.5V135.8h-35.7v178.7H679.3L679.3,314.5z"/>
		<path id="s_1_" class="st2" d="M780,263.2c0,31-26.8,51.8-58.4,51.8c-13.7,0-25-1.8-34.5-6l14.9-26.8c5.4,2.4,10.1,3,16.1,3
			c11.9,0,21.4-7.7,21.4-18.5c0-12.5-4.8-21.4-18.5-37.5c-23.8-22.6-29.8-33.4-29.8-51.8c0-25,22.6-44.7,51.2-44.7
			c13.1,0,22,2.4,29.8,5.4l-13.7,25c-3.6-1.8-7.7-2.4-14.3-2.4c-8.3,0-15.5,6-15.5,13.7c0,7.1,3,13.7,18.5,28
			C769.2,223.3,780,238.2,780,263.2L780,263.2z"/>
		<path id="i_4_" class="st2" d="M786.5,117.9V82.2h35.7v35.7H786.5z M822.3,314.5V135.8h-35.7v178.7H822.3L822.3,314.5z"/>
		<path id="e_4_" class="st2" d="M932.4,185.2c0,44.7-42.3,64.3-60.2,66.1c1.8,26.2,11.3,36.3,23.8,36.3c4.8,0,8.9,0,8.9-0.6v26.8
			c0,0.6-6.6,1.2-12.5,1.2c-26.8,0-61.3-14.9-61.3-91.1c0-79.2,33.4-90.5,54.8-90.5C906.8,134,932.4,147.7,932.4,185.2L932.4,185.2z
			 M897.3,182.8c0-16.1-3.6-22.6-10.7-22.6c-8.9,0-16.1,10.1-16.1,54.2c0,3.6,0,6,0.6,8.3C881.8,222.7,897.3,207.2,897.3,182.8
			L897.3,182.8z"/>
		<path id="n_1_" class="st2" d="M1042.6,314.5h-35.7V186.4c0-12.5-6-23.2-14.9-23.2s-14.9,10.7-14.9,23.2v128.1h-35.7V135.8h29.8
			v8.9l13.1-10.7c1.8-0.6,3-0.6,6.6-0.6c32.2,0,52.4,19.7,52.4,61.9v119.1H1042.6z"/>
	</g>
</g>
</svg>
