<?xml version="1.0" encoding="utf-8"?>
<!-- Generator: Adobe Illustrator 25.0.0, SVG Export Plug-In . SVG Version: 6.00 Build 0)  -->
<svg version="1.1"
	 id="svg2" xmlns:cc="http://creativecommons.org/ns#" xmlns:dc="http://purl.org/dc/elements/1.1/" xmlns:inkscape="http://www.inkscape.org/namespaces/inkscape" xmlns:rdf="http://www.w3.org/1999/02/22-rdf-syntax-ns#" xmlns:sodipodi="http://sodipodi.sourceforge.net/DTD/sodipodi-0.dtd" xmlns:svg="http://www.w3.org/2000/svg"
	 xmlns="http://www.w3.org/2000/svg" xmlns:xlink="http://www.w3.org/1999/xlink" x="0px" y="0px" viewBox="0 0 1000 365"
	 style="enable-background:new 0 0 1000 365;" xml:space="preserve">
<style type="text/css">
	.st0{fill-rule:evenodd;clip-rule:evenodd;fill:url(#path2998_1_);}
	.st1{fill:url(#path3006_1_);}
	.st2{fill:#FFFFFF;}
	.st3{fill:#E2001A;}
	.st4{fill-rule:evenodd;clip-rule:evenodd;fill:#FFFFFF;}
	.st5{fill-rule:evenodd;clip-rule:evenodd;fill:#1EA0E6;}
	.st6{fill-rule:evenodd;clip-rule:evenodd;fill:#F03333;}
	.st7{clip-path:url(#SVGID_2_);}
	.st8{fill-rule:evenodd;clip-rule:evenodd;fill:#231F20;}
	.st9{fill-rule:evenodd;clip-rule:evenodd;fill:#127BCA;}
</style>
<rect x="189.9" y="-0.2" class="st3" width="615" height="366.8"/>
<g>
	<path class="st2" d="M807.8,369.6H186.9V-3.2h620.9V369.6z M192.9,363.6h608.9V2.8H192.9V363.6z"/>
	<polygon class="st2" points="329.6,315.9 329.6,213.3 303.7,301.5 278.3,213.4 278.3,315.9 241.3,315.9 241.3,50.8 271,50.8 
		304,159.3 304.3,159.3 340.4,50.8 366.7,50.8 366.7,316 	"/>
	<path id="path11" class="st2" d="M440.7,301.5H413l-3.7,14.3h-35.5l35.8-195.8h34.3L480,315.9h-36.1L440.7,301.5z M434.9,263.6
		l-8.5-61.5l-8.3,61.5H434.9z"/>
	<polygon class="st2" points="491.5,315.9 491.5,155.6 466.3,155.6 466.3,120.1 551.5,120.1 551.5,155.6 526.7,155.6 526.7,315.9 	
		"/>
	<polygon class="st2" points="718.5,315.9 718.5,155.6 688.5,155.6 688.5,315.9 653.2,315.9 653.2,50.8 688.5,50.8 688.5,120.1 
		718.5,120.1 718.5,50.8 753.7,50.8 753.7,315.9 	"/>
	<path class="st2" d="M556.6,156.8c2.2-20.2,18.4-38.5,44.6-38.5c26.2,0,43.2,21.8,43.2,39.9v30.3h-35.6v-22.3c0-10.3-4-12-8.3-12
		c-4.4,0-8.3,1.7-8.3,12v103c0,10.1,3.2,12,8.3,12c5,0,8.3-1.9,8.3-12v-17.5h35.6V278c-1.2,18.8-16.9,39.2-43.2,39.2
		c-26.2,0-42.3-18.6-44.6-38.8V156.8z"/>
</g>
<g>
	<path d="M403.5,91.2c-2.2,0-4.4-0.2-6.5-0.3v19.5h-11.2V51.2c5.9-0.6,11.3-1,16.7-1c18,0,27.2,9,27.2,20.2
		C429.7,82.6,420.3,91.2,403.5,91.2 M404.3,59.7c-2.5,0-5,0.2-7.3,0.5V82c2.2,0.2,4.3,0.3,6.2,0.3c10.1,0,14.8-4.8,14.8-11.6
		C418.1,64.9,413.5,59.7,404.3,59.7"/>
	<path d="M481.8,110.5l-6.4-13.7h-26l-6.3,13.7h-11.6l30.2-60.7h1.6l30.2,60.7H481.8z M462.4,68.7l-9.3,20h18.6L462.4,68.7z"/>
	<path d="M540.7,110.5L526.3,89l-3.5,0.1c-2.1,0-4.4-0.1-6.6-0.1v21.6h-11.2V51.2c5.2-0.6,10.7-1,17.3-1c18.6,0,26.9,8.3,26.9,18.9
		c0,7.8-4.6,14-12.8,17.3l17.2,24.1L540.7,110.5L540.7,110.5z M523.8,59.4c-2.7,0-5.3,0.1-7.5,0.5v20.4c2.1,0.2,4.4,0.3,6.5,0.3
		c9.8,0,14.7-4.2,14.7-11C537.4,63.5,532.4,59.4,523.8,59.4"/>
	<rect x="566.7" y="50.6" width="11.2" height="59.9"/>
	<path d="M612.8,111.5c-7.4,0-14.9-2.4-20.6-5.9l3.9-9.2c5.2,3.4,11.5,5.6,17.1,5.6c6.9,0,9.9-3.7,9.9-7.8c0-4.2-2-6.8-12.4-10.8
		c-11.5-4.4-15.6-9.8-15.6-17c0-8.6,7.9-16.7,21.6-16.7c6.4,0,12.7,2,16.5,4.3l-3.6,9c-3.4-2.2-8.7-4.2-13.2-4.2
		c-6.9,0-10.1,3.4-10.1,7.4c0,4,3.2,6.4,11.4,9.7c13,5.1,16.7,10,16.7,17.8C634.4,103.2,626.3,111.5,612.8,111.5"/>
</g>
<g>
	<path class="st3" d="M398.1,111.6h-13.4V50.2l1-0.1c5.9-0.6,11.4-1,16.8-1c17.2,0,28.4,8.3,28.4,21.3c0,13.3-10.7,22-27.3,22
		l-4.4-0.2l-1,0L398.1,111.6L398.1,111.6z M386.9,109.4h9V89.8l1.2,0l2.2,0.1l4.3,0.1c15.4,0,25-7.6,25-19.7c0-11.6-10.2-19-26.1-19
		c-5,0-10.1,0.3-15.6,0.9L386.9,109.4L386.9,109.4z M403.2,83.5c-1.8,0-3.7-0.1-5.7-0.3l-1.7-0.1V59.2l1-0.1
		c2.4-0.3,4.8-0.5,7.5-0.5c10.2,0,14.8,6.1,14.8,12.3C419.2,78.7,413.2,83.5,403.2,83.5 M398.1,81c1.8,0.1,3.5,0.2,5.1,0.2
		c8.8,0,13.7-3.7,13.7-10.4c0-4.6-3.2-10-12.6-10c-2.1,0-4.2,0.1-6.2,0.4V81z"/>
	<path class="st3" d="M495.4,111.6h-14.3l-6.4-13.7h-24.6l-6.3,13.7h-14.1l31.4-62.9h3L495.4,111.6z M482.5,109.4h9.3L462.8,51h-0.3
		l-29.1,58.4h9l6.4-13.7h27.4L482.5,109.4z M473.6,89.8h-22.1l11-23.8L473.6,89.8z M454.9,87.6H470l-7.6-16.2L454.9,87.6z"/>
	<path class="st3" d="M555.9,111.6h-15.8l-14.3-21.5l-2.9,0c-1.8,0-3.6-0.1-5.4-0.1v21.6H504V50.2l1-0.1c6.3-0.7,11.6-1,17.4-1
		c17.5,0,28,7.5,28,20c0,7.8-4.4,14.2-12.2,17.7L555.9,111.6z M541.3,109.4h10.2l-16.7-23.5l1.3-0.5c7.7-3.1,12.1-9,12.1-16.2
		c0-11.3-9.4-17.7-25.7-17.7c-5.4,0-10.5,0.3-16.2,0.9v57.1h9V87.7l1.2,0c2.2,0.1,4.4,0.2,6.5,0.2l3.5-0.1l0.6,0L541.3,109.4z
		 M522.8,81.8c-2.5,0-4.7-0.1-6.6-0.3l-1-0.1V58.9l0.9-0.1c2.5-0.5,5.2-0.6,7.7-0.6c9,0,14.8,4.5,14.8,11.3
		C538.6,77.4,532.8,81.8,522.8,81.8 M517.4,79.3c1.5,0.1,3.4,0.2,5.3,0.2c6.2,0,13.6-1.7,13.6-9.9c0-5.6-4.8-9.1-12.5-9.1
		c-2,0-4.3,0-6.4,0.3V79.3z"/>
	<path class="st3" d="M579,111.6h-13.4V49.5H579V111.6z M567.8,109.4h9V51.8h-9V109.4z"/>
	<path class="st3" d="M612.8,112.6c-7,0-14.8-2.2-21.2-6.1l-0.8-0.5l4.8-11.3l1.1,0.8c5.2,3.4,11.2,5.4,16.5,5.4
		c5.6,0,8.8-2.5,8.8-6.7c0-3.2-0.8-5.6-11.6-9.7c-11.3-4.4-16.3-9.9-16.3-18c0-8.9,7.8-17.9,22.7-17.9c7.2,0,13.6,2.3,17.1,4.5
		l0.8,0.5l-4.5,11.1l-1.1-0.7c-3-1.8-8.1-4.1-12.6-4.1c-5.5,0-9,2.4-9,6.3c0,3.3,2.7,5.4,10.7,8.6c12.9,5.1,17.5,10,17.5,18.9
		C635.6,103.1,627.7,112.6,612.8,112.6 M593.6,105.1c5.9,3.4,12.8,5.2,19.2,5.2c13.5,0,20.5-8.4,20.5-16.7c0-6.8-2.6-11.5-16-16.8
		c-7.8-3.1-12.1-5.8-12.1-10.7c0-3.9,3-8.5,11.2-8.5c4.4,0,9.2,1.8,12.6,3.7l2.7-6.8c-4.1-2.2-9.8-3.7-15.1-3.7
		c-13.4,0-20.4,7.8-20.4,15.6c0,7.2,4.4,11.9,14.9,15.9c10,3.8,13.1,6.6,13.1,11.8c0,4.1-2.9,9-11.1,9c-5.3,0-11.3-1.9-16.6-5.1
		L593.6,105.1z"/>
</g>
</svg>
