<svg width="174" height="289" viewBox="0 0 174 289" fill="none" xmlns="http://www.w3.org/2000/svg">
<g clip-path="url(#clip0)">
<path d="M146.711 221.926L131.659 208.504C109.859 190.408 107.921 186.275 84.6019 169.002C83.2469 167.999 81.5145 167.416 79.8336 167.536C78.187 167.656 76.7376 168.633 75.3911 169.577C70.9744 172.664 66.5662 175.743 62.1495 178.83C61.3776 179.371 60.5029 179.937 59.5681 179.8C58.8734 179.697 58.2988 179.216 57.7671 178.753C31.1638 155.555 5.86404 130.864 -17.9777 104.835C-18.9211 103.797 -19.6243 101.954 -19.1784 100.924L-28.5436 107.777C-22.1801 111.739 -16.8628 117.133 -11.6056 122.476C7.8623 142.27 27.3302 162.073 46.7896 181.866C49.2852 184.405 51.9867 187.595 51.2235 191.069C50.8032 192.981 49.3967 194.508 48.0503 195.931C45.0829 199.045 42.1241 202.166 39.1568 205.279C38.0762 206.411 36.9698 207.612 36.5496 209.113C35.8807 211.531 37.1757 214.01 38.4621 216.163C50.8118 236.677 67.4153 254.241 83.8815 271.625C84.7992 272.594 85.7511 273.58 86.9775 274.086C89.3017 275.038 91.9346 274.035 94.2073 272.963C113.306 263.966 129.61 250.09 145.664 236.385C147.277 235.013 148.932 233.572 149.832 231.651C151.436 228.246 149.978 223.744 146.711 221.926ZM93.6841 258.254C93.3582 258.186 93.0752 257.997 92.8008 257.817C77.681 247.697 63.9333 231.943 51.3178 218.83C49.9971 217.449 48.6163 215.922 48.3847 214.027C48.1532 212.132 52.0639 209.482 53.9335 209.859L70.9315 224.121C79.2676 232.929 90.8025 241.334 97.6635 251.333C98.2295 252.157 98.7869 253.074 98.7526 254.078C98.7183 255.073 94.6618 258.46 93.6841 258.254ZM113.384 246.865C112.543 246.694 111.814 246.179 111.119 245.682C94.9362 234.018 79.7221 220.965 65.7172 206.703C64.5423 205.511 63.3073 204.122 63.3244 202.441C63.3587 199.756 65.3227 198.701 67.8612 197.921C67.8612 197.921 70.1082 197.055 72.5953 199.499C86.4973 213.152 96.4028 222.612 111.78 234.524C114.061 236.291 116.583 238.126 117.44 240.905C118.289 243.675 116.197 247.44 113.384 246.865ZM124.198 231.634C109.224 220.871 95.0306 209.019 81.7718 196.197C80.3825 194.859 78.9845 192.544 80.4168 191.249L85.168 187.844C85.9655 187.295 87.4149 187.252 88.0839 187.398C88.7528 187.544 89.276 188.041 89.7562 188.522C98.7097 197.381 107.672 206.231 116.625 215.091C120.039 218.461 123.452 221.84 126.617 225.451C126.951 225.828 127.286 226.231 127.414 226.72C127.92 228.701 124.901 229.713 124.198 231.634Z" fill="#FCF9EB" stroke="#EFEAD9" stroke-width="5" stroke-miterlimit="10" stroke-linecap="round" stroke-linejoin="round"/>
<g clip-path="url(#clip1)">
<path d="M-18.7875 169.785C-18.7875 169.785 20.1991 162.073 41.3688 160.948C62.5386 159.823 88.3496 134.86 82.6667 115.83C76.9837 96.8009 85.2273 94.2563 77.3347 90.3435C69.4421 86.4307 59.0493 77.4129 39.7651 80.4389C20.4809 83.4649 8.54572 100.227 6.33512 104.296C4.12453 108.365 -4.87797 130.543 -6.18272 133.687C-7.48747 136.831 -20.6322 159.617 -24.2496 160.742L-18.7875 169.785Z" fill="#FCF9EB" stroke="#EFEAD9" stroke-width="5" stroke-miterlimit="10" stroke-linecap="round" stroke-linejoin="round"/>
<path d="M71.8967 90.1222C52.5185 97.656 34.8485 109.546 20.569 124.661C7.1258 138.885 -3.54912 156.086 -19.6708 167.18" fill="#FCF9EB"/>
<path d="M71.8967 90.1222C52.5185 97.656 34.8485 109.546 20.569 124.661C7.1258 138.885 -3.54912 156.086 -19.6708 167.18" stroke="#EFEAD9" stroke-width="5" stroke-miterlimit="10" stroke-linecap="round" stroke-linejoin="round"/>
<path d="M71.0491 88.8398C62.9307 87.8149 54.7335 89.4537 46.7103 91.084C43.791 91.6771 40.8301 92.2886 38.1829 93.6439C34.5987 95.4715 31.8189 98.5357 29.2274 101.619C11.7373 122.428 -1.02395 147.043 -19.8322 166.667" fill="#FCF9EB"/>
<path d="M71.0491 88.8398C62.9307 87.8149 54.7335 89.4537 46.7103 91.084C43.791 91.6771 40.8301 92.2886 38.1829 93.6439C34.5987 95.4715 31.8189 98.5357 29.2274 101.619C11.7373 122.428 -1.02395 147.043 -19.8322 166.667" stroke="#EFEAD9" stroke-width="5" stroke-miterlimit="10" stroke-linecap="round" stroke-linejoin="round"/>
<path d="M29.3367 85.6703C18.7921 95.7251 14.3159 110.345 8.47232 123.697C5.13535 131.324 1.24549 138.709 -3.16379 145.769" fill="#FCF9EB"/>
<path d="M29.3367 85.6703C18.7921 95.7251 14.3159 110.345 8.47232 123.697C5.13535 131.324 1.24549 138.709 -3.16379 145.769" stroke="#EFEAD9" stroke-width="5" stroke-miterlimit="10" stroke-linecap="round" stroke-linejoin="round"/>
<path d="M70.2121 90.5943C74.295 91.7147 76.0149 96.9737 74.7487 101.013C73.4826 105.051 70.146 108.046 66.8429 110.695C56.5546 118.953 45.2676 125.878 33.8731 132.535C16.1393 142.893 -2.38146 153.034 -15.4609 168.866" fill="#FCF9EB"/>
<path d="M70.2121 90.5943C74.295 91.7147 76.0149 96.9737 74.7487 101.013C73.4826 105.051 70.146 108.046 66.8429 110.695C56.5546 118.953 45.2676 125.878 33.8731 132.535C16.1393 142.893 -2.38146 153.034 -15.4609 168.866" stroke="#EFEAD9" stroke-width="5" stroke-miterlimit="10" stroke-linecap="round" stroke-linejoin="round"/>
<path d="M79.3677 101.988C76.1571 110.557 71.3483 118.533 65.2596 125.363C49.9855 142.519 27.8382 151.598 6.50805 160.12C0.691387 162.448 -5.17085 164.78 -11.3161 166.003" fill="#FCF9EB"/>
<path d="M79.3677 101.988C76.1571 110.557 71.3483 118.533 65.2596 125.363C49.9855 142.519 27.8382 151.598 6.50804 160.12C0.691388 162.448 -5.17085 164.78 -11.3161 166.003" stroke="#EFEAD9" stroke-width="5" stroke-miterlimit="10" stroke-linecap="round" stroke-linejoin="round"/>
<path d="M81.6609 110.655C78.6708 120.437 71.0017 128.064 62.8676 134.263C43.3229 149.155 19.9948 158.077 -2.97419 166.804" fill="#FCF9EB"/>
<path d="M81.6609 110.655C78.6708 120.437 71.0017 128.064 62.8676 134.263C43.3229 149.155 19.9948 158.077 -2.97419 166.804" stroke="#EFEAD9" stroke-width="5" stroke-miterlimit="10" stroke-linecap="round" stroke-linejoin="round"/>
</g>
</g>
<defs>
<clipPath id="clip0">
<rect x="-115" width="289" height="289" fill="white"/>
</clipPath>
<clipPath id="clip1">
<rect x="66.1934" y="288.989" width="212.234" height="212.234" transform="rotate(-170.29 66.1934 288.989)" fill="white"/>
</clipPath>
</defs>
</svg>
