<svg width="165" height="181" viewBox="0 0 165 181" fill="none" xmlns="http://www.w3.org/2000/svg">
<g clip-path="url(#clip0)">
<path d="M77.3806 86.1468C78.0426 72.0173 80.7075 57.9811 85.2825 44.591C88.7381 48.7665 91.0815 53.8515 92.0166 59.1863C96.6176 51.8318 101.221 44.4732 105.822 37.1187C107.783 33.9803 110.376 30.4774 114.072 30.456C116.1 39.542 106.884 47.3715 105.778 56.6121C114.46 48.3505 124.234 39.5934 136.206 39.0022C136.422 49.4421 119.737 54.1764 120.091 64.6153C128.897 60.0503 138.292 56.6241 147.971 54.4553C146.694 65.2827 128.958 67.264 126.781 77.9459C133.137 76.4079 139.527 75.0114 145.947 73.7717C146.723 77.3916 143.493 80.5082 140.588 82.8063C132.953 88.8346 125.318 94.8629 117.683 100.891C112.78 104.762 107.39 108.817 101.146 108.939C97.8305 109.005 92.9941 109.13 93.0139 112.446" fill="#FBF8E9"/>
<path d="M77.3806 86.1468C78.0426 72.0173 80.7075 57.9811 85.2825 44.591C88.7381 48.7665 91.0815 53.8515 92.0166 59.1863C96.6176 51.8318 101.221 44.4732 105.822 37.1187C107.783 33.9803 110.376 30.4774 114.072 30.456C116.1 39.542 106.884 47.3715 105.778 56.6121C114.46 48.3505 124.234 39.5934 136.206 39.0022C136.422 49.4421 119.737 54.1764 120.091 64.6153C128.897 60.0503 138.292 56.6241 147.971 54.4553C146.694 65.2827 128.958 67.264 126.781 77.9459C133.137 76.4079 139.527 75.0114 145.947 73.7717C146.723 77.3916 143.493 80.5082 140.588 82.8063C132.953 88.8346 125.318 94.8629 117.683 100.891C112.78 104.762 107.39 108.817 101.146 108.939C97.8305 109.005 92.9941 109.13 93.0139 112.446" stroke="#141414" stroke-width="3" stroke-miterlimit="10" stroke-linecap="round" stroke-linejoin="round"/>
<path d="M5.46569 126.318C29.2661 118.177 51.8465 106.856 71.1659 90.8748C72.5049 89.7652 73.9379 88.5869 75.6644 88.3718C78.9143 87.9722 81.4379 91.0158 83.2734 93.7281C85.925 97.6389 88.5725 101.547 91.2216 105.462C92.222 106.941 93.2632 108.532 93.3171 110.314C93.3831 112.507 91.9558 114.443 90.534 116.117C84.2325 123.542 76.7016 129.812 69.2141 136.041C61.9879 142.05 54.7059 148.094 47.2987 153.986" stroke="#141414" stroke-width="3" stroke-miterlimit="10" stroke-linecap="round" stroke-linejoin="round"/>
</g>
<defs>
<clipPath id="clip0">
<rect x="78.4438" width="100.644" height="149.532" transform="rotate(31.6099 78.4438 0)" fill="white"/>
</clipPath>
</defs>
</svg>
