<svg width="17" height="17" viewBox="0 0 17 17" fill="none" xmlns="http://www.w3.org/2000/svg">
<path d="M1.67142e-05 11.7599V15.9999C1.67142e-05 16.2652 0.105374 16.5195 0.29291 16.707C0.480446 16.8946 0.7348 16.9999 1.00002 16.9999H5.24002C5.37162 17.0007 5.50209 16.9755 5.62392 16.9257C5.74576 16.8759 5.85658 16.8026 5.95002 16.7099L12.87 9.77994L15.71 6.99994C15.8037 6.90698 15.8781 6.79637 15.9289 6.67452C15.9797 6.55266 16.0058 6.42195 16.0058 6.28994C16.0058 6.15793 15.9797 6.02722 15.9289 5.90536C15.8781 5.7835 15.8037 5.6729 15.71 5.57994L11.47 1.28994C11.3771 1.19621 11.2665 1.12182 11.1446 1.07105C11.0227 1.02028 10.892 0.994141 10.76 0.994141C10.628 0.994141 10.4973 1.02028 10.3754 1.07105C10.2536 1.12182 10.143 1.19621 10.05 1.28994L7.23002 4.11994L0.290017 11.0499C0.197335 11.1434 0.12401 11.2542 0.0742456 11.376C0.024481 11.4979 -0.000744179 11.6283 1.67142e-05 11.7599ZM10.76 3.40994L13.59 6.23994L12.17 7.65994L9.34002 4.82994L10.76 3.40994ZM2.00002 12.1699L7.93002 6.23994L10.76 9.06994L4.83002 14.9999H2.00002V12.1699Z" fill="white"/>
</svg>
