<svg width="174" height="289" viewBox="0 0 174 289" fill="none" xmlns="http://www.w3.org/2000/svg">
<g clip-path="url(#clip0)">
<path d="M146.71 221.926L131.659 208.504C109.859 190.408 107.92 186.274 84.6018 169.002C83.2468 167.999 81.5144 167.415 79.8335 167.535C78.1868 167.656 76.7375 168.633 75.391 169.577C70.9743 172.664 66.5661 175.743 62.1494 178.83C61.3775 179.371 60.5028 179.937 59.568 179.799C58.8733 179.696 58.2987 179.216 57.767 178.753C31.1637 155.555 5.86392 130.864 -17.9778 104.835C-18.9212 103.797 -19.6245 101.953 -19.1785 100.924L-28.5437 107.777C-22.1802 111.739 -16.8629 117.133 -11.6057 122.476C7.86217 142.27 27.3301 162.072 46.7894 181.866C49.2851 184.405 51.9866 187.595 51.2233 191.069C50.8031 192.981 49.3966 194.508 48.0501 195.931C45.0828 199.044 42.124 202.166 39.1566 205.279C38.076 206.411 36.9697 207.612 36.5495 209.113C35.8806 211.531 37.1756 214.01 38.462 216.162C50.8117 236.677 67.4152 254.241 83.8814 271.625C84.7991 272.594 85.751 273.58 86.9774 274.086C89.3016 275.038 91.9344 274.034 94.2071 272.962C113.306 263.966 129.61 250.09 145.664 236.385C147.277 235.013 148.932 233.572 149.832 231.651C151.436 228.246 149.978 223.744 146.71 221.926ZM93.684 258.254C93.3581 258.186 93.0751 257.997 92.8006 257.817C77.6808 247.697 63.9332 231.943 51.3177 218.83C49.9969 217.449 48.6162 215.922 48.3846 214.027C48.1531 212.132 52.0638 209.482 53.9334 209.859L70.9314 224.121C79.2674 232.929 90.8024 241.333 97.6633 251.333C98.2294 252.157 98.7868 253.074 98.7525 254.078C98.7182 255.073 94.6617 258.46 93.684 258.254ZM113.383 246.865C112.543 246.694 111.814 246.179 111.119 245.682C94.9361 234.018 79.722 220.965 65.7171 206.703C64.5421 205.511 63.3072 204.121 63.3243 202.441C63.3586 199.756 65.3226 198.701 67.8611 197.921C67.8611 197.921 70.1081 197.055 72.5952 199.499C86.4972 213.152 96.4026 222.612 111.78 234.524C114.061 236.291 116.582 238.126 117.44 240.905C118.289 243.675 116.196 247.44 113.383 246.865ZM124.198 231.634C109.224 220.871 95.0304 209.018 81.7717 196.197C80.3823 194.859 78.9844 192.544 80.4166 191.249L85.1678 187.844C85.9654 187.295 87.4148 187.252 88.0837 187.398C88.7527 187.544 89.2758 188.041 89.7561 188.521C98.7096 197.381 107.672 206.231 116.625 215.09C120.039 218.461 123.452 221.84 126.617 225.45C126.951 225.828 127.285 226.231 127.414 226.72C127.92 228.701 124.901 229.713 124.198 231.634Z" fill="#FCF9EB" stroke="#EFEAD9" stroke-width="5" stroke-miterlimit="10" stroke-linecap="round" stroke-linejoin="round"/>
<g clip-path="url(#clip1)">
<path d="M-18.7874 169.786C-18.7874 169.786 20.1992 162.074 41.3689 160.949C62.5387 159.823 88.3497 134.86 82.6668 115.831C76.9839 96.8013 85.2274 94.2567 77.3348 90.3439C69.4422 86.4311 59.0494 77.4133 39.7652 80.4393C20.481 83.4653 8.54584 100.228 6.33525 104.297C4.12465 108.366 -4.87785 130.544 -6.1826 133.688C-7.48735 136.832 -20.6321 159.617 -24.2495 160.743L-18.7874 169.786Z" fill="#FCF9EB" stroke="#EFEAD9" stroke-width="5" stroke-miterlimit="10" stroke-linecap="round" stroke-linejoin="round"/>
<path d="M71.8968 90.1226C52.5186 97.6563 34.8486 109.546 20.5691 124.662C7.12592 138.885 -3.54899 156.087 -19.6707 167.181" fill="#FCF9EB"/>
<path d="M71.8968 90.1226C52.5186 97.6563 34.8486 109.546 20.5691 124.662C7.12592 138.885 -3.549 156.087 -19.6707 167.181" stroke="#EFEAD9" stroke-width="5" stroke-miterlimit="10" stroke-linecap="round" stroke-linejoin="round"/>
<path d="M71.0491 88.8399C62.9307 87.815 54.7335 89.4538 46.7103 91.0841C43.791 91.6772 40.8301 92.2887 38.1829 93.644C34.5987 95.4716 31.8189 98.5358 29.2274 101.619C11.7373 122.428 -1.02395 147.043 -19.8322 166.667" fill="#FCF9EB"/>
<path d="M71.0491 88.8399C62.9307 87.815 54.7335 89.4538 46.7103 91.0841C43.791 91.6772 40.8301 92.2887 38.1829 93.644C34.5987 95.4716 31.8189 98.5358 29.2274 101.619C11.7373 122.428 -1.02395 147.043 -19.8322 166.667" stroke="#EFEAD9" stroke-width="5" stroke-miterlimit="10" stroke-linecap="round" stroke-linejoin="round"/>
<path d="M29.3366 85.6707C18.7919 95.7255 14.3158 110.346 8.4722 123.697C5.13523 131.324 1.24537 138.709 -3.16391 145.769" fill="#FCF9EB"/>
<path d="M29.3366 85.6707C18.7919 95.7255 14.3158 110.346 8.4722 123.697C5.13523 131.324 1.24536 138.709 -3.16392 145.769" stroke="#EFEAD9" stroke-width="5" stroke-miterlimit="10" stroke-linecap="round" stroke-linejoin="round"/>
<path d="M70.2122 90.5946C74.2952 91.715 76.015 96.974 74.7489 101.013C73.4827 105.052 70.1461 108.046 66.843 110.695C56.5547 118.954 45.2677 125.878 33.8732 132.535C16.1394 142.894 -2.38134 153.034 -15.4608 168.866" fill="#FCF9EB"/>
<path d="M70.2122 90.5946C74.2952 91.715 76.015 96.974 74.7489 101.013C73.4827 105.052 70.1461 108.046 66.843 110.695C56.5547 118.954 45.2677 125.878 33.8732 132.535C16.1394 142.894 -2.38134 153.034 -15.4608 168.866" stroke="#EFEAD9" stroke-width="5" stroke-miterlimit="10" stroke-linecap="round" stroke-linejoin="round"/>
<path d="M79.3676 101.988C76.157 110.557 71.3482 118.533 65.2594 125.363C49.9854 142.519 27.838 151.598 6.50792 160.12C0.691265 162.448 -5.17097 164.78 -11.3163 166.003" fill="#FCF9EB"/>
<path d="M79.3676 101.988C76.157 110.557 71.3482 118.533 65.2595 125.363C49.9854 142.519 27.838 151.598 6.50792 160.12C0.691265 162.448 -5.17098 164.78 -11.3163 166.003" stroke="#EFEAD9" stroke-width="5" stroke-miterlimit="10" stroke-linecap="round" stroke-linejoin="round"/>
<path d="M81.6608 110.655C78.6707 120.437 71.0015 128.064 62.8675 134.263C43.3228 149.155 19.9947 158.077 -2.97431 166.804" fill="#FCF9EB"/>
<path d="M81.6608 110.655C78.6707 120.437 71.0015 128.064 62.8675 134.263C43.3228 149.155 19.9947 158.077 -2.97431 166.804" stroke="#EFEAD9" stroke-width="5" stroke-miterlimit="10" stroke-linecap="round" stroke-linejoin="round"/>
</g>
</g>
<defs>
<clipPath id="clip0">
<rect width="289" height="289" fill="white" transform="translate(-115)"/>
</clipPath>
<clipPath id="clip1">
<rect width="212.234" height="212.234" fill="white" transform="translate(66.1934 288.989) rotate(-170.29)"/>
</clipPath>
</defs>
</svg>
