<?xml version="1.0" encoding="utf-8"?>
<!-- Generator: Adobe Illustrator 24.1.0, SVG Export Plug-In . SVG Version: 6.00 Build 0)  -->
<svg version="1.1" id="Calque_1" xmlns="http://www.w3.org/2000/svg" xmlns:xlink="http://www.w3.org/1999/xlink" x="0px" y="0px"
	 viewBox="0 0 595.28 841.89" style="enable-background:new 0 0 595.28 841.89;" xml:space="preserve">
<style type="text/css">
	.st0{fill:none;stroke:#040606;stroke-width:6;stroke-linecap:round;stroke-linejoin:round;}
	.st1{fill:none;stroke:#040606;stroke-width:8;stroke-linecap:round;stroke-linejoin:round;}
</style>
<path class="st0" d="M496.69,328.06c-12.09-6.91-22.45-16.82-29.9-28.59c-1.13-1.79-2.32-3.72-4.26-4.56
	c-2.11-0.92-4.54-0.29-6.75,0.35c-16.66,4.82-33.52,9.73-48.46,18.56c-24.82,14.67-42.4,39.06-56.09,64.44l-19.54,33.88"/>
<path class="st0" d="M312.11,554.88c-7.55,9.01-6.48,8.46-12.07,18.8c-7.51,13.91-12.94,29.86-25.5,39.45
	c-6.06-25.15-7.24-45.63-1.89-70.93"/>
<path class="st0" d="M497.03,334.28c3.54,11.05,1.87,23.34-2.91,33.92s-12.44,19.62-20.9,27.57c-13.8,12.98-29.79,23.34-44.72,35.01
	l-32.45,28.91"/>
<path class="st1" d="M495.48,331.74c5.95-0.16,20.43-6.38,25.66-9.23c7.58-4.12,16.03-6.63,24.63-7.3c0.82-0.06,1.75-0.18,2.2-0.86
	c0.29-0.44,0.28-1,0.27-1.53c-0.06-2.13-0.11-4.25-0.17-6.38c-0.02-0.61-0.09-1.33-0.61-1.65c-0.45-0.28-1.03-0.12-1.54,0.04
	c-17.48,5.63-34.4,12.98-50.44,21.91"/>
<path class="st1" d="M495.12,322.5c21.49-22.52,42.76-45.24,63.83-68.15c-1.24-1.93-2.48-3.87-3.72-5.8
	c-18.42,24.39-37.82,48.04-58.14,70.87"/>
<path class="st1" d="M491.78,317.33c20.26-30.62,42.69-59.81,67.06-87.27c-2.51-0.89-4.89-2.15-7.04-3.72
	c-10.35,7.22-17.87,17.72-25.18,28c-14.15,19.9-28.3,39.79-42.45,59.69"/>
<path class="st1" d="M477.39,308.28c19.2-22.44,36.03-46.9,50.14-72.84c4.42-8.14,8.68-16.55,15.18-23.15
	c-2.65-1.48-5.29-2.97-7.94-4.45c-20.35,30.59-40.71,61.19-61.06,91.78"/>
<path class="st1" d="M475.61,296.55c10.52-23.58,21.04-47.17,31.56-70.75c-3,0.42-6.12,0.01-8.91-1.17
	c-11.19,24.17-21.13,48.91-29.78,74.1"/>
<path class="st1" d="M464.29,292.06c3.35-18.22,7.9-36.22,13.61-53.85c-1.91-0.07-3.82-0.14-5.72-0.21
	c-0.57-0.02-1.19-0.02-1.63,0.35c-0.36,0.31-0.49,0.79-0.6,1.25c-4.52,18.38-8.11,37-10.73,55.75"/>
<path class="st0" d="M481.88,358.69c-10.27-0.17-20.36-5.12-26.78-13.14"/>
<path class="st0" d="M477.68,348.37c-6.32,0.31-12.73-2.07-17.31-6.44"/>
<path class="st0" d="M425.99,345.58c-5.4-3.44-10.8-6.88-16.2-10.32c1,5.92,4.27,11.42,8.99,15.12"/>
<path class="st0" d="M451.54,387.02c-4.5-3.07-9.01-6.15-13.51-9.22"/>
<path class="st0" d="M392.15,385.01c-4.95-3.39-8.99-8.11-11.57-13.53"/>
<path class="st0" d="M432.45,414.17c-5.22-2.68-10.44-5.36-15.65-8.04"/>
<path class="st0" d="M360.83,412.17c-7.78-3.29-10.9-5.35-14.96-12.75"/>
<path class="st0" d="M399.08,441.44c-4.29-1.25-8.34-3.34-11.85-6.12"/>
<path class="st0" d="M31.05,298.49c54.56,45.48,115,83.34,181.88,106.51c4.65,1.61,9.59,3.33,12.64,7.19
	c5.73,7.25,2.09,17.8-1.76,26.21c-5.55,12.13-11.1,24.25-16.64,36.38c-2.1,4.59-4.4,9.42-8.63,12.17c-5.2,3.38-11.95,2.77-18.08,1.8
	c-27.16-4.31-53.33-13.28-79.33-22.21c-25.1-8.62-50.36-17.33-75.43-26.55"/>
<path class="st0" d="M230.99,416.19c35.06-19.14,72.83-33.28,111.84-41.89c-5,14.46-13.83,27.58-25.34,37.65
	c24.5,0.31,48.99,0.62,73.49,0.93c10.44,0.13,22.7,1.24,28.17,10.13c-18.94,18.22-51.36,7.47-75.27,18.36
	c32.68,8.81,68.15,19.55,87.13,47.57c-24.87,15.83-60.77-17.47-85.43-1.31c23.93,14.54,45.98,32.19,65.41,52.36
	c-27.99,12.8-58.79-27.07-87.75-16.66c13.04,13.07,25.77,26.45,38.18,40.12c-7.59,7.18-19.86,3.97-29.65,0.33
	c-25.74-9.57-51.49-19.15-77.23-28.72c-16.53-6.15-34.22-13.2-43.68-28.09c-5.02-7.9-13.91-21.98-21.89-17.08"/>
<path class="st0" d="M277.55,550.51c0,0,12.51,6.55,20.09,8.51"/>
</svg>
