<?xml version="1.0" encoding="utf-8"?>
<!-- Generator: Adobe Illustrator 24.1.0, SVG Export Plug-In . SVG Version: 6.00 Build 0)  -->
<svg version="1.1" id="Calque_1" xmlns="http://www.w3.org/2000/svg" xmlns:xlink="http://www.w3.org/1999/xlink" x="0px" y="0px"
	 viewBox="0 0 1307.13 995.58" style="enable-background:new 0 0 1307.13 995.58;" xml:space="preserve">
<style type="text/css">
	.st0{fill:none;stroke:#010202;stroke-width:8;stroke-linecap:round;stroke-linejoin:round;stroke-miterlimit:10;}
</style>
<path class="st0" d="M656.77,574.06c-20.35-36.19-40.1-72.71-61.05-112.93l-15.4-28.48c-6.9,4.67-21.89,8.54-28.79,13.21
	c2.62,14.78,8.62,28.72,14.91,42.35c18.98,41.16,40.94,80.86,63.37,120.27 M656.77,574.06 M706.21,746.29
	c10,14.3,20.06,20.2,29.59,26.19c2.91,1.83,6.63,3.51,9.62,1.81c1.54-0.88,2.51-2.5,3.25-4.12c4.59-10.06,2.68-13.87-0.71-24.39
	 M629.81,608.47"/>
<path class="st0" d="M579.28,433.37c0,0-7.12-109.74-2.57-168.23S522.06,126.85,467.8,135.6s-58.26-14.8-71.85,5.44
	s-42.06,45.52-40.71,99.51c1.35,53.99,43.05,92.78,53.41,100.31c10.36,7.53,67.97,40.21,76.13,44.92
	c8.16,4.71,65.93,48.98,67.72,59.32L579.28,433.37z"/>
<path class="st0" d="M393.39,155.9c13.69,55.88,39.95,108.64,76.27,153.25c34.18,42,77.52,77.48,102.15,125.71"/>
<path class="st0" d="M389.56,157.75c-5.74,21.91-4.19,44.98-2.6,67.58c0.58,8.22,1.18,16.56,3.94,24.32
	c3.73,10.5,11.14,19.23,18.66,27.44c50.78,55.48,113.72,99.35,160.78,158.02"/>
<path class="st0" d="M360.84,271.06c23.79,32.55,67.29,50.1,101.81,70.93c19.73,11.9,38.58,25.24,56.37,39.88"/>
<path class="st0" d="M394.08,160.68c4.54-10.79,19.6-13.63,30.21-8.7s17.64,15.17,23.72,25.18c18.96,31.2,33.89,64.66,48.05,98.32
	c22.04,52.39,43.18,106.85,81.91,148.44"/>
<path class="st0" d="M428.64,139.66c22.36,11.9,42.49,27.96,59.06,47.12c41.57,48.09,58.5,112.11,74.19,173.71
	c4.28,16.8,8.58,33.71,9.71,51.01"/>
<path class="st0" d="M453.23,136.5c25.75,11.73,43.92,35.52,58,60.06c33.83,58.98,49.89,126.2,65.56,192.36"/>
<g>
	<path class="st0" d="M1015.84,658.11c-70.21,10.73-141.52,11.9-210.75-2.83c-4.81-1.02-9.93-2.1-14.53-0.38
		c-8.65,3.24-10.99,14.16-12.04,23.34c-1.52,13.25-3.04,26.5-4.56,39.75c-0.57,5.01-1.1,10.34,1.1,14.88
		c2.7,5.58,8.8,8.55,14.55,10.88c25.48,10.34,52.52,16.19,79.4,21.99c25.94,5.6,52.07,11.2,78.3,16.26"/>
	<path class="st0" d="M783.84,655.53c-20.12-34.5-45.15-66.14-74.09-93.67c-3.19,14.96-2.42,30.75,2.23,45.33
		c-21.13-12.4-42.26-24.79-63.39-37.19c-9.01-5.28-20.07-10.67-29.35-5.89c6.79,25.39,40.1,32.94,54.95,54.63
		c-32.53-9.35-68.45-18.49-99.18-4.31c13.11,26.41,61.05,16.46,73.81,43.04c-28.01,0.08-56,3.79-83.06,11.01
		c17.35,25.42,64.32,7.21,83.73,31.1c-17.92,4.45-35.73,9.32-53.42,14.61c2.79,10.07,14.95,13.66,25.21,15.6
		c26.99,5.11,53.97,10.22,80.96,15.33c17.33,3.28,36.12,6.38,51.91-1.47c8.38-4.17,23.27-11.63,27.56-3.31"/>
</g>
</svg>
