<svg width="127" height="157" viewBox="0 0 127 157" fill="none" xmlns="http://www.w3.org/2000/svg">
<g clip-path="url(#clip0)">
<path d="M56.8068 78.4469C43.1572 63.0372 20.7206 58.4283 5.7023 44.3538C7.94452 42.7028 11.083 43.581 13.705 44.5214C19.522 46.6118 25.3442 48.7068 31.1611 50.7972C24.3001 42.8291 16.3075 35.8323 7.50535 30.0861C6.52228 29.4453 5.40855 28.6013 5.45223 27.4285C5.53545 25.2502 8.82859 25.3911 10.8225 26.2581C21.0453 30.7149 31.273 35.1714 41.5007 39.6279C35.5866 30.3316 28.6721 21.6737 20.9169 13.8507C22.8202 11.3412 26.7826 13.0621 29.2936 14.9632C35.8115 19.9098 42.1392 25.1094 48.2604 30.5383C47.413 22.8783 45.5274 15.3381 42.6693 8.17895C43.7619 6.97916 45.6989 8.189 46.7815 9.39386C51.9253 15.1254 56.349 21.5023 59.918 28.3363C60.555 29.5595 61.2106 30.8454 62.3451 31.6291C63.4796 32.4128 65.2543 32.453 66.0621 31.3303C66.6259 30.5424 66.5493 29.4854 66.5666 28.5158C66.6175 25.671 67.775 22.8596 69.741 20.7983C78.428 29.3834 73.5596 47.8909 79.7577 58.4179" fill="#FBF8E9"/>
<path d="M56.8068 78.4469C43.1572 63.0372 20.7206 58.4283 5.7023 44.3538C7.94452 42.7028 11.083 43.581 13.705 44.5214C19.522 46.6118 25.3442 48.7068 31.1611 50.7972C24.3001 42.8291 16.3075 35.8323 7.50535 30.0861C6.52228 29.4453 5.40855 28.6013 5.45223 27.4285C5.53545 25.2502 8.82859 25.3911 10.8225 26.2581C21.0453 30.7149 31.273 35.1714 41.5007 39.6279C35.5866 30.3316 28.6721 21.6737 20.9169 13.8507C22.8202 11.3412 26.7826 13.0621 29.2936 14.9632C35.8115 19.9098 42.1392 25.1094 48.2604 30.5383C47.413 22.8783 45.5274 15.3381 42.6693 8.17895C43.7619 6.97916 45.6989 8.189 46.7815 9.39386C51.9253 15.1254 56.349 21.5023 59.918 28.3363C60.555 29.5595 61.2106 30.8454 62.3451 31.6291C63.4796 32.4128 65.2543 32.453 66.0621 31.3303C66.6259 30.5424 66.5493 29.4854 66.5666 28.5158C66.6175 25.671 67.775 22.8596 69.741 20.7983C78.428 29.3834 73.5596 47.8909 79.7577 58.4179" stroke="#181818" stroke-width="3" stroke-miterlimit="10" stroke-linecap="round" stroke-linejoin="round"/>
<path d="M88.5862 148.765C77.382 126.996 66.1728 105.228 54.9689 83.4646C64.1095 74.9176 73.2499 66.3658 82.3954 57.8186C95.1981 75.209 107.996 92.5996 120.799 109.99" stroke="#181818" stroke-width="3" stroke-miterlimit="10" stroke-linecap="round" stroke-linejoin="round"/>
</g>
<defs>
<clipPath id="clip0">
<rect x="0.425781" y="7.47681" width="116.601" height="149.512" transform="rotate(-3.61703 0.425781 7.47681)" fill="white"/>
</clipPath>
</defs>
</svg>
