<svg width="119" height="161" viewBox="0 0 119 161" fill="none" xmlns="http://www.w3.org/2000/svg">
<g clip-path="url(#clip0)">
<path d="M53.265 78.8886C48.0081 65.7569 44.6123 51.8794 43.2226 37.7976C48.0986 40.1641 52.3397 43.8196 55.4028 48.2862C56.5398 39.6859 57.6773 31.0808 58.8143 22.4804C59.2966 18.8116 60.2037 14.5488 63.5583 12.9965C69.1712 20.4236 64.0324 31.3697 66.8579 40.237C71.3315 29.1191 76.5946 17.097 87.2431 11.5945C91.7689 21.0049 78.5494 32.2321 83.2011 41.5841C89.3212 33.7782 96.4489 26.7647 104.357 20.7772C107.685 31.1594 92.368 40.3172 94.8164 50.9403C99.9624 46.9049 105.198 42.9843 110.526 39.1939C112.733 42.1659 111.086 46.3415 109.396 49.6373C104.948 58.289 100.501 66.9406 96.0533 75.5923C93.197 81.148 89.9736 87.0729 84.3421 89.7735C81.3528 91.2083 77.0038 93.328 78.3967 96.3367" fill="#FBF8E9"/>
<path d="M53.265 78.8886C48.0081 65.7569 44.6123 51.8794 43.2226 37.7976C48.0986 40.1641 52.3397 43.8196 55.4028 48.2862C56.5398 39.6859 57.6773 31.0808 58.8143 22.4804C59.2966 18.8116 60.2037 14.5488 63.5583 12.9965C69.1712 20.4236 64.0324 31.3697 66.8579 40.237C71.3315 29.1191 76.5946 17.097 87.2431 11.5945C91.7689 21.0049 78.5494 32.2321 83.2011 41.5841C89.3212 33.7782 96.4489 26.7647 104.357 20.7772C107.685 31.1594 92.368 40.3172 94.8164 50.9403C99.9624 46.9049 105.198 42.9843 110.526 39.1939C112.733 42.1659 111.086 46.3415 109.396 49.6373C104.948 58.289 100.501 66.9406 96.0533 75.5923C93.197 81.148 89.9736 87.0729 84.3421 89.7735C81.3528 91.2083 77.0038 93.328 78.3967 96.3367" stroke="#141414" stroke-width="3" stroke-miterlimit="10" stroke-linecap="round" stroke-linejoin="round"/>
<path d="M4.48375 145.266C22.7649 127.988 38.6175 108.322 49.5702 85.7683C50.3285 84.2033 51.1439 82.5369 52.6257 81.6252C55.4173 79.9139 58.9758 81.6369 61.7708 83.3438C65.8055 85.8029 69.8354 88.2614 73.8694 90.7254C75.3931 91.6563 77 92.6717 77.7883 94.2715C78.7578 96.2396 78.2618 98.593 77.6624 100.706C75.0071 110.075 70.7547 118.904 66.5242 127.677C62.4407 136.142 58.3207 144.661 54.0239 153.095" stroke="#141414" stroke-width="3" stroke-miterlimit="10" stroke-linecap="round" stroke-linejoin="round"/>
</g>
<defs>
<clipPath id="clip0">
<rect x="18.5078" y="0.0576172" width="100.644" height="149.532" transform="rotate(7.1099 18.5078 0.0576172)" fill="white"/>
</clipPath>
</defs>
</svg>
