<svg width="247" height="326" viewBox="0 0 247 326" fill="none" xmlns="http://www.w3.org/2000/svg">
<path d="M200.341 112.788C207.668 121.152 214.639 129.829 221.23 138.786C221.541 139.208 221.92 139.671 222.444 139.706C222.918 139.736 223.328 139.403 223.685 139.089C224.962 137.963 226.337 136.636 226.387 134.937C226.419 133.885 225.923 132.898 225.428 131.97C220.143 122.063 213.362 112.955 205.386 105.052" fill="#C75641"/>
<path d="M200.341 112.788C207.668 121.152 214.639 129.829 221.23 138.786C221.541 139.208 221.92 139.671 222.444 139.706C222.918 139.736 223.328 139.403 223.685 139.089C224.962 137.963 226.337 136.636 226.387 134.937C226.419 133.885 225.923 132.898 225.428 131.97C220.143 122.063 213.362 112.955 205.386 105.052" stroke="black" stroke-width="2" stroke-miterlimit="10" stroke-linecap="round" stroke-linejoin="round"/>
<path d="M200.324 111.273C202.688 109.585 204.33 106.918 204.769 104.046" stroke="black" stroke-width="2" stroke-miterlimit="10" stroke-linecap="round" stroke-linejoin="round"/>
<path d="M198.709 112.552C190.542 99.9178 181.358 87.9394 171.273 76.7749C185.483 80.7208 197.927 90.6494 204.929 103.626" fill="#FBF8E9"/>
<path d="M198.709 112.552C190.542 99.9178 181.358 87.9394 171.273 76.7749C185.483 80.7208 197.927 90.6494 204.929 103.626" stroke="black" stroke-width="2" stroke-miterlimit="10" stroke-linecap="round" stroke-linejoin="round"/>
<path d="M208.023 135.288C206.806 130.448 206.081 125.439 205.867 120.381C206.995 120.275 207.612 121.729 207.807 122.95C208.001 124.169 208.253 125.649 209.313 126.024C210.242 126.353 211.277 125.535 211.697 124.532C212.117 123.528 212.093 122.396 212.126 121.307C212.199 118.764 212.619 116.219 213.366 113.781C214.934 115.052 214.479 117.727 214.237 119.907C213.973 122.268 214.152 124.669 214.759 126.916C215.642 123.615 216.527 120.316 217.411 117.015C217.512 116.636 217.66 116.203 218 116.08C218.692 115.827 218.944 117.017 218.814 117.807C218.292 120.987 217.77 124.167 217.248 127.346C218.348 124.623 219.849 122.082 221.669 119.861C221.046 123.203 220.217 126.506 219.19 129.74C220.279 127.838 221.721 126.175 223.397 124.892C223.895 125.262 223.841 126.089 223.715 126.755C222.579 132.81 220.041 138.595 216.413 143.403" fill="#FBF8E9"/>
<path d="M208.023 135.288C206.806 130.448 206.081 125.439 205.867 120.381C206.995 120.275 207.612 121.729 207.807 122.95C208.001 124.169 208.253 125.649 209.313 126.024C210.242 126.353 211.277 125.535 211.697 124.532C212.117 123.528 212.093 122.396 212.126 121.307C212.199 118.764 212.619 116.219 213.366 113.781C214.934 115.052 214.479 117.727 214.237 119.907C213.973 122.268 214.152 124.669 214.759 126.916C215.642 123.615 216.527 120.316 217.411 117.015C217.512 116.636 217.66 116.203 218 116.08C218.692 115.827 218.944 117.017 218.814 117.807C218.292 120.987 217.77 124.167 217.248 127.346C218.348 124.623 219.849 122.082 221.669 119.861C221.046 123.203 220.217 126.506 219.19 129.74C220.279 127.838 221.721 126.175 223.397 124.892C223.895 125.262 223.841 126.089 223.715 126.755C222.579 132.81 220.041 138.595 216.413 143.403" stroke="black" stroke-width="2" stroke-miterlimit="10" stroke-linecap="round" stroke-linejoin="round"/>
<path d="M32.1852 55.7814L17.9414 49.7857L26.5626 20.1796L48.49 11.6602L64.048 25.9264L32.1852 55.7814Z" fill="#FBF8E9" stroke="black" stroke-width="2" stroke-miterlimit="10"/>
<path d="M38.5699 71.2576C34.53 64.5498 29.7517 58.2187 24.3413 52.4027C33.8653 41.8356 43.6794 31.4979 53.7684 21.4027L60.1856 13.7382L66.8994 23.5347C73.3035 32.0628 78.0644 41.6516 80.879 51.6819" fill="#FBF8E9"/>
<path d="M38.5699 71.2576C34.53 64.5498 29.7517 58.2187 24.3413 52.4027C33.8653 41.8356 43.6794 31.4979 53.7684 21.4027L60.1856 13.7382L66.8994 23.5347C73.3035 32.0628 78.0644 41.6516 80.879 51.6819" stroke="black" stroke-width="2" stroke-miterlimit="10" stroke-linecap="round" stroke-linejoin="round"/>
<path d="M22.4471 51.2836C18.8012 52.7728 14.5382 50.7273 11.5656 48.3918C7.6599 45.3225 4.28462 41.052 5.11166 36.5801C5.549 34.2208 7.12514 32.1104 9.03037 30.3572C11.8319 27.7792 15.7073 25.7619 19.8252 25.9373C23.9431 26.1126 27.9831 29.1191 27.667 32.6212" fill="#FBF8E9"/>
<path d="M22.4471 51.2836C18.8012 52.7728 14.5382 50.7273 11.5656 48.3918C7.6599 45.3225 4.28462 41.052 5.11166 36.5801C5.549 34.2208 7.12514 32.1104 9.03037 30.3572C11.8319 27.7792 15.7073 25.7619 19.8252 25.9373C23.9431 26.1126 27.9831 29.1191 27.667 32.6212" stroke="black" stroke-width="2" stroke-miterlimit="10" stroke-linecap="round" stroke-linejoin="round"/>
<path d="M16.6058 25.8074C14.3326 20.3009 17.7317 13.5476 23.9799 11.1559C30.2282 8.76409 38.4142 11.0823 41.7376 16.1862C42.6902 17.6494 43.2747 19.3701 42.8504 21.0022C42.426 22.6342 40.7871 24.1039 38.8234 24.158" fill="#FBF8E9"/>
<path d="M16.6058 25.8074C14.3326 20.3009 17.7317 13.5476 23.9799 11.1559C30.2282 8.76409 38.4142 11.0823 41.7376 16.1862C42.6902 17.6494 43.2747 19.3701 42.8504 21.0022C42.426 22.6342 40.7871 24.1039 38.8234 24.158" stroke="#000501" stroke-width="2" stroke-miterlimit="10" stroke-linecap="round" stroke-linejoin="round"/>
<path d="M36.7774 11.052C35.5303 6.75543 39.4339 1.91344 44.5866 1.36149C47.5657 1.04331 50.5535 1.97838 53.1407 3.27708C59.2461 6.33985 64.007 12.381 62.3226 18.2424C61.9827 19.4286 61.3483 20.6082 60.216 21.355C59.0815 22.1018 57.3647 22.2922 56.2237 21.5541" fill="#FBF8E9"/>
<path d="M36.7774 11.052C35.5303 6.75543 39.4339 1.91344 44.5866 1.36149C47.5657 1.04331 50.5535 1.97838 53.1407 3.27708C59.2461 6.33985 64.007 12.381 62.3226 18.2424C61.9827 19.4286 61.3483 20.6082 60.216 21.355C59.0815 22.1018 57.3647 22.2922 56.2237 21.5541" stroke="black" stroke-width="2" stroke-miterlimit="10" stroke-linecap="round" stroke-linejoin="round"/>
<path d="M176.117 166.013C189.529 159.428 202.753 147.561 206.568 134.428C211.532 136.338 208.612 137.556 213.576 139.465C214.537 139.835 215.535 140.229 216.187 140.952C217.105 141.97 217.148 143.411 217.107 144.742C216.466 166.318 211.578 188.45 191.672 201.374" fill="#FBF8E9"/>
<path d="M176.117 166.013C189.529 159.428 202.753 147.561 206.568 134.428C211.532 136.338 208.612 137.556 213.576 139.465C214.537 139.835 215.535 140.229 216.187 140.952C217.105 141.97 217.148 143.411 217.107 144.742C216.466 166.318 211.578 188.45 191.672 201.374" stroke="black" stroke-width="2" stroke-miterlimit="10" stroke-linecap="round" stroke-linejoin="round"/>
<path d="M200.172 150.312C206.009 155.362 207.637 157.894 215.631 159.576" stroke="black" stroke-width="2" stroke-miterlimit="10" stroke-linecap="round" stroke-linejoin="round"/>
<path d="M84.2134 134.574C96.0886 135.701 109.178 136.063 118.601 128.747C126.973 122.245 130.476 110.145 126.871 100.178C124.78 94.394 120.51 88.5433 122.47 82.7122C124.033 78.0628 128.962 75.5823 133.44 73.5801C116.457 59.3312 97.4959 47.4416 77.2723 38.3594C73.1068 49.3594 66.9711 59.6126 59.2441 68.4827C57.4904 70.4957 55.5159 73.0347 56.4057 75.5542C57.4471 78.5022 61.7425 79.2035 62.8683 82.1213C64.1154 85.3572 60.6383 88.6516 60.8678 92.1104C61.1515 96.3918 66.8476 98.9243 66.8152 103.212C66.7719 108.924 56.7088 112.104 58.9258 117.37C60.3807 120.829 66.2155 120.885 67.2287 124.498C67.5188 125.535 67.311 126.636 67.2893 127.714C67.1746 133.407 73.4207 137.121 78.9112 135.61C78.9091 135.61 80.5956 134.229 84.2134 134.574Z" fill="#FBF8E9" stroke="black" stroke-width="2" stroke-miterlimit="10" stroke-linecap="round" stroke-linejoin="round"/>
<path d="M85.5534 37.4913C90.6889 35.3289 95.9456 40.2835 94.8847 45.3419C93.8238 50.4004 88.3853 54.3419 83.0182 55.4935C85.0425 62.4697 88.303 68.9935 92.6396 74.7424C88.7901 75.3376 85.2828 78.7662 84.8216 82.3874C84.3605 86.0086 86.9975 89.3831 90.704 89.9134C84.9667 93.3701 76.5858 89.7445 72.0609 94.5887C68.9563 97.9134 70.4263 102.935 73.5505 105.485C76.6746 108.035 80.9744 109.052 84.5597 111.048C88.145 113.043 91.1825 116.781 89.8813 120.89C87.9761 126.905 79.0583 128.245 73.1608 126.435C67.2632 124.626 61.5237 121.121 55.0957 122.738C50.889 123.797 46.362 126.989 42.781 125.294C35.4783 121.84 46.7387 106.822 39.3776 103.463C37.2948 102.513 34.6058 103.199 32.2503 102.855C25.0927 101.812 24.3609 92.6515 26.2271 85.7034C28.6152 76.8225 32.8413 68.1666 38.5852 60.3939C40.2414 58.1536 42.151 55.8852 44.7425 54.7337C47.3341 53.5822 50.7397 54.0238 51.7118 56.2987C54.3336 42.6038 69.0862 30.5432 83.5897 30.238" fill="#000200"/>
<path d="M109.826 87.2576C110.235 88.5844 110.644 89.9113 111.053 91.2403C111.439 90.2706 111.822 89.303 112.207 88.3333C112.484 89.2273 112.761 90.1234 113.039 91.0173C113.244 89.9589 113.452 88.8983 113.658 87.8398C113.721 88.368 113.786 88.8961 113.848 89.4242C114.035 88.7879 114.221 88.1515 114.405 87.5152C114.691 88.1537 114.978 88.7922 115.264 89.4286C115.262 88.0714 115.463 86.7143 115.862 85.4177C116.059 86.4307 116.258 87.4437 116.455 88.4567C116.646 87.4351 116.838 86.4113 117.029 85.3896C117.594 85.9654 117.882 86.8009 117.795 87.6039C118.2 87.342 118.222 86.7662 118.191 86.2836C118.159 85.8009 118.155 85.2338 118.54 84.9416C118.925 84.6493 119.64 85.2035 119.285 85.5303C119.737 84.7771 119.91 83.8636 119.765 82.9978C120.107 83.355 120.452 83.7121 120.794 84.0693C120.937 83.6645 121.082 83.2597 121.225 82.855" stroke="black" stroke-width="2" stroke-miterlimit="10" stroke-linecap="round" stroke-linejoin="round"/>
<path d="M212.47 263.714C209.322 248.297 177.557 161.695 165.35 150.019C161.642 146.472 157.266 143.494 152.914 140.537C147.015 136.526 136.69 128.359 130.79 124.348C130.09 123.872 128.798 119.409 127.912 119.366C126.897 119.316 126.001 119.872 125.2 120.403L123.435 121.755C119.618 122.935 118.98 124.643 115.864 125.511C113.5 126.169 111.136 126.829 108.771 127.487C106.89 128.011 103.523 128.812 101.577 128.548L67.2569 130.009C61.2424 143.913 44.6908 147.351 35.8315 158.801C26.9397 170.292 23.9129 196.472 24.7313 210.654C25.396 222.188 29.1631 236.316 34.7663 248.807L34.461 250.978C33.0494 259.459 30.3799 287.039 28.9683 295.519C28.7042 297.102 30.7523 304.335 31.5707 305.74C32.1661 306.762 35.3248 305.593 36.6607 305.076C40.6855 303.517 46.7887 302.132 51.0257 301.229C87.3809 293.483 121.547 283.84 157.799 275.667L212.47 263.714Z" fill="#FBF8E9" stroke="black" stroke-width="2" stroke-miterlimit="10" stroke-linecap="round" stroke-linejoin="round"/>
<path d="M70.0952 236.454C71.4137 234.335 72.5915 232.128 73.6156 229.851" stroke="black" stroke-width="2" stroke-miterlimit="10" stroke-linecap="round" stroke-linejoin="round"/>
<path d="M74.2368 229.509C74.7564 234.139 75.2782 238.768 75.7978 243.398" stroke="black" stroke-width="2" stroke-miterlimit="10" stroke-linecap="round" stroke-linejoin="round"/>
<path d="M100.213 214.926C102.547 220.405 106.561 228.121 109.707 233.175" stroke="black" stroke-width="2" stroke-miterlimit="10" stroke-linecap="round" stroke-linejoin="round"/>
<path d="M111.785 163.933C124.191 177.182 134.317 193.777 141.154 211.677C141.496 212.574 141.838 213.528 141.734 214.511C141.589 215.885 140.623 216.946 139.721 217.877C136.674 221.019 132.725 224.396 128.954 222.822C127.293 222.13 126.044 220.571 124.862 219.067C113.807 204.998 102.415 190.234 98.0156 171.829C103.56 170.223 107.812 168.732 111.785 163.933Z" fill="#FAF28F" stroke="black" stroke-width="2" stroke-miterlimit="10" stroke-linecap="round" stroke-linejoin="round"/>
<path d="M108.141 169.474C106.377 164.502 103.107 159.18 99.4463 155.885C99.6 161.844 101.988 167.623 105.879 171.45" fill="#FAF28F"/>
<path d="M108.141 169.474C106.377 164.502 103.107 159.18 99.4463 155.885C99.6 161.844 101.988 167.623 105.879 171.45" stroke="black" stroke-width="2" stroke-miterlimit="10" stroke-linecap="round" stroke-linejoin="round"/>
<path d="M136.876 221.665C139.064 225.97 141.169 230.331 143.191 234.747C142.093 235.597 140.773 234.255 140.011 233.048C137.48 229.028 136.332 227.206 133.801 223.186" fill="#FAF28F"/>
<path d="M136.876 221.665C139.064 225.97 141.169 230.331 143.191 234.747C142.093 235.597 140.773 234.255 140.011 233.048C137.48 229.028 136.332 227.206 133.801 223.186" stroke="black" stroke-width="2" stroke-miterlimit="10" stroke-linecap="round" stroke-linejoin="round"/>
<path d="M114.742 169.143C111.545 173.671 105.868 178.134 100.908 179.052" stroke="black" stroke-width="2" stroke-miterlimit="10" stroke-linecap="round" stroke-linejoin="round"/>
<path d="M140.221 209.301C136.471 212.006 129.417 217.307 125.174 218.662" stroke="black" stroke-width="2" stroke-miterlimit="10" stroke-linecap="round" stroke-linejoin="round"/>
<path d="M1.40723 318.762C65.6481 295.409 132.717 280.95 199.538 266.561C214.799 263.275 230.089 259.983 245.593 258.147" stroke="black" stroke-width="2" stroke-miterlimit="10" stroke-linecap="round" stroke-linejoin="round"/>
<path d="M67.2588 130.011C77.2114 129.426 92.7932 129.807 102.746 129.223C103.417 129.184 104.155 129.164 104.684 129.58C105.108 129.913 105.298 130.457 105.469 130.97C106.236 133.275 107 135.58 107.767 137.885" stroke="black" stroke-width="2" stroke-miterlimit="10" stroke-linecap="round" stroke-linejoin="round"/>
<path d="M65.7002 135.948C76.9714 138.381 95.5344 141.262 106.377 137.335" stroke="black" stroke-width="2" stroke-miterlimit="10" stroke-linecap="round" stroke-linejoin="round"/>
<path d="M96.4955 219.351C91.0721 198.712 86.4931 174.701 84.9841 153.416C84.904 152.271 84.8455 151.046 85.4279 150.056C85.9951 149.095 87.0538 148.552 88.0563 148.058C95.2896 144.507 102.521 140.955 109.754 137.4L112.32 135.768C119.858 132.742 125.167 130.197 132.247 126.212" stroke="black" stroke-width="2" stroke-miterlimit="10" stroke-linecap="round" stroke-linejoin="round"/>
<path d="M128.794 147.234C128.824 148.779 128.856 150.325 128.887 151.87C130.16 152.431 131.712 151.106 131.621 149.719C131.53 148.331 130.173 147.253 128.783 147.151" fill="#11782E"/>
<path d="M128.794 147.234C128.824 148.779 128.856 150.325 128.887 151.87C130.16 152.431 131.712 151.106 131.621 149.719C131.53 148.331 130.173 147.253 128.783 147.151" stroke="black" stroke-width="2" stroke-miterlimit="10" stroke-linecap="round" stroke-linejoin="round"/>
<path d="M139.426 175.814C140.075 176.968 142.119 175.587 141.612 174.364C141.106 173.141 139.339 172.957 138.179 173.597" fill="#11782E"/>
<path d="M139.426 175.814C140.075 176.968 142.119 175.587 141.612 174.364C141.106 173.141 139.339 172.957 138.179 173.597" stroke="black" stroke-width="2" stroke-miterlimit="10" stroke-linecap="round" stroke-linejoin="round"/>
<path d="M152.583 212.411C153.769 212.076 154.856 210.881 154.497 209.701C154.137 208.522 151.899 208.597 151.975 209.827" fill="#11782E"/>
<path d="M152.583 212.411C153.769 212.076 154.856 210.881 154.497 209.701C154.137 208.522 151.899 208.597 151.975 209.827" stroke="black" stroke-width="2" stroke-miterlimit="10" stroke-linecap="round" stroke-linejoin="round"/>
<path d="M107.018 156.71C107.243 155.833 107.466 154.959 107.691 154.082C106.912 153.238 105.418 153.208 104.604 154.019C103.79 154.831 103.818 156.325 104.66 157.106" fill="#11782E"/>
<path d="M107.018 156.71C107.243 155.833 107.466 154.959 107.691 154.082C106.912 153.238 105.418 153.208 104.604 154.019C103.79 154.831 103.818 156.325 104.66 157.106" stroke="black" stroke-width="2" stroke-miterlimit="10" stroke-linecap="round" stroke-linejoin="round"/>
<path d="M110.967 204.091L119.787 219.351" stroke="black" stroke-width="2" stroke-miterlimit="10" stroke-linecap="round" stroke-linejoin="round"/>
<path d="M110.967 204.091C115.351 198.617 120.183 193.5 125.399 188.809C126.018 188.253 126.769 187.664 127.588 187.814C126.581 189.935 125.371 191.959 123.977 193.846C126.196 192.476 128.413 191.106 130.632 189.736C130.939 189.545 131.271 189.351 131.63 189.364C132.403 189.394 132.786 190.305 132.925 191.067C133.462 194.015 128.33 194.82 127.103 197.552C127.837 196.623 134.191 192.816 135.124 193.541C136.057 194.266 124.442 204.019 131.82 200.5C139.935 196.63 139.071 200.95 136.653 203.221C132.808 206.833 122.446 214.788 119.787 219.346" fill="#FBF8E9"/>
<path d="M110.967 204.091C115.351 198.617 120.183 193.5 125.399 188.809C126.018 188.253 126.769 187.664 127.588 187.814C126.581 189.935 125.371 191.959 123.977 193.846C126.196 192.476 128.413 191.106 130.632 189.736C130.939 189.545 131.271 189.351 131.63 189.364C132.403 189.394 132.786 190.305 132.925 191.067C133.462 194.015 128.33 194.82 127.103 197.552C127.837 196.623 134.191 192.816 135.124 193.541C136.057 194.266 124.442 204.019 131.82 200.5C139.935 196.63 139.071 200.95 136.653 203.221C132.808 206.833 122.446 214.788 119.787 219.346" stroke="black" stroke-width="2" stroke-miterlimit="10" stroke-linecap="round" stroke-linejoin="round"/>
<path d="M34.7681 248.807C36.7014 253.288 42.6358 261.58 44.8181 265.074C48.9447 271.671 52.805 273.517 59.9972 276.822C71.2056 281.972 83.0635 266.983 90.6281 258.364C99.3164 248.463 107.02 237.463 115.803 227.779C120.205 222.926 120.575 221.004 117.483 214.89C115.66 211.284 111.938 203.727 108.386 202.065C106.322 208.675 100.789 214.006 96.4932 219.351C92.6892 224.082 86.4387 229.48 80.1342 230.223C64.7884 232.028 69.4714 201.253 69.4714 192.335C69.4714 183.353 68.8197 174.866 67.5921 166.013C67.9472 166.654 67.9559 167.385 67.6159 168.206" stroke="black" stroke-width="2" stroke-miterlimit="10" stroke-linecap="round" stroke-linejoin="round"/>
<path d="M167.084 285.703C167.084 285.703 168.143 285.113 168.961 285.359C171.698 286.186 174.357 287.597 176.026 289.916C178.518 293.377 178.47 298.006 178.102 302.253C177.92 304.361 177.678 306.487 176.963 308.478C176.664 309.314 176.277 310.128 175.71 310.812C175.173 311.459 174.489 311.965 173.813 312.468C171.657 314.067 169.269 315.742 166.586 315.647C165.675 315.615 164.783 315.374 163.884 315.214C161.412 314.775 158.877 314.946 156.367 315.026C153.059 315.13 149.697 315.065 146.516 314.143C143.336 313.221 140.324 311.353 138.612 308.519C136.854 305.613 136.635 302.039 136.806 298.647C136.984 295.138 137.59 291.496 139.664 288.662C141.738 285.827 145.631 284.076 148.885 285.398C148.885 285.398 151.777 287.028 155.17 286.879C158.565 286.729 161.799 285.286 163.323 285.818C164.848 286.351 167.084 285.703 167.084 285.703Z" fill="#C75641" stroke="black" stroke-miterlimit="10" stroke-linecap="round" stroke-linejoin="round"/>
<path d="M165.049 287.831C164.867 288.245 165.058 288.74 165.372 289.063C165.686 289.387 166.101 289.587 166.487 289.82C168.632 291.126 169.834 293.556 170.503 295.976C171.172 298.396 171.423 300.926 172.25 303.297C172.642 302.457 172.577 301.487 172.504 300.563C172.419 299.513 172.337 298.463 172.252 297.413C172.081 295.281 171.88 293.048 170.713 291.253C169.503 289.39 167.431 288.281 165.372 287.442C165.162 287.595 165.03 287.853 165.03 288.113" fill="#FBF8E9"/>
<path d="M165.049 287.831C164.867 288.245 165.058 288.74 165.372 289.063C165.686 289.387 166.101 289.587 166.487 289.82C168.632 291.126 169.834 293.556 170.503 295.976C171.172 298.396 171.423 300.926 172.25 303.297C172.642 302.457 172.577 301.487 172.504 300.563C172.419 299.513 172.337 298.463 172.252 297.413C172.081 295.281 171.88 293.048 170.713 291.253C169.503 289.39 167.431 288.281 165.372 287.442C165.162 287.595 165.03 287.853 165.03 288.113" stroke="black" stroke-miterlimit="10" stroke-linecap="round" stroke-linejoin="round"/>
<path d="M150.309 289.26C149.036 290.283 147.893 291.467 146.915 292.775C145.826 294.229 144.94 295.831 143.784 297.231C143.635 297.411 143.375 297.602 143.197 297.45C143.671 294.517 145.434 291.818 147.928 290.203C147.926 290.203 150.476 288.807 150.309 289.26Z" fill="#FBF8E9" stroke="black" stroke-miterlimit="10" stroke-linecap="round" stroke-linejoin="round"/>
<path d="M220.104 271.294C220.104 271.294 221.163 270.704 221.981 270.95C224.718 271.777 227.376 273.188 229.046 275.507C231.538 278.968 231.49 283.598 231.122 287.844C230.94 289.953 230.698 292.078 229.983 294.069C229.684 294.905 229.297 295.719 228.73 296.403C228.193 297.05 227.509 297.556 226.833 298.059C224.677 299.658 222.289 301.334 219.606 301.238C218.695 301.206 217.803 300.966 216.904 300.805C214.432 300.366 211.896 300.537 209.387 300.617C206.079 300.721 202.717 300.656 199.536 299.734C196.356 298.812 193.344 296.944 191.632 294.111C189.874 291.204 189.655 287.63 189.826 284.238C190.004 280.73 190.61 277.087 192.684 274.253C194.758 271.418 198.651 269.667 201.905 270.989C201.905 270.989 204.797 272.619 208.19 272.47C211.585 272.32 214.819 270.877 216.343 271.409C217.868 271.942 220.104 271.294 220.104 271.294Z" fill="#C75641" stroke="black" stroke-miterlimit="10" stroke-linecap="round" stroke-linejoin="round"/>
<path d="M218.069 273.422C217.887 273.835 218.077 274.331 218.391 274.654C218.705 274.978 219.121 275.177 219.506 275.411C221.652 276.716 222.854 279.147 223.523 281.567C224.192 283.987 224.443 286.517 225.27 288.887C225.662 288.048 225.597 287.078 225.523 286.154C225.439 285.104 225.356 284.054 225.272 283.004C225.101 280.872 224.899 278.639 223.733 276.844C222.522 274.981 220.45 273.872 218.391 273.032C218.181 273.186 218.049 273.444 218.049 273.703" fill="#FBF8E9"/>
<path d="M218.069 273.422C217.887 273.835 218.077 274.331 218.391 274.654C218.705 274.978 219.121 275.177 219.506 275.411C221.652 276.716 222.854 279.147 223.523 281.567C224.192 283.987 224.443 286.517 225.27 288.887C225.662 288.048 225.597 287.078 225.523 286.154C225.439 285.104 225.356 284.054 225.272 283.004C225.101 280.872 224.899 278.639 223.733 276.844C222.522 274.981 220.45 273.872 218.391 273.032C218.181 273.186 218.049 273.444 218.049 273.703" stroke="black" stroke-miterlimit="10" stroke-linecap="round" stroke-linejoin="round"/>
<path d="M203.329 274.851C202.056 275.874 200.913 277.058 199.935 278.366C198.846 279.82 197.96 281.422 196.804 282.822C196.655 283.002 196.395 283.193 196.217 283.041C196.691 280.108 198.454 277.409 200.948 275.794C200.948 275.794 203.496 274.396 203.329 274.851Z" fill="#FBF8E9" stroke="black" stroke-miterlimit="10" stroke-linecap="round" stroke-linejoin="round"/>
<path d="M203.857 270.193C200.226 270.829 196.985 273.37 195.504 276.745C197.836 275.703 200.326 275.019 202.863 274.721C202.188 277.225 200.748 283.091 203.032 282.398C206.029 280.359 206.202 278.184 207.784 276.076C207.979 275.816 208.189 275.545 208.49 275.42C208.796 275.294 209.142 275.34 209.462 275.411C212.684 276.128 215.091 279.05 218.33 279.675C218.997 277.383 216.007 276.29 214.71 274.699C216.823 274.465 218.952 274.381 221.078 274.446C220.002 273.563 219.017 272.569 218.142 271.485C219.045 271.346 219.971 271.377 220.863 271.571C219.898 270.517 218.302 270.37 216.873 270.42C215.022 270.487 213.178 270.766 211.389 271.251L213.701 266.506C213.797 266.314 213.76 266.074 213.593 265.935C213.353 265.736 213.056 265.935 212.848 266.123C211.383 267.463 210.09 268.996 209.021 270.669C206.903 268.686 203.937 267.636 201.043 267.861C200.735 267.885 200.471 268.126 200.462 268.433C200.454 268.784 200.807 268.95 201.11 269.056C202.114 269.413 203.117 269.773 204.121 270.13" fill="#11782E"/>
<path d="M203.857 270.193C200.226 270.829 196.985 273.37 195.504 276.745C197.836 275.703 200.326 275.019 202.863 274.721C202.188 277.225 200.748 283.091 203.032 282.398C206.029 280.359 206.202 278.184 207.784 276.076C207.979 275.816 208.189 275.545 208.49 275.42C208.796 275.294 209.142 275.34 209.462 275.411C212.684 276.128 215.091 279.05 218.33 279.675C218.997 277.383 216.007 276.29 214.71 274.699C216.823 274.465 218.952 274.381 221.078 274.446C220.002 273.563 219.017 272.569 218.142 271.485C219.045 271.346 219.971 271.377 220.863 271.571C219.898 270.517 218.302 270.37 216.873 270.42C215.022 270.487 213.178 270.766 211.389 271.251L213.701 266.506C213.797 266.314 213.76 266.074 213.593 265.935C213.353 265.736 213.056 265.935 212.848 266.123C211.383 267.463 210.09 268.996 209.021 270.669C206.903 268.686 203.937 267.636 201.043 267.861C200.735 267.885 200.471 268.126 200.462 268.433C200.454 268.784 200.807 268.95 201.11 269.056C202.114 269.413 203.117 269.773 204.121 270.13" stroke="black" stroke-miterlimit="10" stroke-linecap="round" stroke-linejoin="round"/>
<path d="M151.284 284.602C147.653 285.238 144.412 287.779 142.931 291.154C145.263 290.113 147.753 289.429 150.29 289.13C149.615 291.634 148.175 297.5 150.459 296.807C153.455 294.768 153.629 292.593 155.211 290.485C155.406 290.225 155.616 289.955 155.917 289.829C156.222 289.703 156.569 289.749 156.889 289.82C160.111 290.537 162.518 293.459 165.757 294.084C166.424 291.792 163.434 290.699 162.137 289.108C164.25 288.874 166.378 288.79 168.505 288.855C167.429 287.972 166.443 286.978 165.569 285.894C166.472 285.755 167.398 285.786 168.29 285.98C167.325 284.926 165.729 284.779 164.3 284.829C162.449 284.894 160.604 285.175 158.816 285.66L161.128 280.916C161.224 280.723 161.187 280.483 161.02 280.344C160.78 280.145 160.483 280.344 160.275 280.532C158.81 281.872 157.517 283.405 156.447 285.078C154.33 283.095 151.364 282.045 148.469 282.271C148.162 282.294 147.898 282.535 147.889 282.842C147.88 283.193 148.233 283.359 148.536 283.465C149.541 283.822 150.543 284.182 151.548 284.539" fill="#11782E"/>
<path d="M151.284 284.602C147.653 285.238 144.412 287.779 142.931 291.154C145.263 290.113 147.753 289.429 150.29 289.13C149.615 291.634 148.175 297.5 150.459 296.807C153.455 294.768 153.629 292.593 155.211 290.485C155.406 290.225 155.616 289.955 155.917 289.829C156.222 289.703 156.569 289.749 156.889 289.82C160.111 290.537 162.518 293.459 165.757 294.084C166.424 291.792 163.434 290.699 162.137 289.108C164.25 288.874 166.378 288.79 168.505 288.855C167.429 287.972 166.443 286.978 165.569 285.894C166.472 285.755 167.398 285.786 168.29 285.98C167.325 284.926 165.729 284.779 164.3 284.829C162.449 284.894 160.604 285.175 158.816 285.66L161.128 280.916C161.224 280.723 161.187 280.483 161.02 280.344C160.78 280.145 160.483 280.344 160.275 280.532C158.81 281.872 157.517 283.405 156.447 285.078C154.33 283.095 151.364 282.045 148.469 282.271C148.162 282.294 147.898 282.535 147.889 282.842C147.88 283.193 148.233 283.359 148.536 283.465C149.541 283.822 150.543 284.182 151.548 284.539" stroke="black" stroke-miterlimit="10" stroke-linecap="round" stroke-linejoin="round"/>
<path d="M212.104 295.294C212.104 295.294 213.163 294.704 213.981 294.95C216.718 295.777 219.376 297.188 221.046 299.507C223.538 302.968 223.49 307.598 223.122 311.844C222.94 313.953 222.698 316.078 221.983 318.069C221.684 318.905 221.297 319.719 220.73 320.403C220.193 321.05 219.509 321.556 218.833 322.059C216.677 323.658 214.289 325.334 211.606 325.238C210.695 325.206 209.803 324.966 208.904 324.805C206.432 324.366 203.896 324.537 201.387 324.617C198.079 324.721 194.717 324.656 191.536 323.734C188.356 322.812 185.344 320.944 183.632 318.111C181.874 315.204 181.655 311.63 181.826 308.238C182.004 304.73 182.61 301.087 184.684 298.253C186.758 295.418 190.651 293.667 193.905 294.989C193.905 294.989 196.797 296.619 200.19 296.47C203.585 296.32 206.819 294.877 208.343 295.409C209.868 295.942 212.104 295.294 212.104 295.294Z" fill="#C75641" stroke="black" stroke-miterlimit="10" stroke-linecap="round" stroke-linejoin="round"/>
<path d="M210.069 297.422C209.887 297.835 210.077 298.331 210.391 298.654C210.705 298.978 211.121 299.177 211.506 299.411C213.652 300.716 214.854 303.147 215.523 305.567C216.192 307.987 216.443 310.517 217.27 312.887C217.662 312.048 217.597 311.078 217.523 310.154C217.439 309.104 217.356 308.054 217.272 307.004C217.101 304.872 216.899 302.639 215.733 300.844C214.522 298.981 212.45 297.872 210.391 297.032C210.181 297.186 210.049 297.444 210.049 297.703" fill="#FBF8E9"/>
<path d="M210.069 297.422C209.887 297.835 210.077 298.331 210.391 298.654C210.705 298.978 211.121 299.177 211.506 299.411C213.652 300.716 214.854 303.147 215.523 305.567C216.192 307.987 216.443 310.517 217.27 312.887C217.662 312.048 217.597 311.078 217.523 310.154C217.439 309.104 217.356 308.054 217.272 307.004C217.101 304.872 216.899 302.639 215.733 300.844C214.522 298.981 212.45 297.872 210.391 297.032C210.181 297.186 210.049 297.444 210.049 297.703" stroke="black" stroke-miterlimit="10" stroke-linecap="round" stroke-linejoin="round"/>
<path d="M195.329 298.851C194.056 299.874 192.913 301.058 191.935 302.366C190.846 303.82 189.96 305.422 188.804 306.822C188.655 307.002 188.395 307.193 188.217 307.041C188.691 304.108 190.454 301.409 192.948 299.794C192.948 299.794 195.496 298.396 195.329 298.851Z" fill="#FBF8E9" stroke="black" stroke-miterlimit="10" stroke-linecap="round" stroke-linejoin="round"/>
<path d="M196.306 294.193C192.675 294.829 189.434 297.37 187.953 300.745C190.285 299.703 192.775 299.019 195.312 298.721C194.637 301.225 193.197 307.091 195.481 306.398C198.477 304.359 198.651 302.184 200.233 300.076C200.428 299.816 200.638 299.545 200.939 299.42C201.244 299.294 201.591 299.34 201.911 299.411C205.133 300.128 207.54 303.05 210.779 303.675C211.446 301.383 208.456 300.29 207.159 298.699C209.272 298.465 211.4 298.381 213.526 298.446C212.45 297.563 211.465 296.569 210.591 295.485C211.494 295.346 212.42 295.377 213.312 295.571C212.347 294.517 210.751 294.37 209.322 294.42C207.471 294.487 205.626 294.766 203.838 295.251L206.15 290.506C206.245 290.314 206.209 290.074 206.042 289.935C205.802 289.736 205.505 289.935 205.297 290.123C203.831 291.463 202.539 292.996 201.469 294.669C199.352 292.686 196.386 291.636 193.491 291.861C193.184 291.885 192.92 292.126 192.911 292.433C192.902 292.784 193.255 292.95 193.558 293.056C194.563 293.413 195.565 293.773 196.57 294.13" fill="#11782E"/>
<path d="M196.306 294.193C192.675 294.829 189.434 297.37 187.953 300.745C190.285 299.703 192.775 299.019 195.312 298.721C194.637 301.225 193.197 307.091 195.481 306.398C198.477 304.359 198.651 302.184 200.233 300.076C200.428 299.816 200.638 299.545 200.939 299.42C201.244 299.294 201.591 299.34 201.911 299.411C205.133 300.128 207.54 303.05 210.779 303.675C211.446 301.383 208.456 300.29 207.159 298.699C209.272 298.465 211.4 298.381 213.526 298.446C212.45 297.563 211.465 296.569 210.591 295.485C211.494 295.346 212.42 295.377 213.312 295.571C212.347 294.517 210.751 294.37 209.322 294.42C207.471 294.487 205.626 294.766 203.838 295.251L206.15 290.506C206.245 290.314 206.209 290.074 206.042 289.935C205.802 289.736 205.505 289.935 205.297 290.123C203.831 291.463 202.539 292.996 201.469 294.669C199.352 292.686 196.386 291.636 193.491 291.861C193.184 291.885 192.92 292.126 192.911 292.433C192.902 292.784 193.255 292.95 193.558 293.056C194.563 293.413 195.565 293.773 196.57 294.13" stroke="black" stroke-miterlimit="10" stroke-linecap="round" stroke-linejoin="round"/>
</svg>
