<?xml version="1.0" encoding="utf-8"?>
<!-- Generator: Adobe Illustrator 23.0.3, SVG Export Plug-In . SVG Version: 6.00 Build 0)  -->
<svg version="1.1" id="Calque_1" xmlns="http://www.w3.org/2000/svg" xmlns:xlink="http://www.w3.org/1999/xlink" x="0px" y="0px"
	 viewBox="0 0 860.9 141.9" style="enable-background:new 0 0 860.9 141.9;" xml:space="preserve">
<style type="text/css">
	.st0{fill:#28303C;}
</style>
<title>logo frichti bleu</title>
<path class="st0" d="M318.6,0.7h-14.1c-3.2,0-5.7,2.6-5.7,5.7c0,0,0,0,0,0v129.1c0,3.2,2.6,5.7,5.7,5.7l0,0h14.1
	c3.2,0,5.7-2.6,5.7-5.7l0,0V6.4C324.3,3.2,321.7,0.7,318.6,0.7"/>
<path class="st0" d="M424.9,30.6c5.3-3.3,11.5-5.1,17.8-5.1c6.9,0,13.4,2.3,19.8,7.1l4.2,3.2c2.2,1.6,5.3,1.5,7.3-0.4l10.6-9.7
	c2.3-2.1,2.5-5.8,0.4-8.1c-0.2-0.3-0.5-0.5-0.8-0.7l-6.1-4.6C467.3,4.1,455.4,0,442.7,0c-8.3,0-16.6,1.8-24.2,5.2
	c-7.4,3.3-14.1,8-19.6,13.9c-5.6,6-10,12.9-13,20.5c-3.2,7.9-4.8,18.4-4.8,31.3c0,13.2,1.5,23.1,4.8,31.3c3,7.6,7.4,14.6,13,20.6
	c5.6,5.9,12.2,10.6,19.6,13.9c19.8,8.9,42.9,6.3,60.2-6.9l5-3.8c2.5-1.9,3-5.5,1.1-8l-8.4-11.3c-0.9-1.2-2.3-2-3.8-2.2
	c-1.5-0.2-3,0.2-4.3,1.1l-5.1,3.9c-11.2,8.5-26.4,9.3-38.4,1.9c-5.6-3.5-10.2-8.4-13.3-14.2c-3.2-5.8-5-15.3-5-26.2
	c0-11.4,1.7-20.2,5-26.2C414.6,38.9,419.2,34,424.9,30.6"/>
<path class="st0" d="M86.6,0.7H5.8C2.6,0.7,0,3.2,0,6.4v129.1c0,3.2,2.6,5.7,5.7,5.7h14.1c3.2,0,5.7-2.6,5.7-5.7V79.4h36.5
	c3.2,0,5.8-2.5,5.8-5.7c0,0,0,0,0,0V59.6c0-3.2-2.6-5.7-5.7-5.7H25.5V26.2h53.6l7.6-0.1c3.1-0.1,5.6-2.6,5.6-5.7V6.4
	C92.4,3.2,89.8,0.7,86.6,0.7"/>
<path class="st0" d="M230.7,59.7c2-4.8,3-11.7,3-16.9s-1-12.3-3.1-17.1c-4.3-10.2-12.8-18.2-23.3-21.8c-5.9-2.2-12.2-3.2-18.5-3.2
	H146c-3.2,0-5.7,2.6-5.7,5.7c0,0.1,0,0.2,0,0.4l0.4,6.4l0.1,122.4c0,3.2,2.6,5.7,5.7,5.7h14.1c3.2,0,5.7-2.6,5.7-5.7V84.7h15.6
	l24.8,53.1c0.9,2.1,3,3.4,5.2,3.4h15.9c3.2,0,5.7-2.6,5.7-5.7c0-0.8-0.2-1.6-0.5-2.3l-24.9-52.1C218.3,77.4,226.5,69.6,230.7,59.7
	 M208.2,42.8c0,2.3-0.3,4.7-1,6.9c-0.8,1.8-1.9,3.4-3.3,4.8c-1.6,1.5-3.4,2.6-5.5,3.2c-3.1,1.1-6.3,1.6-9.5,1.5h-22.5v-33h22.5
	c3.2-0.1,6.5,0.4,9.5,1.5c2,0.7,3.9,1.8,5.5,3.3c1.4,1.4,2.5,3,3.3,4.8C207.8,38,208.1,40.4,208.2,42.8"/>
<path class="st0" d="M626.2,0.7h-14.1c-3.2,0-5.7,2.6-5.7,5.7v52.5h-44.1V6.4c0-3.2-2.6-5.7-5.7-5.7h-14.1c-3.2,0-5.7,2.6-5.7,5.7
	v129.1c0,3.2,2.6,5.7,5.7,5.7h14.1c3.2,0,5.7-2.6,5.7-5.7V84.4h44.1v51.1c0,3.2,2.6,5.7,5.7,5.7h14.1c3.2,0,5.7-2.6,5.7-5.7V6.4
	C631.9,3.2,629.4,0.7,626.2,0.7"/>
<path class="st0" d="M776,0.7h-90.5c-3.2,0-5.7,2.6-5.7,5.7v13.9c0,3.2,2.6,5.7,5.7,5.7l32.5,0.1v109.4c0,3.2,2.6,5.7,5.7,5.7h14.1
	c3.2,0,5.7-2.6,5.7-5.7V26.2h25l7.6-0.1c3.1-0.1,5.6-2.6,5.6-5.7V6.4C781.8,3.2,779.2,0.7,776,0.7C776.1,0.7,776,0.7,776,0.7"/>
<path class="st0" d="M855.2,0.7h-14.1c-3.2,0-5.7,2.6-5.7,5.7v129.1c0,3.2,2.6,5.7,5.7,5.7h14.1c3.2,0,5.7-2.6,5.7-5.7V6.4
	C860.9,3.2,858.3,0.7,855.2,0.7"/>
</svg>
