<svg width="353" height="114" viewBox="0 0 353 114" fill="none" xmlns="http://www.w3.org/2000/svg">
<g clip-path="url(#clip0)">
<path d="M80.2155 42.2622C77.5026 41.804 76.3064 41.7049 72.9691 41.9031C71.7276 41.9867 70.4952 41.2422 69.2699 41.4158C68.8829 41.4686 68.4955 41.5084 68.1085 41.5612C68.1744 40.8733 68.2911 40.1576 68.3247 39.6519C68.4172 38.2646 68.5092 36.8643 68.6147 35.4764C68.79 32.7925 69.2891 33.3307 69.4648 30.6597C69.838 25.2006 70.0414 22.2182 70.4017 16.7596C70.52 15.0091 69.6926 11.4818 68.0743 11.5403C67.0127 11.5786 64.6411 14.109 64.5228 15.8595L64.0729 19.9115C63.4226 29.5457 60.2763 34.3159 59.6261 43.9501C59.4641 46.2842 59.0372 48.822 60.9553 50.6024C62.5375 52.0587 67.2336 51.4363 69.2079 51.1839C73.9433 50.5731 76.2298 49.2747 80.3006 46.7735C84.4977 44.1772 84.2064 42.933 80.2155 42.2622ZM67.0488 41.6512C66.6081 41.6542 66.7856 41.5443 67.0488 41.6512V41.6512Z" fill="#C85742" stroke="#C85742" stroke-miterlimit="10"/>
<path d="M112.535 34.4206C111.015 33.6089 110.568 34.5304 109.769 36.0985C109.648 36.3228 109.526 36.5471 109.405 36.7714C109.368 36.8374 109.27 36.9832 109.208 37.076C108.985 37.3557 108.761 37.6225 108.511 37.8773C108.411 37.9714 108.311 38.0656 108.21 38.1598C108.135 38.2142 107.958 38.3629 107.896 38.4169C107.478 38.7036 107.06 38.9645 106.615 39.2134C106.564 39.2411 106.526 39.2683 106.513 39.2688C106.475 39.2831 106.462 39.2836 106.411 39.3113C106.219 39.3829 106.028 39.4674 105.836 39.5261C105.401 39.6841 104.964 39.7904 104.514 39.9101C104.437 39.9259 104.218 39.9726 104.115 39.9892C103.973 40.0073 103.844 40.0249 103.702 40.0429C103.186 40.0875 102.668 40.1062 102.161 40.0857C102.031 40.0774 101.889 40.0696 101.759 40.0614C101.654 40.0393 101.433 40.0085 101.342 39.9989C100.884 39.899 100.439 39.7857 99.9946 39.6724C99.9552 39.6609 99.8373 39.6263 99.7583 39.5904C99.6135 39.5309 99.4817 39.471 99.3499 39.4111C98.9541 39.2184 98.16 38.7685 98.0005 38.6579C97.668 38.4241 97.0385 37.8648 96.5403 37.3524C98.9522 34.8594 101.032 32.1585 102.699 28.774C104.366 25.4024 103.135 21.8121 101.449 19.9975C99.2499 17.6192 93.897 15.8464 91.0483 17.3722C85.3515 20.4365 87.0247 27.2834 88.4853 32.9091C88.9367 34.639 89.2633 36.5028 89.6652 38.2992C89.477 38.4742 89.3148 38.6482 89.1137 38.8236C87.7667 39.9329 86.0227 42.9709 85.7572 43.873C85.3059 45.3769 88.2991 44.622 89.2439 43.8635L90.5021 42.8092C90.6533 42.6873 90.7915 42.5659 90.9297 42.4445C91.8769 44.6222 93.3127 46.3295 95.8249 46.976C98.2586 47.5996 108.932 46.645 111.847 40.8741C112.621 39.3328 114.108 35.2563 112.535 34.4206ZM93.5629 29.5696C93.5388 27.8242 93.8253 26.0677 94.855 24.4265C94.904 24.3472 94.916 24.3209 94.928 24.2945C94.9654 24.2544 95.0154 24.2008 95.0773 24.121C95.2016 23.9742 95.3394 23.8399 95.4771 23.7056C95.5404 23.6645 95.6786 23.5431 95.7036 23.5163C95.6911 23.5297 96.1238 23.3071 96.2635 23.2245C96.3661 23.1949 96.4817 23.1648 96.5076 23.1639C96.5464 23.1625 96.5718 23.1486 96.5848 23.1482C96.6111 23.1602 96.637 23.1592 96.6763 23.1707C96.7156 23.1823 96.8719 23.2025 96.9496 23.1997C97.1193 23.2323 97.2761 23.2655 97.4333 23.3116C97.4994 23.348 97.5655 23.3844 97.5789 23.3968C97.6345 23.4983 97.6756 23.5615 97.7154 23.5859C97.7293 23.6113 97.7302 23.6371 97.7446 23.6754C97.5122 24.4211 97.1681 25.3002 96.7684 26.0778C95.6917 28.2121 94.8472 30.3122 93.8815 32.2874C93.8805 32.2615 93.8671 32.2491 93.8662 32.2233C93.6675 31.3897 93.5809 30.7848 93.5629 29.5696Z" fill="#C85742" stroke="#C85742" stroke-miterlimit="10"/>
<path d="M130.241 14.6503L127.705 12.9827C124.033 11.796 122.003 10.8862 118.379 12.4787C114.602 14.1415 111.257 15.905 110.163 18.635C108.843 21.9294 110.92 25.2433 112.979 28.0535C114.233 29.7544 115.767 31.6651 117.423 33.3774C115.176 34.7003 113.1 36.0688 110.278 37.2573C108.669 37.9363 105.573 39.0699 106.143 40.8473C106.626 42.395 109.603 42.2487 111.343 41.9789C116.498 41.1589 119.494 39.0458 124.142 37.0929C126.722 36.0037 127.211 32.6747 124.706 31.1612C122.532 29.8427 121.426 28.2917 119.787 26.3201C119.15 25.5541 118.677 24.6786 118.401 23.8349C118.05 22.7352 117.847 22.5096 118.085 21.5439C118.097 21.5176 118.177 21.2301 118.176 21.2043C118.284 20.9546 118.43 20.6906 118.577 20.4654C118.59 20.452 118.739 20.2785 118.776 20.2254C118.763 20.2388 119.252 19.7684 119.226 19.7694C119.629 19.4444 120.086 19.1692 120.544 18.9456C120.583 18.9313 120.788 18.8593 120.839 18.8445C121.121 18.7567 121.39 18.6564 121.685 18.5811C121.775 18.552 122.058 18.5029 122.148 18.4738C122.47 18.4234 122.793 18.3988 123.117 18.3871C123.699 18.366 124.296 18.3704 124.882 18.4398C126.418 18.6171 125.838 18.7157 127.307 19.18C128.972 19.7149 130.588 18.5053 131.078 17.7244C131.544 16.9703 131.92 15.1847 130.241 14.6503Z" fill="#C85742" stroke="#C85742" stroke-miterlimit="10"/>
<path d="M114.459 74.773C114.66 73.8991 114.427 74.9811 114.394 75.1375C114.351 75.3719 114.308 75.6192 114.264 75.8536C114.168 76.4133 114.084 76.9725 114.014 77.5442C113.883 78.5837 113.804 79.6343 113.765 80.6835C113.725 81.7327 113.141 81.7279 113.205 82.7733C113.208 82.8637 113.269 83.8316 113.237 83.3025C113.205 82.7733 113.292 83.7403 113.295 83.8307C113.367 84.3972 113.271 86.0305 113.368 86.5832C113.649 88.2546 110.503 91.602 109.76 91.1244C108.194 90.1202 107.19 88.8759 106.892 87.0887C106.034 81.9975 105.847 77.8909 107.025 72.8296C107.193 72.0862 107.379 70.4238 108.145 70.0857C109.012 69.7051 110.252 69.5698 111.182 69.8467C112.113 70.1235 113.796 71.5114 114.226 72.272C114.697 73.1087 114.672 73.8598 114.459 74.773Z" fill="#C85742" stroke="#C85742" stroke-miterlimit="10"/>
<path d="M153.867 57.9054C152.324 57.185 150.045 56.8922 148.327 57.4199C145.66 58.2276 143.207 58.8853 140.843 59.4493C140.72 55.3404 135.753 52.0403 134.4 56.5776L132.774 61.0989C129.67 61.6379 126.459 62.116 122.849 62.6474C121.108 62.9043 117.51 64.4959 118.5 66.8013C119.434 68.9666 120.372 70.1615 122.112 69.9046L125.284 69.7901C127.695 69.4314 129.914 69.1313 132.029 68.8221C131.751 71.1863 131.33 73.504 130.854 76.4833C130.208 80.4906 129.306 84.5848 130.253 88.5733C130.666 90.2918 131.283 93.7361 134.035 91.3471C135.694 89.9032 138.721 88.2934 138.322 86.5745C138.521 87.4081 138.335 86.5611 138.296 86.2133C138.257 85.8396 138.243 85.465 138.243 85.0899C138.239 84.2751 138.287 83.4584 138.375 82.6533C138.422 82.173 138.483 81.6922 138.543 81.2114C138.554 81.1464 138.563 81.0426 138.574 80.9775C138.616 80.7044 138.658 80.4441 138.687 80.1714C138.866 79.0267 139.045 77.882 139.224 76.7372C139.722 73.6536 140.142 70.5729 140.446 67.4834C143.961 66.8261 147.56 65.9847 151.74 64.7084C153.458 64.1807 155.449 58.6373 153.867 57.9054Z" fill="#C85742" stroke="#C85742" stroke-miterlimit="10"/>
<path d="M183.628 67.5407C183.164 72.9902 183.154 78.462 183.597 83.9046C183.735 85.5941 185.243 88.2172 188.18 86.9728C190.235 86.0966 192.601 84.4849 192.51 82.6773C192.243 77.4482 194.719 76.0135 192.561 67.2181C192.151 65.5513 190.456 61.6933 188.531 62.6035C185.626 63.989 183.783 65.7242 183.628 67.5407Z" fill="#C85742" stroke="#C85742" stroke-miterlimit="10"/>
<path d="M189.143 58.3775C192.952 56.1574 193.862 51.2093 188.156 51.8681C183.793 52.3749 181.292 59.5665 187.053 59.3585" fill="#C85742"/>
<path d="M189.143 58.3775C192.952 56.1574 193.862 51.2093 188.156 51.8681C183.793 52.3749 181.292 59.5665 187.053 59.3585" stroke="#C85742" stroke-miterlimit="10"/>
<path d="M222.652 85.2493C221.427 84.013 220.024 82.1234 218.218 82.3697C215.379 82.7438 213.605 82.7821 210.745 82.9112C209.632 82.9644 208.505 82.9792 207.39 82.9936C208.143 77.6372 208.219 73.6375 209.753 68.3693C210.226 66.7483 208.287 63.688 207.52 62.1894C206.824 60.8435 204.34 62.7958 203.833 64.5345L203.024 66.9049C202.101 70.0556 201.734 71.7375 201.072 74.9563C200.741 76.5593 200.436 78.1742 200.171 79.8007C199.905 81.4142 200.383 82.7939 200.377 84.4369C200.364 86.5846 201.446 89.624 201.446 89.624C204.318 89.1064 208.047 89.3339 209.411 89.414C212.789 89.6154 216.012 88.0502 219.366 87.6057C221.057 87.4024 223.97 86.5728 222.652 85.2493Z" fill="#C85742" stroke="#C85742" stroke-miterlimit="10"/>
<path d="M224.678 59.8753C224.121 64.2027 223.671 67.8796 222.814 72.1532C221.779 77.2482 221.031 82.3716 220.492 87.5392C220.223 90.1488 225.172 89.3492 227.76 88.8677C233.517 87.819 236.069 88.8651 241.879 88.2026C242.679 88.109 243.588 86.3429 243.821 85.2738C244.22 83.3967 240.789 82.4212 239.948 82.4774C234.116 82.8821 234.014 82.5753 233.417 82.5322L229.331 83.1843C228.667 83.1048 230.144 78.7828 230.319 73.5896C230.465 69.3546 230.285 68.7014 230.829 64.3744C231.052 62.646 230.981 59.2337 229.15 58.7954C227.581 58.4252 225.143 56.2367 224.92 57.978" fill="#C85742"/>
<path d="M224.678 59.8753C224.121 64.2027 223.671 67.8796 222.814 72.1532C221.779 77.2482 221.031 82.3716 220.492 87.5392C220.223 90.1488 225.172 89.3492 227.76 88.8677C233.517 87.819 236.069 88.8651 241.879 88.2026C242.679 88.109 243.588 86.3429 243.821 85.2738C244.22 83.3967 240.789 82.4212 239.948 82.4774C234.116 82.8821 234.014 82.5753 233.417 82.5322L229.331 83.1843C228.667 83.1048 230.144 78.7828 230.319 73.5896C230.465 69.3546 230.285 68.7014 230.829 64.3744C231.052 62.646 230.981 59.2337 229.15 58.7954C227.581 58.4252 225.143 56.2367 224.92 57.978" stroke="#C85742" stroke-miterlimit="10"/>
<path d="M275.417 67.0844C272.194 70.4604 270.004 75.1443 265.368 76.7217C263.627 77.3149 259.75 78.7355 257.736 78.6012C260.201 76.4944 262.319 74.1413 263.796 70.8672C265.116 67.935 266.791 62.6487 265.091 59.7092C263.681 57.2766 259.739 55.4529 256.308 56.3011C254.304 56.7874 248.592 63.7458 248.961 70.381C249.062 72.0848 249.077 74.6713 249.384 77.0661C248.611 77.9089 247.838 78.7776 247.119 79.6832C245.929 81.1878 246.036 83.4346 246.14 84.1423C246.367 85.7639 246.452 85.9807 247.827 84.9221L251.063 83.7187C251.366 83.4879 251.682 83.2566 251.984 83.0258C254.189 84.8476 257.147 84.896 259.333 84.4031C261.223 83.9727 266.883 82.7852 269.979 80.5521C273.352 78.1149 273.015 77.0534 275.247 73.5192C276.265 71.9044 276.029 66.4414 275.417 67.0844ZM256.963 61.8783C257.75 61.0479 258.66 60.3942 259.707 59.9683C259.33 61.3531 258.906 63.2569 258.801 63.5711C258.297 65.051 257.662 66.4968 256.987 67.9181C255.915 70.1816 254.524 72.211 252.986 74.1421C252.979 69.6409 254.191 64.7853 256.963 61.8783Z" fill="#C85742" stroke="#C85742" stroke-miterlimit="10"/>
<path d="M301.793 51.5411C300.645 48.8274 297.57 47.3216 297.606 50.4635C297.648 54.5106 296.809 58.9 296.98 62.9425C297.132 66.4294 296.789 69.8567 295.088 73.0096C294.675 73.7747 294.132 74.5187 293.574 75.2115C293.251 75.6112 292.915 75.9984 292.553 76.3737C292.44 76.4942 292.302 76.6156 292.19 76.749C292.14 76.8025 292.128 76.8288 292.091 76.869C291.822 76.9563 291.463 77.0727 291.425 77.0871C291.18 77.1476 290.936 77.2082 290.692 77.2687C290.474 77.3154 290.242 77.3755 290.024 77.4222C288.661 77.7301 288.302 77.8337 286.925 78.1162C286.474 78.2101 286.024 78.291 285.573 78.3849C285.572 78.3462 285.571 78.3203 285.571 78.3332C285.503 77.883 285.448 77.4193 285.392 76.9686C285.207 75.4102 285.301 73.3501 285.27 71.7861C285.198 68.7231 285.213 61.2332 284.614 57.5554C283.946 53.4403 279.956 54.5675 278.645 57.758L278.618 59.1818C278.024 62.4759 277.854 68.8848 277.872 72.2473C277.887 75.1701 277.885 78.7014 278.931 81.4705C279.848 83.895 282.057 85.4709 284.573 85.1343C285.888 84.9575 287.199 84.6256 288.485 84.3463C290.221 83.9731 291.958 83.6129 293.678 83.1369C295.488 82.6317 298.616 81.3029 299.861 79.8739C303.046 76.2017 305.062 73.1409 305.312 68.2166C305.594 62.7478 303.918 56.5349 301.793 51.5411ZM285.639 78.7706C285.659 78.9639 285.643 78.8739 285.624 78.7194C285.624 78.7194 285.625 78.7323 285.639 78.7706ZM285.592 78.9016C285.605 78.9012 285.605 78.9012 285.618 78.9136C285.593 78.9404 285.593 78.9275 285.592 78.9016ZM285.631 78.9132C286.181 79.0615 285.665 79.1448 285.631 78.9132V78.9132ZM291.967 77.0287C291.717 77.2964 291.804 77.1898 291.967 77.0287V77.0287ZM292.168 76.8532C292.269 76.772 292.371 76.7295 292.399 76.7802C292.399 76.7802 292.296 76.8098 292.168 76.8532Z" fill="#C85742" stroke="#C85742" stroke-miterlimit="10"/>
<path d="M335.808 78.097C335.018 77.039 334.932 75.3735 333.434 74.4575C329.192 71.8813 323.548 69.2265 318.303 66.4797C318.747 66.2179 319.204 65.9557 319.635 65.6685C322.054 64.1065 325.557 60.604 326.097 59.7437C327.69 57.2026 325.646 52.6457 325.036 51.9175C323.37 49.934 322.318 50.2307 319.825 49.7516C317.345 49.2849 314.973 48.9437 311.658 48.6754C309.981 48.5419 308.257 49.2768 307.799 50.949C307.376 52.5165 306.793 55.7584 306.786 57.3626C306.792 64.3343 308.405 68.8033 309.122 78.5951C309.122 78.5951 316.977 82.9033 316.649 79.2028C316.472 77.1784 316.246 74.8454 316.003 72.4224C321.655 74.5983 322.266 76.7881 327.576 78.8082C329.206 79.4349 336.939 79.6213 335.808 78.097ZM320.511 56.5435C320.524 56.5431 320.524 56.5431 320.511 56.5435C320.524 56.556 320.524 56.5689 320.525 56.5818C320.525 56.5947 320.525 56.5947 320.526 56.6077C320.522 56.8665 320.517 56.7115 320.511 56.5435ZM313.337 53.8922C313.381 53.6708 313.445 53.6426 313.337 53.8922V53.8922ZM314.846 60.5122C314.755 59.416 314.162 58.4414 313.3 57.8905C313.292 57.3087 313.271 56.7274 313.276 56.1581C313.286 55.705 313.308 55.2385 313.33 54.785C313.924 54.7118 314.673 54.6201 315.401 54.6843C316.194 54.7592 317.396 55.0133 318.327 55.303C318.799 55.4541 318.865 55.4776 319.3 55.6947C319.512 55.8035 319.723 55.9123 319.922 56.0345C319.988 56.0709 320.028 56.0953 320.054 56.1073C320.067 56.1068 320.068 56.1197 320.068 56.1197C320.214 56.2309 320.335 56.3558 320.469 56.4803C320.398 56.6511 320.29 56.8878 320.228 56.9677C319.894 57.4066 319.467 57.81 319.053 58.1743C318.173 58.9433 317.159 59.5879 316.184 60.2181C315.791 60.4651 315.359 60.7136 314.914 60.9495C314.87 60.8088 314.852 60.6543 314.846 60.5122Z" fill="#C85742" stroke="#C85742" stroke-miterlimit="10"/>
<path d="M339.669 56.1491C336.525 58.1124 334.539 57.6667 333.097 60.8232C331.415 64.4928 333.002 68.2384 335.918 70.733C337.536 72.1104 340.931 73.5141 340.808 75.8468C340.673 78.568 337.268 79.7646 335.73 81.6957C334.403 83.3476 335.672 89.4071 339.194 87.1585C342.185 85.2526 348.631 82.8467 349.974 79.448C351.423 75.7998 351.709 73.3059 348.962 70.456C347.305 68.7437 339.611 66.3828 338.831 64.1603C338.801 64.0708 338.9 63.5628 338.819 63.8503C338.831 63.8111 339.06 63.3371 339.171 63.1779C339.455 62.7925 339.946 62.3867 340.35 62.0747C341.839 60.9602 343.415 60.0755 344.809 58.8351C346.115 57.6755 347.556 57.3777 346.362 56.2696C344.981 54.9872 343.995 54.6089 341.623 55.7034" fill="#C85742"/>
<path d="M339.669 56.1491C336.525 58.1124 334.539 57.6667 333.097 60.8232C331.415 64.4928 333.002 68.2384 335.918 70.733C337.536 72.1104 340.931 73.5141 340.808 75.8468C340.673 78.568 337.268 79.7646 335.73 81.6957C334.403 83.3476 335.672 89.4071 339.194 87.1585C342.185 85.2526 348.631 82.8467 349.974 79.448C351.423 75.7998 351.709 73.3059 348.962 70.456C347.305 68.7437 339.611 66.3828 338.831 64.1603C338.801 64.0708 338.9 63.5628 338.819 63.8503C338.831 63.8111 339.06 63.3371 339.171 63.1779C339.455 62.7925 339.946 62.3867 340.35 62.0747C341.839 60.9602 343.415 60.0755 344.809 58.8351C346.115 57.6755 347.556 57.3777 346.362 56.2696C344.981 54.9872 343.995 54.6089 341.623 55.7034" stroke="#C85742" stroke-miterlimit="10"/>
<path d="M108.684 62.0336C106.419 65.0257 107.683 69.8695 112.175 67.8964C115.595 66.3889 114.734 59.0599 110.032 60.6138" fill="#C85742"/>
<path d="M108.684 62.0336C106.419 65.0257 107.683 69.8695 112.175 67.8964C115.595 66.3889 114.734 59.0599 110.032 60.6138" stroke="#C85742" stroke-miterlimit="10"/>
<path d="M48.243 104.211C44.2757 100.966 43.2467 100.11 39.2794 96.8647C35.4324 93.7182 31.4083 90.6944 27.723 87.361C26.4363 86.1915 25.9215 85.5763 26.4703 83.9008C27.2763 81.4529 30.7676 78.3388 31.5607 75.8913C32.9483 71.5985 33.9968 66.8911 33.5094 62.3685C33.0823 58.4388 28.9222 53.8031 26.0879 53.9313C21.2599 54.1315 13.4805 54.0891 10.8923 57.4422C5.93956 63.8816 2.21302 67.3017 2.47125 75.1698C2.76786 84.4593 11.7209 100.486 17.6515 108.563C19.4787 111.058 23.747 110.076 23.6257 106.717C23.4424 101.641 23.3743 96.883 23.4 92.2125C26.6256 95.3815 28.4408 97.9029 32.0478 100.864C36.1756 104.246 40.3163 107.628 44.4445 111.023C45.7936 112.126 51.7817 111.741 53.0296 110.403C54.1787 109.197 49.5926 105.327 48.243 104.211ZM24.4909 68.2175C24.4083 68.8025 24.3123 69.3751 24.1904 69.9487C24.2369 69.0804 24.2837 68.225 24.3422 67.3303C24.4475 65.5803 20.989 64.2177 20.989 64.2177C19.0988 64.2859 17.2518 69.1386 17.1335 70.8891L16.4613 75.2466C16.0211 82.4414 16.0804 86.9536 16.3117 91.563C15.0882 88.5546 13.9781 85.8136 12.9251 83.9373C9.60057 78.0296 13.2859 71.6748 16.7092 65.6011C17.4158 64.3467 18.2944 63.1896 19.401 62.2442C20.319 61.4608 22.0839 60.0777 23.3875 60.6386C25.179 61.4276 24.7589 66.3063 24.4909 68.2175Z" fill="#C85742"/>
<path d="M180.804 84.4582C180.455 83.7723 180.081 83.1132 179.72 82.4407C180.223 82.0215 181.27 81.2205 181.389 80.5565C181.504 79.8021 181.786 80.0636 178.552 77.7486C178.02 77.3669 177.046 76.613 176.406 76.468C173.821 72.0211 171.059 69.495 168.082 65.3081C166.921 63.6685 164.464 60.9504 163.537 61.8634C160.421 64.9639 159.663 67.6559 157.308 71.3757C154.819 75.3073 152.927 78.9069 150.974 84.4231C150.385 86.0612 149.589 90.2162 150.815 91.5172C152.015 92.7803 153.772 90.4791 155.021 88.442C156.392 86.2064 157.347 82.8477 158.395 80.6367C158.871 80.8912 159.395 81.0404 159.977 81.0065C161.309 80.9325 162.645 80.9489 163.983 81.0299C164.373 81.0547 164.75 81.0928 165.14 81.1175C165.205 81.1281 165.244 81.1267 165.283 81.1253C165.322 81.1368 165.374 81.1349 165.465 81.1446C166.22 81.2337 166.975 81.3229 167.731 81.4378C169.243 81.6549 170.756 81.9236 172.27 82.2052C173.323 84.0816 173.374 84.0668 174.351 85.9847C175.146 87.5341 178.538 92.4433 181.226 91.8418C181.226 91.8418 181.611 86.0071 180.804 84.4582ZM160.791 75.208C162.148 73.2964 163.611 71.4327 165.138 69.5795C166.522 71.638 167.867 73.7107 169.187 75.8103C166.388 75.4587 163.579 75.2238 160.791 75.208Z" fill="#C85742" stroke="#C85742" stroke-miterlimit="10"/>
<path d="M100.195 65.7033C98.9839 65.1779 97.3723 64.3436 96.0447 64.1975C94.327 64.0138 93.6943 63.7262 92.1198 64.6368C92.1198 64.6368 89.1445 69.1162 88.7796 71.5741C88.4262 73.9928 87.5689 76.8177 87.2021 79.224C87.1717 79.4579 87.1408 79.6789 87.1103 79.9128C84.56 76.0598 82.0524 72.6708 78.5583 68.5284C77.3936 67.1477 74.0724 65.6378 72.0356 65.5949C69.7783 65.5471 66.0848 64.1412 69.2723 68.0489L71.4766 72.7294C76.3213 82.6825 77.6595 83.1257 81.7768 89.8067C82.7409 91.3758 86.7465 94.6072 88.3364 93.7607C88.7566 93.5515 90.9002 93.6811 90.4795 93.8774C90.8378 93.748 91.1952 93.5928 91.5396 93.4381C91.9977 93.2017 92.8656 90.3117 93.0041 89.841C93.6508 87.6446 93.8413 85.0248 94.0533 84.0729C94.4776 82.182 94.4714 81.6519 94.7648 79.7269C95.0689 77.7369 96.022 76.8488 96.3395 74.8712C96.4977 73.8695 96.6431 72.8682 96.7625 71.8679C96.8036 71.5689 96.8312 71.2575 96.8593 70.959C97.7702 71.0554 98.6945 71.1643 99.6054 71.2608C101.505 71.4638 103.619 70.4044 104.11 68.5757C104.521 67.0346 102.316 66.6227 100.195 65.7033Z" fill="#C85742" stroke="#C85742" stroke-miterlimit="10"/>
<path d="M70.124 85.5321C71.198 84.0446 69.354 82.5202 67.9184 81.1751C66.9522 80.2657 65.9158 79.5658 64.8328 79.0099C62.3381 74.1847 59.5818 69.6536 55.9595 65.1924C54.3448 63.1941 51.8327 63.2719 50.3668 65.3944C48.0379 68.7511 46.2192 72.2316 44.5854 75.8089C43.9195 75.6778 43.2537 75.5466 41.8924 75.544C39.3896 75.518 37.1981 75.8558 37.9408 77.7563C39.2698 81.1749 40.0137 82.3898 41.4787 83.113C40.8121 84.754 40.1334 86.4212 39.4422 88.1019C38.7746 89.717 38.7366 90.8178 39.0402 91.6864C39.3581 92.5933 42.0703 90.8785 42.7509 89.2629L45.7734 85.0146C45.882 84.7907 45.979 84.6062 46.0881 84.3953C46.335 84.4122 46.5949 84.4287 46.907 84.4562C49.1195 84.6997 51.3274 84.814 53.5376 84.9929C54.6556 85.0818 55.7741 85.1837 56.8936 85.3114C57.0369 85.3321 57.1798 85.3399 57.3231 85.3606C57.5317 85.3919 57.7402 85.4232 57.9487 85.4544C58.5096 85.5506 59.0705 85.6467 59.6323 85.7687C60.4425 85.9464 61.2415 86.1763 62.03 86.4712C62.1433 86.7387 62.2558 86.9804 62.396 87.2729C63.1145 88.8638 67.1982 93.1789 69.0054 92.6092C70.5177 92.1277 69.7256 89.22 69.0066 87.6162C68.8798 87.3362 68.754 87.0821 68.6401 86.8016C69.224 86.4571 69.7783 86.0103 70.124 85.5321ZM57.1932 85.3524C57.2061 85.3519 57.2191 85.3514 57.2325 85.3639C57.011 85.3331 56.9846 85.3211 57.1932 85.3524ZM55.3506 78.1236C53.0618 77.9217 50.7614 77.759 48.474 77.5958C49.5185 76.0059 50.91 73.9766 52.9181 71.0713L55.2386 75.0232C56.2965 76.3173 57.1915 77.4103 57.9908 78.3645C57.1063 78.2801 56.2222 78.2085 55.3506 78.1236Z" fill="#C85742" stroke="#C85742" stroke-miterlimit="10"/>
</g>
<defs>
<clipPath id="clip0">
<rect x="0.237793" y="13.3306" width="349" height="100" transform="rotate(-2.06836 0.237793 13.3306)" fill="white"/>
</clipPath>
</defs>
</svg>
