<?xml version="1.0" encoding="utf-8"?>
<!-- Generator: Adobe Illustrator 24.1.0, SVG Export Plug-In . SVG Version: 6.00 Build 0)  -->
<svg version="1.1" id="Calque_1" xmlns="http://www.w3.org/2000/svg" xmlns:xlink="http://www.w3.org/1999/xlink" x="0px" y="0px"
	 viewBox="0 0 1307.13 995.58" style="enable-background:new 0 0 1307.13 995.58;" xml:space="preserve">
<style type="text/css">
	.st0{fill:none;stroke:#010202;stroke-width:8;stroke-linecap:round;stroke-linejoin:round;stroke-miterlimit:10;}
</style>
<g>
	<path class="st0" d="M625.65,569.05c-38.51,29.17-65.82,49.84-65.82,49.84l-17.44,11.72c0,0-24.04,9.22-51.35-22.36"/>
	<path class="st0" d="M463.41,561.23c-3.12-7.38-6.19-15.52-9.18-24.49c-3.55-10.64,0-22.33,8.95-29.32l305.88-238.98
		c0,0,27.24-31.96,51.22-20.24s75.19,54.32,71.92,89.48c-3.27,35.15-8.72,34.09-18.53,42.61c-3.66,3.18-45.19,36.13-99.62,77.48"/>
	<path class="st0" d="M478.99,495.08c0,0,47.06,14.73,64.5,45.24c13.9,24.32,21.8,38.36,16.35,78.57"/>
	<path class="st0" d="M453.14,569.74l-56.67,49.15c0,0-4.36,28.23,5.45,35.85c9.81,7.63,82.82-42.5,82.82-42.5l27.24-17.44
		c0,0,15.26-17.89,0-37.82C496.73,537.05,477.23,548.84,453.14,569.74z"/>
	<path class="st0" d="M858.42,262.66l78.46-49.27c0,0,26.15-14.17,37.05,0s-2.27,26.62-28.42,49.27s-53.16,45.54-53.16,45.54"/>
</g>
<g>
	<path class="st0" d="M780.76,847.12c-3.8-70.93-17.18-140.97-45.72-205.75c-1.98-4.5-4.08-9.29-3.33-14.15
		c1.41-9.13,11.63-13.64,20.4-16.55c12.66-4.19,25.32-8.37,37.99-12.56c4.79-1.58,9.9-3.18,14.79-1.96
		c6.01,1.51,10.16,6.87,13.62,12.02c15.32,22.84,26.55,48.11,37.71,73.25c10.77,24.26,21.57,48.69,31.88,73.34"/>
	<path class="st0" d="M730.95,620.52c-37.88-12.67-73.95-30.72-106.8-53.45c14-6.17,29.62-8.63,44.83-7.05
		c-16.44-18.16-32.89-36.32-49.33-54.48c-7.01-7.74-14.54-17.48-11.75-27.54c26.24,1.48,40.42,32.55,64.68,42.66
		c-15.78-29.95-32.05-63.24-24.43-96.22c28.52,7.45,28.55,56.42,57.17,63.49c-5.63-27.43-7.7-55.6-6.15-83.56
		c28.43,11.8,20.17,61.5,47.51,75.64c0.71-18.45,1.84-36.88,3.41-55.28c10.43,0.68,16.42,11.85,20.42,21.5
		c10.5,25.38,21,50.76,31.51,76.14c6.74,16.3,13.61,34.06,9.13,51.12c-2.38,9.05-6.64,25.15,2.38,27.66"/>
</g>
</svg>
