<svg width="16" height="16" viewBox="0 0 16 16" fill="none" xmlns="http://www.w3.org/2000/svg">
<path d="M0.100059 8.50714C0.163544 8.67067 0.258739 8.82008 0.380177 8.94678L7.04961 15.608C7.17398 15.7322 7.32163 15.8307 7.48413 15.8979C7.64662 15.9652 7.82079 15.9998 7.99667 15.9998C8.35189 15.9998 8.69256 15.8588 8.94373 15.608C9.0681 15.4837 9.16676 15.3363 9.23407 15.174C9.30138 15.0117 9.33602 14.8377 9.33602 14.6621C9.33602 14.3073 9.19491 13.967 8.94373 13.7162L4.54191 9.33313L14.6661 9.33313C15.0199 9.33313 15.3592 9.19277 15.6093 8.94292C15.8595 8.69308 16 8.35422 16 8.00089C16 7.64756 15.8595 7.3087 15.6093 7.05886C15.3592 6.80902 15.0199 6.66866 14.6661 6.66866L4.54191 6.66866L8.94374 2.2856C9.06876 2.16175 9.16799 2.01441 9.23571 1.85206C9.30343 1.68972 9.3383 1.51559 9.3383 1.33972C9.3383 1.16385 9.30343 0.989714 9.23571 0.827369C9.16799 0.665024 9.06876 0.517679 8.94374 0.39383C8.81973 0.268962 8.6722 0.169849 8.50966 0.102213C8.34711 0.0345777 8.17276 -0.000243871 7.99667 -0.000243887C7.82059 -0.000243902 7.64624 0.0345776 7.48369 0.102213C7.32115 0.169849 7.17362 0.268962 7.04962 0.39383L0.380177 7.055C0.258739 7.18171 0.163544 7.33111 0.100059 7.49464C-0.0333531 7.81899 -0.0333531 8.18279 0.100059 8.50714Z" fill="white"/>
</svg>
