<svg width="235" height="235" viewBox="0 0 235 235" fill="none" xmlns="http://www.w3.org/2000/svg">
<g clip-path="url(#clip0)">
<path d="M169.82 225.003C170.316 224.736 170.631 224.234 170.876 223.732C172.405 220.603 171.902 216.868 170.925 213.523C169.172 207.557 166.055 202.095 163.001 196.685C148.957 171.798 137.821 150.817 125.299 125.135L120.688 116.038C118.476 117.451 113.724 118.543 111.513 119.956C112.212 124.633 113.99 129.072 115.851 133.418C122.579 149.098 130.669 164.149 138.748 179.179C143.867 188.709 148.993 198.236 154.112 207.766C157.445 213.96 160.986 220.399 166.805 224.353C167.7 224.963 168.864 225.514 169.82 225.003ZM155.844 200.666C155.667 200.026 155.647 199.127 156.278 198.941C156.697 198.816 157.105 199.117 157.43 199.406C161.768 203.269 164.939 208.418 166.444 214.023L165.996 215.378C161.116 211.784 157.479 206.518 155.844 200.666Z" fill="#FCF9EB" stroke="#EFEAD9" stroke-width="5" stroke-miterlimit="10" stroke-linecap="round" stroke-linejoin="round"/>
<path d="M120.353 116.256C120.353 116.256 119.03 81.6378 120.948 63.2579C122.866 44.8781 104.894 19.2517 87.7349 21.5496C70.5762 23.8474 69.5095 16.403 65.0645 22.6647C60.6195 28.9264 51.4382 36.6445 51.4138 53.6602C51.3894 70.6758 64.1938 83.2374 67.3956 85.6955C70.5974 88.1536 88.4642 98.9287 90.9932 100.481C93.5222 102.033 111.347 116.457 111.823 119.725L120.353 116.256Z" fill="#FCF9EB" stroke="#EFEAD9" stroke-width="5" stroke-miterlimit="10" stroke-linecap="round" stroke-linejoin="round"/>
<path d="M64.1325 27.3166C67.9763 45.0279 75.8035 61.8625 86.8701 76.2178C97.2828 89.7315 110.637 101.268 117.99 116.661" fill="#FCF9EB"/>
<path d="M64.1325 27.3166C67.9763 45.0279 75.8036 61.8625 86.8701 76.2178C97.2828 89.7315 110.637 101.268 117.99 116.661" stroke="#EFEAD9" stroke-width="5" stroke-miterlimit="10" stroke-linecap="round" stroke-linejoin="round"/>
<path d="M62.9127 27.8714C60.9232 34.7213 61.2163 42.0022 61.5259 49.1323C61.6384 51.7266 61.7612 54.3591 62.5671 56.8231C63.6518 60.1582 65.9109 62.9694 68.2124 65.6211C83.7429 83.517 103.195 97.8605 117.526 116.73" fill="#FCF9EB"/>
<path d="M62.9127 27.8714C60.9232 34.7213 61.2163 42.0022 61.5259 49.1323C61.6384 51.7266 61.7612 54.3591 62.5671 56.8231C63.6518 60.1582 65.9109 62.9694 68.2124 65.6211C83.7429 83.517 103.195 97.8605 117.526 116.73" stroke="#EFEAD9" stroke-width="5" stroke-miterlimit="10" stroke-linecap="round" stroke-linejoin="round"/>
<path d="M54.4958 63.3523C61.7148 73.802 73.692 79.6494 84.3901 86.5012C90.5016 90.4142 96.3297 94.7704 101.807 99.5293" fill="#FCF9EB"/>
<path d="M54.4958 63.3523C61.7148 73.802 73.692 79.6494 84.3901 86.5012C90.5016 90.4142 96.3297 94.7704 101.807 99.5293" stroke="#EFEAD9" stroke-width="5" stroke-miterlimit="10" stroke-linecap="round" stroke-linejoin="round"/>
<path d="M64.3091 28.8314C65.8305 25.4689 70.5929 24.7053 73.8975 26.3461C77.2022 27.987 79.3253 31.2681 81.1554 34.4731C86.8628 44.4571 91.2856 55.1191 95.4633 65.8371C101.963 82.5178 108.168 99.8463 120.015 113.266" fill="#FCF9EB"/>
<path d="M64.3091 28.8314C65.8305 25.4689 70.5929 24.7053 73.8975 26.3461C77.2022 27.987 79.3253 31.2681 81.1554 34.4731C86.8628 44.4571 91.2856 55.1191 95.4633 65.8371C101.963 82.5178 108.168 99.8463 120.015 113.266" stroke="#EFEAD9" stroke-width="5" stroke-miterlimit="10" stroke-linecap="round" stroke-linejoin="round"/>
<path d="M75.3674 22.5026C82.3069 26.4352 88.518 31.663 93.5682 37.8366C106.256 53.3265 111.053 73.6326 115.482 93.1593C116.692 98.4846 117.901 103.85 118.116 109.307" fill="#FCF9EB"/>
<path d="M75.3674 22.5026C82.3069 26.4352 88.518 31.663 93.5682 37.8366C106.256 53.3265 111.053 73.6326 115.482 93.1593C116.692 98.4846 117.901 103.85 118.116 109.307" stroke="#EFEAD9" stroke-width="5" stroke-miterlimit="10" stroke-linecap="round" stroke-linejoin="round"/>
<path d="M83.1422 21.7102C91.1565 25.6185 96.6771 33.2614 100.905 41.1098C111.061 59.9678 115.561 81.2691 119.943 102.235" fill="#FCF9EB"/>
<path d="M83.1422 21.7102C91.1565 25.6185 96.6771 33.2614 100.905 41.1098C111.061 59.9678 115.561 81.2691 119.943 102.235" stroke="#EFEAD9" stroke-width="5" stroke-miterlimit="10" stroke-linecap="round" stroke-linejoin="round"/>
<path d="M124.671 123.497C120.94 122.158 116.581 122.705 113.293 124.918L124.671 123.497Z" fill="#FCF9EB"/>
<path d="M124.671 123.497C120.94 122.158 116.581 122.705 113.293 124.918" stroke="#EFEAD9" stroke-width="5" stroke-miterlimit="10" stroke-linecap="round" stroke-linejoin="round"/>
</g>
<defs>
<clipPath id="clip0">
<rect width="185.004" height="185.004" fill="white" transform="translate(234.572 59.3452) rotate(108.71)"/>
</clipPath>
</defs>
</svg>
