<?xml version="1.0" encoding="utf-8"?>
<!-- Generator: Adobe Illustrator 24.1.0, SVG Export Plug-In . SVG Version: 6.00 Build 0)  -->
<svg version="1.1" id="Calque_1" xmlns="http://www.w3.org/2000/svg" xmlns:xlink="http://www.w3.org/1999/xlink" x="0px" y="0px"
	 viewBox="0 0 152 151.5" style="enable-background:new 0 0 152 151.5;" xml:space="preserve">
<style type="text/css">
	.st0{fill:#387F47;}
	.st1{fill:#FBF8E9;stroke:#030705;stroke-width:1.4;stroke-linecap:round;stroke-linejoin:round;stroke-miterlimit:10;}
	.st2{fill:#F9EF8E;stroke:#030705;stroke-width:1.4;stroke-linecap:round;stroke-linejoin:round;stroke-miterlimit:10;}
	.st3{fill:#397F48;stroke:#030705;stroke-width:1.4;stroke-linecap:round;stroke-linejoin:round;stroke-miterlimit:10;}
	.st4{fill:none;stroke:#030705;stroke-linecap:round;stroke-linejoin:round;stroke-miterlimit:10;}
	.st5{fill:#030705;}
	.st6{fill:none;stroke:#030705;stroke-width:1.4;stroke-linecap:round;stroke-linejoin:round;stroke-miterlimit:10;}
</style>
<circle class="st0" cx="75" cy="75" r="74.1"/>
<g>
	<path class="st1" d="M11.8,80.1c-3,2.2-4.7,5.9-4.2,9.4c0.2,1.4,0.7,2.9,0,4.3c-0.4,0.9-1.3,1.6-2,2.3c-0.2,0.2-0.5,0.5-0.4,0.8
		c0.2,0.4,0.8,0.4,1.2,0.1c0.4-0.2,0.7-0.6,1.1-0.8c-0.1,0.5-0.7,0.9-0.5,1.3c0.2,0.3,0.7,0.3,1,0.1c0.3-0.2,0.4-0.6,0.6-0.9
		c-0.1,0.7,0.4,1.4,1.1,1.7c0-0.7,0-1.3,0.1-2c0.2,0.4,0.6,0.8,1.1,1c0.3-0.8,0.1-1.7-0.1-2.5c-0.8-4.5,0.7-9.2,4-12.6"/>
	<path class="st2" d="M29.2,47.1c-6.8,1.8-13,7.7-15.9,16s-2,18.5,2.4,25.3c5.7,8.6,15.9,10.5,21.7,19c0.2,0.3,0.4,0.6,0.7,0.7
		c0.7,0.3,1.3-0.7,1.7-1.5c1.7-3,4.7-4.3,7.3-5.6c6-2.9,11.9-7.6,14.7-15c1.9-4.9,2.2-10.6,1.5-15.9c-0.8-5.3-2.6-10.3-4.8-14.9
		c-1.2-2.3-2.5-4.6-4.3-6.1c-1.7-1.4-3.8-2-5.8-2.5c-3.5-0.9-7.1-1.8-10.5-0.8c-0.4,0.1-0.9,0.3-1.3,0c-0.2-0.2-0.3-0.6-0.5-0.9
		c-0.4-1-0.9-2-1.6-2.8c-0.2-0.2-0.4-0.4-0.6-0.3c-0.2,0-0.3,0.2-0.4,0.4c-1.5,2.1-1.5,2.1-3,4.3L29.2,47.1z"/>
	<path class="st3" d="M36,45c5.7-4.5,13-6.4,20.2-6.4c0.1,0,0.2,0,0.3,0.1c0.1,0.1,0.2,0.2,0.2,0.4c0.1,0.8-0.4,1.6-0.9,2.2
		c-1.8,2.1-4.5,3.3-7.2,3.8c-2.7,0.5-5.5,0.3-8.2,0.1"/>
	<path class="st3" d="M33,42.6c-1.1-0.8-2.3-1.6-3.5-2.3c-3-1.6-6.5-2.4-9.8-1.8s-6.4,2.7-8,5.7c5.6,0.5,11.3,0.4,16.8-0.1
		c1.4-0.1,3-0.4,4-1.5"/>
	<path class="st4" d="M24.5,52.8"/>
	<path class="st4" d="M22.3,56.3"/>
	<path class="st4" d="M19.3,56"/>
	<g>
		<g>
			<path class="st5" d="M23.5,61.2c1.1,0,1.1-1.6,0-1.7C22.4,59.5,22.4,61.1,23.5,61.2L23.5,61.2z"/>
		</g>
	</g>
	<g>
		<g>
			<path class="st5" d="M19.8,61.1c1.1,0,1.1-1.6,0-1.7C18.8,59.4,18.7,61,19.8,61.1L19.8,61.1z"/>
		</g>
	</g>
	<g>
		<g>
			<path class="st5" d="M25.5,58.9c1.1,0,1.1-1.6,0-1.7C24.5,57.2,24.5,58.9,25.5,58.9L25.5,58.9z"/>
		</g>
	</g>
	<g>
		<g>
			<path class="st5" d="M22.2,64.7c1.1,0,1.1-1.6,0-1.7C21.2,63,21.2,64.7,22.2,64.7L22.2,64.7z"/>
		</g>
	</g>
	<g>
		<g>
			<path class="st5" d="M19.1,63.5c1.1,0,1.1-1.6,0-1.7C18.1,61.8,18,63.5,19.1,63.5L19.1,63.5z"/>
		</g>
	</g>
	<g>
		<g>
			<path class="st5" d="M15.4,67.7c0,0,0-0.1,0-0.1c0-0.1,0-0.2-0.1-0.3c0-0.1-0.1-0.2-0.2-0.3c-0.1-0.1-0.2-0.1-0.3-0.2
				c-0.1-0.1-0.2-0.1-0.3-0.1c-0.1,0-0.1,0-0.2,0c-0.1,0-0.3,0.1-0.4,0.2c0,0.1-0.1,0.1-0.1,0.2c-0.1,0.1-0.1,0.3-0.1,0.4
				c0,0,0,0.1,0,0.1c0,0.1,0,0.2,0.1,0.3c0,0.1,0.1,0.2,0.2,0.3c0.1,0.1,0.2,0.1,0.3,0.2c0.1,0.1,0.2,0.1,0.3,0.1c0.1,0,0.1,0,0.2,0
				c0.1,0,0.3-0.1,0.4-0.2c0-0.1,0.1-0.1,0.1-0.2C15.3,68,15.4,67.9,15.4,67.7L15.4,67.7z"/>
		</g>
	</g>
	<g>
		<g>
			<path class="st5" d="M16.4,71.8c0,0,0-0.1,0-0.1c0-0.1,0-0.2-0.1-0.3c0-0.1-0.1-0.2-0.2-0.3c-0.1-0.1-0.2-0.1-0.3-0.2
				c-0.1-0.1-0.2-0.1-0.3-0.1c-0.1,0-0.1,0-0.2,0c-0.1,0-0.3,0.1-0.4,0.2c0,0.1-0.1,0.1-0.1,0.2c-0.1,0.1-0.1,0.3-0.1,0.4
				c0,0,0,0.1,0,0.1c0,0.1,0,0.2,0.1,0.3c0,0.1,0.1,0.2,0.2,0.3c0.1,0.1,0.2,0.1,0.3,0.2c0.1,0.1,0.2,0.1,0.3,0.1c0.1,0,0.1,0,0.2,0
				c0.1,0,0.3-0.1,0.4-0.2c0-0.1,0.1-0.1,0.1-0.2C16.4,72,16.4,71.9,16.4,71.8L16.4,71.8z"/>
		</g>
	</g>
	<g>
		<g>
			<path class="st5" d="M18.5,68.1c0,0-0.1,0-0.1,0c-0.1,0-0.2,0-0.3,0.1c-0.1,0-0.2,0.1-0.3,0.2c-0.1,0.1-0.1,0.2-0.2,0.3
				c-0.1,0.1-0.1,0.2-0.1,0.3c0,0.1,0,0.1,0,0.2c0,0.1,0.1,0.3,0.2,0.4c0.1,0,0.1,0.1,0.2,0.1c0.1,0.1,0.3,0.1,0.4,0.1
				c0,0,0.1,0,0.1,0c0.1,0,0.2,0,0.3-0.1c0.1,0,0.2-0.1,0.3-0.2c0.1-0.1,0.1-0.2,0.2-0.3c0.1-0.1,0.1-0.2,0.1-0.3c0-0.1,0-0.1,0-0.2
				c0-0.1-0.1-0.3-0.2-0.4c-0.1,0-0.1-0.1-0.2-0.1C18.8,68.2,18.7,68.1,18.5,68.1L18.5,68.1z"/>
		</g>
	</g>
	<g>
		<g>
			<path class="st5" d="M17,67.6c1.1,0,1.1-1.6,0-1.7C16,66,15.9,67.6,17,67.6L17,67.6z"/>
		</g>
	</g>
	<g>
		<g>
			<path class="st5" d="M18.1,76.8c0,0,0.1,0.1,0.1,0.1c0.1,0.1,0.2,0.1,0.3,0.2c0.1,0.1,0.2,0.1,0.3,0.1c0.1,0,0.2,0,0.3-0.1
				c0.1,0,0.2-0.1,0.3-0.2c0-0.1,0.1-0.1,0.1-0.2c0.1-0.1,0.1-0.3,0.1-0.4c0-0.1,0-0.1,0-0.2c0-0.1-0.1-0.3-0.2-0.4
				c0,0-0.1-0.1-0.1-0.1c-0.1-0.1-0.2-0.1-0.3-0.2c-0.1-0.1-0.2-0.1-0.3-0.1c-0.1,0-0.2,0-0.3,0.1c-0.1,0-0.2,0.1-0.3,0.2
				c0,0.1-0.1,0.1-0.1,0.2c-0.1,0.1-0.1,0.3-0.1,0.4c0,0.1,0,0.1,0,0.2C17.9,76.6,18,76.7,18.1,76.8L18.1,76.8z"/>
		</g>
	</g>
	<g>
		<g>
			<path class="st5" d="M22.6,79c1.1,0,1.1-1.6,0-1.7C21.6,77.3,21.5,78.9,22.6,79L22.6,79z"/>
		</g>
	</g>
	<g>
		<g>
			<path class="st5" d="M24.4,81.7c1.1,0,1.1-1.6,0-1.7C23.4,80.1,23.4,81.7,24.4,81.7L24.4,81.7z"/>
		</g>
	</g>
	<g>
		<g>
			<path class="st5" d="M21.5,74c1.1,0,1.1-1.6,0-1.7C20.4,72.3,20.4,73.9,21.5,74L21.5,74z"/>
		</g>
	</g>
	<path class="st1" d="M28.1,99c2,2.9,1.8,9.5,1.6,13.1c0,0.1,0,0.3,0.1,0.3c0.1,0.1,0.2,0.1,0.3,0.1c2.9,0.3,5.9,0.3,8.8,0.2
		c0.1,0,0.3,0,0.4-0.1c0.2-0.1,0.2-0.4,0.1-0.7c-0.1-0.2-0.3-0.3-0.6-0.4c-2.1-1.1-4.7-1-7.1-1c0.4-2.8,0.5-5.7,0.1-8.5"/>
	<path class="st1" d="M42.3,103.8c0.7,1.6,1,3.4,1,5.2c0,0.9,0,2,0.7,2.4c0.3,0.2,0.7,0.2,1,0.2c2,0.1,4,0.1,5.8,0.8
		c0.7,0.2,1.4,0.5,2,0.1c0.7-0.5,0.4-1.6-0.2-2.1c-0.6-0.5-1.5-0.5-2.3-0.5c-1.5,0-3-0.1-4.5-0.1c-0.4-2.5-0.9-4.9-1.6-7.4"/>
	<path class="st1" d="M62.8,79.7c0.7,1.2,1.3,2.4,2,3.6c0.2,0.3,0.4,0.6,0.7,0.7c0.5,0.2,1-0.5,1.3-1c1.4-2.7,2.8-4.7,4.1-7.5l0.6-1
		c0.4-1.7,1-3.4,1.8-4.9c0.2,0.8,0.3,1.6,0.5,2.4c0.6-1.2,1.3-2.3,2.1-3.2c0.2,1.4,0,2.9-0.6,4.1c0.3-0.4,0.6-0.7,1.1-0.9
		c0.4-0.1,1,0.2,1,0.7c0,0.3-0.2,0.6-0.4,0.9c-0.8,1.1-1.2,1.2-2.2,2.2l-0.7,1.7c-1.5,3.6-3.2,6-5.3,9.2c-0.6,0.9-1.4,1.8-2.4,1.7
		c-0.5-0.1-0.8-0.4-1.2-0.7c-1.3-1.2-2.4-2.6-3.3-4.2"/>
</g>
<g>
	<path class="st1" d="M89,83.3c-1.2,1.5-2.4,2.9-3.5,4.4c-0.3,0.4-0.7,0.9-0.6,1.4c0.1,0.4,0.4,0.6,0.7,0.8c1.2,1,2.2,2.1,3,3.3
		c0.1,0.1,0.2,0.3,0.4,0.3c0.2,0,0.3-0.2,0.2-0.3l2.5,6.1l-1.9,0.9c-2,1-3.9,2-5.9,3c0.3-0.3,0.6-0.6,0.9-0.9
		c-0.7,0.5-1.5,0.6-2.3,0.5c0.3-1,1.2-1.7,2.3-1.8c-1.2,0.3-2.6,0.1-3.7-0.5c1.3-0.8,2.9-1.2,4.4-1.1c-1.9-0.5-3.8-1.3-5.5-2.4
		c2-2,5.4-1.5,8.2-0.9c-2.2-3-6.1-4.3-8.8-6.9c-0.2-0.2-0.4-0.4-0.4-0.7c0-0.2,0.1-0.4,0.3-0.6c2.9-4,6.1-7.7,9.6-11.2L89,83.3z"/>
	<g>
		<path class="st2" d="M121.1,57.5c6.5,1.7,12.5,7.4,15.3,15.3s2,17.8-2.3,24.3c-5.5,8.3-15.2,10.1-20.9,18.3
			c-0.2,0.3-0.4,0.6-0.6,0.7c-0.7,0.3-1.2-0.7-1.6-1.4c-1.6-2.9-4.5-4.1-7.1-5.4c-5.7-2.8-11.4-7.3-14.1-14.4
			c-1.8-4.7-2.1-10.2-1.4-15.3c0.7-5.1,2.5-9.9,4.6-14.3c1.1-2.2,2.4-4.4,4.1-5.8c1.7-1.4,3.7-1.9,5.6-2.4c3.3-0.9,6.8-1.8,10.1-0.7
			c0.4,0.1,0.9,0.3,1.3,0c0.2-0.2,0.3-0.5,0.4-0.8c0.4-1,0.9-1.9,1.6-2.7c0.2-0.2,0.3-0.4,0.5-0.3c0.2,0,0.3,0.2,0.4,0.4
			c1.4,2,1.4,2,2.8,4.1L121.1,57.5z"/>
		<path class="st3" d="M114.5,55.6c-5.5-4.3-12.5-6.1-19.4-6.2c-0.1,0-0.2,0-0.3,0.1c-0.1,0.1-0.1,0.2-0.2,0.4
			c-0.1,0.8,0.4,1.6,0.9,2.2c1.7,2.1,4.3,3.2,6.9,3.7c2.6,0.5,5.3,0.3,7.9,0.1"/>
		<path class="st3" d="M117.4,53.3c1.1-0.8,2.2-1.6,3.4-2.2c2.9-1.6,6.2-2.3,9.4-1.7c3.2,0.6,6.2,2.6,7.6,5.5
			c-5.4,0.5-10.8,0.4-16.2-0.1c-1.4-0.1-2.9-0.4-3.8-1.4"/>
		<path class="st6" d="M125.6,63"/>
		<path class="st6" d="M127.7,66.4"/>
		<path class="st6" d="M130.6,66.1"/>
		<g>
			<g>
				<path class="st5" d="M126.6,71.1c-1,0-1.1-1.6,0-1.6S127.6,71,126.6,71.1L126.6,71.1z"/>
			</g>
		</g>
		<g>
			<g>
				<path class="st5" d="M130.2,71c-1,0-1.1-1.6,0-1.6C131.1,69.4,131.2,71,130.2,71L130.2,71z"/>
			</g>
		</g>
		<g>
			<g>
				<path class="st5" d="M124.6,68.9c-1,0-1.1-1.6,0-1.6C125.6,67.3,125.7,68.9,124.6,68.9L124.6,68.9z"/>
			</g>
		</g>
		<g>
			<g>
				<path class="st5" d="M127.8,74.5c-1,0-1.1-1.6,0-1.6C128.8,72.9,128.8,74.5,127.8,74.5L127.8,74.5z"/>
			</g>
		</g>
		<g>
			<g>
				<path class="st5" d="M130.8,73.3c-1,0-1.1-1.6,0-1.6C131.8,71.7,131.8,73.3,130.8,73.3L130.8,73.3z"/>
			</g>
		</g>
		<g>
			<g>
				<path class="st5" d="M134.4,77.4c0,0,0-0.1,0-0.1c0-0.1,0-0.2,0.1-0.3c0-0.1,0.1-0.2,0.2-0.3c0.1-0.1,0.2-0.1,0.3-0.2
					c0.1-0.1,0.2-0.1,0.3-0.1c0.1,0,0.1,0,0.2,0c0.1,0,0.3,0.1,0.4,0.2c0,0.1,0.1,0.1,0.1,0.2c0.1,0.1,0.1,0.3,0.1,0.4
					c0,0,0,0.1,0,0.1c0,0.1,0,0.2-0.1,0.3c0,0.1-0.1,0.2-0.2,0.3c-0.1,0.1-0.2,0.1-0.3,0.2c-0.1,0.1-0.2,0.1-0.3,0.1
					c-0.1,0-0.1,0-0.2,0c-0.1,0-0.3-0.1-0.4-0.2c0-0.1-0.1-0.1-0.1-0.2C134.4,77.7,134.4,77.5,134.4,77.4L134.4,77.4z"/>
			</g>
		</g>
		<g>
			<g>
				<path class="st5" d="M133.4,81.3c0,0,0-0.1,0-0.1c0-0.1,0-0.2,0.1-0.3c0-0.1,0.1-0.2,0.2-0.3c0.1-0.1,0.2-0.1,0.3-0.2
					c0.1-0.1,0.2-0.1,0.3-0.1c0.1,0,0.1,0,0.2,0c0.1,0,0.3,0.1,0.4,0.2c0,0.1,0.1,0.1,0.1,0.2c0.1,0.1,0.1,0.3,0.1,0.4
					c0,0,0,0.1,0,0.1c0,0.1,0,0.2-0.1,0.3c0,0.1-0.1,0.2-0.2,0.3c-0.1,0.1-0.2,0.1-0.3,0.2c-0.1,0.1-0.2,0.1-0.3,0.1
					c-0.1,0-0.1,0-0.2,0c-0.1,0-0.3-0.1-0.4-0.2c0-0.1-0.1-0.1-0.1-0.2C133.4,81.5,133.4,81.4,133.4,81.3L133.4,81.3z"/>
			</g>
		</g>
		<g>
			<g>
				<path class="st5" d="M131.3,77.8c0,0,0.1,0,0.1,0c0.1,0,0.2,0,0.3,0.1c0.1,0,0.2,0.1,0.3,0.2c0.1,0.1,0.1,0.2,0.2,0.3
					c0.1,0.1,0.1,0.2,0.1,0.3c0,0.1,0,0.1,0,0.2c0,0.1-0.1,0.3-0.2,0.4c-0.1,0-0.1,0.1-0.2,0.1c-0.1,0.1-0.3,0.1-0.4,0.1
					c0,0-0.1,0-0.1,0c-0.1,0-0.2,0-0.3-0.1c-0.1,0-0.2-0.1-0.3-0.2c-0.1-0.1-0.1-0.2-0.2-0.3c-0.1-0.1-0.1-0.2-0.1-0.3
					c0-0.1,0-0.1,0-0.2c0-0.1,0.1-0.3,0.2-0.4c0.1,0,0.1-0.1,0.2-0.1C131.1,77.8,131.2,77.8,131.3,77.8L131.3,77.8z"/>
			</g>
		</g>
		<g>
			<g>
				<path class="st5" d="M132.8,77.3c-1,0-1.1-1.6,0-1.6C133.8,75.7,133.9,77.3,132.8,77.3L132.8,77.3z"/>
			</g>
		</g>
		<g>
			<g>
				<path class="st5" d="M131.8,86.1c0,0-0.1,0.1-0.1,0.1c-0.1,0.1-0.2,0.1-0.3,0.2c-0.1,0.1-0.2,0.1-0.3,0.1c-0.1,0-0.2,0-0.3-0.1
					c-0.1,0-0.2-0.1-0.3-0.2c0-0.1-0.1-0.1-0.1-0.2c-0.1-0.1-0.1-0.3-0.1-0.4c0-0.1,0-0.1,0-0.2c0-0.1,0.1-0.3,0.2-0.4
					c0,0,0.1-0.1,0.1-0.1c0.1-0.1,0.2-0.1,0.3-0.2c0.1-0.1,0.2-0.1,0.3-0.1c0.1,0,0.2,0,0.3,0.1c0.1,0,0.2,0.1,0.3,0.2
					c0,0.1,0.1,0.1,0.1,0.2c0.1,0.1,0.1,0.3,0.1,0.4c0,0.1,0,0.1,0,0.2C132,85.9,131.9,86,131.8,86.1L131.8,86.1z"/>
			</g>
		</g>
		<g>
			<g>
				<path class="st5" d="M127.4,88.2c-1,0-1.1-1.6,0-1.6C128.4,86.6,128.5,88.2,127.4,88.2L127.4,88.2z"/>
			</g>
		</g>
		<g>
			<g>
				<path class="st5" d="M125.7,90.9c-1,0-1.1-1.6,0-1.6S126.7,90.8,125.7,90.9L125.7,90.9z"/>
			</g>
		</g>
		<g>
			<g>
				<path class="st5" d="M128.5,83.4c-1,0-1.1-1.6,0-1.6C129.5,81.8,129.6,83.4,128.5,83.4L128.5,83.4z"/>
			</g>
		</g>
		<path class="st1" d="M122.1,107.4c-1.9,2.8-1.7,9.1-1.5,12.6c0,0.1,0,0.3-0.1,0.3c-0.1,0.1-0.2,0.1-0.3,0.1
			c-2.8,0.2-5.7,0.3-8.5,0.2c-0.1,0-0.3,0-0.4-0.1c-0.2-0.1-0.2-0.4-0.1-0.6c0.1-0.2,0.3-0.3,0.5-0.4c2.1-1.1,4.5-1,6.8-0.9
			c-0.4-2.7-0.5-5.5-0.1-8.2"/>
		<path class="st1" d="M108.5,112c-0.7,1.6-1,3.3-0.9,5c0,0.8,0,1.9-0.7,2.3c-0.3,0.2-0.6,0.2-1,0.2c-1.9,0.1-3.8,0.1-5.6,0.7
			c-0.6,0.2-1.4,0.5-1.9,0.1c-0.6-0.4-0.4-1.5,0.2-2c0.6-0.5,1.4-0.5,2.2-0.5c1.4,0,2.9-0.1,4.3-0.1c0.3-2.4,0.9-4.7,1.5-7.1"/>
	</g>
	<path class="st1" d="M136.3,85.4c2.4,2.6,3.2,4.2,5.2,7.1c-2.8,1.8-5.4,4-7.7,6.5c-0.3,0.3-0.6,0.7-0.7,1.2c-0.1,0.8,0.5,1.5,1.1,2
		c1.2,1.1,2.4,2.2,3.7,3.2c0.7,0.6,1.7,1.1,2.3,0.4c0.4-0.5,0.1-1.2-0.3-1.7c-0.4-0.5-1-0.8-1.3-1.4c1.1,0.8,2.7,0.6,3.7-0.3
		c-0.4-0.6-1-1-1.7-1.1c0.7,0.1,1.5-0.3,1.9-1c-0.7-0.4-1.5-0.4-2.3-0.1c0.9-0.1,1.7-0.6,2.1-1.4c-1.6,0-3.3,0.2-4.8,0.8
		c2.7-2,5.4-4,8-5.9c0.3-0.2,0.7-0.5,0.7-0.9c0-0.3-0.1-0.5-0.3-0.8c-2.7-4.6-5.6-9.2-8.7-13.6"/>
</g>
</svg>
