<?xml version="1.0" encoding="utf-8"?>
<!-- Generator: Adobe Illustrator 24.1.0, SVG Export Plug-In . SVG Version: 6.00 Build 0)  -->
<svg version="1.1" id="Calque_1" xmlns="http://www.w3.org/2000/svg" xmlns:xlink="http://www.w3.org/1999/xlink" x="0px" y="0px"
	 viewBox="0 0 152 151.5" style="enable-background:new 0 0 152 151.5;" xml:space="preserve">
<style type="text/css">
	.st0{fill:#CA5742;}
	.st1{fill:#FBF8E9;stroke:#030705;stroke-width:2;stroke-linecap:round;stroke-linejoin:round;stroke-miterlimit:10;}
	.st2{fill:#C65642;stroke:#030705;stroke-width:2;stroke-linecap:round;stroke-linejoin:round;stroke-miterlimit:10;}
	.st3{fill:#397F48;stroke:#030705;stroke-width:2;stroke-linecap:round;stroke-linejoin:round;stroke-miterlimit:10;}
	.st4{fill:#C75742;stroke:#010101;stroke-width:1.4;stroke-linecap:round;stroke-linejoin:round;}
	.st5{fill:#FCF9EB;stroke:#010101;stroke-width:1.4;stroke-linecap:round;stroke-linejoin:round;}
	.st6{fill:#3B8048;stroke:#010101;stroke-width:1.4;stroke-linecap:round;stroke-linejoin:round;}
	.st7{clip-path:url(#SVGID_2_);}
</style>
<circle class="st0" cx="76.5" cy="75.8" r="74.1"/>
<g>
	<path class="st1" d="M60.5,102.2c-0.8,4.3-0.7,8.6,0.5,12.9c0.2,0.8,0.4,1.8-0.3,2.2c-0.3,0.2-0.6,0.1-1,0.1
		c-4.8-0.4-10.2-1.3-14.2,1.4c-0.6,0.4-1.1,0.9-1.2,1.6c-0.1,0.7,0.5,1.4,1.2,1.7c0.7,0.3,1.4,0.2,2.1,0.2
		c5.3-0.3,10.6-1.3,15.9-0.7c0.7,0.1,1.6,0.1,2.1-0.4c0.5-0.6,0.4-1.5,0.2-2.3c-1.2-4.7-1-11.3,0.4-16"/>
	<path class="st1" d="M77.5,102.1c-0.7,4.8-0.4,13.1,0.6,17.8c-4.4,1.1-8.7,2.3-13,3.6c-1,0.3-2.2,0.8-2.4,1.9
		c6.9,1.2,13.9,1.3,20.8,0.3c-2.2-7.2-0.4-15,1.5-22.3"/>
	<path class="st2" d="M99.8,29.3c0,0,2.6-1.5,4.7-0.9c6.8,2.1,13.4,5.6,17.6,11.3c6.2,8.6,6.1,20.1,5.2,30.7
		c-0.5,5.2-1.1,10.5-2.8,15.5c-0.7,2.1-1.7,4.1-3.1,5.8c-1.3,1.6-3,2.9-4.7,4.1c-5.4,4-11.3,8.1-18,7.9c-2.3-0.1-4.5-0.7-6.7-1.1
		c-6.2-1.1-12.5-0.7-18.7-0.5c-8.2,0.3-16.6,0.1-24.5-2.2c-7.9-2.3-15.4-6.9-19.7-14c-4.4-7.2-4.9-16.1-4.5-24.6
		c0.4-8.7,1.9-17.8,7.1-24.8s14.8-11.4,22.9-8.1c0,0,7.2,4.1,15.6,3.7c8.4-0.4,16.5-4,20.3-2.6C94.3,30.9,99.8,29.3,99.8,29.3z"/>
	<path class="st1" d="M94.8,34.6c-0.5,1,0,2.3,0.8,3.1c0.8,0.8,1.8,1.3,2.8,1.9c5.3,3.2,8.3,9.3,10,15.3c1.7,6,2.3,12.3,4.4,18.2
		c1-2.1,0.8-4.5,0.6-6.8c-0.2-2.6-0.4-5.2-0.6-7.8c-0.4-5.3-0.9-10.9-3.8-15.3c-3-4.6-8.2-7.4-13.3-9.5c-0.5,0.4-0.9,1-0.9,1.7"/>
	<path class="st1" d="M58.1,38.1c-3.2,2.5-6,5.5-8.4,8.7c-2.7,3.6-4.9,7.6-7.8,11.1c-0.4,0.4-1,0.9-1.5,0.5c1.2-7.3,5.6-14,11.8-18
		C52.2,40.5,58.5,37,58.1,38.1z"/>
	<path class="st1" d="M120.7,66.5c3.4,3.7,6.6,7.6,9.5,11.7c-3.9,2.6-7.6,5.7-10.7,9.2c-0.4,0.5-0.9,1-1,1.7
		c-0.2,1.1,0.7,2.1,1.6,2.9c1.7,1.5,3.4,3,5.2,4.5c0.9,0.8,2.4,1.5,3.2,0.6c0.5-0.7,0.2-1.7-0.4-2.4c-0.6-0.6-1.4-1.1-1.8-1.9
		c1.6,1.1,3.8,0.8,5.2-0.5c-0.5-0.8-1.4-1.4-2.3-1.5c1,0.1,2.1-0.5,2.6-1.4c-1-0.6-2.2-0.6-3.2-0.2c1.2-0.1,2.3-0.9,2.9-1.9
		c-2.3-0.1-4.6,0.3-6.8,1.2c3.8-2.8,7.5-5.5,11.3-8.3c0.5-0.3,1-0.8,1-1.3c0-0.4-0.2-0.7-0.4-1.1c-3.8-6.5-7.9-12.9-12.2-19.1"/>
	<path class="st1" d="M24.5,62.3c-1.6,1.8-3.2,3.6-4.8,5.4c-0.5,0.5-0.9,1.2-0.8,1.8c0.1,0.5,0.5,0.8,0.8,1.1
		c1.5,1.3,2.7,2.8,3.7,4.5c0.1,0.2,0.2,0.4,0.4,0.4s0.4-0.2,0.3-0.4l2.9,7.9l-2.5,1c-2.6,1.2-5.1,2.4-7.7,3.5
		c0.4-0.4,0.8-0.7,1.2-1.1c-0.9,0.6-2,0.8-3,0.5c0.4-1.2,1.7-2.1,3-2.2c-1.6,0.3-3.3,0-4.7-0.8c1.7-1,3.8-1.4,5.8-1.2
		c-2.5-0.8-4.9-1.9-7-3.4c2.7-2.5,7-1.7,10.6-0.7c-2.7-4-7.7-5.8-11-9.3c-0.2-0.3-0.5-0.6-0.5-0.9c0-0.3,0.2-0.5,0.4-0.8
		c3.9-5,8.2-9.6,12.9-13.9L24.5,62.3z"/>
	<path class="st3" d="M60.5,26.6c-9,1.6-17.1,7.9-20.8,16.3c5.8-2.6,12-4.3,18.3-5c-1.7,6.2-5.3,20.8,0.4,19.1
		c7.5-5.1,7.9-10.5,11.8-15.7c0.5-0.6,1-1.3,1.8-1.6c0.8-0.3,1.6-0.2,2.4,0c8,1.8,14,9.1,22.1,10.6c1.7-5.7-5.8-8.4-9-12.4
		c5.3-0.6,10.6-0.8,15.8-0.6c-2.7-2.2-5.1-4.7-7.3-7.4c2.2-0.3,4.5-0.3,6.8,0.2c-2.4-2.6-6.4-3-9.9-2.9c-4.6,0.2-9.2,0.9-13.6,2.1
		L85,17.4c0.2-0.5,0.1-1.1-0.3-1.4c-0.6-0.5-1.3,0-1.9,0.5c-3.6,3.3-6.9,7.1-9.5,11.3c-5.3-4.9-12.6-7.5-19.8-7
		c-0.8,0.1-1.4,0.7-1.4,1.4c0,0.9,0.9,1.3,1.6,1.6c2.5,0.9,5,1.8,7.5,2.7"/>
</g>
<g>
	<path class="st4" d="M125.5,94.9c0.6-0.3,1.3-0.5,1.9-0.4c2.8,0.8,5.5,2.3,7.2,4.7c2.5,3.5,2.5,8.3,2.1,12.6
		c-0.1,2.2-0.5,4.3-1.2,6.4c-0.3,0.9-0.7,1.7-1.3,2.4c-0.6,0.6-1.2,1.2-1.9,1.7c-2.2,1.6-4.6,3.3-7.4,3.3c-0.9-0.1-1.9-0.2-2.8-0.4
		c-2.5-0.4-5.1-0.3-7.7-0.2c-3.4,0.1-6.8,0-10.1-0.9s-6.3-2.9-8.1-5.7s-2-6.6-1.8-10.1c0.2-3.6,0.8-7.3,2.9-10.2
		c2.1-2.9,6.1-4.7,9.4-3.3c2,1,4.2,1.6,6.4,1.5c3.5-0.2,6.8-1.6,8.3-1.1S125.5,94.9,125.5,94.9z"/>
	<path class="st5" d="M123.4,97.1c-0.2,0.4,0,0.9,0.3,1.3c0.3,0.3,0.7,0.6,1.1,0.8c2.2,1.3,3.4,3.8,4.1,6.3c0.7,2.5,0.9,5.1,1.8,7.5
		c0.3-0.9,0.4-1.9,0.3-2.8l-0.2-3.2c-0.2-2.2-0.4-4.5-1.6-6.3s-3.3-3-5.5-3.9c-0.2,0.2-0.3,0.4-0.4,0.7"/>
	<path class="st6" d="M109.4,93.8c-3.8,0.7-7,3.2-8.5,6.7c2.4-1.1,4.9-1.8,7.5-2.1c-0.7,2.6-2.2,8.5,0.2,7.8
		c3.1-2.1,3.2-4.3,4.9-6.5c0.2-0.3,0.4-0.5,0.7-0.7c0.3-0.1,0.7-0.1,1,0c3.3,0.7,5.8,3.7,9.1,4.4c0.7-2.3-2.4-3.5-3.7-5.1
		c2.2-0.2,4.3-0.3,6.5-0.3c-1.1-0.9-2.1-1.9-3-3c0.9-0.1,1.9-0.1,2.8,0.1c-1-1.1-2.6-1.2-4.1-1.2c-1.9,0.1-3.8,0.4-5.6,0.8l2.4-4.8
		c0.1-0.2,0.1-0.4-0.1-0.6c-0.2-0.2-0.5,0-0.8,0.2c-1.5,1.4-2.8,2.9-3.9,4.6c-2.2-2-5.2-3.1-8.1-2.9c-0.3,0-0.6,0.3-0.6,0.6
		c0,0.4,0.4,0.5,0.7,0.6l3.1,1.1"/>
	<path class="st4" d="M94.7,115.5c0.6-0.3,1.3-0.5,1.9-0.4c2.8,0.8,5.5,2.3,7.2,4.7c2.5,3.5,2.5,8.3,2.1,12.6
		c-0.1,2.2-0.5,4.3-1.2,6.4c-0.3,0.9-0.7,1.7-1.3,2.4c-0.6,0.6-1.2,1.2-1.9,1.7c-2.2,1.6-4.6,3.3-7.4,3.2c-0.9-0.1-1.8-0.2-2.7-0.4
		c-2.5-0.4-5.1-0.3-7.7-0.2c-3.4,0.1-6.8,0-10.1-0.9c-3.2-0.9-6.3-2.9-8.1-5.7c-1.7-2.9-2-6.6-1.8-10.1c0.2-3.6,0.8-7.3,2.9-10.2
		c2.1-2.9,6.1-4.7,9.4-3.3c2,1,4.2,1.6,6.4,1.5c3.5-0.2,6.8-1.6,8.3-1.1S94.7,115.5,94.7,115.5z"/>
	<path class="st5" d="M92.6,117.6c-0.1,0.4,0,0.9,0.3,1.2c0.3,0.3,0.7,0.6,1.1,0.8c2.2,1.3,3.4,3.8,4.1,6.3c0.7,2.5,0.9,5.1,1.8,7.5
		c0.3-0.9,0.4-1.9,0.3-2.8l-0.3-3.2c-0.2-2.2-0.4-4.5-1.6-6.3s-3.4-3-5.5-3.9c-0.2,0.2-0.3,0.4-0.4,0.7"/>
	<path class="st5" d="M77.5,119.1c-1.3,1-2.5,2.3-3.5,3.6c-1.1,1.5-2,3.1-3.2,4.6c-0.1,0.2-0.4,0.4-0.6,0.2c0.5-3,2.3-5.7,4.8-7.4
		C75.1,120.1,77.7,118.6,77.5,119.1z"/>
	<path class="st6" d="M78.5,114.3c-3.8,0.7-7,3.2-8.5,6.7c2.4-1.1,4.9-1.8,7.5-2.1c-0.7,2.6-2.2,8.6,0.2,7.8
		c3.1-2.1,3.2-4.3,4.9-6.5c0.2-0.3,0.4-0.5,0.7-0.7c0.3-0.1,0.7-0.1,1,0c3.3,0.7,5.8,3.7,9.1,4.4c0.7-2.3-2.4-3.5-3.7-5.1
		c2.2-0.2,4.3-0.3,6.5-0.3c-1.1-0.9-2.1-1.9-3-3c0.9-0.1,1.9-0.1,2.8,0.1c-1-1.1-2.6-1.2-4.1-1.2c-1.9,0.1-3.8,0.4-5.6,0.8l2.4-4.8
		c0.1-0.2,0.1-0.5-0.1-0.6c-0.2-0.2-0.5,0-0.8,0.2c-1.5,1.4-2.8,2.9-3.9,4.6c-2.2-2-5.2-3.1-8.1-2.9c-0.3,0-0.6,0.3-0.6,0.6
		c0,0.4,0.4,0.5,0.7,0.6l3.1,1.1"/>
</g>
<g>
	<defs>
		<circle id="SVGID_1_" cx="76.5" cy="75.8" r="74.1"/>
	</defs>
	<clipPath id="SVGID_2_">
		<use xlink:href="#SVGID_1_"  style="overflow:visible;"/>
	</clipPath>
	<g class="st7">
		<path class="st4" d="M34.8,104.4c0.6-0.3,1.3-0.5,1.9-0.4c2.8,0.8,5.5,2.3,7.2,4.7c2.5,3.5,2.5,8.3,2.1,12.6
			c-0.1,2.2-0.5,4.3-1.2,6.4c-0.3,0.9-0.7,1.7-1.3,2.4c-0.6,0.6-1.2,1.2-1.9,1.7c-2.2,1.6-4.6,3.3-7.4,3.2c-0.9-0.1-1.8-0.2-2.7-0.4
			c-2.5-0.4-5.1-0.3-7.7-0.2c-3.4,0.1-6.8,0-10.1-0.9s-6.3-2.9-8.1-5.7c-1.7-2.9-2-6.6-1.8-10.1c0.2-3.6,0.8-7.3,2.9-10.2
			s6.1-4.7,9.4-3.3c2,1,4.2,1.6,6.4,1.5c3.5-0.2,6.8-1.6,8.3-1.1S34.8,104.4,34.8,104.4z"/>
		<path class="st5" d="M32.7,106.6c-0.1,0.4,0,0.9,0.3,1.2c0.3,0.3,0.7,0.6,1.1,0.8c2.2,1.3,3.4,3.8,4.1,6.3
			c0.7,2.5,0.9,5.1,1.8,7.5c0.3-0.9,0.4-1.9,0.3-2.8l-0.3-3.2c-0.2-2.2-0.4-4.5-1.6-6.3c-1.2-1.8-3.4-3-5.5-3.9
			c-0.2,0.2-0.3,0.4-0.4,0.7"/>
		<path class="st5" d="M17.6,108c-1.3,1-2.5,2.3-3.5,3.6c-1.1,1.5-2,3.1-3.2,4.6c-0.1,0.2-0.4,0.4-0.6,0.2c0.5-3,2.3-5.7,4.8-7.4
			C15.2,109,17.8,107.6,17.6,108z"/>
		<path class="st6" d="M18.6,103.3c-3.8,0.7-7,3.2-8.5,6.7c2.4-1.1,4.9-1.8,7.5-2.1c-0.7,2.6-2.2,8.6,0.2,7.8
			c3.1-2.1,3.2-4.3,4.9-6.5c0.2-0.3,0.4-0.5,0.7-0.7c0.3-0.1,0.7-0.1,1,0c3.3,0.7,5.8,3.7,9.1,4.4c0.7-2.3-2.4-3.5-3.7-5.1
			c2.2-0.2,4.3-0.3,6.5-0.3c-1.1-0.9-2.1-1.9-3-3c0.9-0.1,1.9-0.1,2.8,0.1c-1-1.1-2.6-1.2-4.1-1.2c-1.9,0.1-3.8,0.4-5.6,0.8l2.4-4.8
			c0.1-0.2,0.1-0.5-0.1-0.6c-0.2-0.2-0.5,0-0.8,0.2c-1.5,1.4-2.8,2.9-3.9,4.6c-2.2-2-5.2-3.1-8.1-2.9c-0.3,0-0.6,0.3-0.6,0.6
			c0,0.4,0.4,0.5,0.7,0.6l3.1,1.1"/>
	</g>
</g>
</svg>
