<svg width="56" height="37" viewBox="0 0 56 37" fill="none" xmlns="http://www.w3.org/2000/svg">
<path d="M12.41 37C8.68698 37 5.6879 35.7251 3.41274 33.1754C1.13758 30.5236 0 27.005 0 22.6194C0 17.0099 1.65466 11.7575 4.96399 6.86194C8.27331 1.96642 12.3583 -1.65423 17.2188 -4L18.7701 -1.39926C16.7018 0.232584 14.8403 2.22139 13.1856 4.56716C11.6343 6.91293 10.3934 9.76865 9.4626 13.1343L12.7202 14.0522C16.0295 15.0721 18.615 16.602 20.4765 18.6418C22.4414 20.6816 23.4238 23.1803 23.4238 26.1381C23.4238 29.4017 22.3379 32.0535 20.1662 34.0933C17.9945 36.0311 15.409 37 12.41 37ZM44.9861 37C41.2632 37 38.2641 35.7251 35.9889 33.1754C33.7138 30.5236 32.5762 27.005 32.5762 22.6194C32.5762 17.0099 34.2308 11.7575 37.5402 6.86194C40.8495 1.96642 44.9344 -1.65423 49.795 -4L51.3463 -1.39926C49.2779 0.232584 47.4164 2.22139 45.7618 4.56716C44.2105 6.91293 42.9695 9.76865 42.0388 13.1343L45.2964 14.0522C48.6057 15.0721 51.1911 16.602 53.0526 18.6418C55.0175 20.6816 56 23.1803 56 26.1381C56 29.4017 54.9141 32.0535 52.7424 34.0933C50.5706 36.0311 47.9852 37 44.9861 37Z" fill="#E7E0CB"/>
</svg>
