<svg width="67" height="79" xmlns="http://www.w3.org/2000/svg">

 <g>
  <title>background</title>
  <rect fill="none" id="canvas_background" height="81" width="69" y="-1" x="-1"/>
 </g>
 <g>
  <title>Layer 1</title>
  <path id="svg_1" fill="#C75741" d="m34.6122,37.5643c0.488,0.4125 1.0374,0.7511 1.6297,1.0046c0.4906,0.2003 1.1348,-0.4081 0.6227,-0.8003l-1.6515,-1.2671l-0.6227,0.7902l3.6224,1.4824c0.115,0.0341 0.2386,0.0285 0.3499,-0.0157c0.1113,-0.0441 0.2034,-0.1243 0.2607,-0.2267c0.0573,-0.1025 0.0763,-0.221 0.0537,-0.3354c-0.0225,-0.1145 -0.0852,-0.2179 -0.1774,-0.2927c-1.1758,-0.7291 -2.2936,-1.5423 -3.3442,-2.433l-0.6227,0.7901l5.3462,2.5877c0.1205,0.0666 0.2633,0.084 0.3971,0.0485c0.1338,-0.0355 0.2476,-0.1211 0.3163,-0.2379c0.0687,-0.1167 0.0867,-0.2552 0.0501,-0.3848c-0.0366,-0.1297 -0.1249,-0.2399 -0.2454,-0.3065l-5.0372,-3.6494l-0.5181,0.8807l5.8383,3.2122l0.5286,-0.8706c-2.4165,-1.1114 -4.5937,-2.6566 -6.4163,-4.5538l-0.6227,0.8002l7.741,4.7614l0.5181,-0.8706c-2.6674,-1.3376 -5.1292,-3.029 -7.3145,-5.0255l-0.6226,0.8002l9.276,5.5238l0.5286,-0.8706c-3.3532,-2.0088 -6.7168,-4.0174 -9.2602,-6.9685l-0.6227,0.8003c3.6822,2.5276 7.4931,4.8744 11.4182,7.0316c0.119,0.0651 0.2596,0.0824 0.3916,0.048c0.132,-0.0343 0.2448,-0.1175 0.3142,-0.2317c0.0693,-0.1142 0.0895,-0.2501 0.0564,-0.3786c-0.0331,-0.1285 -0.117,-0.2392 -0.2336,-0.3084c-4.2059,-2.4424 -8.1299,-5.3141 -11.705,-8.5661l-0.5913,0.8204c3.929,2.8846 8.047,5.5192 12.3281,7.8871c0.1205,0.0679 0.2639,0.0866 0.3987,0.052c0.1347,-0.0346 0.2498,-0.1196 0.3199,-0.2364c0.0701,-0.1168 0.0895,-0.2558 0.0538,-0.3863c-0.0356,-0.1306 -0.1233,-0.2422 -0.2438,-0.3101c-2.308,-1.2909 -4.5212,-2.7346 -6.6241,-4.3207c-1.9126,-1.4379 -4.0132,-2.9661 -5.1775,-5.033l-0.7064,0.6995c4.7853,3.1756 9.1559,6.9789 14.5119,9.3746c0.1178,0.0511 0.2509,0.058 0.3737,0.0195c0.1227,-0.0386 0.2264,-0.1199 0.2908,-0.2282c0.0645,-0.1084 0.0852,-0.236 0.0582,-0.3583c-0.027,-0.1222 -0.0999,-0.2304 -0.2045,-0.3036c-5.1889,-3.1004 -10.051,-6.6869 -14.5166,-10.708l-0.633,0.8205c5.0105,3.8142 10.2815,7.2957 15.7769,10.4207c0.1205,0.0666 0.2633,0.084 0.3971,0.0485c0.1338,-0.0355 0.2476,-0.1211 0.3163,-0.2379c0.0687,-0.1167 0.0867,-0.2552 0.0501,-0.3848c-0.0366,-0.1297 -0.1249,-0.2399 -0.2454,-0.3065c-2.7574,-1.5562 -5.463,-3.2136 -8.0754,-5.0228c-2.6554,-1.6087 -5.0717,-3.5614 -7.1817,-5.8038l-0.6331,0.7901c5.507,3.9827 11.2641,7.63 17.238,10.9208c0.5849,0.301 1.1135,-0.5595 0.5182,-0.8807c-6.4953,-3.5482 -12.4707,-7.9238 -17.7666,-13.01l-0.7272,0.7198c6.4705,5.2064 13.4239,9.8219 20.7715,13.7875c0.1205,0.0665 0.2633,0.084 0.3971,0.0485c0.1338,-0.0355 0.2476,-0.1211 0.3163,-0.2379c0.0687,-0.1168 0.0867,-0.2552 0.0501,-0.3849c-0.0366,-0.1296 -0.1249,-0.2398 -0.2454,-0.3064c-6.9143,-3.8753 -13.851,-8.1646 -18.8031,-14.3096l-0.7064,0.6894c6.9,5.2702 14.18,10.0555 21.7844,14.3194c0.1205,0.0666 0.2634,0.084 0.3972,0.0485c0.1338,-0.0355 0.2475,-0.1211 0.3162,-0.2379c0.0687,-0.1168 0.0868,-0.2552 0.0502,-0.3849c-0.0367,-0.1296 -0.1249,-0.2398 -0.2454,-0.3064c-8.0943,-4.447 -16.3349,-8.9944 -22.3743,-16.0448l-0.7271,0.7198c7.0405,5.9146 14.7811,10.9979 23.059,15.1433l0.5182,-0.8706c-8.0711,-3.7904 -16.0404,-8.258 -21.8806,-14.9959l-0.7377,0.7097c4.1798,3.4805 8.5477,6.743 13.0853,9.7736c0.5433,0.3719 1.0406,-0.4987 0.5181,-0.8807c-4.4643,-2.9735 -8.7591,-6.179 -12.8657,-9.6026c-0.0994,-0.0831 -0.2275,-0.1268 -0.3587,-0.1224c-0.1313,0.0045 -0.2559,0.0567 -0.3491,0.1464c-0.0932,0.0897 -0.148,0.2101 -0.1536,0.3372c-0.0055,0.1272 0.0387,0.2516 0.1237,0.3485c5.8926,6.8085 13.9456,11.3667 22.1001,15.1568c0.5952,0.2808 1.1239,-0.5696 0.5182,-0.8706c-8.1987,-4.1093 -15.8684,-9.1415 -22.8501,-14.9925c-0.1005,-0.0818 -0.2293,-0.1237 -0.3604,-0.1175c-0.1312,0.0063 -0.2551,0.0603 -0.3469,0.1512c-0.0919,0.091 -0.145,0.2121 -0.1486,0.3393c-0.0037,0.1272 0.0423,0.2511 0.1288,0.3468c6.0915,7.0502 14.447,11.6882 22.5832,16.1855l0.5181,-0.8807c-7.6013,-4.2575 -14.881,-9.0325 -21.7843,-14.2891c-0.4076,-0.3016 -1.0414,0.2966 -0.7065,0.6894c5.0675,6.3365 12.0876,10.666 19.1797,14.6821l0.5181,-0.8807c-7.2906,-3.9161 -14.1916,-8.4777 -20.6145,-13.6265c-0.5018,-0.4023 -1.2187,0.2569 -0.7272,0.7198c5.3696,5.1529 11.4296,9.5828 18.0173,13.1709l0.5182,-0.8807c-5.9704,-3.2875 -11.724,-6.9314 -17.2276,-10.9108c-0.5225,-0.3618 -0.9786,0.3873 -0.6331,0.8003c2.0701,2.2064 4.4323,4.1377 7.0251,5.7438c2.7377,1.8694 5.5583,3.6072 8.4515,5.2438l0.5181,-0.8807c-5.4873,-3.131 -10.7512,-6.6158 -15.7561,-10.431c-0.4807,-0.3519 -1.041,0.4077 -0.6331,0.7902c4.5344,4.0771 9.4699,7.7141 14.736,10.8588l0.5182,-0.8706c-5.2935,-2.406 -9.6745,-6.1992 -14.4494,-9.3748c-0.4598,-0.3115 -0.9477,0.2761 -0.7169,0.6895c1.2064,2.1879 3.349,3.7765 5.3348,5.2748c2.1697,1.643 4.4527,3.1404 6.8331,4.4817l0.5285,-0.8807c-4.3068,-2.3587 -8.4463,-4.9935 -12.3906,-7.8869c-0.4807,-0.3418 -1.041,0.4077 -0.6227,0.8002c3.634,3.3108 7.6248,6.2332 11.9036,8.717l0.5286,-0.8706c-3.9686,-2.1177 -7.6986,-4.5797 -11.4286,-7.0316c-0.5225,-0.3518 -0.9786,0.3772 -0.6227,0.7901c2.5853,3.0216 6.043,5.0906 9.4587,7.1193c0.119,0.0651 0.2596,0.0824 0.3916,0.048c0.132,-0.0343 0.2449,-0.1175 0.3142,-0.2317c0.0693,-0.1142 0.0896,-0.2501 0.0564,-0.3786c-0.0331,-0.1285 -0.117,-0.2392 -0.2336,-0.3083l-9.2865,-5.5642c-0.1101,-0.061 -0.2394,-0.081 -0.3637,-0.0563c-0.1242,0.0248 -0.2349,0.0926 -0.3113,0.1907c-0.0764,0.0982 -0.1132,0.22 -0.1036,0.3426c0.0097,0.1225 0.0651,0.2375 0.1559,0.3233c2.2346,2.0573 4.7567,3.7999 7.4923,5.1764c0.1177,0.0511 0.2509,0.058 0.3736,0.0194c0.1228,-0.0385 0.2264,-0.1198 0.2909,-0.2281c0.0645,-0.1084 0.0852,-0.236 0.0582,-0.3583c-0.0271,-0.1222 -0.1,-0.2304 -0.2046,-0.3036l-7.741,-4.7715c-0.5223,-0.3214 -1.041,0.3875 -0.6226,0.8003c1.88,1.9495 4.1246,3.5356 6.6148,4.6743c0.119,0.0652 0.2596,0.0825 0.3916,0.0481c0.132,-0.0344 0.2448,-0.1176 0.3141,-0.2317c0.0694,-0.1142 0.0896,-0.2502 0.0565,-0.3787c-0.0331,-0.1284 -0.117,-0.2392 -0.2336,-0.3083l-5.8488,-3.2223c-0.5953,-0.3313 -1.0407,0.4986 -0.5181,0.8807l5.058,3.6493l0.5182,-0.8806l-5.3253,-2.5676c-0.5012,-0.2407 -1.0411,0.3976 -0.6227,0.7902c1.112,0.9496 2.2963,1.8167 3.5428,2.5939l0.4869,-0.8806l-3.5911,-1.4926c-0.4803,-0.2004 -1.1453,0.408 -0.6331,0.8002l1.6618,1.257l0.6227,-0.8002c-0.5111,-0.2067 -0.9867,-0.4878 -1.4102,-0.8336c-0.5123,-0.4225 -1.2499,0.2973 -0.7376,0.7198l0,0.0101z"/>
  <path id="svg_2" fill="#C75741" d="m35.2918,19.3651c4.5096,3.791 8.9574,7.6463 13.6009,11.3191c2.1353,1.6928 4.2911,3.3533 6.4982,4.9282c1.1192,0.8087 2.2486,1.5854 3.3986,2.3512c1.0456,0.5803 2.1923,0.9398 3.3734,1.0576c0.1092,0.0301 0.225,0.0222 0.3296,-0.0223c0.1045,-0.0445 0.1921,-0.1232 0.2492,-0.2241c0.0572,-0.101 0.0807,-0.2185 0.0671,-0.3346c-0.0137,-0.1161 -0.0637,-0.2244 -0.1425,-0.3083c-1.8053,-1.9184 -4.1453,-3.0437 -6.2178,-4.5549c-2.6632,-1.9261 -5.2441,-3.9701 -7.8147,-6.0142c-2.4048,-1.9163 -4.7855,-3.8719 -7.1423,-5.8669c-2.198,-1.8956 -5.0057,-3.7785 -6.5856,-6.2858l-0.5865,0.7933c1.4293,0.6555 2.7398,1.5586 3.8752,2.6704c1.2441,1.0721 2.4951,2.137 3.753,3.1948c2.488,2.08 5.0103,4.1171 7.5669,6.1113c2.5567,1.9942 5.1718,3.9704 7.8454,5.9286c1.3058,0.9578 2.6117,1.9798 3.9791,2.8304c1.1539,0.572 2.3701,0.9985 3.6222,1.2705c0.6002,0.2011 0.835,-0.6445 0.3894,-0.9744c-10.2912,-7.7699 -20.5001,-15.6256 -29.9988,-24.3714l-0.6173,0.8363c5.242,3.3606 9.7643,7.8252 14.7904,11.5181c5.026,3.6928 10.2991,7.0641 15.4283,10.6925l0.5136,-0.9214c-10.7771,-7.2288 -20.5456,-15.9517 -29.0326,-25.92521l-0.7313,0.76175c8.6059,9.12986 18.1406,17.27076 28.4378,24.28056c0.4869,0.3298 1.0321,-0.442 0.6172,-0.8469c-4.7176,-4.1431 -10.238,-7.3317 -15.2437,-11.0995c-5.1936,-3.8236 -10.0355,-8.1342 -14.4643,-12.87722l-0.6276,0.84692c9.794,7.4722 18.7345,16.1771 29.7002,21.742c0.1168,0.0541 0.2488,0.0614 0.3705,0.0206c0.1217,-0.0407 0.2245,-0.1268 0.2884,-0.2414c0.0639,-0.1147 0.0844,-0.2498 0.0576,-0.3792c-0.0268,-0.1294 -0.0991,-0.2439 -0.2029,-0.3214c-9.9276,-7.2366 -20.0729,-14.6648 -27.6019,-24.71123l-0.7004,0.72956c9.9397,7.72837 18.7269,16.95777 29.2528,23.82867c0.5698,0.3722 1.0318,-0.5276 0.5135,-0.9321c-8.5126,-6.4286 -16.3936,-13.7074 -23.5293,-21.73143l-0.6276,0.83624c4.0198,2.64849 7.433,6.22939 11.0928,9.38169c3.6598,3.1524 7.2567,6.059 11.091,8.8685c0.5492,0.4044 1.0318,-0.5168 0.5239,-0.9214c-7.9482,-6.2645 -15.4795,-13.0757 -22.5427,-20.38754l-0.6276,0.83624c7.1498,5.0435 12.9824,11.7703 20.1733,16.7602c0.5699,0.383 1.0318,-0.5275 0.5239,-0.9321c-5.9705,-4.6699 -11.443,-9.9846 -16.3249,-15.85406l-0.638,0.83628c6.6426,4.83138 12.5244,10.87378 18.5804,16.44498l0.7209,-0.7617c-6.183,-5.1311 -11.9769,-10.7447 -17.3309,-16.79153l-0.6274,0.8897c3.1088,2.24535 6.0224,4.83353 8.9666,7.32543l8.8327,7.4542l0.7313,-0.7618c-5.177,-4.2857 -10.0279,-8.9769 -14.5098,-14.03187l-0.7312,0.76175c5.2939,4.40842 10.5569,8.86682 15.7892,13.37522l0.7312,-0.7618c-2.5709,-2.1296 -5.0973,-4.352 -7.5792,-6.6673c-2.2607,-2.0772 -5.1832,-4.25906 -6.4749,-7.12025l-0.7003,0.72956c4.1457,3.19339 8.216,6.49399 12.2109,9.90179l0.7313,-0.7511c-4.3156,-3.3976 -8.2843,-7.24259 -11.8443,-11.47488l-0.6172,0.84689c4.3628,3.19264 8.4172,6.87819 12.4405,10.53189l0.7312,-0.7618c-3.7542,-3.016 -7.2737,-6.33234 -10.5261,-9.91833l-0.6276,0.84693c3.9111,3.10155 7.7433,6.296 11.4966,9.5835l0.7312,-0.7618c-3.1824,-2.6518 -6.2091,-5.4978 -9.0638,-8.52265l-0.6172,0.84689c3.2915,2.15546 6.4264,4.55686 9.3796,7.18496l0.6276,-0.8362c-3.1852,-2.378 -6.1715,-5.02883 -8.9274,-7.92438l-0.6276,0.84693c2.4576,1.62497 4.8179,3.40215 7.0681,5.32175c0.508,0.426 1.2394,-0.293 0.7313,-0.751c-2.1918,-1.98472 -4.1933,-4.18357 -5.9768,-6.566l-0.6276,0.83624l7.1721,5.51386c0.4768,0.3619 1.0322,-0.4313 0.6276,-0.8469l-3.9623,-3.93185l-0.6172,0.84689l3.274,2.19131c0.4973,0.34045 1.0322,-0.42062 0.6172,-0.8362l-2.3341,-2.42983l-0.6173,0.84689l2.392,1.21064c0.1092,0.06463 0.2374,0.08585 0.3606,0.05969c0.1232,-0.02616 0.2329,-0.09791 0.3087,-0.2018c0.0757,-0.10389 0.1122,-0.23278 0.1026,-0.36252c-0.0096,-0.12975 -0.0646,-0.25144 -0.1547,-0.34226l-1.0374,-1.06567l-0.493,0.89992c0.3488,0.04741 0.6802,0.18611 0.9627,0.40297c0.0685,0.04019 0.1449,0.06368 0.2234,0.06868c0.0785,0.005 0.1572,-0.00861 0.2298,-0.03981c0.0727,-0.0312 0.1375,-0.07915 0.1895,-0.1402c0.0521,-0.06105 0.0899,-0.13359 0.1108,-0.21208c0.0507,-0.13336 0.0749,-0.2759 0.0713,-0.41916c-0.0036,-0.14327 -0.035,-0.28432 -0.0924,-0.41479c-0.0573,-0.13047 -0.1394,-0.24769 -0.2414,-0.34469c-0.102,-0.09701 -0.2218,-0.17182 -0.3523,-0.21999c-0.6005,-0.28661 -1.1244,0.63481 -0.5239,0.92142l0.1454,0.20266l0.7638,-0.32345c-0.3754,-0.24203 -0.7888,-0.41429 -1.2215,-0.509c-0.1085,-0.02661 -0.2223,-0.01624 -0.3246,0.02955c-0.1022,0.0458 -0.1875,0.12457 -0.2429,0.22456c-0.0554,0.1 -0.0782,0.21587 -0.0647,0.33033c0.0134,0.11445 0.0622,0.22137 0.1391,0.30479l0.9857,1.06585l0.6276,-0.83624l-2.3506,-1.21078c-0.1078,-0.05716 -0.2316,-0.07332 -0.3497,-0.04568c-0.1182,0.02765 -0.2232,0.09734 -0.2967,0.19693c-0.0735,0.09958 -0.1108,0.22272 -0.1055,0.34791c0.0053,0.12519 0.053,0.24448 0.1347,0.33704l2.3341,2.41914l0.6173,-0.8362l-3.274,-2.202c-0.4973,-0.32975 -1.0322,0.42062 -0.6276,0.84693l3.9623,3.9319l0.6275,-0.847l-7.1722,-5.54595c-0.5182,-0.39383 -0.9495,0.40964 -0.6276,0.83624c1.789,2.36114 3.7901,4.54171 5.9766,6.51251l0.7312,-0.7511c-2.3245,-1.9887 -4.7608,-3.83331 -7.2961,-5.52411c-0.1091,-0.05404 -0.2329,-0.06762 -0.3505,-0.03848c-0.1176,0.02913 -0.2219,0.09922 -0.2955,0.19851c-0.0736,0.09928 -0.1119,0.22172 -0.1085,0.34679c0.0033,0.12506 0.0481,0.24515 0.1269,0.34011c2.8202,2.95508 5.8759,5.65938 9.1347,8.08398c0.4767,0.3513 1.0837,-0.4528 0.6276,-0.8362c-3.0231,-2.6917 -6.2306,-5.15346 -9.5973,-7.36598c-0.5076,-0.31902 -1.0322,0.40993 -0.6173,0.84689c2.8473,3.04579 5.8707,5.90979 9.0537,8.57619c0.508,0.4366 1.2393,-0.3144 0.7313,-0.7617c-3.8085,-3.3087 -7.7063,-6.53503 -11.6934,-9.67909c-0.4872,-0.39393 -1.0322,0.40994 -0.6173,0.83621c3.2609,3.58098 6.7835,6.89698 10.5365,9.91828c0.508,0.426 1.2393,-0.3037 0.7313,-0.7617c-4.1476,-3.7067 -8.2332,-7.45631 -12.6684,-10.6487c-0.5078,-0.37248 -0.9598,0.40968 -0.6172,0.84689c3.5669,4.21041 7.5427,8.03051 11.8647,11.40001c0.5184,0.4366 1.2496,-0.3145 0.7313,-0.7511c-4.0709,-3.4716 -8.2241,-6.82898 -12.4596,-10.07197c-0.4561,-0.36196 -0.8879,0.3025 -0.7004,0.72957c1.2917,2.8612 4.0485,4.9474 6.2264,7.0035c2.5925,2.4076 5.2365,4.7436 7.9318,7.0083c0.5184,0.4366 1.2497,-0.3145 0.7313,-0.7618c-5.1909,-4.5014 -10.4367,-8.9563 -15.7375,-13.36467c-0.0976,-0.10033 -0.2298,-0.15643 -0.3674,-0.15595c-0.1377,0.00048 -0.2695,0.0575 -0.3664,0.15852c-0.097,0.10101 -0.1512,0.23774 -0.1507,0.38012c0.0005,0.14238 0.0556,0.27873 0.1533,0.37906c4.4913,5.04252 9.3452,9.72612 14.52,14.01052c0.5183,0.4259 1.2496,-0.3252 0.7312,-0.7618l-9.2267,-7.8057c-2.882,-2.4386 -5.7231,-4.96289 -8.78,-7.15496c-0.5077,-0.36178 -1.0322,0.40994 -0.6276,0.83624c5.3604,6.04402 11.1575,11.65742 17.3412,16.79152c0.508,0.4152 1.229,-0.293 0.7209,-0.7617c-6.1182,-5.6352 -12.0622,-11.7201 -18.7773,-16.60474c-0.5078,-0.37248 -0.9805,0.40975 -0.6276,0.84693c4.9382,5.91251 10.4658,11.26951 16.4908,15.98181l0.5239,-0.9321c-7.1907,-4.9364 -13.0233,-11.6633 -20.1731,-16.70678c-0.4974,-0.35113 -1.0322,0.42063 -0.6275,0.84693c7.1476,7.37305 14.769,14.23775 22.8119,20.54695l0.524,-0.9214c-3.9796,-2.9587 -7.8632,-6.0782 -11.6509,-9.3584c-3.4732,-3.0139 -6.7617,-6.3921 -10.5639,-8.89168c-0.5077,-0.3404 -1.0322,0.40994 -0.6173,0.83621c7.2012,8.09277 15.1553,15.43237 23.7471,21.91247l0.5135,-0.9321c-10.4948,-6.8603 -19.3234,-16.1109 -29.2527,-23.81796c-0.4042,-0.30868 -1.0325,0.3244 -0.7003,0.72957c7.6432,10.19579 17.8821,17.75199 27.9754,25.09489l0.5136,-0.9214c-10.9657,-5.5648 -19.9372,-14.2803 -29.6899,-21.7527c-0.4871,-0.37255 -1.0322,0.42062 -0.6276,0.8469c4.2659,4.5753 8.9194,8.746 13.9047,12.4622c2.5082,1.916 5.078,3.7462 7.658,5.5443c2.8174,1.8325 5.5365,3.822 8.1453,5.9596l0.6173,-0.8362c-10.2159,-6.9657 -19.6771,-15.049 -28.2201,-24.11028c-0.4771,-0.4902 -1.1671,0.25001 -0.7312,0.76175c8.5536,10.03933 18.3991,18.81623 29.2606,26.08483c0.5595,0.3723 1.0318,-0.5383 0.5136,-0.9214c-5.0879,-3.6285 -10.3609,-6.9998 -15.387,-10.7034c-5.0261,-3.7036 -9.5794,-8.1466 -14.8317,-11.5072c-0.4973,-0.3191 -1.0321,0.4313 -0.6276,0.8362c9.5714,8.8203 19.8527,16.7186 30.175,24.4884l0.3894,-0.9744c-1.3822,-0.324 -2.711,-0.8561 -3.9438,-1.5795c-1.347,-0.9363 -2.6734,-1.9047 -3.9999,-2.8731c-2.7149,-1.9367 -5.3922,-3.9519 -8.0318,-6.0456c-2.6397,-2.0937 -5.2692,-4.2409 -7.8886,-6.4417c-2.0735,-1.7784 -4.1486,-4.006 -6.7672,-5.0234c-0.0968,-0.022 -0.1976,-0.0153 -0.2909,0.0194c-0.0933,0.0346 -0.1752,0.0956 -0.2365,0.1762c-0.0612,0.0806 -0.0992,0.1774 -0.1097,0.2794c-0.0104,0.1019 0.0071,0.2048 0.0506,0.2969c1.5276,2.3472 3.973,4.0602 6.0569,5.8386c2.4813,2.1299 4.9865,4.2028 7.5156,6.2184c2.384,1.8951 4.8024,3.7614 7.2551,5.5992c2.3629,1.7775 5.179,3.0936 7.1816,5.2679l0.5033,-0.8893c-0.4448,-0.1053 -0.8791,-0.1466 -1.3238,-0.2092c-0.8075,-0.1633 -1.5644,-0.5277 -2.2053,-1.0616c-1.0362,-0.7128 -2.1448,-1.4574 -3.2017,-2.2129c-2.3316,-1.6814 -4.6014,-3.4378 -6.8404,-5.2371c-4.3432,-3.4921 -8.5835,-7.1236 -12.8546,-10.7122c-0.508,-0.4366 -1.2393,0.3251 -0.7209,0.7617l-0.0411,0.0643z"/>
  <path id="svg_3" fill="#C75741" d="m34.0558,6.98309c5.1358,4.57251 10.4848,8.88571 16.0472,12.93971c5.0483,3.661 10.075,7.1754 16.0863,9.0828c0.4746,0.1451 0.9251,-0.5587 0.5026,-0.8821c-8.8733,-6.97 -17.4634,-14.2553 -25.7804,-21.81413c-0.0853,-0.07845 -0.1931,-0.12847 -0.3083,-0.1431c-0.1153,-0.01462 -0.2322,0.00687 -0.3346,0.0615l-0.9484,-0.08053c-0.0917,-0.08733 -0.212,-0.13877 -0.3389,-0.14484c-0.1268,-0.00608 -0.2515,0.03361 -0.3512,0.11176c-0.0998,0.07816 -0.1678,0.18952 -0.1915,0.31359c-0.0238,0.12407 -0.0017,0.2525 0.0621,0.36166c1.2727,2.44798 4.0706,4.23039 6.2043,5.86839c2.3622,1.8541 4.8304,3.5707 7.3921,5.141c2.5969,1.5316 5.2774,2.9056 7.8743,4.4372c1.9857,1.3068 4.0594,2.4762 6.2065,3.4998c0.1112,0.0529 0.2373,0.0662 0.3571,0.0376c0.1199,-0.0286 0.2263,-0.0973 0.3013,-0.1946c0.0749,-0.0973 0.114,-0.2173 0.1106,-0.3399c-0.0034,-0.1226 -0.049,-0.2403 -0.1293,-0.3333c-0.878,-1.045 -1.5038,-2.269 -2.4028,-3.272c-1.6916,-1.7496 -3.4917,-3.3919 -5.3897,-4.9175c-1.8809,-1.6389 -3.7933,-3.2567 -5.6322,-4.9376c-0.8774,-0.8878 -1.8179,-1.7124 -2.685,-2.64216c-0.867,-0.92973 -2.7155,-2.32766 -2.8461,-3.53246l-0.6303,0.50527c1.2591,0.41073 2.4073,1.10214 3.357,2.02148c0.9614,0.78268 1.9229,1.58632 2.9792,2.41057c1.9371,1.6561 3.7902,3.3964 5.5594,5.2208c0.4652,0.491 1.2106,-0.2557 0.7348,-0.7466c-1.9946,-2.0549 -4.0972,-4.0032 -6.299,-5.83663c-0.9508,-0.79319 -1.9227,-1.55487 -2.905,-2.30603c-0.8985,-0.83298 -1.9842,-1.44008 -3.1666,-1.77062c-0.3057,-0.06182 -0.7053,0.1387 -0.6619,0.50537c0.1857,0.92014 0.6697,1.75423 1.3778,2.37425c0.8778,0.98209 1.7976,1.9326 2.749,2.86206c2.0084,1.9528 4.1428,3.7899 6.2666,5.6271c2.1239,1.8371 4.2261,3.5276 6.0975,5.4704c1.0571,1.0444 1.7785,2.4777 2.7517,3.6376l0.6397,-0.8197c-1.9312,-0.9061 -3.7938,-1.9504 -5.5731,-3.1247c-2.5125,-1.5213 -5.1193,-2.8747 -7.6632,-4.3331c-2.4859,-1.4609 -4.8835,-3.0658 -7.1803,-4.8064c-1.278,-0.9597 -2.535,-1.9405 -3.7501,-2.96335c-1.2648,-0.90371 -2.342,-2.04235 -3.172,-3.35315l-0.8195,0.63169c0.289,0.27988 0.6636,0.45584 1.0644,0.5c0.4009,0.04417 0.8051,-0.046 1.1487,-0.2562l-0.6324,-0.08164c8.349,7.63205 16.939,14.91745 25.8229,21.90835l0.5026,-0.8822c-5.9164,-1.8763 -10.8588,-5.37 -15.8332,-8.9788c-5.4709,-4.0369 -10.7531,-8.3154 -15.836,-12.81473c-0.4966,-0.44892 -1.2526,0.28735 -0.7347,0.77812z"/>
  <path id="svg_56" fill="#C75741" d="m2.0725,59.1008c3.67055,3.0697 7.73448,5.7934 12.1187,8.122l0.6293,-0.8921c-4.5203,-1.9299 -8.91151,-4.0632 -13.15428,-6.3904c-0.11916,-0.0574 -0.25789,-0.08 -0.3943,-0.0644c-0.13641,0.0157 -0.26275,0.0688 -0.3591,0.151c-0.09635,0.0821 -0.15723,0.1887 -0.17304,0.3028c-0.01582,0.1142 0.01434,0.2294 0.08572,0.3276c2.34657,3.095 5.38245,5.7856 8.94353,7.9262l0.61687,-0.8921l-9.2307,-4.945c-0.11798,-0.0543 -0.25399,-0.075 -0.38743,-0.0589c-0.13344,0.016 -0.25703,0.0679 -0.35207,0.1478c-0.09503,0.0798 -0.15632,0.1833 -0.17459,0.2948c-0.01828,0.1114 0.00747,0.2248 0.07333,0.3229c1.60982,1.9823 3.39017,3.8644 5.32702,5.6312l0.75355,-0.8201c-1.87159,-0.9508 -3.68384,-1.9806 -5.42973,-3.0853c-0.63382,-0.4014 -1.23828,0.501 -0.6169,0.892c1.73993,1.1115 3.55397,2.1399 5.41733,3.0854c0.63353,0.3186 1.23865,-0.3975 0.75356,-0.8201c-1.87794,-1.697 -3.60424,-3.5067 -5.16505,-5.4145l-0.84072,0.7169l9.23073,4.9451c0.68327,0.3701 1.23827,-0.5114 0.61687,-0.8921c-3.3799,-2.0508 -6.26271,-4.6179 -8.49583,-7.5656l-0.84072,0.7169c4.24035,2.3216 8.62728,4.4514 13.14185,6.3801c0.1415,0.0667 0.3088,0.0843 0.4658,0.049c0.1571,-0.0352 0.2913,-0.1205 0.3738,-0.2375c0.0825,-0.117 0.1067,-0.2563 0.0674,-0.3879c-0.0393,-0.1316 -0.1391,-0.245 -0.2777,-0.3157c-4.2841,-2.2846 -8.25605,-4.9529 -11.84531,-7.9574c-0.11818,-0.0851 -0.27055,-0.1299 -0.42665,-0.1252c-0.1561,0.0046 -0.30443,0.0582 -0.41534,0.1501c-0.11091,0.0919 -0.17622,0.2153 -0.18287,0.3455c-0.00666,0.1303 0.04583,0.2577 0.14697,0.357z"/>
  <path id="svg_57" fill="#C75741" d="m33.4822,37.6094l0.4856,1.0537l0.8629,-0.6362c-0.5274,-0.4114 -1.1018,-0.7635 -1.712,-1.0494c-0.4498,-0.2201 -1.0942,0.2571 -0.7531,0.7203l1.4413,1.9474l0.8629,-0.6468c-1.1638,-0.8741 -2.3806,-1.6804 -3.6441,-2.4147c-0.5487,-0.3252 -1.0938,0.3943 -0.6542,0.8255c0.5445,0.6064 1.0375,1.2541 1.4742,1.9368l0.8628,-0.6468c-1.0217,-0.8474 -2.1243,-1.5997 -3.2931,-2.2471c-0.5486,-0.3147 -1.0937,0.3943 -0.6541,0.8361l4.3969,4.7339l0.7749,-0.752c-1.7567,-1.3026 -3.5573,-2.6261 -5.4123,-3.8439c-0.5378,-0.3464 -1.0936,0.4049 -0.665,0.8361l4.8688,5.0278l0.7639,-0.752c-2.0479,-1.8259 -4.293,-3.435 -6.6968,-4.7998c-0.1142,-0.0564 -0.2454,-0.0723 -0.3705,-0.045c-0.1252,0.0273 -0.2365,0.0962 -0.3144,0.1945c-0.0779,0.0983 -0.1175,0.2198 -0.1119,0.3434c0.0056,0.1235 0.0561,0.2413 0.1426,0.3326l5.6366,5.3628l0.7639,-0.7414l-8.2129,-6.1982c-0.1057,-0.0758 -0.2362,-0.1123 -0.3677,-0.1029c-0.1314,0.0095 -0.2549,0.0643 -0.3478,0.1545c-0.0929,0.0901 -0.1489,0.2095 -0.1578,0.3362c-0.0089,0.1268 0.0299,0.2523 0.1093,0.3537c2.9471,3.1581 6.2107,6.0279 9.7434,8.5674c0.5708,0.3991 1.0933,-0.5104 0.5553,-0.9201c-3.7986,-2.7449 -7.6226,-5.4579 -11.4721,-8.1393c-0.5598,-0.3779 -1.0061,0.4046 -0.6651,0.8361c3.3755,4.1436 7.2318,7.9013 11.4937,11.1998c0.5381,0.4203 1.3131,-0.3001 0.764,-0.752c-4.9202,-4.0566 -9.8985,-8.0392 -14.935,-11.9476c-0.1044,-0.0869 -0.239,-0.1326 -0.3768,-0.1279c-0.1379,0.0046 -0.2688,0.0593 -0.3667,0.1529c-0.0979,0.0937 -0.1555,0.2195 -0.1614,0.3524c-0.0058,0.1328 0.0406,0.2628 0.13,0.364c4.3987,5.2616 9.7908,9.6016 15.1171,13.9417l0.7749,-0.752c-5.7391,-4.4267 -11.5546,-8.7651 -17.4464,-13.0154c-0.4172,-0.3046 -0.8864,0.1931 -0.7974,0.5938c0.3341,1.582 1.7947,2.7589 2.9156,3.8737c1.4396,1.4409 2.9337,2.8288 4.4607,4.206c3.0977,2.7226 6.3261,5.2549 9.5438,7.861l0.7749,-0.7415l-18.3482,-14.1098c-0.1057,-0.0759 -0.2363,-0.1124 -0.3677,-0.103c-0.1315,0.0095 -0.255,0.0643 -0.3478,0.1545c-0.0929,0.0901 -0.149,0.2095 -0.1579,0.3363c-0.0089,0.1267 0.03,0.2523 0.1094,0.3536c5.1548,5.839 10.9078,11.1616 17.1717,15.887c0.5381,0.4097 1.324,-0.3212 0.764,-0.752c-7.1742,-5.6037 -14.1884,-11.3944 -21.0426,-17.3721c-0.1044,-0.0869 -0.239,-0.1325 -0.3768,-0.1279c-0.1379,0.0046 -0.2689,0.0593 -0.3668,0.1529c-0.0979,0.0937 -0.1555,0.2195 -0.1613,0.3524c-0.0058,0.1328 0.0406,0.2628 0.13,0.364c6.3465,7.5816 13.8114,14.226 22.1568,19.7218c0.5818,0.399 1.0933,-0.5104 0.5444,-0.9095c-8.3749,-6.1208 -16.3218,-12.767 -23.78915,-19.8955c-0.41757,-0.4102 -1.22605,0.1309 -0.85195,0.6362c6.888,9.3795 16.0252,16.8303 25.4018,23.8687l0.6542,-0.8361c-10.3856,-7.457 -19.8769,-15.9725 -29.19352,-24.6258c-0.42848,-0.3996 -1.23696,0.1415 -0.86287,0.6468c7.82289,10.5266 17.99339,19.1241 28.82829,26.6746l0.5444,-0.9096c-11.1411,-7.4121 -21.17,-16.2213 -30.91502,-25.2636c-0.52733,-0.4837 -1.20381,0.2258 -0.77492,0.7415c9.08354,10.9126 20.20984,20.3829 31.85764,28.6376l0.5553,-0.9096c-11.2553,-8.0525 -21.9596,-16.7966 -32.04615,-26.1779c-0.4394,-0.389 -1.24787,0.1521 -0.86287,0.6468c8.08548,10.4729 19.14122,18.5397 29.51872,26.82l0.764,-0.7415c-9.9484,-7.7013 -19.8316,-15.54 -28.99444,-24.0672c-0.09366,-0.0913 -0.21867,-0.1466 -0.35161,-0.1555c-0.13294,-0.0088 -0.26468,0.0293 -0.37053,0.1074c-0.10585,0.078 -0.17854,0.1906 -0.20446,0.3166c-0.02591,0.126 -0.00326,0.2567 0.0637,0.3677c2.99703,5.2665 7.6226,9.6303 12.24654,13.5402c4.624,3.9099 9.751,7.6175 14.8228,11.1776l0.5444,-0.9096c-10.1465,-6.6938 -19.8126,-14.04 -28.93245,-21.9883c-0.43935,-0.3784 -1.22608,0.1204 -0.86286,0.6468c6.60322,9.3594 17.71471,14.587 26.51131,21.7224l0.6651,-0.8255c-8.9773,-5.152 -17.59719,-10.8612 -25.80522,-17.0917c-0.53802,-0.4097 -1.25852,0.2366 -0.76397,0.7414c6.63877,6.9476 13.99969,13.2204 21.96719,18.7198l0.5553,-0.9095c-7.9665,-4.6265 -15.14829,-10.3216 -22.24253,-16.0382c-0.10441,-0.0868 -0.23899,-0.1325 -0.37684,-0.1279c-0.13786,0.0047 -0.26882,0.0593 -0.36672,0.153c-0.0979,0.0937 -0.15552,0.2195 -0.16133,0.3523c-0.00582,0.1328 0.0406,0.2628 0.12996,0.3641c5.30426,5.7808 10.94286,11.2685 16.88896,16.4368l0.7749,-0.7521c-5.6143,-4.2019 -11.00312,-8.6685 -16.16656,-13.3997c-0.50536,-0.4627 -1.28028,0.2788 -0.76394,0.752c5.12692,4.7243 10.5121,9.1909 16.1556,13.3998c0.5489,0.3991 1.3131,-0.279 0.7749,-0.7521c-5.946,-5.1646 -11.58459,-10.6488 -16.88893,-16.4262l-0.77493,0.7415c7.22587,5.7794 14.49556,11.5587 22.54976,16.2059c0.6145,0.3567 1.0933,-0.5209 0.5553,-0.9095c-7.9211,-5.4477 -15.24139,-11.664 -21.84612,-18.5514l-0.76397,0.7414c8.25733,6.3052 16.93249,12.0849 25.97029,17.3022c0.5266,0.2937 1.1483,-0.4367 0.6651,-0.8255c-4.2941,-3.5206 -8.9807,-6.5332 -13.4815,-9.6837c-4.69883,-3.3819 -9.53051,-7.1856 -12.89788,-11.8808l-0.86286,0.6468c9.20395,8.0107 18.96194,15.4096 29.20674,22.1456c0.5927,0.3885 1.0933,-0.5209 0.5444,-0.9095c-4.9512,-3.5183 -9.9244,-7.0892 -14.6143,-11.0623c-4.6899,-3.973 -9.12871,-8.1579 -12.09252,-13.319l-0.80792,0.6994c9.19574,8.5377 19.08984,16.3763 29.03824,24.0671c0.538,0.4202 1.313,-0.3107 0.7639,-0.7415c-10.3224,-8.196 -21.3014,-16.2419 -29.34283,-26.6411l-0.85191,0.6467c10.16904,9.441 20.96134,18.2378 32.30954,26.3353c0.5708,0.3991 1.0933,-0.5104 0.5553,-0.9095c-11.6038,-8.2021 -22.6533,-17.641 -31.68182,-28.4694l-0.77492,0.7415c9.81114,9.1582 19.90574,17.9671 31.14554,25.4317c0.5818,0.3884 1.0933,-0.521 0.5444,-0.9096c-10.6593,-7.4455 -20.72,-15.9379 -28.42185,-26.3066l-0.86286,0.6468c9.34961,8.7165 18.95061,17.2739 29.42401,24.7939c0.494,0.3466 1.0935,-0.4682 0.6542,-0.836c-9.2886,-6.912 -18.3929,-14.3524 -25.26968,-23.6475l-0.85195,0.6362c7.54683,7.1945 15.58213,13.8972 24.05253,20.0634l0.5444,-0.9095c-8.2561,-5.4477 -15.6458,-12.0238 -21.9371,-19.522l-0.775,0.7414c6.8542,5.9637 13.8757,11.7474 21.0644,17.351l0.764,-0.752c-6.261,-4.7247 -12.0138,-10.0436 -17.1717,-15.8764l-0.764,0.7414l18.3372,14.0782c0.549,0.4203 1.324,-0.3107 0.7749,-0.7415c-2.965,-2.3642 -5.9409,-4.7285 -8.7859,-7.2198c-1.3621,-1.1773 -2.7023,-2.3863 -3.9988,-3.6272c-1.2966,-1.2408 -3.4485,-2.848 -3.8598,-4.5985l-0.7974,0.5938c5.8114,4.2012 11.55,8.4872 17.2159,12.8578c0.5381,0.4203 1.313,-0.3106 0.7749,-0.752c-5.3263,-4.3402 -10.6747,-8.7119 -15.1171,-13.9311l-0.7749,0.7414c5.0437,3.8944 10.0257,7.8805 14.9459,11.9582l0.764,-0.752c-4.2637,-3.2932 -8.117,-7.0515 -11.4828,-11.1998l-0.6651,0.8361c3.8494,2.6672 7.6735,5.3803 11.4721,8.1392l0.5224,-0.9306c-3.4568,-2.4951 -6.6504,-5.3119 -9.5347,-8.4098l-0.764,0.7414l8.2129,6.1982c0.538,0.4097 1.2803,-0.2578 0.764,-0.7415l-5.6034,-5.2785l-0.6542,0.8255c2.3201,1.3067 4.491,2.845 6.4771,4.5895c0.1056,0.0854 0.2409,0.1292 0.3786,0.1227c0.1378,-0.0066 0.268,-0.063 0.3645,-0.158c0.0965,-0.095 0.1522,-0.2216 0.1561,-0.3545c0.0039,-0.1328 -0.0445,-0.2622 -0.1353,-0.3622l-4.8579,-5.0278l-0.6651,0.8255c1.7782,1.1758 3.5127,2.394 5.2036,3.6862c0.1035,0.0991 0.2435,0.1544 0.3893,0.1539c0.1458,-0.0005 0.2855,-0.0568 0.3882,-0.1566c0.1028,-0.0997 0.1602,-0.2347 0.1597,-0.3752c-0.0004,-0.1405 -0.0588,-0.2751 -0.1623,-0.3741l-4.3969,-4.7339l-0.6541,0.8255c1.0804,0.6055 2.0985,1.3088 3.0407,2.1002c0.4503,0.3783 1.2042,-0.1098 0.8628,-0.6468c-0.4945,-0.7432 -1.05,-1.4471 -1.6609,-2.105l-0.6542,0.8255c1.153,0.6746 2.2636,1.4143 3.3259,2.2152c0.4502,0.3362 1.248,-0.1099 0.8629,-0.6468l-1.3538,-1.9372l-0.7532,0.6887c0.5343,0.2488 1.0355,0.5589 1.4926,0.9235c0.0936,0.0913 0.2186,0.1466 0.3516,0.1555c0.1329,0.0088 0.2647,-0.0293 0.3705,-0.1074c0.1059,-0.078 0.1786,-0.1906 0.2045,-0.3166c0.0259,-0.126 0.0032,-0.2567 -0.0637,-0.3677l-0.4965,-1.0537c-0.2759,-0.6217 -1.2158,-0.0802 -0.9399,0.5415l-0.0001,-0.0211z"/>
  <path id="svg_58" fill="#C75741" d="m0.04231,49.7982c-0.09693,0.9976 0.58564,1.5799 1.2794,2.1735c1.11882,0.9132 2.14827,1.7923 3.2335,2.6712c2.15922,1.7349 4.3406,3.4238 6.56639,5.0553c4.5635,3.3543 9.2712,6.4864 14.1232,9.3965c0.5255,0.3191 1.1809,-0.4856 0.6663,-0.8965l-14.9809,-12.1905c-0.5593,-0.4451 -1.34863,0.36 -0.7892,0.8166l15.0366,12.1904l0.6662,-0.908c-4.349,-2.6328 -8.5644,-5.3578 -12.6469,-8.3355c-2.0242,-1.4144 -4.00408,-2.9092 -5.91714,-4.4386c-1.08883,-0.8445 -2.15535,-1.689 -3.19955,-2.5337c-0.69369,-0.5707 -3.01901,-1.9497 -2.92229,-3.0046c0.07557,-0.7225 -1.04004,-0.7186 -1.11561,0.0039z"/>
  <path id="svg_59" fill="#C75741" d="m9.23359,59.2541c3.26811,3.3701 6.59011,6.6335 9.96601,9.7904c0.5105,0.4895 1.2401,-0.3851 0.7194,-0.8745c-3.4031,-3.1895 -6.7251,-6.453 -9.96596,-9.7904c-0.50042,-0.5141 -1.21986,0.3604 -0.71945,0.8745z"/>
  <path id="svg_60" fill="#C75741" d="m0.1995,44.0684c8.24439,6.0454 16.5377,12.0383 24.8799,17.9788c0.5564,0.4001 1.3695,-0.2892 0.8018,-0.6894c-8.3422,-5.9404 -16.63928,-11.9333 -24.89123,-17.9787c-0.54512,-0.41 -1.34688,0.2891 -0.79047,0.6893z"/>
  <path id="svg_61" fill="#C75741" d="m13.1691,37.0829c6.5166,5.2357 13.2186,10.229 20.106,14.9797c0.4771,0.3244 1.0332,-0.4558 0.618,-0.833c-5.611,-4.678 -11.0021,-9.6163 -16.1734,-14.8147c-0.0484,-0.0488 -0.1058,-0.0875 -0.1689,-0.1139c-0.0631,-0.0263 -0.1307,-0.0397 -0.199,-0.0395c-0.0682,0.0003 -0.1357,0.0142 -0.1986,0.0409c-0.063,0.0268 -0.1201,0.0659 -0.1682,0.1151c-0.048,0.0492 -0.0861,0.1075 -0.112,0.1717c-0.0259,0.0641 -0.0391,0.1328 -0.0388,0.2022c0.0002,0.0693 0.0139,0.1379 0.0402,0.2019c0.0264,0.0639 0.0648,0.122 0.1132,0.1709c5.1713,5.1914 10.5659,10.1296 16.1838,14.8146l0.6179,-0.833c-6.8044,-4.6879 -13.4373,-9.6253 -19.8985,-14.8122c-0.5085,-0.4189 -1.2509,0.3199 -0.7217,0.7493z"/>
  <path id="svg_62" fill="#C75741" d="m14.3207,47.033c5.7252,4.7207 11.7544,9.0756 18.0504,13.0376c0.4927,0.3058 1.0969,-0.4344 0.6353,-0.812l-9.7884,-7.8898l-4.8156,-3.8785c-1.6231,-1.1822 -3.0929,-2.5541 -4.3768,-4.0851l-0.7089,0.7098c7.6596,3.438 14.1642,8.674 20.9707,13.4887c0.472,0.3366 1.0447,-0.4239 0.6249,-0.812c-4.8693,-4.3089 -9.28,-9.0909 -14.1493,-13.3998l-0.5096,0.8629c4.9336,1.7459 9.2542,4.7138 13.512,7.6512c0.4824,0.3366 1.1074,-0.4446 0.6353,-0.8018l-6.2941,-4.8677c-0.5245,-0.4082 -1.2647,0.3222 -0.7402,0.7304l6.2941,4.8677l0.6353,-0.812c-4.3624,-2.9678 -8.7564,-5.9457 -13.7843,-7.7323c-0.1107,-0.024 -0.2263,-0.0129 -0.3301,0.0318c-0.1038,0.0447 -0.1904,0.1206 -0.2471,0.2168c-0.0568,0.0961 -0.0809,0.2075 -0.0687,0.318c0.0121,0.1104 0.0599,0.2142 0.1363,0.2962c4.8693,4.3089 9.28,9.0909 14.1493,13.3998l0.6354,-0.812c-6.7856,-4.8045 -13.2798,-10.0508 -20.9708,-13.4888c-0.4191,-0.183 -1.0453,0.2497 -0.7089,0.7098c1.1922,1.4444 2.5599,2.7409 4.0727,3.8607l4.9729,4.0112l10.1137,8.1654l0.6353,-0.812c-6.2205,-3.928 -12.173,-8.2492 -17.8198,-12.936c-0.5141,-0.4184 -1.2544,0.3017 -0.7402,0.7304l-0.0208,0.0514z"/>
 </g>
</svg>