<svg width="140" height="167" viewBox="0 0 140 167" fill="none" xmlns="http://www.w3.org/2000/svg">
<g clip-path="url(#clip0)">
<path d="M63.4909 84.1674C48.3053 70.2688 25.5098 68.0304 9.10262 55.6029C11.16 53.7265 14.3731 54.2719 17.079 54.9331C23.0826 56.404 29.0919 57.8789 35.0955 59.3498C27.4391 52.1426 18.7589 46.0195 9.40442 41.2249C8.35975 40.6903 7.16389 39.9674 7.08474 38.7964C6.93982 36.6214 10.2297 36.4173 12.3033 37.0712C22.936 40.4349 33.5734 43.7979 44.2109 47.1609C37.3575 38.5337 29.5759 30.6461 21.0455 23.6766C22.6759 20.9818 26.7966 22.2791 29.4925 23.9073C36.4918 28.1456 43.3283 32.6552 49.9835 37.4145C48.34 29.8851 45.6766 22.5833 42.0858 15.7621C43.047 14.4547 45.0999 15.4554 46.3025 16.5405C52.0172 21.703 57.0833 27.5825 61.347 34.0061C62.1084 35.156 62.8949 36.3663 64.105 37.0271C65.3152 37.688 67.0844 37.5425 67.7704 36.3414C68.2488 35.4989 68.0621 34.4557 67.9779 33.4896C67.7312 30.6551 68.5886 27.738 70.3282 25.4826C79.8651 33.1126 76.9579 52.0276 84.2224 61.8491" fill="#FBF8E9"/>
<path d="M63.4909 84.1674C48.3053 70.2688 25.5098 68.0304 9.10262 55.6029C11.16 53.7266 14.3731 54.2719 17.079 54.9331C23.0826 56.404 29.0919 57.8789 35.0955 59.3498C27.4391 52.1426 18.7589 46.0195 9.40442 41.2249C8.35975 40.6903 7.16389 39.9674 7.08474 38.7964C6.93982 36.6214 10.2297 36.4173 12.3033 37.0712C22.936 40.4349 33.5734 43.7979 44.2109 47.1609C37.3575 38.5337 29.5759 30.6461 21.0455 23.6766C22.6759 20.9818 26.7966 22.2791 29.4925 23.9073C36.4918 28.1456 43.3283 32.6552 49.9835 37.4145C48.34 29.8851 45.6766 22.5833 42.0858 15.7621C43.047 14.4547 45.0999 15.4554 46.3025 16.5405C52.0172 21.703 57.0833 27.5825 61.347 34.0061C62.1084 35.156 62.8949 36.3663 64.105 37.0271C65.3152 37.688 67.0844 37.5425 67.7704 36.3414C68.2488 35.4989 68.0621 34.4557 67.9779 33.4896C67.7312 30.6551 68.5886 27.738 70.3282 25.4826C79.8651 33.1126 76.9579 52.0276 84.2224 61.8491" stroke="#181818" stroke-width="3" stroke-miterlimit="10" stroke-linecap="round" stroke-linejoin="round"/>
<path d="M102.446 150.778C89.0276 130.3 75.6045 109.823 62.1871 89.3496C70.3842 79.894 78.5805 70.4336 86.7825 60.9772C101.333 76.9341 115.879 92.8918 130.429 108.849" stroke="#181818" stroke-width="3" stroke-miterlimit="10" stroke-linecap="round" stroke-linejoin="round"/>
</g>
<defs>
<clipPath id="clip0">
<rect y="19.4795" width="116.601" height="149.512" transform="rotate(-9.61703 0 19.4795)" fill="white"/>
</clipPath>
</defs>
</svg>
