<svg width="78" height="70" viewBox="0 0 78 70" fill="none" xmlns="http://www.w3.org/2000/svg">
<path d="M58.5359 19.4675C58.5359 19.4675 60.34 18.9784 61.4722 19.6528C65.2577 21.9104 68.7085 25.0132 70.341 29.1037C72.7779 35.2107 70.9798 42.119 68.8452 48.3347C67.7868 51.4207 66.6313 54.51 64.8198 57.2225C64.0612 58.3609 63.1779 59.4339 62.0742 60.2455C61.0296 61.0134 59.8172 61.5159 58.6194 62.0152C54.797 63.6038 50.5997 65.2193 46.6224 64.0763C45.271 63.6878 44.0262 62.9956 42.7419 62.4209C39.2071 60.8414 35.3506 60.1516 31.567 59.3355C26.5794 58.257 21.5738 56.9058 17.1599 54.3402C12.7461 51.7745 8.93763 47.8569 7.43254 42.9796C5.88688 37.9752 6.89266 32.5477 8.41361 27.5376C9.98786 22.355 12.2535 17.1315 16.413 13.6666C20.5734 10.1984 27.0498 9.03077 31.4244 12.2229C31.4244 12.2229 35.1436 15.7399 40.2744 16.7819C45.4086 17.8247 50.7858 16.8714 52.8673 18.2364C54.9488 19.6015 58.5359 19.4675 58.5359 19.4675Z" stroke="#11782E" stroke-width="2" stroke-miterlimit="10" stroke-linecap="round" stroke-linejoin="round"/>
<path d="M54.6979 21.8912C54.2716 22.4418 54.3717 23.2544 54.7211 23.854C55.0696 24.4567 55.6172 24.9097 56.1065 25.4031C58.8293 28.1559 59.7202 32.2403 59.8184 36.1099C59.9166 39.9795 59.3485 43.8584 59.7017 47.7125C60.6012 46.6023 60.8657 45.1275 61.1003 43.7174C61.3656 42.1155 61.634 40.5144 61.8993 38.9124C62.4386 35.6592 62.9706 32.2425 61.8941 29.123C60.7788 25.8836 58.0926 23.453 55.3258 21.4287C54.9543 21.5803 54.6606 21.9163 54.5638 22.3049" stroke="#11782E" stroke-width="2" stroke-miterlimit="10" stroke-linecap="round" stroke-linejoin="round"/>
<path d="M32.1158 18.5306C29.8295 19.5874 27.6778 20.9322 25.7263 22.5229C23.5546 24.2927 21.6326 26.3585 19.3807 28.0223C19.0902 28.2353 18.6305 28.4233 18.4214 28.1305C20.2247 23.9198 23.8678 20.5394 28.2011 19.0541C28.2011 19.0541 32.5347 17.9128 32.1158 18.5306Z" stroke="#11782E" stroke-width="2" stroke-miterlimit="10" stroke-linecap="round" stroke-linejoin="round"/>
<path d="M35.3134 11.9267C29.6446 11.5245 23.8483 14.117 20.3744 18.6126C24.2509 17.9249 28.2306 17.8303 32.1379 18.3299C30.1933 21.8243 25.8517 30.0623 29.5269 29.878C34.7699 27.9455 35.8404 24.7559 38.9943 22.1924C39.3826 21.8765 39.7977 21.5501 40.2947 21.4745C40.7982 21.4006 41.2995 21.5978 41.7522 21.8242C46.3043 24.0975 48.8159 29.3667 53.4278 31.5106C55.2803 28.3303 51.2153 25.5799 49.8686 22.7163C53.1169 23.1547 56.3321 23.8222 59.4884 24.7123C58.2081 22.9899 57.105 21.1363 56.201 19.1878C57.6032 19.3173 58.9781 19.7083 60.2398 20.3324C59.1885 18.3953 56.8564 17.58 54.7002 17.1215C51.9061 16.5314 49.0424 16.2612 46.1864 16.3195L51.415 10.0842C51.6294 9.83156 51.664 9.45841 51.4662 9.189C51.181 8.80147 50.663 8.98873 50.2819 9.19292C47.5895 10.6505 45.0843 12.4609 42.8603 14.565C40.4323 10.8092 36.3867 8.13252 31.9725 7.38962C31.5037 7.31057 31.0189 7.57147 30.8913 8.02803C30.7476 8.54936 31.2133 8.93031 31.6272 9.20202C32.9968 10.111 34.3623 11.0224 35.7319 11.9313" stroke="#11782E" stroke-width="2" stroke-miterlimit="10" stroke-linecap="round" stroke-linejoin="round"/>
</svg>
