<svg width="28" height="28" viewBox="0 0 28 28" fill="none" xmlns="http://www.w3.org/2000/svg">
<path d="M14 5.675C9.45625 5.675 5.7625 9.36875 5.75625 13.9125C5.75625 15.4688 6.19375 16.9875 7.01875 18.2938L7.2125 18.6063L6.38125 21.6437L9.5 20.825L9.8 21.0063C11.0625 21.7563 12.5125 22.1562 13.9937 22.1562H14C18.5375 22.1562 22.3312 18.4625 22.3312 13.9187C22.3312 11.7188 21.3813 9.65 19.825 8.09375C18.2625 6.53125 16.2 5.675 14 5.675ZM18.8438 17.45C18.6375 18.0312 17.65 18.5562 17.175 18.625C16.3875 18.7437 15.775 18.6812 14.2063 18.0063C11.725 16.9312 10.1 14.4312 9.975 14.2687C9.85 14.1062 8.9625 12.925 8.9625 11.7063C8.9625 10.4875 9.6 9.8875 9.83125 9.6375C10.0563 9.3875 10.325 9.325 10.4937 9.325C10.6562 9.325 10.825 9.325 10.9688 9.33125C11.1187 9.3375 11.325 9.275 11.525 9.75625C11.7312 10.25 12.225 11.4688 12.2875 11.5938C12.35 11.7188 12.3937 11.8625 12.3062 12.025C11.8312 12.975 11.325 12.9375 11.5813 13.375C12.5375 15.0188 13.4937 15.5875 14.95 16.3188C15.2 16.4438 15.3438 16.425 15.4875 16.2563C15.6313 16.0938 16.1062 15.5312 16.2687 15.2875C16.4312 15.0375 16.6 15.0813 16.825 15.1625C17.05 15.2438 18.2687 15.8438 18.5187 15.9688C18.7687 16.0938 18.9312 16.1562 18.9937 16.2563C19.05 16.375 19.05 16.875 18.8438 17.45ZM25 0H3C1.34375 0 0 1.34375 0 3V25C0 26.6562 1.34375 28 3 28H25C26.6562 28 28 26.6562 28 25V3C28 1.34375 26.6562 0 25 0ZM13.9937 23.825C12.3312 23.825 10.7 23.4062 9.25625 22.6187L4 24L5.40625 18.8625C4.5375 17.3625 4.08125 15.6562 4.08125 13.9062C4.0875 8.44375 8.53125 4 13.9937 4C16.6437 4 19.1313 5.03125 21.0063 6.90625C22.875 8.78125 24 11.2687 24 13.9187C24 19.3813 19.4562 23.825 13.9937 23.825Z" fill="#D5D0BF"/>
</svg>
