<?xml version="1.0" encoding="utf-8"?>
<!-- Generator: Adobe Illustrator 24.1.0, SVG Export Plug-In . SVG Version: 6.00 Build 0)  -->
<svg version="1.1" id="Calque_1" xmlns="http://www.w3.org/2000/svg" xmlns:xlink="http://www.w3.org/1999/xlink" x="0px" y="0px"
	 viewBox="0 0 1307.13 995.58" style="enable-background:new 0 0 1307.13 995.58;" xml:space="preserve">
<style type="text/css">
	.st0{fill:none;stroke:#010202;stroke-width:8;stroke-linecap:round;stroke-linejoin:round;stroke-miterlimit:10;}
	.st1{fill:#010202;stroke:#010202;stroke-width:8;stroke-linecap:round;stroke-linejoin:round;stroke-miterlimit:10;}
</style>
<g>
	<path class="st0" d="M1149.43,258.57c10.88-9.68,5.72-29.35-6.3-37.67c-12.02-8.32-27.65-8.44-42.18-7.82
		c-92.22,3.92-182.69,25.05-272.52,46.1c-103.89,24.35-211.41,50.42-295.23,116.71c-9.47,7.49-19.48,19.87-13.37,30.4
		c0,0,49.08,56.06,333.56-24.22S1149.43,258.57,1149.43,258.57z"/>
	<path class="st1" d="M637.11,424.62c0,0,4.14-45.52,134.33-82.32c74.55-21.07,257.23-72.74,290.92-29.79
		C1062.36,312.51,794.52,419.91,637.11,424.62z"/>
	<path class="st0" d="M608.61,501.47c0,0,95.38,18.22,406.87-87.94c0,0,93.27-32.46,128.25-86.83
		c28.08-43.65,10.81-65.74,10.81-65.74s-117.41,78.18-341.57,131.26c-224.7,53.21-265.37,32.68-285.29,26.77
		C507.76,413.08,576.42,500.5,608.61,501.47z"/>
	<path class="st0" d="M547.24,452.98c2.46,6,4.93,12.01,7.39,18.01c0.73,1.79,1.61,3.73,3.45,4.56c4.08,1.86,8.35-2.95,12.92-3.71
		c5.21-0.87,9.29,3.59,12.09,7.64c2.81,4.05,11.06,2.39,16.31,2.02c8.39-2.27-3.22-22.8-7.41-36.48c-1.25-4.07-3.6-8.55-8.09-9.23
		c-1.96-0.3-3.97,0.22-5.91,0.73c-12.63,3.31-25.25,6.63-37.88,9.94L547.24,452.98z"/>
	<path class="st0" d="M399.17,549.41c62.22-23.46,148.33-50.42,156.41-58.07c22.05-20.89-18.52-32.71-18.52-32.71
		s1.27-15.48-163.69,38.71"/>
</g>
<g>
	<path class="st0" d="M37.95,417.16c62.23,34.23,128.78,59.87,198.85,69.86c4.87,0.69,10.05,1.44,13.77,4.65
		c7.01,6.02,5.45,17.08,3.27,26.06c-3.13,12.96-6.27,25.93-9.4,38.89c-1.19,4.9-2.53,10.09-6.15,13.59c-4.46,4.31-11.21,5-17.4,5.21
		c-27.48,0.95-54.88-2.87-82.11-6.67c-26.28-3.67-52.74-7.4-79.11-11.67"/>
	<path class="st0" d="M256.67,494.56c30.76-25.47,65.15-46.57,101.79-62.45c-2.15,15.15-8.31,29.71-17.69,41.79
		c24.11-4.37,48.21-8.74,72.32-13.11c10.28-1.86,22.52-3.12,29.59,4.57c-15.12,21.5-48.99,17.13-70.39,32.38
		c33.76,2.42,70.63,6.19,94.61,30.08c-21.4,20.28-62.99-5.55-84.11,15.01c26.27,9.71,51.28,22.83,74.2,38.92
		c-25.04,17.9-62.88-15.36-89.32,0.39c15.29,10.34,30.34,21.05,45.13,32.1c-6.08,8.49-18.74,7.68-29.04,5.98
		c-27.1-4.49-54.19-8.98-81.29-13.46c-17.4-2.88-36.11-6.43-48.23-19.25c-6.43-6.8-17.85-18.93-24.74-12.59"/>
</g>
</svg>
