<svg width="118" height="148" xmlns="http://www.w3.org/2000/svg">
 <defs>
  <clipPath id="clip0">
   <rect id="svg_1" x="0" y="7.59473" transform="rotate(-3.617029905319214 2.786734104287919e-14,7.594729900360108) " fill="white" height="139.902" width="109.106"/>
  </clipPath>
 </defs>
 <g>
  <title>background</title>
  <rect fill="none" id="canvas_background" height="602" width="802" y="-1" x="-1"/>
 </g>
 <g>
  <title>Layer 1</title>
  <path id="svg_70" fill="#202222" d="m46.7375,118.317l0.1175,0.147c-0.0391,-0.11 -0.0783,-0.147 -0.1175,-0.147z"/>
  <path id="svg_71" fill="#202222" d="m54.9246,139.676c-0.0391,0 -0.0391,0 0,0c0,0.11 0.0784,0.294 0.1959,0.551l-0.1959,-0.551z"/>
  <path id="svg_72" fill="#202222" d="m41.9585,92.29l-0.1174,0.073c0.0783,-0.036 0.1174,-0.036 0.1174,-0.073z"/>
  <path id="svg_73" fill="#202222" d="m42.742,106.701c-0.0392,-0.037 -0.1176,-0.111 -0.1568,-0.221c0.0392,0.11 0.0784,0.221 0.1568,0.221z"/>
  <path id="svg_74" fill="#202222" d="m54.6895,144.639l0.0392,-0.295c-0.0783,0.037 -0.0783,0.148 -0.0392,0.295z"/>
  <path id="svg_75" fill="#202222" d="m58.7244,152.443c0,-0.051 0.0553,-0.051 0,0c0,-0.051 0,-0.051 0,0z"/>
  <path id="svg_76" fill="#202222" d="m57.9411,149.087c-0.0392,-0.074 -0.1175,-0.147 -0.1567,-0.184c0.0392,0.074 0.0784,0.184 0.1567,0.184z"/>
  <path id="svg_77" fill="#202222" d="m57.6667,148.793c0.0393,0.037 0.0393,0.073 0.0785,0.11c0,-0.073 -0.0392,-0.147 -0.0785,-0.11z"/>
  <path id="svg_78" fill="#202222" d="m113.331,150.3c0.156,0.184 0.391,0.294 0.626,0.368l-0.626,-0.368z"/>
  <path id="svg_79" fill="#202222" d="m65.5409,82.695l-0.0397,0.037c0.0397,0 0.0397,-0.037 0.0397,-0.037z"/>
  <path id="svg_80" fill="#202222" d="m114.506,149.712l0.117,0.147c-0.039,-0.074 -0.078,-0.11 -0.117,-0.147z"/>
  <path id="svg_81" fill="#202222" d="m52.4568,140.558c-0.235,-0.184 -0.2741,-0.698 -0.3916,-0.662c0.1175,0.221 0.1566,0.625 0.3916,0.662z"/>
  <path id="svg_82" fill="#202222" d="m72.9832,84.019l0.0782,0.147c-0.0391,-0.074 -0.0782,-0.111 -0.0782,-0.147z"/>
  <path id="svg_83" fill="#202222" d="m114.506,149.712l-0.118,-0.184c0,0.037 0,0.074 0,0.11c0.039,0 0.118,0.037 0.118,0.074z"/>
  <path id="svg_84" fill="#202222" d="m78.4284,106.811c-0.0397,0 -0.0397,0 0,0c-0.0397,-0.037 -0.0397,-0.037 -0.0397,-0.037l0.0397,0.037z"/>
  <path id="svg_85" fill="#202222" d="m78.9764,108.281c-0.0783,-0.073 -0.1175,-0.184 -0.1959,-0.257c0.0784,0.147 0.1568,0.22 0.1959,0.257z"/>
  <path id="svg_86" fill="#202222" d="m113.997,150.704l0.352,0.221c-0.117,-0.11 -0.235,-0.184 -0.352,-0.221z"/>
  <path id="svg_87" fill="#202222" d="m88.4562,122.214c-0.0392,-0.037 -0.0784,-0.074 -0.1176,-0.11c0.0784,0.073 0.1176,0.11 0.1176,0.11z"/>
  <path id="svg_88" fill="#202222" d="m43.0161,107.803c0,0.037 0,0.074 0,0.147c0.0384,0 0.0384,-0.036 0,-0.147z"/>
  <path id="svg_89" fill="#202222" d="m36.5529,98.319c0,-0.184 -0.1567,-0.478 -0.3134,-0.589c0.0392,0.184 0.1175,0.368 0.3134,0.589z"/>
  <path stroke="null" id="svg_90" fill="#202222" d="m57.54036,77.3107c-1.25001,0.39091 -2.50002,0.97682 -3.64588,1.59642c-0.27771,0.1631 -0.55551,0.2934 -0.83331,0.4565c-0.2778,0.1303 -0.52085,0.29251 -0.79865,0.4237c-0.52076,0.2606 -1.04162,0.52121 -1.49307,0.71622c-0.2778,0.4237 -0.86806,0.7171 -1.45832,1.07521l-0.24305,-0.2606l-0.45136,0.3262c-0.24314,0 0.34721,-0.22781 -0.06949,-0.1631l-0.10415,0.2606c-0.10415,-0.0975 -1.31951,0.554 -0.59026,-0.06471l-1.94451,0.94491c-0.45136,0.19501 -0.10415,0.35811 -0.62501,0.52121c-0.1389,-0.0328 0.1389,-0.1303 0.03475,-0.22781c-1.56256,0.48841 -1.35417,1.36861 -2.74308,1.88982l0.10415,-0.0975c-0.17365,0.19501 -0.62501,0.39091 -0.59035,0.42282c0.34729,0.22869 0.1389,-0.29251 0.65975,-0.29251c0.10415,0.2606 -0.41661,0.39091 -0.31246,0.554c-0.34729,0.06471 -0.45145,0.29251 -0.72916,0.45561c-0.5556,0.06559 -1.18061,0.52121 -1.70146,0.554c-0.20831,0.22869 -0.31246,0.5868 -0.83331,0.97771c-0.52085,0.0975 -0.03475,-0.22781 -0.62501,0.06559l0.03466,0.19501c-0.45136,0.3262 -0.41661,0.22781 -0.45136,0.1631c-0.20831,0.1959 -0.2778,0.3262 -0.34721,0.4565c-0.06949,0.1303 -0.17365,0.2606 -0.45145,0.52121c0.03475,-0.1303 0.10424,-0.2934 0.1389,-0.4237c-0.17356,0.22781 -0.31246,0.39091 -0.45136,0.5868c-0.06949,0.0975 -0.1389,0.19501 -0.24305,0.32531c-0.10415,0.1303 -0.17365,0.2606 -0.2778,0.4237c-0.06941,-0.06471 0.10415,-0.35811 0.24305,-0.52121c-0.24305,0.1303 -0.31246,0.2934 -0.34721,0.48841c-0.03475,0.1631 -0.03475,0.3262 -0.06949,0.4237c0.10424,-0.03191 0.38195,-0.48841 0.4167,-0.19501c-0.20831,0.32531 -0.1389,0.81461 -0.4167,1.00962c0,-0.1303 0,-0.2934 0,-0.45561c-0.06941,0.39091 -0.06941,0.52121 -0.06941,0.61871c0,0.1303 -0.03475,0.2606 -0.17365,0.65151c0,-0.03191 -0.03466,-0.03191 -0.06941,-0.06471c0.10415,0.554 -0.1389,1.23831 -0.1389,1.98733l-0.03475,-0.1303c0.06949,0.2934 0.24305,0.4565 0.24305,0.6196c0.06949,-0.4237 0.1389,-0.2934 0.31255,-0.359c-0.24305,0.554 0.38195,0.7827 0.34721,1.59731c-0.10415,0 -0.24305,-0.1631 -0.17365,-0.4237c-0.34721,-0.2606 -0.59026,-0.2606 -0.79856,-0.7827c0.10415,0.3262 0.20831,0.7171 0.06941,0.6524l0.2778,0.06471c0.03475,0.1959 0.03475,0.359 0.06941,0.4893c0.17365,0.06471 0.20839,-0.4237 0.4167,0c0.17365,0.48841 -0.24305,0.2934 -0.10415,0.35811c0.24305,0.65151 0.34721,0.22781 0.38195,0.8802c-0.03475,-0.06559 -0.10415,-0.1631 -0.10415,-0.22869c0,0.4565 0.31246,1.07521 0,1.27111c-0.10415,-0.06559 -0.17365,-0.0328 -0.20839,-0.22781l0.03475,0c-0.34721,-0.4237 0.17365,0.39091 -0.17356,0.2934c0.17356,-0.06559 0.27771,0.55312 0.31246,0.84652l0.17365,-0.1303c0.83331,0.7827 -0.4167,0.0328 -0.10415,0.94491c0.27771,0.554 -0.00009,-0.22781 0.24305,0.09839c0.06941,0.39091 -0.06949,0.58592 0.17356,1.13992c-0.03475,0.1631 -0.03466,0.52209 -0.24305,0.6196c0.17365,0.32531 0.20839,1.07521 0.48611,1.23831c0,-0.65151 -0.41661,-0.52121 -0.31246,-1.30391l0.2778,0.1303c0.10415,0.4893 0.41661,1.07521 0.45136,1.43421c0.03475,-0.06559 0.06941,-0.1303 0.1389,-0.0975c0.2778,0.65151 0.55551,0.78181 0.69441,1.46612c-0.17356,0.1303 -0.24305,-0.2606 -0.34721,-0.52121c-0.03475,0.45561 0.1389,0.45561 0.2778,1.13992c-0.17365,0.09839 -0.1389,-0.45561 -0.31255,-0.48841l0.2778,0.7171l-0.03475,0c0.31255,0.03191 0.17365,0.554 0.38195,0.97771c0.34729,1.04242 0.79865,1.10712 1.21535,1.59642c-0.03475,0.1631 -0.06949,0.2606 -0.17365,0.19501c0.03475,-0.29251 -0.03475,-0.22781 -0.1389,-0.29251c0.1389,0.35811 0,0.84652 -0.17356,0.68431c0.27771,0.52121 0.06941,-0.26149 0.27771,0.06471l0.2778,0.78181c0.10415,-0.1303 0.03475,-0.4237 0.31255,-0.06471c0.17356,0.32531 0.17356,0.48841 0.34721,0.91211c-0.10415,-0.0328 -0.17365,0.1959 -0.2778,-0.1303c0.03475,0.22781 0.1389,0.554 0.31255,0.65151c-0.03475,-0.52121 0.41661,0.7499 0.52076,0.2934l0.03475,0.52121c-0.03475,-0.0975 -0.1389,-0.0975 -0.17356,-0.2606c-0.17365,0.1959 0.20831,0.359 0.27771,0.52121c0.03475,0.1959 0.17365,0.6196 0.10424,0.68519c0.10415,0.1303 0.20831,0.52121 0.13881,0.61871c0.1389,0.1959 0.1389,-0.0328 0.24305,0l0.2778,0.7499c-0.10415,0.0975 -0.41661,0.2606 -0.48611,0.16221c0.20839,0.2606 0.38195,-0.03191 0.5556,0.4237c-0.31255,-0.1631 0.03466,0.6196 -0.38195,0.359c-0.06949,0.29251 0.20831,1.00962 0.45136,1.36861c0.2778,0.16221 -0.06941,-0.4565 0.1389,-0.4893c0.52085,1.07521 1.04171,0.94491 1.28476,1.75952l-0.03475,-0.22781c0.31255,0.4565 0.2778,0.4237 0.5556,0.65151c-0.2778,-0.06471 -0.38195,0.78181 0,1.59731c0.1389,0.03191 0.03466,-0.52209 0.27771,-0.4565l0.2778,0.52121c0,0.0328 -0.06941,0 -0.1389,-0.06471c0.2778,0.45561 0.06949,1.00962 0.4167,1.04242l-0.1389,0.61871l0.06949,-0.2606c0.13881,0.0328 0.41661,0.554 0.48611,0.6524c0.34721,0.48841 0.34721,0.74901 0.31246,1.10712c0.06949,-0.1303 0.17365,-0.45561 0.38195,-0.03191c-0.38195,0.1303 0.24305,0.94491 0.06949,1.00962c0.06941,0.1631 0.10415,0.52121 0.27771,0.4893l-0.24305,0.06471c0.34729,-0.0975 0.59035,0.554 0.86806,1.0105c-0.48611,0.06471 0.2778,0.52121 -0.03466,0.87932c0.34721,-0.03191 0.48611,0.81461 0.79856,0.81461c0.17365,0.359 -0.10415,0.4237 -0.17356,0.554l0.17356,0.1303c-0.06941,0.22869 0.24305,0.9458 0.31255,1.40141l0.41661,0.2934l-0.06941,0.1959c0.10415,0.03191 0.2778,0.35811 0.2778,0.0975l0.06941,0.22781c0.31255,-0.0975 0.20839,0.2606 0.52085,0.6524c0,0.1303 -0.06941,0.1303 -0.17356,0.03191c0.10415,0.1959 -0.10424,0.1631 -0.1389,0.3262c0,-0.1631 0.83331,0.554 0.72916,-0.06559c0.10415,-0.0975 0.34721,0.22869 0.38195,0.4237l-0.20839,0.22869l0.38195,0.1303c0.17365,0.2934 0.06949,0.52121 0.17365,0.78181c-0.1389,-0.2606 -0.76391,-0.39091 -0.45136,0.2934c-0.20839,-0.359 -0.4167,-0.4893 -0.5556,-0.65151c0.03475,0.16221 0.06949,0.22781 -0.1389,0.03191c0.31255,0.52209 0.24305,0.1303 0.48611,0.6524c-0.24305,0.06471 -0.24305,0.22781 -0.1389,0.74901l0.03475,-0.4237c0.03475,0 0.06949,0.0328 0.10415,0.0328c-0.03466,-0.1303 0,-0.1959 0.06949,-0.2606c0.03475,0.0975 0.55551,0.52121 0.45136,0.65151c0.1389,-0.68431 0.6945,0.81461 0.76391,0.39091c0.10415,0.0328 0.2778,0.39091 0.17365,0.4893c-0.38195,-0.39091 -0.10424,0.4237 -0.31255,0.4237c0.1389,0.1303 0.03475,-0.4237 0.20831,-0.22869c0.1389,0.2606 0.06949,0.52121 0.06949,0.68431l-0.10415,-0.0975l0.06941,0.4565c0.1389,0.03191 0.03475,-0.4893 0.24305,-0.1303c0,0.1303 0.20839,0.48841 0.1389,0.48841c-0.24305,-0.1303 -0.38195,0.0975 -0.55551,-0.22781c0.1389,0.2606 0.52085,1.10801 0.59026,0.68431l0.1389,0.32531c0,-0.22781 -0.06949,-0.87932 0.24305,-0.22781l-0.03475,0l0.38195,0.39091l-0.03475,0.22781c0.06949,-0.03191 0.1389,0.0328 0.20839,0.1959c-0.03475,0.06471 0,0.22781 -0.10415,0.2606c0.20831,0.48841 0.31246,0.39091 0.41661,0.4237c0.1389,0.2606 0.1389,0.39091 -0.06941,0.2934c0.1389,0.39091 0.45136,1.00962 0.4167,1.30302c0.31246,0.4565 -0.00009,-0.1303 0.27771,0.09839c-0.20831,0.58592 0.5556,1.69393 0.93755,2.47574c0.24305,-0.35811 0.1389,0.1959 0.52085,0.22869c-0.17365,-0.1303 0.06941,0.87932 -0.34729,0.19501l0.20839,0.4237c-0.06949,0.359 -0.45145,-0.65151 -0.52085,-0.0975c0.20831,0.48841 0.72916,0.65151 0.86806,1.27111c-0.34721,-0.09839 0.2778,0.39091 -0.06941,0.35811c-0.1389,-0.0975 -0.17365,-0.2606 -0.2778,-0.39091l0,0.1303c0.38195,1.07521 0.41661,0.1959 0.83331,0.68431c0.31255,0.61871 0.03475,0.5868 -0.06941,0.68431c0,0.1303 0.17356,0.4237 0.31246,0.554c-0.31246,-0.3262 -0.17356,-0.78181 0.06949,-0.68431c-0.17365,0.39091 0.38195,0.94491 0.59026,1.07521c-0.10415,-1.04242 -0.2778,-0.65151 -0.31255,-1.62922c-0.1389,-0.0975 -0.38195,0.0328 -0.52076,-0.52121c0.27771,0.2606 0.13881,-0.06559 0.13881,-0.1959c-0.10415,0.1631 -0.20831,-0.32531 -0.34721,-0.45561c0.06949,-0.1959 0.48611,0.16221 0.31255,-0.359l-0.38195,0.0328c-0.03475,-0.22781 0.2778,0 0.03475,-0.4237c0.27771,0.1631 0.24305,-0.1959 0.55551,0.39091c0,-0.81461 -0.62501,-1.00962 -1.00696,-1.49892c0.03475,0.0328 0.10415,0.0328 0.1389,0.06559c-0.1389,-0.06559 -0.24305,-0.2934 -0.31255,-0.4565c-0.06941,-0.39091 0.2778,0.22781 0.34729,0.0975l-0.2778,-0.58592c0,-0.0328 0,-0.0328 0.03475,-0.0328c-0.10415,-0.1303 -0.20839,-0.2606 -0.1389,-0.359c0.17356,0.1303 0.34721,0.1631 0.48611,0.22869l-0.52085,-0.52121c0.1389,0.03191 -0.03475,-0.5868 0.24305,-0.1959l-0.45136,-0.8802l0.20831,-0.16221c-0.1389,-0.1959 -0.17365,-0.1959 -0.10415,0.0975c-0.06949,-0.3262 -1.00696,-1.20551 -0.48611,-1.23831c-0.48611,-0.65151 -0.52085,-0.91211 -1.04171,-1.72672c0.52085,0.58592 -0.06941,-0.8802 0.34721,-0.1959c-0.06941,-0.4565 -0.38195,-0.4237 -0.55551,-0.74901c-0.03475,-0.359 0.24305,-0.2934 0.48611,0l-0.2778,-0.359l0.03475,0l-0.2778,-0.2934c-0.03475,-0.39091 0.20831,-0.1631 0.06941,-0.554l-0.24305,0l0,-0.2934c-0.06941,0.1303 -0.17356,-0.06471 -0.31246,-0.32531l0.03475,0l-0.17365,-0.2934c0.2778,0.2606 -0.06949,-0.3262 0.1389,-0.22781c-0.10415,-0.2934 -0.10415,-0.2934 -0.38195,-0.7827l-0.10415,0.1303c-0.4167,-0.61871 0.20831,-0.0975 -0.03475,-0.65151l-0.1389,0.0975c-0.06941,-0.87932 -0.72916,-1.23743 -0.79856,-1.85702c0.17356,0.2934 0.34721,0.1631 0.27771,0.1631c-0.2778,-0.4565 -0.55551,-1.27111 -0.97221,-1.69481c0.17365,-0.2606 0.20831,-0.35811 0.10415,-0.91211c-0.17356,-0.35811 -0.20831,-0.4237 -0.4167,-0.4893c-0.06941,-0.39091 -0.48611,-1.00962 -0.34721,-1.10712c-0.17356,-0.0328 -0.10415,-0.3262 -0.31246,-0.4893l0.06941,-0.06471l-0.1389,0.0975c0.06949,-0.78181 -0.69441,-1.0105 -0.65975,-1.79232l0.10424,0.0975l-0.17365,-0.2606c0.06949,-0.06471 0.1389,0.0328 0.24305,0l-0.52085,-1.27111l0,0.2934c-0.1389,-0.2606 -0.38195,-0.39091 -0.41661,-0.71622c0.45136,0.42282 -0.17365,-0.4237 0,-0.5868l0.17356,0.2606c-0.17356,-0.35811 -0.17356,-0.35811 -0.31246,-0.2606c-0.2778,-0.4565 0.17356,-0.4565 -0.20839,-0.81461l0.1389,0.32531c-0.06941,0.1303 -0.2778,-0.03191 -0.38195,-0.2606c0,-0.06471 0,-0.22781 0.10424,-0.0975c-0.20839,-0.35811 -0.38195,-0.97771 -0.52085,-1.10801c-0.03475,-0.22781 0.10415,-0.19501 0.20831,-0.0975c-0.48611,-0.7499 -0.1389,-0.39091 -0.62501,-1.14081l0.10415,-0.0328l-0.24305,-0.22781l0.03475,-0.48841l-0.06949,0.19501c-0.1389,-0.2606 -0.27771,-0.39091 -0.34721,-0.74901l0.17365,0.06471c-0.38195,-0.71622 -0.1389,-0.94491 -0.62501,-1.59642c0,-0.06559 0.10415,0.0328 0.1389,0.0975c-0.48611,-0.5868 0.03466,-0.5868 -0.48611,-1.17272c0.06941,0.0328 0.10415,-0.06559 0.13881,-0.06559l-0.20831,-0.2606l0.20831,-0.0328l-0.38195,-0.16221l0.10424,-0.26149l-0.1389,-0.0975c0.24305,-0.45561 -0.24305,-0.81461 -0.1389,-1.36861l-0.20839,0.1631c-0.93746,-0.94491 -0.72916,-2.67163 -1.45832,-3.97554l0.20831,-0.0328l-0.41661,-0.48841c0.03466,-0.35811 0.24305,0.1303 0.2778,0c-0.31255,-0.5868 -0.38195,-0.1631 -0.65975,-0.84741c0,-0.39091 0.17356,0.0975 0.31246,0.22781c-0.34721,-0.61871 -0.76391,-1.56362 -0.79856,-2.08483c-0.03475,0 -0.06949,-0.0328 -0.06949,0c-0.24305,-0.4237 -0.34721,-1.0105 -0.48611,-1.49892c0.10415,0 0.1389,0.0975 0.20831,0.22781c-0.03466,-0.1631 -0.06941,-0.4237 -0.20831,-0.554l0.20831,0.1303c-0.10415,-0.39091 -0.45136,-1.07521 -0.27771,-1.20551c-0.06949,0.06471 -0.20839,0.0975 -0.31255,-0.22781c0.24305,-0.26149 -0.38195,-0.84741 -0.38195,-1.40141c0.10415,0.0328 0.20831,0.4237 0.17365,0.32531c0,-0.29251 -0.20839,-0.48841 -0.34721,-0.68431l0.1389,0.0328c-0.17365,-0.39091 -0.31255,-0.78181 -0.48619,-1.17272c0.24305,-0.2606 -0.34721,-1.14081 -0.10415,-1.10801c-0.10415,-0.4237 -0.03475,0.39091 -0.20831,-0.1631c0.10415,-0.1631 -0.17365,-0.48841 0.03475,-0.48841l0.03466,0.06471l-0.10415,-0.39091l0.24305,0.1959c-0.10415,-0.3262 -0.38195,-0.52209 -0.52085,-0.52209c0.03475,-0.32531 -0.1389,-0.74901 0,-0.91211l0.06949,0.0975c-0.10415,-0.4237 -0.03475,-0.78181 0.03466,-1.07521c0.06949,-0.32531 0.1389,-0.554 -0.03466,-0.84741c0.03475,-0.03191 0.06941,-0.03191 0.06941,0.06559c0,-0.1303 0,-0.2934 0.03475,-0.4237l0.1389,0.0975c-0.06949,-0.22781 -0.10415,-0.45561 -0.1389,-0.65151l0.10415,0.0328c0.10415,-0.39091 0.24305,-0.84741 0.5556,-1.23831l0,0.06471c0.10415,-0.22781 0.24305,-0.32531 0.34721,-0.39091c0.10415,-0.06471 0.20831,-0.0975 0.38195,-0.2934c0,0.0328 0,0.0328 0,0.06559c0.10415,-0.0975 0.24305,-0.1631 0.38195,-0.2606l-0.03475,0.1303c0.17365,-0.359 1.04171,-0.2934 0.72916,-0.3262c0.1389,-0.19501 0.45145,-0.45561 0.45145,-0.5868c0.55551,-0.29251 0.20831,0.0328 0.59026,-0.06471c0.4167,-0.1959 0.4167,-0.39091 1.04171,-0.5868l0.03466,0.09839c0.2778,-0.1631 0.4167,-0.2934 0.76391,-0.4893l-0.10415,0.0975c0.52085,-0.48841 0.90281,-0.1303 1.18061,-0.74901c0.31246,-0.06559 0.76391,-0.359 0.83331,-0.1631c0.72916,-0.48841 1.28476,-0.81461 2.01392,-1.27111c0.2778,0.22869 0.1389,-0.0975 0.6945,-0.16221l-0.10424,-0.1303c1.07645,-0.554 2.53477,-0.7827 3.68063,-1.43421l0.10415,0.1303l0.1389,-0.2934c0.65975,-0.2934 1.42366,-0.61871 2.15282,-0.94491c0.69441,-0.2934 1.31942,-0.554 1.77087,-0.74901c0.2778,-0.1959 0.65975,-0.554 1.14586,-0.6524l-0.03475,0.0328c0.20831,-0.0975 0.38195,-0.1631 0.59026,-0.22781c0.20839,-0.06559 0.4167,-0.1303 0.59035,-0.1631c0.41661,-0.0975 0.79856,-0.0975 1.14577,-0.0328c-0.03466,0.06559 0,0.1303 -0.06941,0.1631c0.06941,-0.0975 0.17365,-0.06559 0.2778,-0.06559c0.10415,0.0328 0.1389,0.09839 0.20831,0.09839l-0.1389,-0.1631c0.10415,-0.06559 0.20839,-0.0328 0.2778,0c0.06941,0.06471 0.1389,0.1631 0.1389,0.22781c0.10415,-0.03191 0.17356,-0.03191 0.31246,-0.06471c0,0.0328 0.03475,0.06471 0,0.06471c0.03475,-0.03191 0.06949,-0.03191 0.06949,-0.06471c0,0.0975 0,0.1631 0,0.2606c0.06941,-0.0328 0.34721,0.0975 0.59026,0.06471c-0.03475,0.06559 0.10415,0.2934 -0.06941,0.1631c0.20831,0.2606 0.45136,0.5868 0.62501,0.97771l-0.03475,-0.22781c0.1389,-0.09839 0.45136,0.19501 0.48611,0.45561c-0.2778,-0.22781 -0.24305,0.09839 -0.31246,0.2606c0.17356,0.13119 0.06941,-0.22781 0.20831,-0.16221c0.20831,0.16221 0.52085,0.68431 0.52085,0.87932l-0.1389,-0.1303c0.20831,0.3262 0,0.6196 0.17365,0.97771c0.27771,0.2934 0.27771,0.5868 0.52076,0.4237c0.2778,0.4565 -0.10415,0.2606 -0.06941,0.4237c0.24305,0.1631 0.45136,0.91211 0.34721,1.04242c0.52085,0.09839 0.45145,1.36861 0.8334,1.33582l0,0.4893c0.10415,-0.0328 0.34721,-0.0328 0.52076,0.2934c0.03475,0.35811 -0.1389,0.32531 -0.20831,0.45561l0.45136,0.06559c0.24305,0.94491 0.6945,1.98733 1.18061,3.03063c0.48611,1.04242 1.04171,2.08572 1.35417,3.09534c0.48611,0.81461 1.21535,1.79232 1.73612,2.80282l-0.10415,-0.09839l0.45145,1.0105l-0.24305,-0.78181c0.13881,0.19501 0.31246,0.32531 0.41661,0.52121c0.24305,0.554 0.48611,1.23831 0.8334,1.88982c0.34721,0.65151 0.72916,1.33582 1.18052,1.92262c0.86806,0.65151 0,0.7171 0.72916,1.40141c-0.06941,-0.06559 -0.1389,-0.0328 -0.20831,-0.0975c0.62501,0.78181 1.00696,1.20551 1.73612,1.95453c-0.41661,0.09839 0.34729,0.554 0.10415,0.5868l0.20839,0c0.03466,0.22781 0.2778,0.7171 0.1389,0.68431l0.41661,0.2606l-0.1389,0.1303c0.2778,0.52121 1.1112,1.46612 0.9723,1.92262c0.52076,0.554 1.07636,1.30302 1.59722,2.11851c0.55551,0.81461 1.11111,1.66113 1.59722,2.44383c0.2778,0.1303 0.59026,0.554 0.8334,0.91211l0.06941,0.48841c0.31255,0.2934 0.79865,0.52209 0.90281,0.913c-0.03475,0 -0.03475,0 -0.06949,0c0.2778,0.32531 0.45145,0.7171 0.8334,0.94491c0.2778,0.39091 0.45136,0.81461 0.20831,0.81461c0.31255,-0.1631 0.5556,0.84741 0.5556,0.84741c0,0 0.86806,1.23831 2.25697,3.16093c1.42357,1.88982 3.40274,4.46395 5.5904,7.07087c4.40988,5.24665 9.82672,10.5908 12.60383,12.08972c0.27833,0.03191 0.72951,0.35811 0.72951,0.06471c0.34747,0.2606 0.24288,0.5868 0.45118,0.554c-0.31202,-0.48841 0.45207,-0.1631 0.20831,-0.68431l0.27833,0.22781c0.13828,-0.03191 -0.45118,-0.2606 -0.20831,-0.35811l-0.3129,0.1303c-0.17374,-0.22781 -0.24288,-0.39091 -0.20831,-0.554c-0.27745,-0.1303 -0.72863,0.0328 -1.04153,-0.554l0.13917,0.1303c-0.38204,-0.39091 -0.07003,-0.35811 -0.1046,-0.48841l0.06914,0.0975l-0.20831,-0.4237c0.17374,0.3262 0.72951,0.554 0.52121,0.359c-0.38204,-0.52209 0.06914,0.16221 -0.3129,-0.1631c-0.20831,-0.1959 -0.03457,-0.2606 0.03546,-0.2934l-0.38204,-0.39091c0.13828,-0.06559 0.24288,0.2606 0.20831,0l-0.59035,-0.39091c0.20831,-0.3262 -0.65949,-0.4237 -0.59035,-0.84741c0.38204,0.2934 0.06914,-0.09839 0.20831,-0.1303l-0.83322,-0.84741c-0.03457,-0.1303 0.31202,0.1631 0.17374,0.0328c-0.07003,-0.22869 -0.3129,-0.1959 -0.38204,-0.2934c0,-0.1303 -0.59035,-0.65151 -0.38204,-0.78181c-0.41661,-0.68431 -0.48664,-0.06559 -0.86779,-0.68431c0.03457,-0.1631 0.41661,0.42282 0.31202,0.06471l-0.55578,-0.52121c0.1046,0 0.27833,-0.0328 0.45207,0.19501c-1.25072,-1.66113 -1.389,-2.99783 -2.81257,-4.26805c-0.03546,-0.3262 0.20831,0.06471 0.45118,0.1303c-1.11156,-0.8802 -0.97239,-1.69481 -1.73647,-2.57413l-0.13828,0.06471c-0.72951,-1.49892 -2.15308,-2.86753 -3.19461,-4.36644l0.06914,0.22781c-0.27745,-0.0975 -0.55578,-0.4237 -0.79865,-0.61871c0.03457,-0.06559 0.38204,0 0,-0.39091c0.03457,0.1303 0.1046,0.32531 0.03457,0.32531c-0.34659,-0.71622 -1.04153,-1.72672 -1.84018,-2.80193c-0.79865,-1.07521 -1.66645,-2.28161 -2.36104,-3.35683c-0.55551,-0.68431 -1.07636,-1.40052 -1.59722,-2.11763c-0.52085,-0.7171 -1.04171,-1.467 -1.52781,-2.21602c-0.48611,-0.7499 -1.00696,-1.49892 -1.49307,-2.24882c-0.48611,-0.71622 -1.00696,-1.46612 -1.49307,-2.15043c0.31255,0.4237 -0.1389,0.4237 -0.2778,0.06559c-0.06941,-1.2064 -1.11111,-1.49892 -1.35417,-2.63972c-0.62501,-0.78181 -1.04171,-1.62922 -1.49307,-2.44383c-0.45136,-0.81461 -0.90281,-1.56451 -1.59722,-2.24882l0.1389,-0.0975c-0.06949,-0.2606 -0.20839,-0.2934 -0.38195,-0.52121l0.03466,-0.0328c-0.27771,-0.61871 -0.86806,-1.23831 -0.97221,-1.62922l-0.17356,0.06471c-0.20839,-0.35811 0.03466,-0.2606 -0.2778,-0.554l0.10415,-0.03191c-0.1389,-0.09839 -0.2778,-0.22869 -0.4167,-0.3262c0.34721,-0.0975 -0.52085,-1.0105 -0.55551,-1.36861c-0.31255,-0.4237 -0.93755,-1.23831 -1.25001,-1.95542c0.06941,-0.19501 -0.34729,-1.07521 -0.5556,-1.66113c-0.59026,-1.0433 -1.45832,-2.54222 -2.04867,-3.97554l-0.20831,0.0975l-0.17365,-0.359c0.03475,0 0.03475,-0.06471 0.10424,-0.03191c0.10415,-0.39091 -0.48619,-0.81461 -0.45145,-1.14081c-0.10415,0.2606 0.10415,0.2606 0.17365,0.4565c0.03475,0.32531 -0.2778,0.1303 -0.38195,-0.2934l0.03475,0l-0.24314,-0.22781c0.1389,-0.09839 0.10424,-0.39179 0.24314,-0.4893c-0.59035,-1.17272 -1.21535,-1.88982 -1.70146,-3.16093c0.24305,0.06559 -0.45136,-0.87932 0,-0.74901c-0.45136,-0.68431 -0.20831,0.22781 -0.59026,-0.0328c-0.10415,-0.1959 -0.2778,-0.39091 -0.17365,-0.48841c0.10415,0.06471 0.10415,-0.26149 0.20839,-0.09839l-0.24314,-0.52121c0,-0.06471 0.10424,0.0328 0.1389,0.0975c-0.34721,-0.52121 -0.52076,-1.04242 -0.79856,-1.62922c-0.24305,-0.554 -0.5556,-1.13992 -1.14586,-1.62922c-0.17365,0 0.34721,0.4565 0.17356,0.4565c-0.55551,-0.4893 -0.76382,-0.7499 -0.97221,-1.0105c-0.20831,-0.2606 -0.41661,-0.554 -1.14586,-0.84741l0.34729,0.0328c-0.24305,-0.06471 -0.45145,-0.1303 -0.62501,-0.19501c-0.20839,-0.06559 -0.45145,-0.1631 -0.79865,-0.39179c-0.06949,-0.22781 0.72916,0.09839 1.11111,0.22869c-0.24305,-0.1631 -0.72916,-0.3262 -1.11111,-0.4565c-0.38195,-0.0975 -0.62501,-0.0975 -0.45145,0.0328c-0.17356,-0.0328 -0.31246,-0.06559 -0.41661,-0.0975c-0.10415,-0.0328 -0.20831,-0.06559 -0.31255,-0.09839c-0.17356,-0.06471 -0.31246,-0.1631 -0.48611,-0.19501c0,0.03191 0.59026,0.22781 0.20839,0.2606c-0.20839,-0.06559 -0.45145,-0.0975 -0.72925,-0.1303c-0.2778,-0.0328 -0.52085,-0.06559 -0.79856,-0.06559c-0.2778,0 -0.5556,0 -0.79865,0.0328c-0.2778,0 -0.52085,0.06559 -0.76391,0.0975c0,-0.03191 -0.06941,-0.0975 0,-0.1303c-0.34721,0.1631 -0.52085,0.1631 -0.72916,0.1631c0.1389,0.06559 -0.10415,0.0328 -0.5556,0.1959z"/>
  <path id="svg_91" fill="#202222" d="m38.9815,108.833l-0.0783,-0.294c-0.0392,0 -0.1176,0 -0.1959,-0.111l0.2742,0.405z"/>
  <path id="svg_92" fill="#202222" d="m36.0825,93.54c0,-0.037 0,-0.11 -0.039,-0.147c0,0.073 0,0.11 0.039,0.147z"/>
  <path id="svg_93" fill="#202222" d="m38.1981,89.165c-0.235,0.257 0.0392,0.11 0.1959,0.037c0,-0.037 -0.0392,-0.074 -0.1959,-0.037z"/>
  <path id="svg_94" fill="#202222" d="m42.4679,116.626c-0.0392,-0.037 -0.0784,-0.073 -0.1176,-0.037c0.0784,0.037 0.1176,0.074 0.1176,0.037z"/>
  <path id="svg_95" fill="#202222" d="m51.2422,136.882c-0.0391,-0.074 -0.0783,-0.147 -0.1174,-0.221c0.0391,0.074 0.0783,0.147 0.1174,0.221z"/>
  <path id="svg_96" fill="#202222" d="m40.3915,111.333c-0.0392,-0.074 -0.0783,-0.147 -0.1566,-0.221c0.0783,0.147 0.1174,0.184 0.1566,0.221z"/>
  <path id="svg_97" fill="#202222" d="m50.9682,136.404l-0.1175,-0.294l-0.0392,0l0.1567,0.294z"/>
  <path id="svg_98" fill="#202222" d="m51.5951,138.573c-0.0392,-0.11 -0.1175,-0.294 -0.1566,-0.367c0,0.147 0.0783,0.257 0.1566,0.367z"/>
  <path id="svg_99" fill="#202222" d="m45.9931,124.456c-0.1959,-0.22 -0.1175,-0.073 0,0l0,0z"/>
  <path id="svg_100" fill="#202222" d="m50.0281,135.227l0,-0.036l-0.0784,-0.074l0.0784,0.11z"/>
  <path id="svg_101" fill="#202222" d="m52.0651,139.896c-0.0392,-0.036 -0.0784,-0.11 -0.1176,-0.147c0,0.037 0.0392,0.111 0.0392,0.184c0.0392,-0.037 0.0392,-0.037 0.0784,-0.037z"/>
  <path id="svg_102" fill="#202222" d="m47.5994,129.088c0.1175,0.037 0.1958,0.074 0.235,0.037c-0.0784,-0.073 -0.1175,-0.147 -0.235,-0.037z"/>
  <path id="svg_103" fill="#202222" d="m12.2661,55.308c0.0392,0.036 0.0783,0.036 0.1175,0.036c-0.0392,-0.036 -0.0783,-0.036 -0.1175,-0.036z"/>
  <path id="svg_104" fill="#202222" d="m8.4269,38.177l-0.1566,-0.074c0.0783,0.074 0.1174,0.074 0.1566,0.074z"/>
  <path id="svg_105" fill="#202222" d="m19.1995,71.078c-0.0391,-0.036 -0.0391,-0.036 0,0c0.0784,0.221 0.1959,0.552 0.431,1.066l-0.431,-1.066z"/>
  <path id="svg_106" fill="#202222" d="m20.492,24.465l-0.2742,-0.258c0.1175,0.111 0.1958,0.184 0.2742,0.258z"/>
  <path id="svg_107" fill="#202222" d="m23.2735,37.368c-0.0784,-0.11 -0.1567,-0.294 -0.2742,-0.441c0.0783,0.184 0.1567,0.367 0.2742,0.441z"/>
  <path id="svg_108" fill="#202222" d="m22.6075,79.864l-0.3134,-0.441c-0.0391,0.037 0.0392,0.184 0.3134,0.441z"/>
  <path id="svg_109" fill="#202222" d="m32.4399,85.048c-0.1176,-0.11 -0.2743,-0.221 -0.3918,-0.294c0.1567,0.147 0.3526,0.331 0.3918,0.294z"/>
  <path id="svg_110" fill="#202222" d="m31.8523,84.607c0.0783,0.036 0.1175,0.11 0.1959,0.147c-0.0784,-0.074 -0.1567,-0.147 -0.1959,-0.147z"/>
  <path id="svg_111" fill="#202222" d="m65.1878,75.71c-0.235,0.442 -0.2742,0.846 -0.3917,1.287l0.3917,-1.287z"/>
  <path id="svg_112" fill="#202222" d="m35.3385,11.23l-0.0392,0.074c0.0392,-0.037 0.0392,-0.074 0.0392,-0.074z"/>
  <path id="svg_113" fill="#202222" d="m66.1281,76.74l-0.196,0.294c0.0784,-0.074 0.1568,-0.184 0.196,-0.294z"/>
  <path id="svg_114" fill="#202222" d="m16.7316,71.887c-0.3526,-0.404 -0.6268,-1.397 -0.7443,-1.36c0.235,0.515 0.4701,1.213 0.7443,1.36z"/>
  <path id="svg_115" fill="#202222" d="m46.4243,15.421l0.1959,0.294c-0.0784,-0.147 -0.1567,-0.257 -0.1959,-0.294z"/>
  <path id="svg_116" fill="#202222" d="m66.1279,76.74l0.1958,-0.368c-0.0392,0.037 -0.0783,0.037 -0.1175,0.074c0,0.11 -0.0391,0.22 -0.0783,0.294z"/>
  <path id="svg_117" fill="#202222" d="m59.6255,15.09c0,0.037 0,0.037 0,0.074c0.0383,0 0.0383,-0.037 0,-0.074z"/>
  <path id="svg_118" fill="#202222" d="m64.7962,76.997l-0.2352,0.735c0.1176,-0.257 0.196,-0.478 0.2352,-0.735z"/>
  <path id="svg_119" fill="#202222" d="m62.3284,38.103c0,-0.11 -0.0391,-0.22 -0.0391,-0.294c0,0.11 0.0391,0.221 0.0391,0.294z"/>
  <path id="svg_120" fill="#202222" d="m24.1353,40.456c0,0.11 0.0391,0.257 0.0391,0.404c0.0391,0.037 0.0782,0 -0.0391,-0.404z"/>
  <path id="svg_121" fill="#202222" d="m11.4435,20.09c0,-0.257 -0.0392,-0.588 -0.0783,-0.919c-0.0392,-0.331 -0.0784,-0.625 -0.1176,-0.846c0,0.258 -0.0391,0.515 0,0.809c0.0392,0.294 0.0784,0.588 0.1959,0.956z"/>
  <path id="svg_122" fill="#202222" d="m11.9526,15.09c-0.0392,0.037 -0.0392,0.111 -0.0783,0.147c0.0391,-0.073 0.0391,-0.11 0.0783,-0.147z"/>
  <path id="svg_123" fill="#202222" d="m17.946,35.787c0,-0.073 -0.0391,-0.184 -0.0783,-0.331c0,0.111 0,0.221 0.0783,0.331z"/>
  <path id="svg_124" fill="#202222" d="m28.9142,14.943c0.4309,2.61 1.4494,5.22 2.4287,7.683c0.9793,2.463 1.8803,4.816 2.272,6.801c0.0784,0.111 0.1175,0.221 0.1567,0.331c0.0392,0.074 0.0392,0.11 0.0784,0.184l0.0391,0.073l0,0.037c0.0392,0.037 0.0784,0.111 0.1175,0.184c0.0784,0.11 0.1176,0.257 0.1567,0.441c-0.1567,-0.073 -0.2742,-0.184 -0.4309,-0.294c0.0392,0.074 0.0784,0.147 0.1176,0.257c-0.1176,-0.11 -0.0784,-0.147 -0.2351,-0.257c0.0784,0.11 0.1567,0.221 0.2742,0.331c-0.0783,-0.074 -0.1175,-0.037 -0.1567,-0.074c-0.0391,0 -0.1175,-0.147 -0.235,-0.404c0,0 0,0.037 -0.0392,0c0,-0.037 0.0392,0.588 -0.0391,0.331c0,-0.184 0,-0.11 0,-0.331c0,-0.11 0,-0.073 0,-0.037c0,0 0,0.037 -0.0392,0.037c0,0 -0.0392,0 -0.0784,0c-0.0391,0 -0.1175,0 -0.1958,0c-0.0784,0 -0.1567,0 -0.235,-0.037l-0.0392,0l-0.0392,-0.036c-0.0392,-0.037 -0.1175,-0.074 -0.1567,-0.148c-0.1175,-0.11 -0.1959,-0.183 -0.3134,-0.294c-0.4309,-0.404 -0.8618,-0.882 -1.371,-1.544l0.235,0.184c-0.47,-0.367 -1.136,-1.176 -1.2143,-1.176c-0.0392,0.551 0.5484,0.331 1.0576,1.213c-0.3133,0.147 -0.9793,-0.846 -1.1359,-0.662c-0.4309,-0.661 -0.8618,-0.882 -1.3319,-1.36c-0.6268,-0.993 -1.8803,-2.095 -2.272,-2.904c-0.4701,-0.331 -1.1752,-0.588 -2.037,-1.434c-0.4309,-0.809 0.3526,-0.037 -0.4309,-0.919l-0.2742,0c-0.6659,-0.698 -0.5092,-0.625 -0.4309,-0.662c-0.7443,-0.735 -0.8226,-0.441 -1.6844,-1.397l0.666,0.368c-0.3918,-0.294 -0.6268,-0.551 -0.9402,-0.809c-0.3525,-0.331 -0.7834,-0.735 -1.4102,-1.323c0.0392,-0.037 0.235,0.11 0.4701,0.331c0.1175,0.11 0.235,0.22 0.3917,0.331c0.0783,0.073 0.1567,0.147 0.235,0.22c-0.0391,-0.073 -0.0783,-0.147 -0.1567,-0.22c0,-0.037 -0.0783,-0.074 -0.1175,-0.147c-0.0392,-0.037 -0.1175,-0.111 -0.1567,-0.147c-0.1958,-0.184 -0.3917,-0.331 -0.5875,-0.478c-0.3918,-0.258 -0.7052,-0.405 -0.9402,-0.625c0.1175,0.183 1.2144,1.213 0.5484,0.882c-0.3917,-0.368 -0.8226,-0.662 -1.2143,-0.956c-0.3917,-0.294 -0.7443,-0.551 -0.9793,-0.956l0.9009,0.552c-1.6844,-1.287 -0.9009,-0.478 -2.7812,-2.132c0.0783,0.073 0.0392,-0.037 0.0784,-0.074c-0.6268,-0.368 -1.3711,-0.993 -2.2329,-1.765c-0.1958,0.111 -0.3525,0.148 -0.5484,0.331c-0.1567,0.368 -0.3134,0.772 -0.4701,1.177l0.0784,-0.405c-0.1175,0.441 -0.1959,0.772 -0.235,1.066c-0.0392,0.295 -0.0784,0.515 -0.1567,0.699c0.3917,-0.882 0.3525,-0.552 0.5092,-0.404c-0.1567,0.22 -0.235,0.477 -0.3134,0.772c-0.0783,0.294 -0.0783,0.588 -0.1175,0.955c0,0.184 -0.0392,0.331 -0.0392,0.515c0,0.184 0,0.368 0,0.588c0,0.221 -0.0391,0.405 -0.0391,0.625c0,0.221 -0.0392,0.478 -0.0392,0.735c-0.0392,-0.036 -0.1175,-0.22 -0.1175,-0.478c0,-0.11 0,-0.257 0,-0.404c0,-0.147 0.0391,-0.257 0.1175,-0.404c-0.0784,-0.478 -0.1959,-0.846 -0.235,-1.25c-0.0392,-0.405 -0.0392,-0.846 0.1175,-1.581c-0.1175,0.478 -0.1959,0.919 -0.3134,1.25c-0.0784,0.331 -0.1175,0.515 -0.1567,0.368c0.0784,0.183 0.1567,0.367 0.235,0.514c-0.0391,0.258 -0.0783,0.515 -0.1175,0.699c-0.0391,0.22 -0.0392,0.441 -0.0392,0.661c0.0784,0.184 0.1959,-0.036 0.2743,-0.147c0.0783,-0.11 0.1175,-0.073 0.1566,0.589c0,0.698 0,0.882 -0.1175,0.882c-0.0783,0 -0.1567,-0.147 -0.0783,0c0.0783,0.514 0.1175,0.845 0.1567,1.029c0.0783,0.221 0.1175,0.331 0.1567,0.441c0.0391,0.111 0.0783,0.184 0.1175,0.405c0.0392,0.183 0.0783,0.478 0.1567,0.955c-0.0784,-0.183 -0.2351,-0.551 -0.1959,-0.735c0.0392,0.331 0.1175,0.735 0.235,1.14c0.0392,0.147 0.0784,0.331 0.1176,0.478c0.0391,0.147 0.0783,0.294 0.1175,0.404c0.1567,0.552 0.2742,0.993 0.1567,1.213c-0.1176,-0.11 -0.2742,-0.11 -0.3918,-0.514l0.0784,0c-0.3134,-0.515 -0.235,-0.294 -0.1175,0.036c0.1175,0.331 0.3133,0.736 0.0783,0.625c0.0784,-0.073 0.2351,0.258 0.4309,0.662c0.1959,0.404 0.3917,0.919 0.5484,1.213l0.1175,-0.294c1.6061,1.728 -0.47,0.074 0.6268,2.022c0.7834,1.14 -0.1959,-0.478 0.3526,0.184c0.3917,0.845 0.3917,1.25 1.136,2.353c0.1175,0.367 0.3917,1.066 0.1958,1.249c0.5093,0.662 1.0968,2.169 1.5277,2.427c-0.47,-1.287 -0.9009,-1.066 -1.4102,-2.61l0.4309,0.294c0.5484,0.956 1.3319,2.132 1.6061,2.83c-0.0392,-0.147 0,-0.257 0.0783,-0.183c0.3918,0.661 0.7051,1.066 0.9793,1.47c0.1176,0.221 0.2742,0.404 0.3918,0.662c0.1175,0.257 0.235,0.514 0.3525,0.845c-0.1567,0.258 -0.4309,-0.551 -0.7051,-1.103c0.1175,0.478 0.1959,0.699 0.3526,0.956c0.1567,0.294 0.2742,0.625 0.5092,1.287c-0.1567,0.147 -0.3134,-0.882 -0.5876,-0.993l0.5093,1.213l-0.0392,0c0.1959,0 0.235,0.184 0.235,0.331c0,0.184 -0.0391,0.331 0.0784,0.552c0.0783,0.478 0.1958,0.845 0.3917,1.323c0.0783,0.258 0.1567,0.478 0.2742,0.735c0.0783,0.258 0.1567,0.552 0.1959,0.883c-0.1567,0.073 -0.2742,-0.074 -0.3526,-0.294c0.235,-0.037 0.0784,-0.221 0,-0.478c0,0.257 -0.1567,0.331 -0.3134,0.257c-0.1567,-0.073 -0.3134,-0.294 -0.3525,-0.515c0,0.037 0,0.074 0,0.111c0,0 0,0 -0.0392,0c0,0 0,0 0,0.036c0,0.037 0.0784,0.111 0.1175,0.184c0.0392,0.037 0.0392,0.074 0.0784,0.111c0,0 0.0391,0 0.0391,0.036c0,0 0.0392,0.037 0.0392,0.074c0,0.037 0,0.037 0,0.073c0,0.037 0,0 -0.0392,0l-0.3525,-0.331l-0.3134,-0.257c0.1567,0.368 0.5093,0.662 0.1567,0.552c-0.3134,-0.221 -0.5092,-0.405 -0.9793,-0.809c0.0392,-0.074 -0.1567,-0.441 0.1567,-0.184c-0.1959,-0.257 -0.4701,-0.478 -0.6268,-0.404c0.2351,0.294 0.0392,0.183 -0.1958,0.036c-0.2351,-0.147 -0.5485,-0.294 -0.3918,0l-0.235,-0.294c-0.0392,-0.036 -0.0783,-0.073 -0.1175,-0.147l-0.1959,-0.22c0.1175,0.073 0.1959,0.11 0.2742,0.147c0.0784,0.036 0.1176,0.036 0.1959,0.147c0,-0.074 -0.0392,-0.147 -0.0784,-0.184c0,0 -0.0783,-0.074 -0.1175,-0.074c-0.0391,-0.036 -0.1175,-0.073 -0.1567,-0.11c-0.235,-0.11 -0.47,-0.22 -0.6659,-0.331c-0.2742,-0.294 -1.0968,-0.992 -1.0968,-1.103c-0.3526,-0.183 -1.0185,-0.808 -1.0577,-0.992c-0.47,-0.294 -0.1567,0.11 -0.3133,0.037l-1.4494,-1.177c0,-0.147 0.1567,-0.551 0.3917,-0.404c-0.6268,-0.331 -0.4701,0.147 -1.2927,-0.515c0.6659,0.184 -0.9793,-1.029 -0.0783,-0.735c-0.0392,-0.074 -0.1175,-0.147 -0.1959,-0.221c-0.0392,-0.036 -0.0783,-0.073 -0.1175,-0.11c-0.0392,-0.037 -0.0392,-0.037 -0.0784,-0.073c-0.0391,-0.037 -0.0783,-0.074 -0.1175,-0.111c-0.3134,-0.294 -0.7051,-0.625 -1.136,-0.955c-0.8226,-0.662 -1.7627,-1.361 -2.3895,-1.802c-0.7834,-0.331 1.371,1.213 1.2144,1.36c-1.6061,-1.176 -2.4287,-1.654 -3.05549,-1.948c-0.11751,0.074 -0.23503,0.147 -0.35254,0.221c-0.03918,0.036 -0.11753,0.073 -0.1567,0.073l-0.07834,0.037l-0.03918,0.037l-0.03916,0.073c-0.11752,0.184 -0.27421,0.405 -0.4309,0.625c-0.15669,0.221 -0.31338,0.441 -0.47007,0.699l0.39172,-0.442c-0.39172,0.662 -0.50924,0.956 -0.62676,1.177c-0.11751,0.22 -0.11751,0.441 -0.19586,0.882c0,-0.147 -0.07834,-0.147 -0.23503,-0.073c-0.11752,0.11 -0.27421,0.33 -0.4309,0.661c-0.11751,0.368 -0.31338,0.809 -0.39172,1.397c0,0.147 -0.03917,0.294 -0.03917,0.441c0,0.147 0,0.331 0,0.515c0,0.184 0,0.331 0,0.515c0.03917,0.183 0.03917,0.367 0.07834,0.551c0.07835,0.11 0.07835,-0.294 0.15669,-0.625c0.07835,-0.367 0.11752,-0.625 0.27421,-0.404c0.03917,0.588 0.15669,1.176 0.23503,1.728c0,0.11 -0.07834,-0.037 -0.15668,-0.258c0.11751,0.405 0.15669,0.662 0.19586,0.956c0.03917,0.294 0.07834,0.551 0.11751,0.772c0.07834,0.478 0.15669,0.809 0.39172,0.919c0,0.441 0.03918,0.882 0.03918,1.287l0,-0.515c0.19586,0.11 0.74427,1.36 0.94013,1.618c0.7051,1.176 0.78345,1.654 0.94014,2.389c0,-0.257 0,-0.882 0.47007,0.074c-0.4309,0.147 0.7834,2.095 0.5484,2.132c0.1959,0.404 0.3526,1.139 0.5484,1.103l-0.2742,0.036c0.3917,-0.073 1.0577,1.361 1.6061,2.427c-0.5876,-0.037 0.5876,1.176 0.3525,1.838c0.4309,0.073 1.0185,1.875 1.3711,1.948c0.3917,0.846 0.0391,0.882 0.0391,1.14l0.3134,0.331c0.0392,0.478 0.7443,2.058 1.0577,3.051l0.7051,0.735l0,0.368c0.1567,0.11 0.5092,0.809 0.4309,0.331l0.1958,0.478c0.3526,-0.074 0.3918,0.624 0.9793,1.507c0.0392,0.22 -0.0391,0.22 -0.1958,0.037c0.1958,0.477 -0.0392,0.33 -0.0392,0.624c-0.0783,-0.367 1.371,1.471 0.901,0.148c0.0783,-0.148 0.5092,0.551 0.6659,1.029l-0.1567,0.404l0.5484,0.441c0.3918,0.699 0.3134,1.103 0.5484,1.691c-0.2742,-0.588 -1.1751,-1.102 -0.47,0.442c-0.3917,-0.809 -0.7443,-1.14 -1.0185,-1.544c0.1175,0.33 0.1959,0.477 -0.1567,0.036c0.6268,1.177 0.3526,0.331 0.9401,1.508c-0.2742,0.036 -0.235,0.404 0.1567,1.47l-0.1567,-0.846c0.0392,0.037 0.0784,0.074 0.1567,0.111c-0.1175,-0.294 -0.1175,-0.405 -0.0391,-0.515c0.1175,0.221 0.9401,1.25 0.9009,1.507c-0.1567,-1.36 1.2927,1.985 1.1752,1.103c0.1175,0.11 0.5484,0.956 0.4701,1.103c-0.666,-0.919 0.0783,0.882 -0.1567,0.809c0.1175,0.184 0.0783,-0.037 0.0391,-0.258c-0.0391,-0.22 -0.0783,-0.404 0.1176,-0.147c0.3133,0.589 0.3917,1.103 0.5092,1.508l-0.1959,-0.221c0.1567,0.331 0.2742,0.662 0.4309,0.993c0.1959,0.073 -0.3133,-1.03 0.2351,-0.184c0.0391,0.11 0.235,0.404 0.3525,0.625c0.1567,0.22 0.3134,0.441 0.2351,0.441c-0.4309,-0.294 -0.4701,0.11 -0.9794,-0.588c0.1176,0.147 0.2351,0.404 0.4309,0.625c0.1959,0.257 0.3918,0.514 0.5876,0.735c0.3917,0.404 0.666,0.662 0.4701,0.184c0.1959,0.22 0.3917,0.441 0.5876,0.661c-0.0784,-0.11 -0.1959,-0.294 -0.2742,-0.477c-0.0784,-0.184 -0.1959,-0.331 -0.2351,-0.442c-0.0783,-0.22 0,-0.22 0.5876,0.442l-0.0392,0.036c0.3134,0.258 0.666,0.515 1.0185,0.736c0.0784,0.147 0.1959,0.294 0.2742,0.441c0.0392,-0.074 0.2351,0 0.5876,0.294c0.0392,0.147 0.3526,0.404 0.2742,0.478c1.0577,0.735 1.0577,0.551 1.2535,0.588c0.6268,0.368 0.8227,0.551 0.4309,0.515c0.8227,0.551 2.3112,1.323 2.7813,1.727c1.1752,0.478 -0.1959,-0.183 0.5484,0.037c0.0783,0.11 0.1959,0.221 0.3525,0.368c0.0784,0.073 0.1567,0.11 0.2351,0.184c0.0392,0.036 0.0783,0.073 0.1175,0.11c0.0392,0.037 0.0783,0.037 0.1175,0.073c0.2742,0.221 0.6659,0.478 1.0968,0.809c0.8227,0.662 1.7236,1.471 2.3896,2.169c0,-0.662 0.3917,0.368 0.9401,0.404c-0.3526,-0.257 0.9009,1.618 -0.2742,0.368c0.235,0.257 0.4701,0.515 0.6659,0.772c0.1175,0.331 -0.1567,0.037 -0.4701,-0.221c-0.2742,-0.257 -0.5484,-0.477 -0.3525,0c0.7051,0.883 1.5669,1.25 2.1153,2.427c-0.235,-0.111 -0.0783,0.073 0.0783,0.294c0.1567,0.22 0.3134,0.441 0.0784,0.404c-0.235,-0.184 -0.3917,-0.514 -0.5876,-0.809l0.0783,0.221c0.5876,1.066 0.7052,1.176 0.8618,1.14c0.1176,-0.037 0.2351,-0.184 0.5876,0.331c0.3134,0.661 0.3134,0.919 0.2742,1.066c-0.0391,0.11 -0.1567,0.11 -0.235,0.147c0,0.22 0.1959,0.808 0.2742,1.066c-0.235,-0.588 -0.1175,-1.397 0.1959,-1.066c-0.0784,0.331 0.0391,0.808 0.0783,1.176c0.0784,0.368 0.0783,0.625 0.0783,0.772c0.1959,-0.221 0.3134,-0.515 0.3134,-0.735c0,-0.11 0,-0.221 0,-0.294c0,-0.074 0,-0.147 0,-0.258c-0.0391,-0.33 -0.0783,-0.625 -0.235,-1.617c-0.235,-0.221 -0.4701,-0.074 -0.901,-1.177c0.5093,0.625 0.1176,-0.11 0.0784,-0.33c-0.0392,0.294 -0.4701,-0.699 -0.7835,-0.993c-0.0783,-0.368 0.7835,0.441 0.1176,-0.662l-0.5093,0c-0.235,-0.441 0.3917,0 -0.3134,-0.808c0.5093,0.367 0.1959,-0.331 1.0577,0.845c-0.3134,-0.809 -0.7835,-1.323 -1.2535,-1.764c-0.4701,-0.442 -0.9793,-0.772 -1.4886,-1.214c0.1175,0.074 0.1567,0.074 0.2742,0.147c-0.2742,-0.147 -0.6267,-0.551 -0.9009,-0.808c-0.5484,-0.699 0.6267,0.404 0.5484,0.147c-0.3134,-0.368 -0.666,-0.699 -1.0185,-1.03c0,-0.036 0,-0.036 0,-0.036c-0.3134,-0.221 -0.6268,-0.441 -0.6268,-0.589c0.4309,0.184 0.6268,0.221 0.9402,0.368c-0.4309,-0.294 -0.901,-0.588 -1.3711,-0.845c0.1176,0 -0.1175,-0.221 -0.235,-0.405c-0.1175,-0.147 -0.1567,-0.257 0.3134,0.037c-0.3134,-0.221 -0.6268,-0.441 -0.9793,-0.662c-0.3526,-0.184 -0.7051,-0.367 -1.0577,-0.551l-0.0391,-0.331c-0.5093,-0.221 -0.5485,-0.184 0,0.147c-0.3134,-0.221 -1.1752,-0.515 -1.8412,-0.846c-0.6659,-0.294 -1.1751,-0.588 -0.8226,-0.698c-0.4309,-0.184 -0.7442,-0.368 -1.0576,-0.515c-0.3134,-0.183 -0.5876,-0.331 -0.8618,-0.514c-0.5484,-0.368 -1.0968,-0.772 -1.9195,-1.508c0.3134,0.258 0.4309,0.258 0.4309,0.184c-0.0391,-0.073 -0.1567,-0.257 -0.2742,-0.441c-0.2742,-0.368 -0.5092,-0.698 0.1175,-0.147c-0.5875,-0.809 -0.9401,-0.809 -1.4102,-1.397c-0.1566,-0.331 -0.1175,-0.478 0,-0.441c0.1176,0.037 0.3526,0.221 0.6268,0.478c-0.235,-0.221 -0.4309,-0.441 -0.6268,-0.699l0.0392,0c-0.1959,-0.183 -0.3917,-0.404 -0.5484,-0.625c-0.2742,-0.808 0.1567,-0.257 -0.235,-1.066l-0.3134,-0.073c-0.0392,-0.184 -0.1175,-0.405 -0.1175,-0.588c0,0.257 -0.2742,-0.221 -0.5876,-0.772l0.0392,0l-0.3918,-0.699c0.4701,0.662 -0.235,-0.698 0.0784,-0.404c-0.2742,-0.625 -0.2742,-0.625 -0.8226,-1.728l-0.0784,0.257c-0.8226,-1.397 0.1959,-0.147 -0.3134,-1.36l-0.1567,0.147c-0.47,-1.838 -1.4885,-2.83 -1.8802,-4.154c0.3917,0.699 0.5092,0.441 0.4309,0.441c-0.5484,-1.066 -1.3319,-2.867 -2.0762,-3.897c0.0784,-0.514 0.1175,-0.661 -0.3133,-1.838c-0.3918,-0.845 -0.4701,-0.955 -0.7443,-1.176c-0.2742,-0.846 -1.136,-2.316 -0.9402,-2.426c-0.235,-0.111 -0.3133,-0.736 -0.6267,-1.14l0.0392,-0.11l-0.1567,0.147c-0.2351,-1.618 -1.3319,-2.353 -1.6453,-3.934l0.1567,0.221l-0.3525,-0.588c0.0391,-0.147 0.1958,0.11 0.3133,0.073l-1.2535,-2.867l0.1175,0.625c-0.2742,-0.588 -0.6659,-0.919 -0.8617,-1.654c0.7834,1.029 -0.4309,-0.956 -0.3134,-1.214l0.3525,0.589c-0.3917,-0.809 -0.3917,-0.809 -0.5484,-0.699c-0.5484,-1.066 0,-0.882 -0.6267,-1.764c0.0783,0.22 0.1958,0.477 0.2742,0.698c0,0.257 -0.3918,-0.184 -0.5876,-0.662c0,-0.11 -0.0784,-0.478 0.1175,-0.147c-0.4309,-0.809 -0.74428,-2.095 -0.90097,-2.426c-0.07834,-0.478 0.11752,-0.331 0.23503,-0.11c-0.07834,-0.221 -0.15669,-0.405 -0.19586,-0.552c-0.03917,-0.11 -0.07834,-0.22 -0.07834,-0.294c-0.03917,-0.11 -0.03917,-0.184 -0.03917,-0.257c0,-0.147 -0.03918,-0.221 -0.15669,-0.846l0.11751,0.074c-0.03917,-0.147 -0.11751,-0.294 -0.11751,-0.478c0.07834,-0.147 0.19586,-0.257 0.31338,-0.368c-0.07835,0 -0.11752,0.037 -0.19587,0.074c0,-0.11 0.00001,-0.184 0.03918,-0.258c0,-0.073 0.03917,-0.183 0.03917,-0.257c0.03917,-0.184 0.11752,-0.331 0.23503,-0.478c0.03918,0.111 0.03918,0.258 0.07835,0.368c0.11756,-0.331 0.27416,-0.515 0.43086,-0.625l0.0392,-0.037c0,0 0.0392,-0.037 0.0392,0c0.0392,0.037 0.0783,0.074 0.1175,0.147c0.0783,0.074 0.1567,0.147 0.235,0.221c0.1567,0.147 0.3134,0.22 0.5093,0.331c0.0391,0.073 -0.0392,0.073 -0.1175,0.036c0.3133,0.074 0.47,0.294 0.5484,0.442c0.1175,0.183 0.1567,0.294 0.5876,0.441c-0.0784,0 -0.0392,0.11 -0.0784,0.147c0.0783,0.036 0.1175,0.036 0.1959,0.073l0.3525,0.184l-0.1958,0.11l0.7051,0.147l0.235,0.478l0.3134,0.111c0.3525,0.808 1.4885,1.323 2.1153,2.242l0.0392,-0.331c0.6659,0.331 1.2535,0.772 1.8802,1.287c0.3134,0.257 0.6268,0.515 0.901,0.772c0.4309,0.404 0.901,0.809 1.3319,1.213c0.9793,0.882 2.0369,1.875 3.1337,2.831c1.0969,0.955 2.1937,1.911 3.2122,2.683l0.1175,0.368l0.1959,0.147c0.0783,-0.184 0.1175,-0.368 0.1958,-0.515l0.1175,-0.22c0.0392,-0.074 0.0784,-0.111 0.0784,-0.294c0.1958,-0.368 0.1958,-0.184 0.1567,0.11c-0.0392,0.368 -0.1176,0.478 -0.0392,0.478c0,-0.037 0.0392,-0.037 0.0392,-0.11c0,-0.074 0.0391,-0.111 0.0391,-0.184c0.0392,-0.111 0.0392,-0.221 0.0392,-0.294c0.0392,-0.184 0.0392,-0.331 0.0783,-0.478c0.0392,-0.258 0.0392,-0.405 0.0392,-0.588c0,-0.331 0.0392,-0.662 0.2351,-1.765c0.3525,-0.919 0.0783,0.515 0,1.14c0.0391,-0.258 0.1175,-0.552 0.1566,-0.846c0.0392,-0.294 0.0784,-0.588 0.1567,-0.882c0.0392,-0.147 0.0392,-0.294 0.0784,-0.441l0.0392,-0.478c0.0391,-0.331 0.0783,-0.625 0.0783,-0.919c-0.0392,-0.662 0,-1.25 -0.0783,-1.875c-0.0392,-0.294 -0.0392,-0.552 -0.0784,-0.809c-0.0392,-0.257 -0.0783,-0.515 -0.1175,-0.698c-0.0392,-0.037 -0.1175,-0.147 -0.1175,-0.074c-0.1175,-0.404 -0.1959,-0.845 -0.3526,-1.287c-0.0783,-0.22 -0.1567,-0.441 -0.1958,-0.661c-0.0392,-0.111 -0.0784,-0.221 -0.1176,-0.331l-0.0391,-0.184l-0.0392,-0.11c-0.1175,-0.331 -0.235,-0.625 -0.3525,-0.956c-0.1176,-0.294 -0.2351,-0.625 -0.3918,-0.882c0.1175,0 0.2351,0.257 0.3918,0.551c-0.1567,-0.404 -0.3526,-1.029 -0.6268,-1.323l0.3917,0.367c-0.3525,-0.882 -1.371,-2.426 -1.2535,-2.72c-0.0392,0.147 -0.1959,0.147 -0.5876,-0.552c0.0784,-0.551 -1.2143,-1.838 -1.6452,-3.014c0.1567,0.074 0.6267,0.882 0.5092,0.662c-0.235,-0.588 -0.6659,-0.993 -1.0185,-1.434l0.1959,0.074c-0.5484,-0.809 -1.0577,-1.618 -1.5277,-2.427c0.0391,-0.257 -0.2351,-0.845 -0.5093,-1.36c-0.2742,-0.515 -0.5092,-0.956 -0.3525,-0.919c-0.3526,-0.882 0.1567,0.809 -0.3526,-0.331c0,-0.184 -0.1175,-0.441 -0.1958,-0.625c-0.0784,-0.22 -0.1567,-0.367 -0.0392,-0.404l0.0783,0.11c-0.0783,-0.257 -0.1958,-0.515 -0.2742,-0.772c0.1176,0.147 0.2351,0.294 0.3918,0.441c-0.0784,-0.147 -0.1567,-0.331 -0.2351,-0.441c-0.0783,-0.11 -0.1567,-0.294 -0.1958,-0.257c-0.1176,-0.037 -0.1959,-0.111 -0.3134,-0.111c0.0392,-0.147 0,-0.33 0,-0.477c0,-0.147 0,-0.258 0.1175,-0.258l0.0784,0.111c-0.0784,-0.368 0.0783,-0.552 0.2742,-0.589c0.1566,-0.073 0.2742,0 0.1566,-0.588c0.0392,0.037 0.0784,0.147 0.0784,0.221l0.0392,-0.074l0.0391,0.037l0.1176,0.11l0.0391,0.037l0.0392,0.11l0.0392,0.147l0,-0.036c0.0391,-0.074 0.1175,-0.111 0.235,-0.111l0.0392,0.147c0.1175,0.147 0.2742,0.258 0.4309,0.368l0.1175,0.11l0.0783,0.037l0.0392,0.037l0.0392,0l0.0783,0.073c0.3526,0.331 0.7443,0.662 1.0577,0.956l-0.2351,-0.147c1.5669,1.25 1.3319,1.397 2.4679,2.353c-0.0392,0 -0.1175,-0.037 -0.1567,-0.074c0.3134,0.294 0.6268,0.625 0.9401,0.919l-0.2742,-0.147c0.8618,0.515 1.7236,2.206 1.4494,1.618c0.4701,0.331 1.2144,0.919 1.4102,0.956c0.9793,1.029 0.1175,0.33 0.666,1.066c0.6659,0.772 0.9793,0.772 1.8019,1.911l-0.1175,0.037c0.4309,0.478 0.7834,0.735 1.371,1.434l-0.235,-0.184c0.5875,0.515 0.8226,0.919 1.0576,1.25c0.3917,0.551 0.8618,1.176 1.6061,1.728c0.1567,0.22 0.3525,0.478 0.5484,0.772c0.235,0.294 0.4309,0.625 0.6659,0.919c0.3917,0.588 0.7051,1.066 0.666,1.139c1.3318,1.618 2.4678,3.088 3.6038,4.522c0.1567,-0.221 0.3526,-0.441 0.5093,-0.625c0.0783,-0.11 0.1958,-0.22 0.2742,-0.294c0.1175,-0.221 0.235,-0.441 0.3525,-0.698c0.1959,0.036 0.235,-0.074 0.3917,-0.368c0.1176,-0.294 0.2742,-0.699 0.7051,-1.25l-0.1567,-0.11c0.1959,-0.368 0.3918,-0.736 0.5876,-1.14c0.1567,-0.404 0.3526,-0.772 0.5484,-1.213c0.0784,-0.221 0.1567,-0.441 0.2351,-0.662c0.0783,-0.22 0.1567,-0.441 0.235,-0.698c0.0392,-0.258 0.1175,-0.515 0.1567,-0.772l0.0784,-0.405c0.0391,-0.147 0.0391,-0.294 0.0391,-0.441c0.0392,-0.588 0.1567,-1.139 0.1175,-1.764l0,-0.956c0,-0.331 -0.0783,-0.625 -0.0783,-0.956l-0.1175,-0.956c-0.0392,-0.22 -0.0784,-0.404 -0.1175,-0.588c-0.0784,-0.404 -0.1567,-0.772 -0.2742,-1.14l0.1566,-0.147c-0.1175,-0.183 -0.235,-0.367 -0.3917,-0.551c-0.3917,-1.618 -0.9793,-3.345 -1.5277,-4.963c-0.5484,-1.617 -1.0577,-3.088 -1.4102,-4.191c-0.3134,-0.698 -0.8618,-1.727 -1.0185,-2.867l0.0392,0.11c-0.2351,-0.956 -0.3917,-1.948 -0.3917,-2.904l0,-0.074l0,-0.036l0,-0.037l0,-0.074c0,-0.073 0,-0.11 0.0391,-0.183c0.0392,-0.111 0.0784,-0.221 0.1567,-0.294c0.0392,0.11 0.1175,0.147 0.1567,0.22c-0.0783,-0.147 -0.0392,-0.22 0,-0.22c0.0392,0 0.1175,0 0.1175,0c-0.0391,-0.074 -0.0783,-0.111 -0.1567,-0.148c0,-0.11 0,-0.147 0,-0.22c0.0392,0 0.0784,0.037 0.1176,0.11c0.0783,0.11 0.1566,0.258 0.1958,0.368c0.0392,-0.074 0.0784,-0.11 0.1567,-0.147c0,0.037 0.0392,0.073 0,0.11c0,-0.037 0.0392,-0.073 0.0392,-0.073c0,0.11 0,0.22 0,0.33c0.0392,0 0.0783,0 0.1958,0l0.0392,0.037l0.1175,0.074c0.0784,0.073 0.1959,0.11 0.2742,0.147c0.1567,0.11 0.3526,0.184 0.4701,0.184c0,0.11 0.7051,0.808 0.1175,0.367c0.2351,0.221 0.4701,0.405 0.7051,0.625l0.666,0.699l0.6659,0.698c0.1958,0.221 0.3917,0.478 0.6267,0.735l-0.3133,-0.514c0.1175,-0.184 0.9401,0.625 1.2535,1.139c-0.6268,-0.514 -0.2742,0.111 -0.1567,0.441c0.1959,0.184 0.1567,0.074 0.1175,-0.073c-0.0392,-0.147 -0.1175,-0.294 0,-0.221c0.5092,0.441 1.4102,1.508 1.5277,1.838l-0.3134,-0.257c0.3134,0.331 0.4309,0.662 0.5485,0.956c0.1175,0.294 0.235,0.625 0.47,0.956c0.3134,0.294 0.4701,0.588 0.6268,0.772c0.1567,0.183 0.235,0.257 0.3525,0.11c0.666,0.956 0.0392,0.478 0.1959,0.809c0.4309,0.367 1.0968,1.838 1.0577,2.095c0.1958,0.074 0.3525,0.294 0.5092,0.588c0.1567,0.294 0.3134,0.625 0.4309,0.956c0.2742,0.662 0.5092,1.287 0.7443,1.324l0.1567,0.955c0.0391,0 0.0783,0 0.1175,0c0.0391,0 0.0391,0.037 0.0783,0.037c0.0392,0.037 0.0392,0.037 0.1175,0.074c0.1959,0.22 0.4309,0.588 0.7443,1.213c0.3917,1.323 0.1175,1.176 0.1959,1.691c0.235,0.184 0.4309,0.331 0.6267,0.478c0.1959,0.514 0.3526,1.029 0.5484,1.58c0.1959,0.552 0.3918,1.14 0.5876,1.728c0.3918,1.213 0.8226,2.427 1.2535,3.676c0.8618,2.574 1.802,5.221 2.7029,7.904l0.1959,-0.367l0.1567,-0.221l0.3134,-0.478l0.3133,-0.478l0.0392,-0.073c0,0 0.0392,-0.074 0.0392,-0.111l0.1175,-0.294l0.235,-0.551c0.5876,-1.434 1.0969,-2.61 1.5669,-3.676c0.1175,-0.294 0.1959,-0.625 0.3134,-0.956c0.1175,-0.331 0.1959,-0.662 0.3134,-1.029c0.1959,-0.736 0.3917,-1.544 0.5484,-2.427c0.3134,-1.801 0.5092,-3.97 0.5876,-6.139c0,0.184 0.0392,0.368 0.0392,0.515c0.0391,-0.735 0.0783,-1.471 0.1175,-2.206l0.0783,-2.132l0,0.11l0,0.074l0,0.11l-0.0392,0.404l-0.0783,0.809c-0.0392,0.552 -0.0783,1.066 -0.1175,1.581c0,-0.993 -0.1175,-1.765 -0.0784,-2.647c0,-0.11 0,-0.257 0.0392,-0.368c0,-0.073 0,-0.183 0.0392,-0.257c0,-0.184 0.0392,-0.331 0.0392,-0.515c0.0391,-0.367 0.0391,-0.698 0.0783,-1.066c0.0392,-0.735 0.1175,-1.507 0.1959,-2.242c0.1567,-1.507 0.3525,-3.051 0.6659,-4.448c0,-0.478 0.0784,-0.772 0.1567,-0.993c0.0392,-0.073 0.1175,-0.11 0.1959,-0.11c0.1566,-0.037 0.235,0.073 0.1958,-0.184c0,0.074 0.0784,0.11 0.0784,0.184c0,-0.147 0,-0.331 0.1175,-0.588l0.0391,-0.074c0,0 0.0392,0 0.0392,-0.037c0.0392,0 0.0784,-0.036 0.1175,-0.036c0.0784,-0.037 0.1567,-0.037 0.2742,-0.037c-0.1175,0.257 -0.0783,0.331 0,0.331c0.0392,0.036 0.1567,0.036 0.0392,0.147c0.0392,-0.037 0.1175,-0.111 0.1567,-0.147c0,0.22 0,0.404 -0.1175,0.441c0.0392,0 0.0783,0 0.1567,0.037l0.0392,0.036c0,0 0.0391,0.037 0.0391,0.074l0.1175,0.184l-0.1566,0.11c0.1566,0.515 0.3917,1.323 0.47,2.169c0.1175,0.845 0.1175,1.654 -0.0783,1.985c0.0391,0.184 0.0783,0.368 0.0783,0.588c0.0392,0.221 0.0392,0.441 0.0784,0.662c0.0391,0.441 0.1175,0.919 0.1566,1.397c0.0784,0.992 0.1959,2.022 0.2743,3.088c0.1567,2.132 0.2742,4.411 0.3525,6.396c0.1959,0.552 0.2742,1.728 0.3526,2.611l-0.1567,0.992c0.1175,0.919 0.5092,1.875 0.3917,2.757c-0.0392,0 -0.0392,-0.037 -0.0784,-0.11c0.0392,0.22 0.0392,0.478 0.0392,0.698c0,0.294 0.0392,0.625 0.0392,0.919c0.0392,0.846 0.1175,1.655 0.3134,2.39c0.0391,0.919 0.0783,1.875 0.0783,2.573c0,0.662 -0.0783,1.103 -0.1958,0.919c0.1958,-0.11 0.235,0.919 0.235,1.985c0,1.103 -0.0392,2.28 -0.0392,2.28c0,0 0.1175,1.764 0.2742,4.999c1.6844,-1.985 3.9564,-4.632 6.816,-8.051c0.7051,-0.845 1.4494,-1.727 2.2328,-2.61c0.3918,-0.441 0.7835,-0.919 1.2144,-1.36c0.1958,-0.22 0.4309,-0.478 0.6659,-0.698c0.8226,-0.919 1.7628,-1.875 2.7029,-2.794c0.4701,-0.478 0.9793,-0.919 1.4494,-1.324c0.4701,-0.404 1.0185,-0.808 1.3318,-0.992l0.0784,-0.037c0,0 0,0 0.0392,0l-0.0392,-0.073c-0.0784,-0.148 -0.1567,-0.331 -0.1959,-0.478c-0.0783,-0.147 -0.1175,-0.294 -0.1567,-0.442c-0.0391,-0.147 -0.0783,-0.257 -0.1175,-0.367c-0.0392,-0.11 -0.0392,-0.257 -0.0392,-0.331c-0.0391,-0.404 0.0392,-0.625 0.0392,-0.588c0,0.037 -0.235,0.22 -0.7051,0.441l-0.3917,0.11c-0.1567,0.037 -0.2742,0.074 -0.4701,0.111c-0.1958,0.036 -0.3525,0.073 -0.5484,0.11l-0.1567,0c-0.0392,0 -0.1175,0 -0.0783,0c0,0 0,0.11 0,0.184c0,0.11 0,0.22 0,0.367l-0.0392,0.221c0,0.037 0,0 0,0l0,-0.037l0,0.037l-0.0392,0.073l-0.1567,0.294c-0.1958,0.368 -0.3917,0.772 -0.5875,1.14c-0.3918,0.772 -0.7443,1.544 -1.0969,2.316c-0.1567,0.404 -0.3525,0.772 -0.5092,1.176c-0.1567,0.405 -0.3134,0.809 -0.4701,1.214c-0.3134,0.808 -0.6267,1.617 -0.9009,2.426c-1.136,3.235 -2.037,6.507 -2.7421,9.631c-0.7443,3.125 -1.371,6.103 -1.9586,8.86c-0.5876,2.72 -1.1752,5.183 -1.7236,7.279c-0.2742,1.066 -0.5484,2.022 -0.7835,2.867c-0.235,0.846 -0.47,1.655 -0.6267,2.316c0,0.441 -0.3917,1.581 0,1.25c-0.3134,0.846 -0.8226,1.103 -0.7051,1.324c0.6659,-1.066 0.2742,0.551 1.0576,-0.442l-0.3133,0.736c0.0391,0.184 0.3133,-1.03 0.47,-0.772l-0.235,-0.331c0.3134,-0.552 0.5484,-0.846 0.7443,-0.993c0.1175,-0.588 -0.1959,-1.139 0.5484,-2.352l-0.1175,0.367c0.4309,-1.066 0.5092,-0.588 0.6267,-0.772l-0.1175,0.221c0.1959,-0.294 0.3526,-0.588 0.5092,-0.846c-0.3525,0.662 -0.5875,1.912 -0.3525,1.287c0.6267,-1.25 -0.235,0.294 0.1567,-0.662c0.1958,-0.625 0.3134,-0.367 0.4309,-0.331l0.3917,-1.103c0.1567,0.074 -0.2742,0.736 0.0392,0.331l0.3134,-1.433c0.5092,-0.147 0.2742,-1.581 0.9009,-2.133c-0.235,1.03 0.1567,-0.036 0.2351,0.147c0.2742,-0.845 0.47,-1.691 0.7051,-2.499c0.1175,-0.221 -0.0784,0.698 0.0391,0.294c0.2351,-0.441 0.1175,-0.809 0.1959,-1.066c0.1567,-0.184 0.5092,-1.875 0.7443,-1.765c0.6267,-1.654 -0.1567,-0.809 0.3917,-2.353c0.235,-0.183 -0.2742,1.287 0.0783,0.589l0.3526,-1.655c0.0392,0.184 0.1958,0.368 0,0.993c1.3318,-4.448 2.7812,-6.654 3.6822,-10.698c0.3525,-0.515 0,0.441 0.0392,0.882c0.2742,-1.507 0.7051,-2.463 1.136,-3.382c0.4308,-0.919 0.9401,-1.727 1.3318,-2.941l-0.1567,-0.11c0.4701,-0.772 0.8618,-1.617 1.2535,-2.5c0.4309,-0.845 0.8227,-1.764 1.2927,-2.647c0.2351,-0.441 0.4701,-0.882 0.7051,-1.323l0.4309,-0.846l0.1567,-0.294c0.0392,-0.11 0.1175,-0.22 0.1175,-0.33l0.1175,-0.662l0.0784,-0.515l0.0392,-0.478c0,-0.367 0.0391,-0.698 -0.0392,-1.139c-0.0783,-0.442 -0.1175,-0.919 -0.5484,-1.655c-0.0392,-0.073 -0.1175,-0.183 -0.1959,-0.257c-0.0783,-0.073 -0.1567,-0.184 -0.235,-0.294c-0.1567,-0.184 -0.3917,-0.368 -0.6268,-0.515c-0.5092,-0.331 -1.0968,-0.478 -1.5669,-0.514l0.2351,0.036c0.0783,0 0.1567,0.037 0.235,0.074c0.1567,0.037 0.3134,0.11 0.5092,0.184c0.3526,0.147 0.666,0.367 0.901,0.588c-0.4701,-0.368 -1.2535,-0.662 -1.8803,-0.662c-0.3133,0 -0.5875,0 -0.8618,0.074c-0.235,0.036 -0.47,0.11 -0.6267,0.184c-0.7443,0.257 -1.1752,0.588 -1.5669,0.845c-0.0783,0 0,-0.147 -0.0392,-0.184c-0.0392,-0.037 -0.2742,0.037 -0.8618,0.478c0.2742,-0.147 0.8618,-0.441 0.7443,-0.294c-1.0185,0.551 -2.037,1.323 -3.0946,2.279c-1.0577,0.919 -2.1153,2.022 -3.2121,3.199c-0.2743,0.294 -0.5485,0.588 -0.8227,0.882l-0.0783,0.11l-0.0392,0.037l-0.0392,0.037l-0.0783,0.073l-0.3134,0.294c-0.1958,0.184 -0.3525,0.331 -0.4309,0.331c-0.0391,-0.184 -0.0783,-0.515 -0.0783,-0.809l0,-0.22l0,-0.074l0,-0.037l0,-0.183l-0.0392,-0.772c-0.0392,-0.993 -0.1175,-2.022 -0.1567,-3.015c-0.1958,-4.044 -0.4309,-8.051 -0.7443,-11.874c0.0784,1.177 -0.3525,0.699 -0.3133,-0.184c0.2742,-1.213 0.1958,-2.242 0.0391,-3.308c-0.1566,-1.103 -0.3525,-2.206 -0.3525,-3.603c-0.1175,-0.404 -0.1959,-0.772 -0.3134,-1.176c-0.1175,-0.405 -0.235,-0.772 -0.3917,-1.213c-0.4701,-1.177 -0.9793,-2.427 -1.7236,-3.346c-0.7443,-0.956 -1.5669,-1.764 -2.4679,-2.316c-0.4309,-0.294 -0.9009,-0.588 -1.371,-0.845c-0.4701,-0.294 -1.0185,-0.625 -1.4102,-0.846l-0.6659,0.772l-0.6268,0.735c-0.4309,0.478 -0.8226,0.993 -1.2143,1.508c-0.1959,0.257 -0.3918,0.551 -0.5484,0.845c-0.1567,0.294 -0.3918,0.552 -0.5093,0.883c-0.3134,0.624 -0.6267,1.286 -0.7834,1.911l-0.2351,0.037c-0.1175,0.257 -0.235,0.478 -0.3133,0.625c-0.0392,0.11 -0.0784,0.257 -0.0784,0.367c-0.0392,0.221 -0.0783,0.478 -0.1958,0.846l-0.0392,-0.037c-0.2742,0.846 -0.4309,1.802 -0.5484,2.647c-0.1176,0.846 -0.1567,1.581 -0.2351,2.059l0.2351,0.073c-0.0392,0.956 -0.2351,0.515 -0.1567,1.471l-0.1175,-0.037c0.0391,0.404 0.1175,0.772 0.1567,1.14c-0.1959,-0.074 -0.2351,0.625 -0.2351,1.36c0,0.367 0,0.772 0,1.139c0,0.258 0,0.184 0,0.221l-0.0392,0.037c0.0392,0.073 0.0784,0.22 0.1176,0.404c0.0391,0.184 0.0391,0.404 0,0.478c-0.1959,-0.294 -0.2351,-0.074 -0.3134,-0.257c0,0.11 0,0.257 -0.0392,0.367c0,0.111 -0.0392,0.037 -0.0392,0.037c0,-0.037 -0.0391,-0.073 -0.0391,-0.11c-0.0392,-0.111 -0.0784,-0.258 -0.1176,-0.405l-0.0391,0.552l-0.0784,-0.11c0,-0.111 0.0392,-0.184 0.0392,-0.221c0.0392,-0.294 0,-0.294 -0.0392,-0.294c-0.0391,0 -0.0783,0 -0.0391,-0.147c-0.1176,0.294 0,0.11 0.0391,0.184c0,0.11 -0.0391,0.257 -0.0783,0.33c-0.0392,0.037 -0.0784,0 -0.1175,-0.183l0.0391,-0.074c-0.0391,0 -0.0783,0 -0.1567,0c0.1176,-0.184 0.1567,-0.367 0.3134,-0.478c0,-0.037 -0.0391,-0.037 -0.0391,-0.037c-0.1567,-0.33 -0.3134,-0.624 -0.4701,-0.955c-0.3134,-0.625 -0.6659,-1.177 -0.9793,-1.765c-0.1567,-0.294 -0.3134,-0.588 -0.5093,-0.882c-0.1567,-0.294 -0.3525,-0.588 -0.5484,-0.882c-0.3525,-0.625 -0.7051,-1.287 -1.136,-1.986c0.3526,0.184 -1.2927,-1.985 -0.5876,-1.617c-1.2535,-1.581 -0.0783,0.441 -0.8226,-0.184c-0.3134,-0.478 -0.7051,-0.882 -0.6659,-1.029c0.235,0.184 -0.0392,-0.478 0.235,-0.147l-0.3917,-0.552l-0.4309,-0.514c-0.0392,-0.111 0.1567,0.073 0.2742,0.183c-0.4701,-0.514 -0.8618,-1.029 -1.2143,-1.544c-0.3918,-0.477 -0.7443,-0.955 -1.136,-1.433c-0.1959,-0.221 -0.3526,-0.478 -0.5484,-0.699c-0.1959,-0.22 -0.3918,-0.441 -0.6268,-0.661c-0.4309,-0.442 -0.8618,-0.883 -1.371,-1.25c-0.1175,0 0.0783,0.147 0.235,0.33c0.1567,0.184 0.3526,0.368 0.235,0.368c-0.47,-0.404 -0.8618,-0.698 -1.136,-0.919c-0.2742,-0.257 -0.47,-0.441 -0.6267,-0.662c-0.0784,-0.11 -0.1959,-0.22 -0.2742,-0.294c-0.0392,-0.037 -0.1175,-0.11 -0.1567,-0.184c-0.0392,-0.036 -0.0784,-0.073 -0.1175,-0.11c-0.0392,-0.037 -0.1175,-0.073 -0.1567,-0.147c-0.4701,-0.331 -1.0577,-0.772 -1.9195,-1.287l0.7443,0.295c-0.5876,-0.331 -0.9793,-0.515 -1.4494,-0.809c-0.235,-0.147 -0.5092,-0.294 -0.7834,-0.515c-0.3134,-0.147 -0.6268,-0.331 -1.0577,-0.588c-0.1567,-0.221 0.1959,-0.074 0.7051,0.147c0.1175,0.073 0.2742,0.11 0.3918,0.184c0.1566,0.11 0.3133,0.184 0.4309,0.294c0.3133,0.184 0.5875,0.367 0.8226,0.478c-0.3134,-0.221 -0.7443,-0.515 -1.2144,-0.846c-0.1175,-0.073 -0.235,-0.11 -0.3525,-0.184c-0.1175,-0.036 -0.235,-0.11 -0.3526,-0.147c-0.235,-0.11 -0.4309,-0.183 -0.6267,-0.294c-0.7835,-0.331 -1.2927,-0.514 -0.8226,-0.147c-0.3526,-0.147 -0.6268,-0.294 -0.901,-0.441c-0.1175,-0.073 -0.2351,-0.147 -0.3526,-0.184c-0.0391,-0.036 -0.1175,-0.073 -0.1567,-0.11c-0.0391,0 -0.0391,-0.037 -0.0783,-0.037l-0.0392,0.074c-0.235,0.331 -0.4309,0.588 -0.6659,0.956c0.0392,0.073 0.7834,-1.14 0.3917,-0.221c-0.1175,0.221 -0.2742,0.478 -0.4309,0.698c-0.1567,0.258 -0.2742,0.515 -0.4309,0.772c-0.1567,0.258 -0.3134,0.552 -0.47,0.846c-0.1567,0.294 -0.2742,0.625 -0.4309,0.956c-0.1567,0.294 -0.2351,0.698 -0.3526,1.029l-0.1567,0.552c-0.0391,0.183 -0.1175,0.367 -0.1567,0.551c-0.0391,0.404 -0.1175,0.772 -0.1567,1.14c-0.0783,0.367 -0.1175,0.735 -0.1175,1.102c-0.0391,-0.036 -0.1567,0.184 -0.1567,-0.073c0,0.073 0,0.147 0.0392,0.184c0,0.037 0,0.073 0,0.11c0,0.074 0,0.147 0.0392,0.221c0,0.147 0,0.257 0,0.367c0,0.221 0,0.405 -0.0392,0.625c-0.1175,0.735 -0.1958,1.213 -0.0392,2.169z"/>
  <path id="svg_125" fill="#202222" d="m19.748,39.941c0,-0.073 -0.0392,-0.147 -0.0392,-0.22c-0.0392,0 -0.1175,0 -0.1959,-0.074c0.0392,0.074 0.1567,0.184 0.2351,0.294z"/>
  <path id="svg_126" fill="#202222" d="m15.478,13.987c0.0784,0.037 0.1958,0.111 0.2742,0.147c-0.1958,-0.147 -0.235,-0.147 -0.2742,-0.147z"/>
  <path id="svg_127" fill="#202222" d="m23.1167,20.274c-0.4309,-0.331 -0.1175,0.037 0.0392,0.257c0.0392,0 0.0784,-0.073 -0.0392,-0.257z"/>
  <path id="svg_128" fill="#202222" d="m15.3215,39.537c0.1176,0.073 0.1567,0.073 0.1959,0.037c-0.1567,-0.074 -0.1959,-0.074 -0.1959,-0.037z"/>
  <path id="svg_129" fill="#202222" d="m14.5772,67.218c0,-0.073 -0.0391,-0.11 -0.0391,-0.183c0,0.036 0,0.073 0.0391,0.183z"/>
  <path id="svg_130" fill="#202222" d="m13.8329,64.719c-0.0392,-0.111 -0.1175,-0.258 -0.235,-0.478c0.0783,0.22 0.1567,0.367 0.235,0.478z"/>
  <path id="svg_131" fill="#202222" d="m20.4921,42.735c0,-0.11 0,-0.221 -0.0392,-0.368c0,0.147 0,0.294 0.0392,0.368z"/>
  <path id="svg_132" fill="#202222" d="m13.3235,63.8l-0.235,-0.589l-0.0392,0l0.2742,0.589z"/>
  <path id="svg_133" fill="#202222" d="m14.8905,67.954c-0.1175,-0.221 -0.235,-0.552 -0.3134,-0.772c0.0784,0.331 0.1959,0.588 0.3134,0.772z"/>
  <path id="svg_134" fill="#202222" d="m3.09956,39.684c0,-0.037 0,-0.074 0,-0.11c-0.19592,-0.662 -0.11755,-0.221 0,0.11z"/>
  <path id="svg_135" fill="#202222" d="m11.7568,61.337c0,-0.037 0,-0.074 -0.0392,-0.074l-0.1175,-0.147l0.1567,0.221z"/>
  <path id="svg_136" fill="#202222" d="m15.9872,70.564c-0.0391,-0.11 -0.1175,-0.221 -0.1566,-0.294c0.0391,0.11 0.0783,0.22 0.1175,0.331c0,-0.037 0.0391,-0.037 0.0391,-0.037z"/>
  <path id="svg_137" fill="#202222" d="m6.4292,49.205c0.1567,0.147 0.235,0.184 0.2742,0.184c-0.0783,-0.221 -0.1567,-0.331 -0.2742,-0.184z"/>
 </g>
</svg>