<svg width="115" height="160" viewBox="0 0 115 160" fill="none" xmlns="http://www.w3.org/2000/svg">
<g clip-path="url(#clip0)">
<path d="M49.3086 76.4742L42.7981 53.7461L43.1047 38.479L51.4288 44.3386L53.475 46.953L56.1023 30.705L60.0947 19.0585L63.077 17.2454L65.374 24.3184L64.1512 40.2621L73.0282 26.9422L83.8077 18.852L84.7982 22.9492L79.496 38.4168L79.7481 45.267L93.716 30.0713L99.9956 26.724L99.5638 32.0759L90.7374 46.7454L88.4547 53.2049L103.352 44.5792L104.236 45.3946L101.925 51.537L94.0492 68.9235L86.9218 79.7346L80.1658 85.0706L70.1948 90.6027L49.3086 76.4742Z" fill="#FCF9EB"/>
<path d="M4.94763 131.126C4.94763 131.126 19.0837 117.935 22.1025 114.119C25.1214 110.303 35.28 99.233 38.4804 93.1906C41.7114 87.1586 46.1201 83.58 47.3081 80.9128C48.4962 78.2456 50.3859 76.1263 53.6909 77.4642C56.9854 78.8327 61.6949 84.9563 65.5319 85.0418C69.3688 85.1273 71.0432 90.7229 71.1034 92.1441C71.1637 93.5653 70.585 100.643 67.3677 106.236C64.1505 111.828 47.2317 140.223 46.7216 141.312C46.2114 142.401 26.5429 144.883 22.1752 143.351C17.8074 141.82 3.71096 136.031 5.07841 135.236C6.44586 134.441 0.924194 133.88 4.94763 131.126Z" fill="#FAF090"/>
<path d="M58.2861 124.644C58.3071 124.686 58.3071 124.686 58.339 124.697C58.3499 124.665 58.318 124.654 58.2861 124.644Z" fill="#1E1F1F"/>
<path d="M64.7375 113.908L64.7158 114.072C64.7472 113.98 64.7375 113.908 64.7375 113.908Z" fill="#1E1F1F"/>
<path d="M54.4684 131.089C54.4064 131.171 54.3234 131.313 54.1888 131.506L54.4684 131.089Z" fill="#1E1F1F"/>
<path d="M71.614 87.1606L71.7663 87.3153C71.6954 87.2227 71.6753 87.1816 71.614 87.1606Z" fill="#1E1F1F"/>
<path d="M69.6667 104.12C69.6571 104.048 69.678 103.987 69.7095 103.896C69.678 103.987 69.6466 104.079 69.6667 104.12Z" fill="#1E1F1F"/>
<path d="M50.9479 133.674L51.1638 133.543C51.1026 133.522 51.0204 133.563 50.9479 133.674Z" fill="#1E1F1F"/>
<path d="M49.6017 138.2C49.6226 138.139 49.6436 138.078 49.675 137.986C49.6129 138.067 49.5404 138.179 49.6017 138.2Z" fill="#1E1F1F"/>
<path d="M2.05738 131.672C1.90266 131.824 1.80917 131.997 1.7052 132.201L2.05738 131.672Z" fill="#1E1F1F"/>
<path d="M48.5903 75.3784L48.6549 75.2938C48.5693 75.3356 48.5584 75.3674 48.5903 75.3784Z" fill="#1E1F1F"/>
<path d="M2.55492 132.629L2.41556 132.723C2.49027 132.713 2.53309 132.692 2.55492 132.629Z" fill="#1E1F1F"/>
<path d="M52.625 129.979C52.6371 129.744 52.957 129.41 52.8756 129.348C52.7612 129.582 52.5138 129.805 52.625 129.979Z" fill="#1E1F1F"/>
<path d="M48.0456 82.2585L47.97 82.375C48.0237 82.3222 48.0346 82.2903 48.0456 82.2585Z" fill="#1E1F1F"/>
<path d="M2.54935 132.632L2.72061 132.549C2.68871 132.538 2.65682 132.527 2.6459 132.559C2.60309 132.58 2.59217 132.611 2.54935 132.632Z" fill="#1E1F1F"/>
<path d="M32.5601 97.6856C32.5915 97.5939 32.6536 97.5127 32.685 97.421C32.5819 97.5222 32.5504 97.614 32.5601 97.6856Z" fill="#1E1F1F"/>
<path d="M1.71563 132.17L1.50853 132.475C1.61167 132.374 1.6431 132.282 1.71563 132.17Z" fill="#1E1F1F"/>
<path d="M23.8621 108.886C23.873 108.855 23.9267 108.802 23.9377 108.77C23.8948 108.791 23.873 108.855 23.8621 108.886Z" fill="#1E1F1F"/>
<path d="M69.2206 105.026C69.2097 105.058 69.1669 105.079 69.1451 105.143C69.1451 105.143 69.177 105.153 69.2206 105.026Z" fill="#1E1F1F"/>
<path d="M69.7588 95.1675C69.8418 95.0252 69.8233 94.7797 69.7629 94.6565C69.7105 94.8093 69.6992 94.9421 69.7588 95.1675Z" fill="#1E1F1F"/>
<path d="M67.0467 101.383C67.0895 101.362 67.1113 101.298 67.1541 101.277C67.1541 101.277 67.1004 101.33 67.0467 101.383Z" fill="#1E1F1F"/>
<path d="M52.8999 80.3699C53.6242 80.6523 54.5419 81.0694 55.4588 81.5886C55.6828 81.7337 55.9478 81.8588 56.1718 82.0039C56.4264 82.1595 56.6504 82.3046 56.8744 82.4497C57.3529 82.7503 57.8009 83.0405 58.1771 83.3403C58.6783 83.3755 59.2076 83.7277 59.7579 84.0188L59.6225 84.314L60.1325 84.523C60.2638 84.7388 59.745 84.356 60.0189 84.6549L60.3162 84.586C60.2743 84.7083 61.4047 85.4032 60.5168 85.0988L62.2063 86.2587C62.5624 86.5174 62.5753 86.1803 62.9411 86.5106C62.9604 86.6539 62.7469 86.4782 62.7154 86.5699C63.8329 87.602 64.513 87.0153 65.6006 87.9347L65.4781 87.8927C65.7336 87.9461 66.0897 88.2048 66.1308 88.1847C66.1542 87.817 65.8238 88.182 65.5813 87.7914C65.757 87.5784 66.1018 87.9698 66.2057 87.7664C66.4184 88.0442 66.6747 87.9954 66.9293 88.151C67.233 88.5626 67.855 88.8441 67.9645 89.2233C68.1893 89.2662 68.5478 89.2183 68.8629 89.4971C68.9111 89.8552 68.688 89.6079 68.8902 89.9164L69.0546 89.8361C69.2471 90.0729 69.1754 90.0824 69.0932 90.1226C69.2858 90.3594 69.4509 90.1769 69.5605 90.5561C69.4686 90.5246 69.4074 90.5036 69.3156 90.4721C69.529 90.6478 69.5588 90.7605 69.6587 91.068C69.5765 91.1081 69.5266 90.9544 69.5169 90.8827C69.4339 91.0251 69.4847 91.0766 69.5765 91.1081C69.6684 91.1396 69.7602 91.1711 69.7393 91.2322C69.7908 91.1816 69.7312 90.9562 69.9254 90.9886C69.9649 91.1729 70.2606 91.3084 70.0954 91.4909C70.014 91.4289 69.9632 91.3773 69.9125 91.3258C70.1042 91.6648 70.1671 91.4814 70.163 91.9924C70.1428 91.9513 70.1018 91.9714 70.0711 91.9609C70.3144 92.2492 70.096 92.6868 70.0202 93.2074L69.9904 93.0947C70.0194 93.3096 70.141 93.4537 70.0991 93.576C70.2345 93.2808 70.2748 93.363 70.4384 93.3849C70.108 93.7499 70.6067 94.0916 70.2738 94.7632C70.182 94.7317 70.1119 94.5369 70.2771 94.3544C70.0749 94.046 69.8606 93.9725 69.8026 93.5427C69.8211 93.7882 69.7776 94.1148 69.676 94.0117L69.9 94.1568C69.8782 94.3202 69.8057 94.4319 69.7944 94.5647C69.9265 94.6783 70.1546 94.3124 70.1513 94.7212C70.107 95.1501 69.8331 94.8512 69.9346 94.9543C69.8579 95.5771 70.1263 95.2934 69.8458 95.8121C69.8362 95.7405 69.837 95.6383 69.8886 95.5876C69.6605 95.9535 69.5734 96.6069 69.2559 96.6347C69.2156 96.5526 69.1238 96.5211 69.2068 96.3787L69.2374 96.3892C69.1803 95.8572 69.1729 96.777 68.9393 96.5603C69.1028 96.5822 68.8731 97.1525 68.7587 97.3866L68.9738 97.3578C69.1904 98.4228 68.6274 97.1708 68.3952 98.0477C68.329 98.6399 68.5298 97.8547 68.537 98.2329C68.3806 98.5892 68.155 98.6485 68.0276 99.2198C67.8834 99.3411 67.6867 99.6153 67.4724 99.5419C67.4184 99.8991 66.984 100.468 67.1048 100.714C67.5078 100.237 67.1098 100.101 67.636 99.5638L67.7568 99.8101C67.569 100.258 67.4311 100.86 67.2345 101.134C67.2861 101.084 67.3578 101.074 67.3675 101.146C67.178 101.798 67.2884 102.075 66.9563 102.644C66.7517 102.643 66.9386 102.297 67.0225 102.052C66.7026 102.387 66.8452 102.47 66.5131 103.039C66.3496 103.017 66.6904 102.622 66.5994 102.488L66.3584 103.191L66.3278 103.18C66.5308 103.387 66.0884 103.679 65.9723 104.118C65.5347 105.095 65.778 105.383 65.732 106.016C65.5877 106.138 65.516 106.147 65.4757 106.065C65.7126 105.873 65.6103 105.872 65.5805 105.76C65.4652 106.096 65.0027 106.347 64.9737 106.132C64.7851 106.683 65.1897 106.001 65.1357 106.359L64.7923 107.061C64.9664 107.052 65.1219 106.798 65.0163 107.206C64.901 107.542 64.818 107.684 64.5899 108.05C64.5497 107.968 64.3337 108.099 64.4796 107.773C64.3555 107.936 64.179 108.251 64.2595 108.415C64.6004 108.02 64.0282 109.19 64.3779 108.968L64.037 109.364C64.0991 109.283 64.0177 109.221 64.1007 109.078C63.855 109.097 63.9645 109.476 63.9121 109.629C63.7985 109.76 63.5599 110.157 63.4882 110.166C63.4664 110.33 63.2593 110.635 63.1159 110.654C63.0425 110.868 63.2279 110.726 63.2577 110.839L62.8837 111.531C62.7508 111.519 62.4446 111.414 62.4559 111.281C62.4124 111.608 62.7097 111.539 62.5017 111.946C62.4124 111.608 62.0787 112.382 61.9901 111.942C61.7331 112.093 61.3696 112.754 61.2438 113.121C61.272 113.438 61.5331 112.776 61.6959 112.9C61.2373 113.938 61.6441 114.248 61.1678 114.939L61.3226 114.787C61.1855 115.287 61.1654 115.246 61.1831 115.593C61.0622 115.347 60.3523 115.821 59.988 116.584C60.0484 116.708 60.4103 116.251 60.5005 116.487L60.2506 117.016C60.2095 117.036 60.1999 116.964 60.2208 116.903C60.0532 117.392 59.4988 117.612 59.6607 117.839L59.116 118.13L59.332 117.999C59.3924 118.122 59.153 118.621 59.1417 118.754C58.9732 119.345 58.7879 119.487 58.5099 119.699C58.6332 119.638 58.941 119.539 58.7636 119.956C58.4478 119.78 58.1842 120.749 58.0215 120.624C57.928 120.797 57.6806 121.02 57.7821 121.123L57.5887 120.988C57.8635 121.185 57.5209 121.785 57.3227 122.264C56.9875 121.944 57.0728 122.793 56.6023 122.768C56.8254 123.016 56.2678 123.644 56.4402 123.84C56.2532 124.186 56.0292 124.041 55.8858 124.06L55.8842 124.264C55.6787 124.365 55.2846 125.015 54.9953 125.36L55.0323 125.851L54.8373 125.921C54.8776 126.003 54.7317 126.329 54.917 126.187L54.7824 126.38C55.037 126.536 54.7083 126.697 54.5922 127.135C54.4995 127.206 54.4487 127.154 54.4496 127.052C54.3456 127.255 54.265 127.091 54.1111 127.141C54.2449 127.05 54.1956 128.092 54.5881 127.646C54.721 127.657 54.6259 128.035 54.4712 128.187L54.1642 128.184L54.2737 128.563C54.1278 128.889 53.9127 128.918 53.7571 129.172C53.8821 128.907 53.6203 128.373 53.2673 129.004C53.4236 128.647 53.4051 128.402 53.4374 128.208C53.3544 128.35 53.3028 128.401 53.3254 128.135C53.1062 128.675 53.3745 128.391 53.1352 128.89C52.9418 128.755 52.808 128.846 52.4978 129.252L52.8169 129.02C52.837 129.061 52.8265 129.092 52.8467 129.133C52.9498 129.032 52.9909 129.011 53.0932 129.012C53.0312 129.094 53.0158 129.737 52.8418 129.746C53.438 129.404 52.5983 130.756 52.9786 130.544C53.0189 130.627 52.8214 131.003 52.699 130.961C52.7748 130.44 52.288 131.162 52.1769 130.987C52.1446 131.181 52.5064 130.724 52.4838 130.99C52.3589 131.254 52.1228 131.344 51.9786 131.466L51.9899 131.333L51.6699 131.667C51.7304 131.79 52.0406 131.384 51.9044 131.782C51.8117 131.852 51.6755 132.25 51.5941 132.188C51.545 131.932 51.2993 131.95 51.4347 131.655C51.3097 131.92 50.8939 132.733 51.2742 132.522L51.1082 132.807C51.2935 132.666 51.7472 132.24 51.4353 132.851L51.4047 132.84L51.3289 133.361L51.1129 133.492C51.1742 133.513 51.1733 133.615 51.0903 133.757C51.0186 133.767 50.905 133.899 50.8236 133.837C50.5947 134.305 50.6971 134.306 50.7269 134.418C50.6019 134.683 50.5093 134.754 50.4392 134.559C50.2216 134.894 49.9097 135.505 49.6833 135.666C49.5051 136.186 49.7759 135.595 49.763 135.933C49.178 136.142 48.7895 137.375 48.4252 138.139C48.845 138.112 48.3518 138.353 48.554 138.661C48.5557 138.457 47.915 139.228 48.1866 138.535L48.0093 138.953C47.6805 139.113 48.2608 138.219 47.7878 138.501C47.5589 138.969 47.7393 139.441 47.3058 139.907C47.1753 139.589 47.1486 140.365 46.977 140.068C46.9577 139.924 47.0713 139.792 47.1342 139.609L47.0415 139.68C46.4403 140.635 47.1301 140.12 46.9922 140.722C46.6803 141.332 46.5595 141.086 46.4265 141.074C46.3339 141.145 46.188 141.471 46.1557 141.665C46.2412 141.216 46.6723 141.056 46.7214 141.312C46.3314 141.452 46.2129 142.197 46.2112 142.401C46.9639 141.703 46.5537 141.801 47.2854 141.164C47.2661 141.021 47.0317 140.906 47.383 140.48C47.329 140.837 47.5055 140.522 47.5982 140.451C47.4241 140.46 47.7239 140.084 47.7562 139.891C47.9206 139.81 47.906 140.352 48.2066 139.874L47.9528 139.616C48.1075 139.464 48.1252 139.812 48.2719 139.384C48.3001 139.701 48.5579 139.448 48.2871 140.038C48.9052 139.533 48.695 138.948 48.8941 138.368C48.8731 138.429 48.9344 138.45 48.9134 138.511C48.8941 138.368 48.998 138.164 49.0915 137.991C49.3293 137.697 49.0786 138.328 49.222 138.309L49.513 137.76L49.5436 137.77C49.5654 137.607 49.6178 137.454 49.7201 137.455C49.7184 137.66 49.8095 137.793 49.8183 137.967L49.9159 137.283C49.9763 137.406 50.3486 136.919 50.2019 137.347L50.6388 136.472L50.8942 136.525C50.9675 136.311 50.9474 136.27 50.7612 136.514C50.9579 136.24 51.1006 135.025 51.4454 135.416C51.6357 134.662 51.842 134.459 52.1765 133.583C52.0273 134.318 52.8155 133.016 52.5439 133.709C52.8638 133.375 52.6608 133.168 52.8067 132.843C53.0541 132.62 53.1854 132.836 53.0903 133.213L53.1959 132.805L53.2265 132.816L53.291 132.428C53.59 132.155 53.5464 132.481 53.764 132.146L53.6222 131.961L53.8487 131.799C53.7254 131.859 53.8092 131.615 53.9341 131.35L53.9647 131.361L54.1106 131.035C54.0566 131.392 54.2968 130.791 54.3669 130.986C54.5224 130.732 54.5224 130.732 54.7618 130.233L54.5877 130.242C54.8183 129.57 54.802 130.316 55.072 129.827L54.9189 129.775C55.558 129.208 55.4614 128.492 55.8845 128.056C55.7386 128.382 55.9738 128.394 55.9126 128.373C56.1109 127.895 56.567 127.163 56.6533 126.612C56.9507 126.543 57.053 126.544 57.4043 126.118C57.5913 125.772 57.5817 125.7 57.5422 125.516C57.8106 125.232 58.0516 124.529 58.2047 124.581C58.1136 124.448 58.4118 124.277 58.3933 124.031L58.465 124.022L58.3119 123.969C58.9702 123.546 58.6996 122.838 59.2967 122.394L59.2854 122.527L59.3797 122.251C59.4514 122.242 59.4401 122.375 59.5215 122.437L60.1961 121.267L59.9592 121.459C60.0841 121.195 60.035 120.939 60.2824 120.716C60.2468 121.319 60.5209 120.32 60.7151 120.352L60.6208 120.627C60.8078 120.281 60.8078 120.281 60.6241 120.218C60.8223 119.74 61.0552 120.059 61.131 119.538L60.965 119.823C60.8417 119.883 60.8441 119.577 60.9376 119.404C60.9892 119.353 61.1229 119.262 61.0706 119.415C61.2068 119.018 61.5791 118.53 61.6114 118.336C61.7661 118.185 61.837 118.277 61.8257 118.41C62.1086 117.585 62.0433 118.075 62.3262 117.249L62.4076 117.311L62.4511 116.985L62.8218 116.702L62.6574 116.782C62.7823 116.517 62.8146 116.324 63.0112 116.049L63.0813 116.244C63.4045 115.501 63.7421 115.514 63.9018 114.749C63.9428 114.729 63.942 114.831 63.9211 114.892C64.0702 114.158 64.3844 114.539 64.4828 113.753C64.4925 113.824 64.5852 113.754 64.6053 113.795L64.6795 113.478L64.8422 113.603L64.8342 113.327L65.1009 113.247L65.0816 113.104C65.5739 112.965 65.5579 112.413 66.0107 112.09L65.7553 112.037C65.8578 110.74 67.2479 109.679 67.6687 108.252L67.8419 108.345L67.8879 107.712C68.1659 107.5 67.937 107.968 68.0909 107.918C68.2699 107.296 67.9403 107.559 68.2224 106.836C68.4907 106.552 68.2925 107.031 68.2707 107.194C68.5012 106.522 68.8365 105.543 69.1267 105.096C69.096 105.086 69.0759 105.045 69.0759 105.045C69.2025 104.576 69.524 104.037 69.7223 103.558C69.8037 103.62 69.7618 103.743 69.7199 103.865C69.8133 103.692 69.9584 103.468 69.9496 103.295L70.0092 103.52C70.1961 103.174 70.3558 102.409 70.5709 102.38C70.4992 102.39 70.3566 102.307 70.492 102.012C70.8199 101.953 70.7346 101.104 71.0659 100.637C71.1061 100.719 70.9699 101.117 71.0118 100.994C71.198 100.751 71.1489 100.495 71.1715 100.229L71.2424 100.322C71.348 99.9139 71.4641 99.4754 71.5391 99.0571C71.8775 98.9681 71.9372 97.8955 72.0895 98.0501C72.2362 97.6222 71.8413 98.375 71.9993 97.8142C72.1742 97.7034 72.1057 97.3042 72.2894 97.3671L72.2991 97.4388L72.4353 97.0414L72.5352 97.3489C72.6198 97.0021 72.52 96.6946 72.3975 96.6526C72.6046 96.3479 72.6699 95.8579 72.8754 95.7575L72.8947 95.9008C72.9907 95.4212 73.2292 95.0248 73.4267 94.6484C73.6241 94.272 73.7604 93.8746 73.6412 93.4238C73.6621 93.3627 73.7234 93.3837 73.7121 93.5164C73.7242 93.2814 73.7669 93.057 73.7895 92.7914L73.9313 92.9767C73.8734 92.5469 73.8355 92.1582 73.7059 91.7379L73.8082 91.7389C73.8115 91.3301 73.7036 90.7465 73.524 90.1725C73.3444 89.5986 73.0423 88.9826 72.7185 88.53L72.8506 88.6436C72.4655 88.17 72.3036 87.9437 72.1723 87.7279C72.041 87.5121 71.9298 87.3373 71.6043 87.0891C71.6349 87.0996 71.6655 87.1101 71.6962 87.1206C71.5133 86.9554 71.3304 86.7902 71.1781 86.6355L71.3723 86.668C70.8623 86.459 70.4193 85.5556 70.5498 85.8736C70.2742 85.7791 69.856 85.6016 69.7021 85.6513C69.1422 85.2886 69.6321 85.4565 69.3582 85.1577C68.9714 84.8884 68.8377 84.9792 68.3599 84.5763L68.422 84.4951C68.1674 84.3395 67.9732 84.3071 67.6372 84.0895L67.7597 84.1315C67.1063 83.9416 67.2433 83.442 66.5778 83.4872C66.3748 83.2809 65.9163 83.0213 66.0606 82.9C65.3266 82.5459 64.7457 82.2443 64.0633 81.8395C64.1374 81.5234 63.9207 81.7565 63.5863 81.3344L63.5339 81.4873C62.5873 80.8553 61.7156 79.805 60.6465 79.131L60.6989 78.9782L60.3919 78.9755C59.8529 78.5516 59.2221 78.0962 58.6219 77.6513C57.991 77.196 57.3191 76.7607 56.8099 76.4495C56.4119 76.313 55.7987 76.2053 55.2283 75.8731L55.2895 75.8941C55.014 75.7997 54.7384 75.7052 54.4629 75.6108C54.1462 75.5364 53.8812 75.4114 53.5645 75.337C52.9417 75.1576 52.2673 75.0289 51.5518 74.9203C51.6445 74.8496 51.4914 74.7971 51.6759 74.7579C51.4809 74.8277 51.2763 74.8259 51.041 74.8135C50.8057 74.8012 50.5809 74.7583 50.4375 74.7774L50.846 74.8833C50.6405 74.9837 50.3642 74.9914 50.1184 75.0097C49.8727 75.0279 49.6479 74.985 49.5149 74.9736C49.2788 75.0635 49.083 75.2355 48.867 75.3664C48.8364 75.3559 48.7341 75.355 48.7035 75.3445C48.6624 75.3646 48.6414 75.4257 48.6205 75.4868C48.4875 75.4754 48.324 75.4535 48.191 75.4421C48.0984 75.5128 47.8518 75.6333 47.6455 75.8358C47.4086 76.0279 47.1918 76.261 47.1595 76.4549C47.0677 76.4234 46.5221 76.8172 46.8832 76.4627C46.224 76.9883 45.7074 77.5969 45.2731 78.1653L45.5205 77.9427C45.6735 77.9952 45.3721 78.5751 45.1553 78.8082C45.261 78.4003 44.9725 78.643 44.767 78.7434C44.7033 79.029 45.0136 78.6229 45.0224 78.7968C44.9377 79.1435 44.6154 79.7846 44.4816 79.8753L44.5139 79.6814C44.347 80.0683 44.0191 80.1267 43.8321 80.4725C43.7781 80.8298 43.5411 81.0219 43.8272 81.0857C43.6289 81.5643 43.5605 81.1651 43.4468 81.297C43.4549 81.573 43.0205 82.1415 42.8464 82.1501C43.068 82.6018 42.0494 83.2775 42.3032 83.5353L41.9325 83.8182C42.0139 83.8802 42.1557 84.0655 42.0203 84.3606C41.7729 84.5833 41.6512 84.4391 41.5384 84.4688L41.7197 84.8383C41.0693 85.5377 40.4891 86.432 39.929 87.3673C39.3382 88.292 38.7169 89.2064 38.0351 89.9975C37.6192 90.8114 37.0994 91.8288 36.4684 92.6715L36.5103 92.5492L35.8487 93.3814L36.416 92.8243C36.312 93.0278 36.2798 93.2217 36.1452 93.4147C35.7527 93.8609 35.3393 94.3682 34.8743 94.9262C34.44 95.4947 33.9951 96.0937 33.6526 96.6937C33.4502 97.6833 33.0056 96.9843 32.7323 97.8813C32.7637 97.7896 32.713 97.738 32.7339 97.6769C32.277 98.5109 32.0175 98.9685 31.6419 99.8645C31.3784 99.5351 31.2695 100.352 31.1584 100.177L31.2389 100.341C31.0334 100.442 30.6926 100.837 30.6732 100.694L30.5878 101.143L30.4452 101.06C30.0938 101.486 29.4716 102.502 29.0108 102.549C28.6989 103.16 28.171 103.901 27.5819 104.622C26.9928 105.342 26.332 106.072 25.7639 106.731C25.7002 107.017 25.4004 107.392 25.1522 107.717L24.7412 107.918C24.5236 108.253 24.4277 108.733 24.078 108.955C24.0473 108.944 24.0578 108.913 24.0683 108.883C23.8201 109.208 23.501 109.44 23.3954 109.848C23.1061 110.193 22.7153 110.435 22.6863 110.22C22.9094 110.467 22.0359 110.919 22.0359 110.919C22.0359 110.919 21.0351 111.942 19.487 113.564C17.939 115.185 15.793 117.353 13.5334 119.653C9.01419 124.253 3.83745 129.174 2.26189 131.674C2.20868 131.929 1.89841 132.335 2.1643 132.358C1.88547 132.672 1.57931 132.567 1.61876 132.752C2.09177 132.47 1.77905 133.182 2.29233 132.983L2.06508 133.246C2.0844 133.39 2.34473 132.83 2.40432 133.055L2.26336 132.768C2.52041 132.617 2.67431 132.567 2.80725 132.578C2.93218 132.314 2.80251 131.893 3.37785 131.612L3.26422 131.744C3.65586 131.4 3.62278 131.696 3.74607 131.636L3.6534 131.707L4.08449 131.547C3.76621 131.677 3.50588 132.237 3.71217 132.035C4.23675 131.702 3.55827 132.084 3.8782 131.75C4.08449 131.547 4.12395 131.732 4.16422 131.814L4.55586 131.47C4.61627 131.593 4.30847 131.692 4.55423 131.674L4.9475 131.126C5.26333 131.302 5.35125 130.547 5.81132 130.602C5.51154 130.977 5.92331 130.675 5.95311 130.787L6.79843 130.018C6.91124 129.988 6.63241 130.303 6.77666 130.181C7.00227 130.122 6.98377 129.877 7.07645 129.806C7.20939 129.817 7.71547 129.239 7.85726 129.424C8.54622 129.012 7.90163 128.996 8.51888 128.592C8.67197 128.645 8.10629 128.997 8.44471 128.908L8.97093 128.372C8.97011 128.474 9.02005 128.627 8.78314 128.82C10.3996 127.597 11.7114 127.364 12.9403 125.975C13.2377 125.906 12.867 126.189 12.8347 126.382C13.6519 125.296 14.46 125.334 15.2546 124.513L15.1636 124.38C16.6334 123.585 17.7922 122.001 19.1831 120.838L18.947 120.928C19.0413 120.653 19.3097 120.369 19.4652 120.115C19.5571 120.147 19.5441 120.484 19.8649 120.047C19.7521 120.077 19.5667 120.218 19.5675 120.116C20.2364 119.662 21.1333 118.842 22.0721 117.9C23.0415 116.969 24.0021 115.863 24.9506 114.993C25.5187 114.333 26.0868 113.674 26.6961 112.995C27.2948 112.346 27.9041 111.667 28.5133 110.987C29.0919 110.298 29.7011 109.618 30.2693 108.959C30.8479 108.269 31.416 107.61 31.9229 106.93C31.6127 107.336 31.4725 106.946 31.7916 106.714C32.9109 106.243 32.8578 105.2 33.8554 104.586C34.3841 103.742 35.0038 103.032 35.6235 102.323C36.2126 101.602 36.7912 100.912 37.1362 100.006L37.2893 100.058C37.5262 99.8662 37.4658 99.743 37.6213 99.4889L37.6415 99.5299C38.096 99.0025 38.4296 98.2287 38.7286 97.9555L38.5965 97.8418C38.8141 97.5065 38.8326 97.752 38.9994 97.3651L39.0808 97.4271C39.1332 97.2743 39.1654 97.0804 39.2178 96.9275C39.4515 97.1443 39.8803 95.9932 40.1889 95.7915C40.4484 95.3339 40.8651 94.4178 41.3817 93.8092C41.5968 93.7804 42.1255 92.9368 42.559 92.4706C43.1917 91.4235 44.0734 89.9494 44.9026 88.6281L44.6988 88.5241L44.8858 88.1782C44.9164 88.1887 44.9575 88.1687 44.9671 88.2403C45.3265 88.0902 45.3935 87.3958 45.6715 87.1837C45.4048 87.263 45.4958 87.3967 45.3919 87.6002C45.1445 87.8228 45.1268 87.4752 45.4467 87.1408L45.4669 87.1818L45.541 86.8656C45.6941 86.9181 45.9004 86.7155 46.0841 86.7785C46.728 85.5987 46.9095 84.6702 47.6453 83.5219C47.746 83.7272 48.0821 82.6468 48.2222 83.0364C48.5253 82.2522 47.9152 83.0337 47.929 82.5943C48.0636 82.4013 48.0862 82.1358 48.2087 82.1778C48.228 82.321 48.4649 82.129 48.4125 82.2818L48.6414 81.8137C48.6825 81.7936 48.6817 81.8958 48.6607 81.957C48.996 80.9788 49.6842 80.6681 49.9542 80.1799C49.8937 80.0567 49.7688 80.3214 49.7084 80.1982C49.8438 79.903 49.9566 79.8733 50.1 79.8542C50.2435 79.835 50.3047 79.856 50.5005 79.684C50.4796 79.7451 50.4892 79.8168 50.5094 79.8578C50.5408 79.7661 50.5617 79.705 50.6133 79.6543C50.6649 79.6037 50.7366 79.5941 50.8696 79.6055C50.9098 79.6877 50.8889 79.7488 50.8373 79.7994C50.7857 79.8501 50.714 79.8597 50.6931 79.9208C50.7341 79.9007 50.7752 79.8807 50.8163 79.8606C50.8574 79.8405 50.8985 79.8204 50.9501 79.7698C51.0323 79.7297 51.0944 79.6484 51.013 79.5864C51.0541 79.5663 51.0952 79.5462 51.1258 79.5567C51.1564 79.5672 51.187 79.5777 51.2176 79.5882C51.2789 79.6092 51.3296 79.6608 51.3804 79.7123C51.3909 79.6818 51.1765 79.6083 51.3103 79.5175C51.5859 79.612 52.087 79.6471 52.5769 79.815C52.5664 79.8456 52.5656 79.9478 52.535 79.9373C52.7606 79.878 52.842 79.9401 52.9129 80.0327C52.5333 80.1417 52.6244 80.2754 52.8999 80.3699Z" fill="#1E1F1F"/>
<path d="M66.1408 103.526L66.2859 103.303C66.2553 103.292 66.2045 103.241 66.2158 103.108L66.1408 103.526Z" fill="#1E1F1F"/>
<path d="M70.0314 92.0855C70.0104 92.0427 70.0104 92.0427 69.9785 92.0317C69.9676 92.0636 69.9995 92.0745 70.0314 92.0855Z" fill="#1E1F1F"/>
<path d="M68.9789 90.3567C69.1214 90.4397 69.061 90.3166 69.0619 90.2144C69.0208 90.2344 68.9998 90.2956 68.9789 90.3567Z" fill="#1E1F1F"/>
<path d="M63.4478 110.293C63.4697 110.229 63.4487 110.186 63.4059 110.207C63.4159 110.282 63.4159 110.282 63.4478 110.293Z" fill="#1E1F1F"/>
<path d="M53.704 128.029C53.7149 127.997 53.7468 128.008 53.7577 127.976C53.7577 127.976 53.7149 127.997 53.704 128.029Z" fill="#1E1F1F"/>
<path d="M54.5102 127.175C54.5311 127.114 54.5827 127.063 54.5835 126.961C54.5215 127.042 54.49 127.134 54.5102 127.175Z" fill="#1E1F1F"/>
<path d="M65.5386 105.882C65.5595 105.821 65.5909 105.729 65.5813 105.657C65.5088 105.769 65.5184 105.841 65.5386 105.882Z" fill="#1E1F1F"/>
<path d="M54.6567 126.747L54.8122 126.493L54.7816 126.483L54.6567 126.747Z" fill="#1E1F1F"/>
<path d="M53.4978 128.331C53.5598 128.25 53.6428 128.108 53.7049 128.027C53.5711 128.117 53.5397 128.209 53.4978 128.331Z" fill="#1E1F1F"/>
<path d="M60.1999 116.964C60.1999 116.964 60.2104 116.934 60.1999 116.964C60.2531 116.709 60.2112 116.832 60.1999 116.964Z" fill="#1E1F1F"/>
<path d="M54.9731 125.529L54.9849 125.391L54.9731 125.529Z" fill="#1E1F1F"/>
<path d="M52.8347 129.368C52.8557 129.307 52.8662 129.276 52.8767 129.246C52.8662 129.276 52.8146 129.327 52.763 129.377C52.8041 129.357 52.8347 129.368 52.8347 129.368Z" fill="#1E1F1F"/>
<path d="M57.9096 120.552C57.94 120.667 57.9605 120.709 57.9918 120.72C58.0551 120.637 58.0452 120.564 57.9096 120.552Z" fill="#1E1F1F"/>
<path d="M98.145 62.2659C98.1341 62.2977 98.1551 62.3405 98.187 62.3514C98.166 62.3086 98.145 62.2659 98.145 62.2659Z" fill="#1E1F1F"/>
<path d="M101.352 42.6298L101.723 42.3469C101.466 42.4979 101.363 42.5992 101.352 42.6298Z" fill="#1E1F1F"/>
<path d="M90.5829 74.9436C90.5934 74.913 90.5934 74.913 90.5829 74.9436C90.4894 75.1165 90.3339 75.3706 90.0542 75.7871L90.5829 74.9436Z" fill="#1E1F1F"/>
<path d="M91.6503 28.6118L91.9283 28.3996C91.7946 28.4904 91.7325 28.5716 91.6503 28.6118Z" fill="#1E1F1F"/>
<path d="M92.2136 46.4316C92.1934 46.3906 92.2144 46.3294 92.2354 46.2683C92.2144 46.3294 92.1934 46.3906 92.2136 46.4316Z" fill="#1E1F1F"/>
<path d="M84.9099 80.514L85.2395 80.2512C85.1782 80.2302 85.0751 80.3315 84.9099 80.514Z" fill="#1E1F1F"/>
<path d="M73.4186 89.2837C73.4933 89.2737 73.4614 89.2627 73.4186 89.2837V89.2837Z" fill="#1E1F1F"/>
<path d="M78.9521 87.1145C79.0448 87.0437 79.168 86.9835 79.3018 86.8927C79.1785 86.953 78.9424 87.0428 78.9521 87.1145Z" fill="#1E1F1F"/>
<path d="M79.4566 86.7407C79.405 86.7913 79.3639 86.8114 79.3124 86.8621C79.3945 86.8219 79.4872 86.7512 79.4566 86.7407Z" fill="#1E1F1F"/>
<path d="M48.189 74.4509C48.3186 74.8711 48.5208 75.1796 48.7432 75.5291L48.189 74.4509Z" fill="#1E1F1F"/>
<path d="M85.6198 13.5661L85.6626 13.5452L85.6945 13.5562L85.7473 13.6099C85.6953 13.4497 85.6198 13.5661 85.6198 13.5661Z" fill="#1E1F1F"/>
<path d="M49.395 74.6252L49.4643 74.9223C49.4345 74.8096 49.3942 74.7274 49.395 74.6252Z" fill="#1E1F1F"/>
<path d="M88.7711 73.7416C88.8872 73.3031 89.4658 72.6133 89.3433 72.5713C89.1354 72.9783 88.722 73.4856 88.7711 73.7416Z" fill="#1E1F1F"/>
<path d="M77.8834 23.8584L77.7077 24.0715C77.7802 23.9597 77.8423 23.8785 77.8834 23.8584Z" fill="#1E1F1F"/>
<path d="M49.3951 74.6254L49.3057 74.2874C49.2952 74.3179 49.2847 74.3485 49.2944 74.4201C49.3145 74.4612 49.3548 74.5433 49.3951 74.6254Z" fill="#1E1F1F"/>
<path d="M67.0273 24.8855C67.0374 24.9601 67.0374 24.9601 67.0584 25.0029L67.0273 24.8855Z" fill="#1E1F1F"/>
<path d="M67.1018 21.9731C67.1308 22.188 67.1702 22.3724 67.1992 22.5873C67.1711 22.2702 67.1316 22.0858 67.1018 21.9731Z" fill="#1E1F1F"/>
<path d="M48.7432 75.5291L49.0452 76.145C48.9445 75.9397 48.8439 75.7344 48.7432 75.5291Z" fill="#1E1F1F"/>
<path d="M53.4662 36.5995C53.467 36.4973 53.488 36.4362 53.4888 36.334C53.488 36.4362 53.4565 36.5279 53.4662 36.5995Z" fill="#1E1F1F"/>
<path d="M91.9023 47.145C91.8913 47.1768 91.8804 47.2087 91.8376 47.2296C91.8695 47.2405 91.8804 47.2087 91.9023 47.145Z" fill="#1E1F1F"/>
<path d="M97.6963 31.436C97.7793 31.2937 97.7608 31.0482 97.6899 30.9556C97.6375 31.1084 97.6673 31.2211 97.6963 31.436Z" fill="#1E1F1F"/>
<path d="M90.3932 42.4599C90.4448 42.4093 90.5069 42.3281 90.61 42.2268C90.5584 42.2774 90.4658 42.3481 90.3932 42.4599Z" fill="#1E1F1F"/>
<path d="M81.296 24.3831C80.689 26.0539 79.7928 28.0696 78.8651 30.177C78.396 31.2459 77.9575 32.3254 77.5392 33.4459C77.4449 33.7211 77.3506 33.9962 77.2563 34.2713C77.162 34.5464 77.0676 34.8215 76.9733 35.0966L76.9419 35.1883C76.9314 35.2189 76.9105 35.2801 76.8895 35.3412L76.8049 35.6879C76.7621 35.9124 76.6783 36.157 76.6356 36.3814C76.4784 36.84 76.4646 37.2793 76.3792 37.7283C76.388 37.9021 76.3864 38.1065 76.3541 38.3004C76.3525 38.5048 76.3613 38.6787 76.3903 38.8936C76.4176 39.3128 76.4039 39.7522 76.4618 40.182C76.4908 40.3969 76.4892 40.6013 76.5077 40.8468L76.5165 41.0206L76.5358 41.1639C76.5656 41.2766 76.5648 41.3788 76.6051 41.4609C76.634 41.6758 76.6735 41.8601 76.7331 42.0855C76.7726 42.2698 76.8426 42.4647 76.9127 42.6595L76.6733 43.1582L76.8038 43.4762L76.9448 43.7636L77.2162 44.3691C77.3338 45.0243 76.8143 43.4456 77.0615 44.521L77.3765 44.7998C77.3556 44.8609 77.4353 45.1274 77.5352 45.4349C77.6552 45.7835 77.7953 46.1731 77.8847 46.5112C77.9347 46.665 77.9846 46.8187 78.0144 46.9314C78.0442 47.0441 78.0643 47.0852 78.0538 47.1158C78.0329 47.1769 77.9217 47.0022 77.6599 46.4683L78.111 47.6478L78.4823 48.5607L81.5188 45.0925C82.7373 43.7338 82.1934 43.9231 83.5142 42.5654C83.8228 42.3637 83.0693 43.1644 83.2023 43.1758C83.6874 42.6589 84.1411 42.2337 84.523 41.8181C84.905 41.4024 85.2354 41.0375 85.5658 40.6725C85.6279 40.5913 85.731 40.49 85.7931 40.4088L85.8656 40.297L85.9277 40.2158C85.9897 40.1346 86.0623 40.0228 86.1243 39.9416C86.2484 39.7792 86.3524 39.5757 86.4765 39.4133C86.6941 39.0779 86.9222 38.712 87.2115 38.3671C87.5112 37.9916 87.8827 37.6066 88.4081 37.1718L88.2736 37.3648C88.5427 36.9788 89.1922 36.3816 89.1721 36.3405C88.6911 36.3464 88.9432 36.8086 88.1825 37.2311C88.0311 36.9742 88.8337 36.4295 88.6403 36.2949C89.1754 35.9317 89.3317 35.5754 89.7443 35.1703C90.5671 34.6666 91.5164 33.6939 92.2045 33.3832C92.5043 33.0077 92.7235 32.468 93.4858 31.8412C94.1635 31.561 93.4939 32.1172 94.2965 31.5725L94.3086 31.3375C94.9468 30.8731 94.8742 30.9848 94.9145 31.067C95.2441 30.8042 95.3682 30.6418 95.4923 30.4793C95.5544 30.3981 95.647 30.3274 95.7502 30.2261C95.8429 30.1554 95.8429 30.1554 95.8533 30.1248C95.8944 30.1048 95.9355 30.0847 95.9766 30.0646C95.9557 30.1258 95.9452 30.1563 95.9347 30.1869L95.9138 30.248C95.9033 30.2786 95.9033 30.2786 95.8517 30.3292C95.8622 30.2987 95.9033 30.2786 95.9033 30.2786L95.9138 30.248L95.9548 30.228C95.9653 30.1974 96.0064 30.1773 96.0064 30.1773C96.0475 30.1572 96.0991 30.1066 96.1402 30.0865C96.2329 30.0158 96.315 29.9757 96.4593 29.8543C96.448 29.9871 96.3553 30.0578 96.253 30.0569C96.365 30.1294 96.3859 30.0683 96.4585 29.9565C96.5004 29.8342 96.5834 29.6919 96.614 29.7024C96.6148 29.6002 96.3578 29.7512 96.4932 29.456C96.5754 29.4159 96.6995 29.2534 96.8131 29.1216C96.9267 28.9897 97.0299 28.8885 97.0597 29.0011C96.9461 29.133 96.863 29.2753 96.7905 29.3871C97.2136 28.9514 97.0911 28.9094 97.5126 28.6781C97.5126 28.6781 97.5021 28.7087 97.4916 28.7393C97.4811 28.7698 97.4602 28.831 97.4086 28.8816L97.4191 28.8511C97.5327 28.7192 97.6358 28.6179 97.739 28.5166L97.7801 28.4966L97.8002 28.5376C97.7897 28.5682 97.8204 28.5787 97.8099 28.6093C97.8195 28.6809 97.8397 28.722 97.8493 28.7936C97.8574 29.0696 97.8243 29.3657 97.8017 29.6313C97.7711 29.6208 97.7711 29.6208 97.7509 29.5797C97.8113 29.7029 97.9959 29.6637 97.9741 29.827C98.1208 29.3991 98.1715 29.4506 98.3778 29.248C98.1699 29.655 98.2819 29.7276 98.352 29.9224C98.4325 30.0866 98.4913 30.4142 98.2624 30.8823C98.2318 30.8718 98.181 30.8203 98.1714 30.7487C98.1617 30.677 98.1932 30.5853 98.2762 30.443C98.144 30.3294 98.0111 30.3179 97.9088 30.317C97.7863 30.275 97.6944 30.2436 97.6235 30.1509C97.6735 30.3047 97.6614 30.5397 97.559 30.5387C97.6718 30.5091 97.7436 30.4995 97.8459 30.5004C97.8241 30.6638 97.7822 30.786 97.7508 30.8777C97.8426 30.9092 97.9353 30.8385 97.9973 30.7573C98.0795 30.7172 98.1617 30.677 98.119 30.9015C98.0432 31.4221 97.7693 31.1232 97.8708 31.2263C97.849 31.3897 97.828 31.4508 97.8167 31.5836C97.8054 31.7163 97.8151 31.788 97.8046 31.8185C97.7933 31.9513 97.7619 32.043 97.4814 32.5618C97.5233 32.4395 97.5661 32.215 97.6176 32.1644C97.4 32.4997 97.1711 32.9678 96.9737 33.3442C96.7456 33.7101 96.5385 34.0149 96.3234 34.0436C96.3347 33.9109 96.2533 33.8488 96.4193 33.5641L96.4395 33.6052C96.6821 32.6977 96.1372 34.2873 96.0277 33.9081C96.1912 33.93 95.5795 34.9159 95.2588 35.3526L95.515 35.3038C94.9991 37.1082 95.2717 35.0154 94.3385 36.5401C93.788 37.5471 94.6173 36.2258 94.336 36.8467C93.8807 37.4764 93.5624 37.6064 92.9918 38.5722C92.7444 38.7949 92.3109 39.2611 92.0966 39.1877C91.7742 39.8287 90.8136 40.9342 90.7587 41.3936C91.5646 40.4401 91.2593 40.2329 92.2601 39.2096L92.2158 39.6385C91.6363 40.4305 91.0439 41.5597 90.6201 42.0976C90.7232 41.9963 90.7949 41.9867 90.8046 42.0584C90.4822 42.6994 90.3049 43.1168 90.1171 43.5649C90.0131 43.7684 89.9398 43.9823 89.8253 44.2164C89.7834 44.3387 89.7109 44.4504 89.6585 44.6033C89.6375 44.6644 89.5755 44.7456 89.5545 44.8068C89.5335 44.8679 89.4505 45.0102 89.4191 45.102C89.3369 45.1421 89.3168 45.101 89.3377 45.0399C89.3281 44.9683 89.3909 44.7849 89.4635 44.6731C89.5779 44.439 89.7238 44.1133 89.8487 43.8486C89.5796 44.2346 89.4756 44.4381 89.3507 44.7027C89.2773 44.9167 89.1733 45.1202 89.079 45.3953C88.9436 45.6905 88.7873 46.0468 88.6301 46.5054C88.5374 46.5761 88.6221 46.2293 88.7784 45.873C88.9348 45.5167 89.1121 45.0992 89.0928 44.9559L88.6543 46.0354L88.3488 47.1263L88.3182 47.1158C88.3987 47.2801 88.3036 47.6574 88.1561 48.1875C88.1142 48.3098 88.0924 48.4732 88.04 48.626C88.0182 48.7893 87.9763 48.9116 87.9545 49.0749C87.9215 49.371 87.8473 49.6872 87.8755 50.0043C87.8625 50.3415 87.8907 50.6586 87.8987 50.9346C87.9067 51.2107 87.9663 51.4361 87.9751 51.6099C88.0436 52.0091 88.1128 52.3061 88.203 52.542C88.2933 52.7779 88.3633 52.9727 88.4535 53.2086C88.4833 53.3213 88.5542 53.4139 88.584 53.5266C88.5937 53.5983 88.6444 53.6498 88.6541 53.7215C88.6742 53.7625 88.6638 53.7931 88.6839 53.8342C88.7145 53.8446 88.725 53.8141 88.7556 53.8246C88.8773 53.9688 88.8555 54.1321 88.7322 54.1923C88.5501 53.9249 88.5703 53.966 88.4688 53.8629C88.4655 54.2717 88.6194 54.222 88.6999 54.3862C88.7604 54.5094 88.7893 54.7243 88.778 54.8571C88.8393 54.8781 88.8078 54.9698 88.6015 55.1723C89.384 54.5865 89.2712 54.6162 89.1068 54.6965C88.9424 54.7768 88.7063 54.8667 89.2108 54.493L91.1866 53.1207C91.0029 53.0577 90.3857 53.461 91.426 52.622C92.26 51.9856 92.6404 51.7744 93.6799 51.0376C93.5147 51.2201 94.0586 51.0307 93.2149 51.5955C93.7596 51.304 94.6243 50.6781 94.8829 50.3227C94.2456 50.6849 94.75 50.3113 95.2238 49.9271C95.2754 49.8765 95.3576 49.8363 95.4092 49.7857C95.4503 49.7656 95.5018 49.715 95.5429 49.6949C95.605 49.6137 95.6872 49.5735 95.7081 49.5124C95.7807 49.4006 95.7911 49.3701 95.6066 49.4093L96.4801 48.9572C96.3052 49.068 96.335 49.1807 96.0474 49.3212C96.385 49.3345 96.6654 48.8157 96.9435 48.6036C97.2416 48.4325 97.9821 47.969 98.1151 47.9804C98.3319 47.7473 98.9692 47.385 99.1739 47.3869C99.5446 47.104 99.124 47.2331 99.1965 47.1213L100.513 46.2746C100.636 46.3166 100.941 46.5237 100.776 46.7062C100.982 46.5037 100.983 46.4015 101.025 46.2792C101.046 46.2181 101.067 46.1569 101.159 46.0862C101.201 46.0661 101.252 46.0155 101.304 45.9648C101.345 45.9448 101.355 45.9142 101.396 45.8941C101.437 45.8741 101.448 45.8435 101.489 45.8234C101.479 45.854 101.458 45.9151 101.458 45.9151C101.447 45.9457 101.488 45.9256 101.519 45.9361C101.549 45.9466 101.632 45.9065 101.703 45.8969C101.847 45.8777 101.918 45.8681 101.845 46.0821C102.111 46.105 102.379 45.9234 102.626 45.7007C102.854 45.3348 102.421 45.6989 102.474 45.4439C102.66 45.3024 102.815 45.1505 102.969 44.9986C103.114 44.8772 103.238 44.7148 103.351 44.5829C103.464 44.5533 103.556 44.5848 103.648 44.6163C103.74 44.6478 103.821 44.7098 103.892 44.8024C103.952 44.9256 104.013 45.0488 104.011 45.2532C104.012 45.151 104.013 45.0488 104.014 44.9466C104.105 45.0803 104.104 45.1825 104.154 45.2341C104.195 45.3162 104.215 45.3573 104.235 45.3983C104.275 45.4804 104.326 45.532 104.407 45.6963C104.274 45.6848 104.097 46.0001 103.951 46.3259C103.858 46.4988 103.795 46.6822 103.701 46.8551C103.67 46.9468 103.639 47.0385 103.607 47.1302C103.586 47.1914 103.576 47.2219 103.555 47.2831C103.523 47.3748 103.502 47.4359 103.471 47.5276C103.491 47.5687 103.532 47.5486 103.584 47.498C103.635 47.4473 103.708 47.3355 103.759 47.2849C103.863 47.1836 103.966 47.0823 104.037 47.175C104.025 47.3077 103.994 47.3994 103.931 47.5828C103.879 47.7357 103.816 47.9191 103.763 48.0719C103.712 48.1226 103.713 48.0204 103.765 47.8675C103.512 48.8056 102.801 49.3818 102.921 49.7304C102.663 49.9836 102.416 50.2062 102.168 50.4289L102.467 50.1556C102.507 50.3399 102.008 51.2962 101.924 51.5407C101.455 52.6097 101.176 52.9241 100.712 53.3798C100.897 53.2384 101.34 52.946 100.904 53.7188C100.598 53.5117 99.8166 55.2933 99.6845 55.1797C99.508 55.495 99.0946 56.0023 99.1856 56.136L99.0027 55.9708C99.2259 56.2181 98.5618 57.3569 98.104 58.2931C97.8414 57.8615 97.5641 59.2695 96.9791 59.4789C97.1402 59.8074 96.1779 61.1172 96.3189 61.4047C95.9449 62.0963 95.7419 61.8901 95.5566 62.0315L95.4615 62.4088C95.1319 62.6716 94.3848 63.9528 93.8674 64.6636L93.6868 65.4898L93.4394 65.7125C93.4281 65.8452 93.1162 66.4557 93.4257 66.1518L93.1976 66.5178C93.4417 66.7039 92.9679 67.0881 92.6132 67.923C92.4585 68.0749 92.4488 68.0033 92.5117 67.8199C92.2836 68.1858 92.2547 67.9709 92.0588 68.1429C92.2756 67.9097 91.6977 69.7954 92.4117 68.8104C92.5551 68.7912 92.2939 69.4532 92.0046 69.7982L91.6557 69.9177L91.6307 70.4898C91.3188 71.1003 91.0206 71.2714 90.7305 71.7185C91.0005 71.2303 90.9152 70.3812 90.2092 71.6422C90.5727 70.9812 90.6171 70.5523 90.7734 70.196C90.6179 70.4501 90.5043 70.5819 90.6614 70.1234C90.1722 71.1513 90.6171 70.5523 90.0771 71.5286C89.8942 71.3635 89.6774 71.5966 89.1286 72.3991L89.6548 71.8621C89.675 71.9032 89.654 71.9643 89.633 72.0255C89.7781 71.8019 89.8708 71.7312 89.9731 71.7321C89.8691 71.9356 89.5741 72.9959 89.3686 73.0963C90.255 72.307 88.6271 74.96 89.1839 74.4336C89.1726 74.5663 88.7987 75.258 88.6552 75.2771C88.9696 74.3601 88.0783 75.7626 88.0187 75.5372C87.9034 75.8734 88.5449 75.0002 88.3877 75.4587C88.1177 75.9469 87.7881 76.2097 87.5714 76.4428L87.6447 76.2288L87.1072 76.8986C87.1467 77.0829 87.6955 76.2804 87.3417 77.0131C87.1869 77.165 86.813 77.8567 86.7622 77.8052C86.8267 77.4173 86.4883 77.5063 86.8204 76.9369C86.5504 77.4251 85.6075 78.8782 86.174 78.4233C86.0394 78.6163 85.9153 78.7788 85.8113 78.9822C86.1103 78.709 86.8952 77.8166 86.2005 78.9448L86.1803 78.9038L85.8152 79.7693C85.7121 79.8706 85.5888 79.9308 85.4856 80.0321C85.5469 80.0531 85.4945 80.2059 85.2978 80.4801C85.185 80.5097 84.9682 80.7429 84.928 80.6608C84.3179 81.4423 84.4815 81.4642 84.4396 81.5865C84.0882 82.0126 83.9134 82.1234 83.977 81.8378C83.7393 82.1321 83.3783 82.4866 83.0584 82.821C82.7078 83.1449 82.3678 83.4383 82.1518 83.5692C81.491 84.2992 82.3267 83.4584 82.0156 83.9666C81.79 84.0259 81.5224 84.2075 81.1937 84.3681C81.0293 84.4484 80.885 84.5697 80.6997 84.7112C80.5248 84.822 80.35 84.9329 80.1646 85.0743C79.8044 85.3266 79.4136 85.5684 79.0228 85.8102C78.8173 85.9106 78.6425 86.0214 78.437 86.1218C78.3548 86.1619 78.2315 86.2222 78.1493 86.2623C78.0365 86.292 77.9438 86.3627 77.8617 86.4028C78.4232 86.5612 77.4402 86.6341 77.2935 87.0621C77.5925 86.7888 75.6836 87.4667 77.0196 86.7632L76.1977 87.1647C75.5217 87.2404 77.5547 86.4001 76.5507 86.5342C75.5749 86.9853 75.1502 87.6254 73.9794 88.1464C74.0938 87.9124 73.898 88.0844 73.682 88.2153C73.4556 88.3768 73.2292 88.5383 73.3025 88.3243C73.4782 88.1113 73.8174 87.9201 74.1261 87.7185L73.9005 87.7778C73.3557 88.0693 73.0777 88.2814 72.923 88.4334C72.7683 88.5853 72.7473 88.6464 72.7675 88.6875C72.7972 88.8002 72.9608 88.8221 72.5168 89.3189C71.9293 89.8349 71.7021 90.0986 71.5482 90.1484C71.4249 90.2086 71.3846 90.1264 71.2823 90.1255C71.1791 90.2268 70.993 90.4704 70.8471 90.7962C70.7012 91.122 70.5956 91.5299 70.573 91.7954C70.6295 91.1315 70.9712 90.6338 71.1775 90.4312C71.4249 90.2086 71.5578 90.22 71.5046 90.475C71.3298 90.5859 71.1541 90.799 71.0292 91.0636C70.8937 91.3588 70.7785 91.695 70.7551 92.0628C70.7316 92.4305 70.7904 92.7581 70.8702 93.0245C70.9499 93.291 71.0917 93.4762 71.1521 93.5994C70.9934 92.9643 71.0177 92.4944 71.0918 92.1782C71.166 91.862 71.2088 91.6376 71.3022 91.4646C71.3651 91.2812 71.4586 91.1083 71.6448 90.8647C71.8204 90.6516 72.0477 90.3879 72.4595 90.085C72.532 89.9732 72.5022 89.8605 72.5957 89.6876C72.6787 89.5452 72.8649 89.3016 73.379 88.9996C72.8527 89.5366 73.491 89.0721 73.686 89.0023C73.4201 88.9795 74.3346 88.5073 74.582 88.2847C74.91 88.2263 74.1678 88.8942 75.1847 88.423L75.2186 88.0247C75.6497 87.865 75.1751 88.3513 75.9672 87.8372C75.5957 88.2222 76.2113 88.0234 75.142 88.6475C76.5883 88.2209 77.1363 87.5206 78.1645 86.9166C78.0719 86.9873 78.0614 87.0179 77.9687 87.0886C78.0719 86.9873 78.2056 86.8965 78.4006 86.8267C78.565 86.7464 78.7294 86.6661 78.8632 86.5753C79.561 86.3363 78.3893 86.9595 78.6246 86.9718L79.1589 86.7108C79.3539 86.6411 79.5287 86.5302 79.7036 86.4193C79.7342 86.4298 79.7342 86.4298 79.7342 86.4298C80.0017 86.2482 80.2386 86.0562 80.3716 86.0676C80.1032 86.3514 80.0508 86.5042 79.8752 86.7173L80.4006 86.2825C80.5859 86.1411 80.71 85.9786 80.8647 85.8267C80.8019 86.0101 81.8712 85.386 81.1499 85.9928C81.4175 85.8112 81.6649 85.5886 81.9324 85.407L82.3136 85.0936L82.6641 84.7697L82.9501 84.8336C83.27 84.4991 83.2499 84.4581 82.8277 84.7916C83.0952 84.61 83.5707 84.0214 83.9736 83.5447C84.3459 83.0574 84.6658 82.723 84.7456 82.9895C84.9632 82.6541 85.1493 82.4105 85.3049 82.1564C85.491 81.9127 85.6361 81.6892 85.7811 81.4656C85.9568 81.2526 86.1124 80.9984 86.309 80.7242C86.5056 80.45 86.7128 80.1453 86.9207 79.7383C86.3065 81.0308 88.0763 78.5631 87.2986 79.8337C87.8667 79.1744 87.7668 78.8669 88.1094 78.2669C88.5534 77.7701 88.6017 78.1283 88.2793 78.7693L88.6436 78.006L88.6637 78.0471C88.7476 77.8025 88.8515 77.599 88.9249 77.385C89.431 76.807 89.2013 77.3773 89.6364 76.7066L89.5462 76.4707L89.9177 76.0857C89.7429 76.1965 89.9202 75.7791 90.1902 75.2909L90.2103 75.332L90.5222 74.7215C90.3022 75.3635 90.8744 74.1932 90.851 74.5609C91.1621 74.0527 91.1621 74.0527 91.6505 73.127L91.445 73.2273C92.0181 71.9549 91.6593 73.3008 92.2299 72.3349L92.0663 72.313C93.11 71.0652 93.2833 69.8607 94.0481 68.9273C93.7362 69.5377 93.9925 69.4889 93.9723 69.4478C94.4196 68.5422 95.2908 67.0987 95.6672 66.1004C96.0782 65.8997 96.1709 65.8289 96.8123 64.9557C97.1863 64.2641 97.2282 64.1418 97.2508 63.8762C97.7061 63.2466 98.3203 61.9541 98.4734 62.0066C98.4444 61.7917 98.8465 61.4171 98.9521 61.0092L99.0649 60.9796L98.9014 60.9577C99.8918 59.9649 99.8597 58.8608 100.83 57.8269L100.757 58.0409L100.976 57.5012C101.089 57.4715 101.015 57.6855 101.066 57.7371L102.435 55.4395L102.064 55.8245C102.334 55.3363 102.378 54.9075 102.792 54.4001C102.466 55.4499 103.258 53.6378 103.484 53.5784L103.265 54.1182C103.639 53.4265 103.639 53.4265 103.475 53.4046C103.922 52.499 104.103 52.9707 104.417 52.0537L104.075 52.6536C103.9 52.7645 104.026 52.2955 104.234 51.8885C104.296 51.8073 104.523 51.5436 104.378 51.8694C104.731 51.1366 105.354 50.0179 105.45 49.6406C105.688 49.2441 105.728 49.4285 105.674 49.6835C105.821 49.2556 105.915 48.9804 105.978 48.797C106.041 48.6136 106.073 48.5219 106.114 48.3996C106.135 48.3385 106.146 48.3079 106.167 48.2468C106.188 48.1857 106.219 48.094 106.251 48.0023C106.293 47.88 106.314 47.7166 106.347 47.5227C106.379 47.3288 106.463 47.0843 106.465 46.7777L106.557 46.8092C106.549 46.5331 106.572 46.2676 106.564 45.9916C106.659 45.6142 106.775 45.1758 106.778 44.767C106.756 44.9303 106.704 45.0832 106.693 45.2159C106.637 44.4795 106.579 44.0497 106.412 43.2408L106.615 43.447C106.555 43.2216 106.485 43.0268 106.415 42.832C106.334 42.6677 106.295 42.4834 106.204 42.3497C106.104 42.0422 105.953 41.7853 105.873 41.5189C105.752 41.2725 105.611 40.985 105.46 40.7282C105.419 40.646 105.389 40.6355 105.327 40.6146C105.266 40.5936 105.236 40.5831 105.174 40.5621C105.083 40.5306 104.96 40.4886 104.827 40.4772C104.734 40.5479 104.601 40.6387 104.498 40.74C104.374 40.8002 104.704 40.5374 104.859 40.3855C103.921 41.1232 103.614 41.2227 103.285 41.3832C102.967 41.5133 102.597 41.6939 101.69 42.4421C101.804 42.3103 101.578 42.3696 101.64 42.2884L100.847 42.9047L100.849 42.7003C100.663 42.944 100.487 43.157 100.301 43.4007L100.147 43.4504C100.106 43.4704 100.075 43.46 100.034 43.48L99.819 43.5088L99.6433 43.7218C98.865 43.7966 98.1937 44.5572 97.2703 44.8555L97.5458 44.95C96.6997 45.8214 95.5377 46.5162 94.2935 47.2511C94.2114 47.2913 94.1187 47.362 94.0776 47.3821L93.9648 47.4117L93.7593 47.5121C93.636 47.5723 93.5127 47.6325 93.3894 47.6928C93.1429 47.8132 92.9575 47.9546 92.6997 48.2078L92.8455 47.8821C92.711 48.0751 92.5047 48.2776 92.3185 48.5213L92.329 48.4907C92.3193 48.4191 92.3814 48.3378 92.4434 48.2566C92.516 48.1449 92.6086 48.0741 92.6401 47.9824C92.599 48.0025 92.578 48.0636 92.5369 48.0837C92.3717 48.2662 92.2476 48.4286 92.134 48.5605C92.1235 48.5911 92.0719 48.6417 92.0308 48.6618C92.0204 48.6923 91.9897 48.6818 91.9793 48.7124C91.9793 48.7124 91.9688 48.743 91.9382 48.7325C91.9075 48.722 91.8568 48.6704 91.8375 48.5272C91.9012 48.2416 91.9729 48.232 92.0035 48.2425C92.0647 48.2635 92.0945 48.3762 92.1356 48.3561C92.0446 48.2224 91.9342 47.9454 91.9262 47.6694C91.9069 47.5261 91.9593 47.3733 91.9706 47.2405C92.0125 47.1183 92.0649 46.9654 92.0963 46.8737C92.0657 46.8632 92.0246 46.8833 92.0246 46.8833C92.0158 46.7095 92.0891 46.4955 92.1931 46.292C92.235 46.1697 92.3076 46.0579 92.339 45.9662C92.4325 45.7933 92.526 45.6204 92.5888 45.437C92.609 45.4781 92.6186 45.5497 92.5977 45.6108C92.5872 45.6414 92.5662 45.7025 92.5453 45.7637C92.5348 45.7942 92.5243 45.8248 92.5139 45.8554L92.5034 45.8859L92.4929 45.9165C92.5759 45.7742 92.6694 45.6013 92.7524 45.4589C92.8459 45.286 92.9088 45.1026 92.9507 44.9803C92.9394 45.1131 92.9281 45.2458 92.9168 45.3786C93.2698 44.7481 93.8428 43.4756 94.1297 43.4373C94.0169 43.467 93.9154 43.3638 94.2675 42.8355C94.6986 42.6759 95.1396 41.2898 95.893 40.4891C95.8817 40.6219 95.4466 41.2925 95.5811 41.0995C95.9526 40.7145 96.1203 40.2254 96.3081 39.7774L96.3169 39.9512L97.6443 37.7758C98.106 37.6267 98.9402 35.6922 99.0199 35.9586C99.5276 35.1762 98.5034 36.5673 99.0949 35.5403C99.3729 35.3281 99.5938 34.584 99.7259 34.6976L99.684 34.8199C99.8396 34.5657 99.954 34.3317 100.079 34.0671L99.9926 34.6182C100.295 33.9361 100.381 33.385 100.28 33.2819C100.363 33.1395 100.456 32.9666 100.55 32.7937C100.581 32.702 100.643 32.6208 100.675 32.5291C100.716 32.4068 100.779 32.3256 100.81 32.2339C101.06 31.7046 101.186 31.2356 101.331 31.0121L101.267 31.3999C101.447 30.6758 101.667 30.0339 101.774 29.4216C101.796 29.2582 101.848 29.1054 101.859 28.9726C101.912 28.8198 101.934 28.6565 101.945 28.5237C101.978 28.2276 102.031 27.9725 102.064 27.6764C102.076 27.5437 102.097 27.3803 102.109 27.2476C102.12 27.1148 102.101 26.9715 102.101 26.8693C102.093 26.5933 102.106 26.3583 102.087 26.1128C102.009 25.642 101.92 25.2017 101.75 24.8016C101.741 24.6277 101.782 24.6077 101.851 24.9047L101.704 24.1368L101.536 23.3279L101.729 23.5647L101.37 22.4167L101.32 22.2629C101.3 22.2219 101.269 22.2114 101.279 22.1808L101.158 22.0366C101.087 21.944 101.016 21.8514 100.945 21.7588L100.76 21.9002L100.864 21.6967C99.979 22.2816 98.8573 23.0585 97.6735 23.9167C97.0869 24.3305 96.4793 24.8054 95.8822 25.2498C95.2851 25.6941 94.6984 26.1079 94.1319 26.5628L94.4414 26.2589C94.1529 26.5017 93.8749 26.7138 93.6686 26.9164C93.5348 27.0072 93.4317 27.1084 93.3285 27.2097C93.1327 27.3817 92.9579 27.4926 92.7935 27.5729C92.4848 27.7745 92.2278 27.9255 91.7636 28.3813C91.7846 28.3202 91.8257 28.3001 91.8362 28.2695C91.5477 28.5122 91.2286 28.7445 90.9401 28.9872L91.0851 28.7636C90.5371 29.4639 89.0376 30.1455 89.5613 29.9151C89.2615 30.2906 88.6733 30.9088 88.641 31.1027C87.703 31.9426 88.3332 31.2021 87.695 31.6666C87.0044 32.2839 87.0028 32.4883 86.014 33.2766L85.9737 33.1945C85.5611 33.5996 85.354 33.9044 84.7867 34.4615L84.9213 34.2685C84.1146 35.3242 83.5425 35.1964 83.1146 36.2453C83.0114 36.3466 82.8776 36.4374 82.7334 36.5588L82.6302 36.66L82.4328 37.0364L82.4223 37.067C82.4118 37.0976 82.3812 37.0871 82.3707 37.1176C82.2781 37.1884 82.2063 37.1979 82.1661 37.1158C82.1451 37.1769 82.0935 37.2276 82.0726 37.2887L82.0105 37.3699L81.9896 37.4311C81.9581 37.5228 81.8961 37.604 81.8445 37.6546C81.751 37.8275 81.6269 37.99 81.4714 38.2441C81.5036 38.0502 81.5246 37.989 81.5246 37.989C81.5246 37.989 81.3892 38.2842 81.3803 38.1104L81.2441 38.5078C81.1716 38.6196 81.1829 38.4868 81.1426 38.4047C81.133 38.333 81.1032 38.2203 81.104 38.1181C81.1056 37.9137 81.1483 37.6893 81.2007 37.5364C81.2636 37.353 81.3055 37.2307 81.3474 37.1085C81.3894 36.9862 81.4103 36.9251 81.4418 36.8334L81.6158 36.8247C81.5546 36.8037 81.5038 36.7521 81.4426 36.7312C81.5264 36.4866 81.6207 36.2115 81.7456 35.9469C81.881 35.6517 81.9858 35.346 82.1317 35.0202C82.413 34.3993 82.7048 33.7478 82.9965 33.0963C83.6002 31.8343 84.2345 30.5828 84.6826 29.575C84.9131 28.9025 85.1776 27.8317 85.6877 26.7426L85.6458 26.8649C85.9812 25.8867 86.3269 24.8779 86.6019 23.7765C86.7292 23.2053 86.8461 22.6647 86.9534 22.0524C87.0171 21.7668 87.0502 21.4707 87.0937 21.144C87.126 20.9501 87.1381 20.7151 87.1502 20.4801L87.1559 19.7647C87.2155 19.9901 87.28 19.6023 87.3074 20.0216C87.2478 19.7962 87.2293 19.5508 87.2213 19.2747C87.2019 19.1315 87.2132 18.9987 87.1834 18.886L87.1456 18.4973C87.0885 17.9653 87.0725 17.4132 86.9524 17.0646C86.9718 17.2079 86.9911 17.3511 86.9999 17.525L87.0063 18.0054C86.9765 17.8927 86.9467 17.78 86.8968 17.6263C86.8775 17.483 86.8066 17.3904 86.7872 17.2471C86.7075 16.9807 86.6278 16.7142 86.5787 16.4582C86.4498 15.9358 86.3411 15.4545 86.3025 15.1679L85.6476 13.8845C85.6379 13.8128 85.6282 13.7412 85.6081 13.7001C85.6186 13.6696 85.5984 13.6285 85.6089 13.5979L85.5783 13.5874L85.2697 13.7891L84.6452 13.8142C84.4704 13.925 83.8854 14.1344 83.31 14.4154C83.1561 14.4652 83.0224 14.556 82.8685 14.6057C82.7863 14.6458 82.7452 14.6659 82.663 14.706C82.5808 14.7462 82.5292 14.7968 82.447 14.837C82.1795 15.0186 81.9426 15.2106 81.7983 15.332C81.6654 15.3206 80.2883 16.0441 81.327 15.4095L79.9805 16.1436L79.6412 16.3347L79.4769 16.415C79.4253 16.4657 79.3947 16.4552 79.3431 16.5058L78.9418 16.7782L78.1698 17.3334C77.9023 17.515 77.6348 17.6965 77.4285 17.8991C77.6033 17.7882 77.7677 17.708 77.9426 17.5971C78.0239 17.6591 77.8587 17.8416 77.6009 18.0949C77.3736 18.3586 77.044 18.6213 76.8176 18.7828C77.2931 18.1943 76.7169 18.5775 76.3785 18.6665C76.0376 19.062 76.8201 18.4762 76.6645 18.7304C76.231 19.1966 75.3429 20.1903 75.0448 20.3614L75.2519 20.0566C74.973 20.371 74.7055 20.5525 74.438 20.7341C74.1704 20.9157 73.9335 21.1078 73.6547 21.4221C73.4371 21.7575 73.2203 21.9906 73.0962 22.153C72.9721 22.3154 72.9302 22.4377 73.0938 22.4596C72.4523 23.3328 72.6828 22.6603 72.4249 22.9135C72.3105 23.1476 72.0002 23.5537 71.7109 23.8986C71.4216 24.2435 71.1122 24.5473 70.9889 24.6075C70.9961 24.9858 70.5005 25.5333 70.1177 26.0511C69.6938 26.589 69.3215 27.0763 69.3916 27.2711C69.1853 27.4736 68.9685 27.7068 68.7622 27.9093C68.8331 28.002 68.9233 28.2379 68.5703 28.8684C68.1263 29.3652 68.0562 29.1704 67.8813 29.2813L67.9586 29.8543C67.845 29.9862 67.7515 30.1591 67.6379 30.2909C67.5758 30.3721 67.5137 30.4534 67.4928 30.5145L67.4823 30.5451L67.4718 30.5756C67.4203 30.6263 67.3687 30.6769 67.3171 30.7276C67.214 30.8288 67.1414 30.9406 67.0794 31.0218C66.9448 31.2148 66.8199 31.4794 66.7578 31.5606C66.7473 31.5912 66.7062 31.6113 66.6861 31.5702C66.6861 31.5702 66.666 31.5292 66.6764 31.4986C66.6668 31.427 66.6982 31.3353 66.699 31.2331C66.6475 31.2837 66.5443 31.385 66.4936 31.3334C66.4323 31.3124 66.413 31.1692 66.4557 30.9447C66.4557 30.9447 66.4968 30.9246 66.5073 30.894C66.5597 30.7412 66.6016 30.6189 66.6435 30.4967C66.571 30.6084 66.5291 30.7307 66.4356 30.9036C66.405 30.8931 66.3333 30.9027 66.3341 30.8005C66.3865 30.6477 66.4389 30.4948 66.4808 30.3725C66.5018 30.3114 66.5227 30.2503 66.5437 30.1891C66.5542 30.1586 66.5437 30.1891 66.5646 30.128L66.5872 29.8625C66.609 29.6991 66.6413 29.5052 66.663 29.3419C66.8485 27.9024 66.9632 26.3703 66.9142 24.8163C66.7073 23.823 66.7919 23.4763 66.8661 23.1601C66.9508 22.8134 67.0555 22.5077 66.7769 21.524C66.8268 21.6777 66.9082 21.7398 66.9581 21.8936C66.909 21.6376 66.8599 21.3816 66.8108 21.1257C66.7512 20.9003 66.7021 20.6443 66.6425 20.4189L66.5925 20.2652L66.5724 20.2241L66.5627 20.1525L66.5329 20.0398C66.483 19.886 66.4331 19.7323 66.3831 19.5785C66.2833 19.271 66.214 18.974 66.0529 18.6455C65.9224 18.3274 65.8121 18.0505 65.6816 17.7325C65.5406 17.445 65.3892 17.1881 65.2176 16.8902C65.0766 16.6028 64.8841 16.366 64.6819 16.0575C64.4998 15.7901 64.2871 15.5123 64.0745 15.2344C64.3516 15.1245 63.5815 14.1772 63.2883 13.7351C63.1754 13.7648 63.1037 13.7744 63.1658 13.6931L62.9385 13.9568C62.3334 14.1252 61.0288 14.7369 61.2045 14.5239C60.8338 14.8067 60.4841 15.0285 60.1537 15.3935L60.0216 15.2798C59.9289 15.3506 59.8362 15.4213 59.7436 15.492C59.6509 15.5627 59.5477 15.664 59.4446 15.7653C59.2383 15.9678 59.0014 16.1599 58.7741 16.4236C58.3301 16.9204 57.8853 17.5195 57.5218 18.1806C57.3453 18.4958 57.1583 18.8417 57.0028 19.0958C56.9608 19.2181 56.8988 19.2993 56.8569 19.4216C56.8254 19.5133 56.7634 19.5945 56.7319 19.6862C56.5756 20.0425 56.42 20.2966 56.2758 20.418C56.0751 21.2032 55.884 22.06 55.7131 22.9579C55.6276 23.4069 55.5421 23.8558 55.4768 24.3458C55.3913 24.7948 55.3058 25.2437 55.251 25.7032C54.9293 27.54 54.5455 29.4581 54.2044 31.1517C54.2414 31.6426 54.0697 32.6427 53.9713 33.4288L53.6271 34.2332C53.5593 35.0298 53.6341 35.9095 53.3826 36.6431C53.352 36.6326 53.3625 36.6021 53.3424 36.561C53.2335 37.3777 52.982 38.1113 53.0576 38.8888C52.8972 39.7561 52.6448 40.592 52.5039 40.3045C52.6465 40.3876 52.561 40.8365 52.4449 41.275C52.3716 41.4889 52.2982 41.7029 52.2354 41.8863C52.2249 41.9169 52.2144 41.9475 52.2144 41.9475C52.2144 41.9475 52.2039 41.978 52.183 42.0392C52.1725 42.0697 52.162 42.1003 52.1314 42.0898L52.1209 42.1204C52.1209 42.1204 52.1104 42.151 52.0903 42.1099C52.0702 42.0688 52.05 42.0278 52.0299 41.9867L52.0097 41.9456L51.9388 41.853L51.7664 41.6573C51.5433 41.41 51.3097 41.1932 51.0559 40.9354C50.8327 40.6881 50.5685 40.4609 50.3042 40.2337C50.1721 40.1201 50.04 40.0065 49.9078 39.8928C49.7757 39.7792 49.613 39.6551 49.4913 39.5109C48.5052 38.6947 47.478 37.8985 46.4193 37.1939C46.1446 36.9973 45.89 36.8417 45.6354 36.6861C45.3808 36.5305 45.0956 36.3644 44.841 36.2088C44.3012 35.8871 43.7816 35.6065 43.2724 35.2953C42.1823 34.6825 41.0922 34.0697 39.982 33.4159C40.0913 35.0931 40.1902 36.8008 40.2891 38.5086C40.3438 39.3472 40.4186 40.2268 40.4628 41.096C40.507 41.9652 40.5818 42.8448 40.6671 43.6939C40.7242 44.2259 40.7612 44.7168 40.8184 45.2488C40.8658 45.7092 40.9238 46.139 40.9713 46.5993C41.0767 47.4895 41.1717 48.4102 41.3182 49.2803C41.8318 52.8724 42.4686 56.4043 43.2409 59.641C44.775 66.145 46.7169 71.559 48.158 74.3417C48.4319 74.6406 48.8846 75.6156 48.929 75.1867C49.2504 75.9459 49.1037 76.3739 49.3075 76.4779C49.0603 75.4025 49.828 76.6564 49.6525 75.5714L49.9135 76.2074C50.0561 76.2905 49.4801 75.3756 49.725 75.4596L49.3778 75.3747C49.2594 74.8217 49.1901 74.5247 49.2329 74.3002C48.9501 73.8276 48.4707 73.6291 48.2453 72.3903L48.3758 72.7083C48.056 71.7447 48.3605 72.0541 48.3622 71.8497L48.4218 72.0751C48.3831 71.7885 48.3445 71.502 48.3059 71.2155C48.3928 71.8602 48.9583 72.8055 48.7577 72.2927C48.4807 71.1046 48.7859 72.6098 48.4653 71.7484C48.2752 71.205 48.4791 71.309 48.5814 71.3099L48.2923 70.3568C48.4357 70.3376 48.4815 71.0024 48.4953 70.563L47.983 69.3626C48.2618 69.0483 47.4304 68.0801 47.6199 67.4276C47.9404 68.289 47.723 67.3263 47.8552 67.44C47.6562 66.7227 47.4573 66.0055 47.2584 65.2882C47.26 65.0838 47.5202 65.8221 47.4203 65.5145C47.4034 65.0647 47.1593 64.8785 47.0997 64.6531C47.1425 64.4286 46.7035 63.0142 46.9388 63.0266C46.736 61.5223 46.4828 62.4603 46.3098 61.0688C46.4138 60.8653 46.5876 62.1547 46.603 61.5109L46.2358 60.0869C46.3373 60.19 46.5307 60.3246 46.6184 60.8671C46.4421 59.8843 46.3673 59.0047 46.2715 58.1862C46.2063 57.3781 46.1613 56.6112 46.1058 55.8748C46.0503 55.1384 46.0254 54.4125 45.9498 53.635C45.912 53.2463 45.8742 52.8576 45.8057 52.4583C45.7373 52.0591 45.6793 51.6293 45.5908 51.189C45.6666 50.6684 45.7519 51.5175 45.9331 51.8871C45.7745 51.252 45.6867 50.7095 45.6497 50.2186C45.6127 49.7276 45.5959 49.2778 45.6096 48.8384C45.6065 47.9492 45.6437 47.1421 45.5093 46.037L45.3763 46.0256C45.4014 45.4535 45.4063 44.8402 45.3701 44.2471C45.3508 44.1038 45.3621 43.9711 45.3533 43.7972L45.3646 43.6645C45.3549 43.5928 45.3863 43.5011 45.3767 43.4295C45.3791 43.1229 45.3615 42.7752 45.3333 42.4581C45.293 42.376 45.3744 42.4381 45.4356 42.4591C45.4969 42.4801 45.5476 42.5316 45.5984 42.5832C45.7104 42.6557 45.8119 42.7588 45.8932 42.8209C45.853 42.7388 45.8022 42.6872 45.7619 42.6051C45.8143 42.4522 46.0077 42.5868 46.1712 42.6087C46.1704 42.7109 46.0665 42.9144 46.2808 42.9879C46.2405 42.9058 46.1495 42.7721 46.201 42.7214C46.2719 42.8141 46.3122 42.8962 46.3831 42.9888C46.4032 43.0299 46.454 43.0814 46.4741 43.1225L46.5249 43.1741C46.5555 43.1846 46.545 43.2151 46.6264 43.2772C47.1444 43.7622 47.7027 44.3294 48.2812 44.9376C48.4536 45.1333 48.6566 45.3395 48.8596 45.5458C49.1231 45.8752 49.4171 46.2151 49.6805 46.5446C49.9544 46.8434 50.2275 47.2445 50.5006 47.6455C50.7842 48.016 51.0678 48.3865 51.3505 48.8592C52.4622 50.6067 53.7358 52.5805 54.8169 54.3175L54.9322 53.9813C54.9741 53.859 54.995 53.7979 55.0273 53.604C55.1015 53.2878 55.1345 52.9917 55.2087 52.6755C55.316 52.0632 55.4538 51.4614 55.5611 50.8491C55.8062 49.6351 56.0408 48.4515 56.265 47.2986C56.5431 45.7884 56.7907 44.2677 57.0794 42.727C57.2293 41.8902 57.3898 41.0229 57.5398 40.1861C57.8502 38.482 58.2018 36.7579 58.5227 35.0232C58.8436 33.2886 59.1846 31.595 59.4951 29.8909C59.6451 29.0541 59.8055 28.1868 59.9555 27.35C60.1055 26.5133 60.245 25.7071 60.3845 24.9009C60.2337 25.8398 59.9509 25.3671 60.1508 24.6841C60.6288 23.789 60.7989 22.9933 60.9891 22.2387C61.0843 21.8613 61.21 21.4945 61.3559 21.1688C61.3769 21.1076 61.3769 21.1076 61.3873 21.0771L61.4284 21.057C61.4695 21.0369 61.5001 21.0474 61.5614 21.0684C61.5928 20.9767 61.6138 20.9156 61.6653 20.8649C61.7064 20.8448 61.7169 20.8143 61.7475 20.8248C61.7782 20.8353 61.8297 20.7846 61.8088 20.8458C61.8587 20.9995 61.8474 21.1323 61.8877 21.2144L61.8973 21.286L61.9175 21.3271L61.9271 21.3987C61.9763 21.6547 62.0359 21.8801 62.0954 22.1055C62.1446 22.3614 62.2042 22.5868 62.2533 22.8428C62.3024 23.0988 62.3515 23.3547 62.4006 23.6107L62.2362 23.691C62.1709 24.181 62.303 24.2946 62.2989 24.8056L62.2683 24.7951C62.1973 26.0005 62.2462 27.5545 62.097 28.2891L62.2807 28.3521C62.2234 29.1181 62.1139 28.739 62.1178 29.526L62.026 29.4945L62.0445 29.74L62.0307 30.1793L62.0443 31.038C61.8912 30.9855 61.7702 32.0372 61.679 33.2015C61.654 33.7737 61.6079 34.407 61.5934 34.9485C61.5893 35.4595 61.565 35.9295 61.5215 36.2562C61.5593 36.6449 61.5552 37.1559 61.6228 37.6573C61.6598 38.1482 61.7169 38.6802 61.8152 39.1922C61.8723 39.7242 61.9915 40.1749 62.0591 40.6764C62.1783 41.1271 62.2564 41.598 62.3345 42.0689C62.3014 42.365 62.398 43.0813 62.5856 43.9313C62.7724 44.8835 63.0092 45.9895 63.1662 46.829L63.2056 47.0133L63.2354 47.126C63.2451 47.1976 63.2854 47.2798 63.3055 47.3208C63.3555 47.4746 63.4159 47.5978 63.4658 47.7515C63.5157 47.9053 63.5657 48.0591 63.6156 48.2128C63.6559 48.295 63.6655 48.3666 63.7058 48.4487C63.7356 48.5614 63.7856 48.7152 63.8154 48.8279C64.6383 47.0262 65.5547 45.0515 66.5025 42.9852C66.7419 42.4865 66.9812 41.9879 67.2005 41.4481L67.9081 39.9827C68.1475 39.484 68.3764 39.0159 68.6157 38.5172C68.8551 38.0186 69.084 37.5504 69.3024 37.1129L69.1606 36.9277L69.8263 35.5845C69.836 35.6561 69.9601 35.4937 69.8457 35.7278C70.1865 35.3322 70.5718 34.5078 70.9772 33.7244C71.0812 33.5209 71.1747 33.348 71.2786 33.1445C71.3721 32.9716 71.4551 32.8293 71.5486 32.6563C71.6421 32.4834 71.7356 32.3105 71.8387 32.2092C71.6639 32.3201 71.5913 32.4319 71.5389 32.5847C71.5285 32.6153 71.518 32.6458 71.5075 32.6764L71.4866 32.7375C71.4761 32.7681 71.4656 32.7987 71.4446 32.8598C71.3616 33.0022 71.3092 33.155 71.1747 33.348C70.833 33.8458 70.7822 33.7942 70.8975 33.4579C70.9499 33.3051 71.0643 33.0711 71.2303 32.7864C71.2513 32.7252 71.3029 32.6746 71.3238 32.6134C71.3343 32.5829 71.3859 32.5322 71.3963 32.5017C71.4584 32.4205 71.5205 32.3392 71.5825 32.258L71.6026 32.2991L71.7913 31.7489C71.9548 31.7708 72.2957 31.3752 72.4593 31.3971C72.7808 30.8583 73.0508 30.3701 73.3208 29.8819C73.5908 29.3938 73.8398 28.9667 74.13 28.5196C74.3895 28.062 74.6997 27.656 75.0003 27.1783C75.3009 26.7006 75.6523 26.2745 76.0858 25.8082C76.0641 25.9715 76.3534 25.6266 76.6121 25.2712C76.8909 24.9569 77.1794 24.7142 77.1262 24.9692C78.0465 23.7816 76.7781 24.9865 77.0392 24.3245C77.3181 24.0102 77.5566 23.6137 77.6791 23.6557C77.6162 23.8391 78.0586 23.5466 77.8313 23.8103L78.5228 23.0909C78.605 23.0507 78.4809 23.2131 78.4083 23.3249C78.5735 23.1424 78.7387 22.9599 78.9039 22.7774C79.0691 22.5949 79.2239 22.443 79.4092 22.3016C79.7493 22.0082 80.1095 21.7559 80.439 21.4932C80.7686 21.2304 81.149 21.0191 81.4987 20.7974C81.6735 20.6866 81.8589 20.5451 82.0031 20.4238L82.0547 20.3731L82.0652 20.3426L82.0861 20.2814C82.0563 20.1687 81.9838 20.2805 81.9435 20.1984C82.0475 19.9949 82.1498 19.9958 82.2006 20.0474C82.2618 20.0684 82.261 20.1706 82.4262 19.9881C82.3642 20.0693 82.3327 20.161 82.3013 20.2527C82.3633 20.1715 82.4052 20.0492 82.4568 19.9986C82.5084 19.9479 82.4979 19.9785 82.4874 20.0091C82.477 20.0396 82.4971 20.0807 82.4657 20.1724C82.3826 20.3148 82.3416 20.3348 82.3109 20.3243L82.2698 20.3444C82.2698 20.3444 82.2183 20.395 82.2078 20.4256C82.2183 20.395 82.2996 20.4571 82.4342 20.2641C82.5156 20.3262 82.3609 20.4781 82.3093 20.5287C82.3504 20.5087 82.4229 20.3969 82.5253 20.3978C82.5043 20.4589 82.4938 20.4895 82.4729 20.5506C82.4624 20.5812 82.4624 20.5812 82.4519 20.6118L82.4414 20.6423C82.4309 20.6729 82.4414 20.6423 82.4406 20.7445C82.3849 21.3062 82.2366 21.9385 82.0891 22.4687C82.0585 22.4582 81.9763 22.4984 81.9771 22.3962C82.0616 23.3475 81.6845 23.1499 81.296 24.3831Z" fill="#1E1F1F"/>
<path d="M88.0147 48.101C88.0783 47.8154 88.1316 47.5604 88.2565 47.2958C88.2154 47.3158 88.1646 47.2643 88.2598 46.887L88.1114 47.5193C88.0485 47.7027 88.0163 47.8966 88.0147 48.101Z" fill="#1E1F1F"/>
<path d="M97.3984 29.011C97.3468 29.0616 97.3363 29.0922 97.2848 29.1428C97.3363 29.0922 97.3879 29.0415 97.3984 29.011Z" fill="#1E1F1F"/>
<path d="M95.0995 31.1266C95.4089 30.8227 95.0697 31.0139 94.8948 31.1247C94.915 31.1658 94.9351 31.2069 95.0995 31.1266Z" fill="#1E1F1F"/>
<path d="M98.0124 48.1803C97.9504 48.2615 97.8988 48.3122 97.96 48.3332C98.0326 48.2214 98.043 48.1908 98.0124 48.1803Z" fill="#1E1F1F"/>
<path d="M90.971 69.9182C91.0121 69.8981 91.0331 69.837 91.0847 69.7864C91.0436 69.8064 91.0226 69.8676 90.971 69.9182Z" fill="#1E1F1F"/>
<path d="M92.3365 68.1316C92.3985 68.0504 92.4509 67.8975 92.5444 67.7246C92.4509 67.8975 92.3679 68.0399 92.3365 68.1316Z" fill="#1E1F1F"/>
<path d="M88.3868 54.0019C88.3473 53.8175 88.3079 53.6332 88.2781 53.5205C88.3167 53.807 88.3771 53.9302 88.3868 54.0019Z" fill="#1E1F1F"/>
<path d="M92.7215 67.3071L93.0221 66.8294C93.0221 66.8294 92.9915 66.8189 93.002 66.7883L92.7215 67.3071Z" fill="#1E1F1F"/>
<path d="M90.5981 70.5077C90.702 70.3042 90.8576 70.0501 90.9712 69.9182C90.7955 70.1313 90.6916 70.3348 90.5981 70.5077Z" fill="#1E1F1F"/>
<path d="M103.62 48.1899C103.631 48.1593 103.631 48.1593 103.641 48.1287C103.675 47.7304 103.653 47.996 103.62 48.1899Z" fill="#1E1F1F"/>
<path d="M93.671 65.0365C93.6815 65.0059 93.6815 65.0059 93.7226 64.9858L93.7444 64.8225L93.671 65.0365Z" fill="#1E1F1F"/>
<path d="M89.3431 72.5712C89.3746 72.4795 89.4366 72.3983 89.4681 72.3066C89.406 72.3878 89.3746 72.4795 89.2819 72.5503C89.3125 72.5608 89.3125 72.5608 89.3431 72.5712Z" fill="#1E1F1F"/>
<path d="M99.5109 55.2871C99.4891 55.4505 99.4988 55.5221 99.5189 55.5632C99.6124 55.3903 99.6543 55.268 99.5109 55.2871Z" fill="#1E1F1F"/>
</g>
<defs>
<clipPath id="clip0">
<rect width="71.69" height="143.38" fill="white" transform="translate(46.8501 0.205078) rotate(18.9215)"/>
</clipPath>
</defs>
</svg>
