<svg width="16" height="16" viewBox="0 0 16 16" fill="none" xmlns="http://www.w3.org/2000/svg">
<path d="M15.8999 7.49237C15.8365 7.32884 15.7413 7.17943 15.6198 7.05273L8.95039 0.391555C8.82602 0.26734 8.67837 0.168807 8.51587 0.101582C8.35338 0.0343565 8.17921 -0.000244141 8.00333 -0.000244141C7.64811 -0.000244141 7.30744 0.14069 7.05627 0.391555C6.9319 0.515771 6.83324 0.663236 6.76593 0.825532C6.69862 0.987828 6.66398 1.16177 6.66398 1.33744C6.66398 1.69222 6.80509 2.03246 7.05627 2.28333L11.4581 6.66638H1.33389C0.980119 6.66638 0.640839 6.80674 0.390687 7.05659C0.140534 7.30643 0 7.64529 0 7.99862C0 8.35195 0.140534 8.69081 0.390687 8.94065C0.640839 9.19049 0.980119 9.33085 1.33389 9.33085H11.4581L7.05627 13.7139C6.93124 13.8378 6.83201 13.9851 6.76429 14.1474C6.69657 14.3098 6.6617 14.4839 6.6617 14.6598C6.6617 14.8357 6.69657 15.0098 6.76429 15.1721C6.83201 15.3345 6.93124 15.4818 7.05627 15.6057C7.18027 15.7305 7.3278 15.8297 7.49034 15.8973C7.65289 15.9649 7.82724 15.9998 8.00333 15.9998C8.17941 15.9998 8.35376 15.9649 8.51631 15.8973C8.67885 15.8297 8.82638 15.7305 8.95039 15.6057L15.6198 8.94451C15.7413 8.81781 15.8365 8.6684 15.8999 8.50487C16.0334 8.18052 16.0334 7.81672 15.8999 7.49237Z" fill="white"/>
</svg>
