<svg width="28" height="28" viewBox="0 0 28 28" fill="none" xmlns="http://www.w3.org/2000/svg">
<path fill-rule="evenodd" clip-rule="evenodd" d="M3 0C1.34315 0 0 1.34315 0 3V25C0 26.6569 1.34315 28 3 28H25C26.6569 28 28 26.6569 28 25V3C28 1.34315 26.6569 0 25 0H3ZM4.52942 13.7167C4.52942 8.43776 8.67356 4.52942 14.021 4.52942C19.3688 4.52942 23.4706 8.43776 23.4706 13.7167C23.4706 20.4049 17.1257 24.1513 11.2719 22.5401C10.9952 22.4648 10.925 22.4962 9.84353 22.98C9.58608 23.0951 9.27133 23.2359 8.88283 23.407C8.7691 23.4567 8.64493 23.4778 8.52118 23.4684C8.39742 23.4591 8.27783 23.4196 8.17283 23.3535C8.06783 23.2873 7.98062 23.1964 7.9188 23.0888C7.85698 22.9812 7.82243 22.8601 7.81816 22.736C7.80831 22.4146 7.80242 22.146 7.79746 21.9199C7.7751 20.9009 7.77173 20.747 7.51074 20.5122C5.66398 18.864 4.52942 16.4779 4.52942 13.7167ZM16.9325 16.0131L19.7202 11.5995C19.9894 11.1764 19.4662 10.6982 19.0675 11.003L16.0732 13.2707C15.9741 13.3451 15.8535 13.3853 15.7295 13.3853C15.6056 13.3853 15.485 13.3451 15.3858 13.2707L13.1687 11.611C13.0112 11.4933 12.8311 11.4095 12.6397 11.3648C12.4483 11.32 12.2498 11.3153 12.0565 11.3509C11.8632 11.3865 11.6793 11.4617 11.5165 11.5717C11.3536 11.6817 11.2152 11.8242 11.1099 11.9902L8.32224 16.4038C8.05301 16.8265 8.57619 17.3051 8.97563 17.0022L11.9684 14.7322C12.0676 14.6578 12.1882 14.6176 12.3121 14.6176C12.436 14.6176 12.5566 14.6578 12.6558 14.7322L14.8737 16.3923C15.0312 16.5099 15.2113 16.5936 15.4027 16.6384C15.5941 16.6831 15.7926 16.6878 15.9859 16.6522C16.1792 16.6166 16.363 16.5414 16.5259 16.4315C16.6888 16.3215 16.8272 16.1791 16.9325 16.0131Z" fill="#D5D0BF"/>
</svg>
